<?xml version="1.0" encoding="utf-8" standalone="no"?>
<!DOCTYPE svg PUBLIC "-//W3C//DTD SVG 1.1//EN"
  "http://www.w3.org/Graphics/SVG/1.1/DTD/svg11.dtd">
<svg xmlns:xlink="http://www.w3.org/1999/xlink" width="568.8pt" height="568.8pt" viewBox="0 0 568.8 568.8" xmlns="http://www.w3.org/2000/svg" version="1.1">
 <metadata>
  <rdf:RDF xmlns:dc="http://purl.org/dc/elements/1.1/" xmlns:cc="http://creativecommons.org/ns#" xmlns:rdf="http://www.w3.org/1999/02/22-rdf-syntax-ns#">
   <cc:Work>
    <dc:type rdf:resource="http://purl.org/dc/dcmitype/StillImage"/>
    <dc:date>2025-07-17T15:27:05.550068</dc:date>
    <dc:format>image/svg+xml</dc:format>
    <dc:creator>
     <cc:Agent>
      <dc:title>Matplotlib v3.10.3, https://matplotlib.org/</dc:title>
     </cc:Agent>
    </dc:creator>
   </cc:Work>
  </rdf:RDF>
 </metadata>
 <defs>
  <style type="text/css">*{stroke-linejoin: round; stroke-linecap: butt}</style>
 </defs>
 <g id="figure_1">
  <g id="patch_1">
   <path d="M 0 568.8 
L 568.8 568.8 
L 568.8 0 
L 0 0 
z
" style="fill: #ffffff"/>
  </g>
  <g id="axes_1">
   <g id="patch_2">
    <path d="M 73.206925 503.734496 
L 557.487857 503.734496 
L 557.487857 13.588488 
L 73.206925 13.588488 
z
" style="fill: #ffffff"/>
   </g>
   <g id="PathCollection_1">
    <defs>
     <path id="C0_0_c0e17dfb17" d="M 0 3.535534 
C 0.937635 3.535534 1.836992 3.163008 2.5 2.5 
C 3.163008 1.836992 3.535534 0.937635 3.535534 -0 
C 3.535534 -0.937635 3.163008 -1.836992 2.5 -2.5 
C 1.836992 -3.163008 0.937635 -3.535534 0 -3.535534 
C -0.937635 -3.535534 -1.836992 -3.163008 -2.5 -2.5 
C -3.163008 -1.836992 -3.535534 -0.937635 -3.535534 0 
C -3.535534 0.937635 -3.163008 1.836992 -2.5 2.5 
C -1.836992 3.163008 -0.937635 3.535534 0 3.535534 
z
"/>
    </defs>
    <g clip-path="url(#p0b7617f1a7)">
     <use xlink:href="#C0_0_c0e17dfb17" x="82.786448" y="458.395406" style="fill: #4c72b0; stroke: #ffffff; stroke-width: 0.565685"/>
    </g>
    <g clip-path="url(#p0b7617f1a7)">
     <use xlink:href="#C0_0_c0e17dfb17" x="91.947551" y="349.797669" style="fill: #4c72b0; stroke: #ffffff; stroke-width: 0.565685"/>
    </g>
    <g clip-path="url(#p0b7617f1a7)">
     <use xlink:href="#C0_0_c0e17dfb17" x="110.168619" y="234.093706" style="fill: #4c72b0; stroke: #ffffff; stroke-width: 0.565685"/>
    </g>
    <g clip-path="url(#p0b7617f1a7)">
     <use xlink:href="#C0_0_c0e17dfb17" x="132.534817" y="268.952657" style="fill: #4c72b0; stroke: #ffffff; stroke-width: 0.565685"/>
    </g>
    <g clip-path="url(#p0b7617f1a7)">
     <use xlink:href="#C0_0_c0e17dfb17" x="149.265473" y="316.832378" style="fill: #4c72b0; stroke: #ffffff; stroke-width: 0.565685"/>
    </g>
    <g clip-path="url(#p0b7617f1a7)">
     <use xlink:href="#C0_0_c0e17dfb17" x="169.631785" y="322.550587" style="fill: #4c72b0; stroke: #ffffff; stroke-width: 0.565685"/>
    </g>
    <g clip-path="url(#p0b7617f1a7)">
     <use xlink:href="#C0_0_c0e17dfb17" x="191.879274" y="329.069137" style="fill: #4c72b0; stroke: #ffffff; stroke-width: 0.565685"/>
    </g>
    <g clip-path="url(#p0b7617f1a7)">
     <use xlink:href="#C0_0_c0e17dfb17" x="211.990058" y="328.559071" style="fill: #4c72b0; stroke: #ffffff; stroke-width: 0.565685"/>
    </g>
    <g clip-path="url(#p0b7617f1a7)">
     <use xlink:href="#C0_0_c0e17dfb17" x="230.272606" y="328.558389" style="fill: #4c72b0; stroke: #ffffff; stroke-width: 0.565685"/>
    </g>
    <g clip-path="url(#p0b7617f1a7)">
     <use xlink:href="#C0_0_c0e17dfb17" x="252.18012" y="331.757018" style="fill: #4c72b0; stroke: #ffffff; stroke-width: 0.565685"/>
    </g>
    <g clip-path="url(#p0b7617f1a7)">
     <use xlink:href="#C0_0_c0e17dfb17" x="271.992612" y="330.678782" style="fill: #4c72b0; stroke: #ffffff; stroke-width: 0.565685"/>
    </g>
    <g clip-path="url(#p0b7617f1a7)">
     <use xlink:href="#C0_0_c0e17dfb17" x="292.070267" y="331.90878" style="fill: #4c72b0; stroke: #ffffff; stroke-width: 0.565685"/>
    </g>
    <g clip-path="url(#p0b7617f1a7)">
     <use xlink:href="#C0_0_c0e17dfb17" x="312.18764" y="332.835261" style="fill: #4c72b0; stroke: #ffffff; stroke-width: 0.565685"/>
    </g>
    <g clip-path="url(#p0b7617f1a7)">
     <use xlink:href="#C0_0_c0e17dfb17" x="332.195533" y="331.885746" style="fill: #4c72b0; stroke: #ffffff; stroke-width: 0.565685"/>
    </g>
    <g clip-path="url(#p0b7617f1a7)">
     <use xlink:href="#C0_0_c0e17dfb17" x="354.517091" y="331.823174" style="fill: #4c72b0; stroke: #ffffff; stroke-width: 0.565685"/>
    </g>
    <g clip-path="url(#p0b7617f1a7)">
     <use xlink:href="#C0_0_c0e17dfb17" x="375.0453" y="331.584174" style="fill: #4c72b0; stroke: #ffffff; stroke-width: 0.565685"/>
    </g>
    <g clip-path="url(#p0b7617f1a7)">
     <use xlink:href="#C0_0_c0e17dfb17" x="392.578828" y="330.525001" style="fill: #4c72b0; stroke: #ffffff; stroke-width: 0.565685"/>
    </g>
    <g clip-path="url(#p0b7617f1a7)">
     <use xlink:href="#C0_0_c0e17dfb17" x="412.891391" y="331.818714" style="fill: #4c72b0; stroke: #ffffff; stroke-width: 0.565685"/>
    </g>
    <g clip-path="url(#p0b7617f1a7)">
     <use xlink:href="#C0_0_c0e17dfb17" x="436.365815" y="329.000646" style="fill: #4c72b0; stroke: #ffffff; stroke-width: 0.565685"/>
    </g>
    <g clip-path="url(#p0b7617f1a7)">
     <use xlink:href="#C0_0_c0e17dfb17" x="453.263915" y="329.530641" style="fill: #4c72b0; stroke: #ffffff; stroke-width: 0.565685"/>
    </g>
    <g clip-path="url(#p0b7617f1a7)">
     <use xlink:href="#C0_0_c0e17dfb17" x="473.483226" y="318.688398" style="fill: #4c72b0; stroke: #ffffff; stroke-width: 0.565685"/>
    </g>
    <g clip-path="url(#p0b7617f1a7)">
     <use xlink:href="#C0_0_c0e17dfb17" x="494.022372" y="283.845484" style="fill: #4c72b0; stroke: #ffffff; stroke-width: 0.565685"/>
    </g>
    <g clip-path="url(#p0b7617f1a7)">
     <use xlink:href="#C0_0_c0e17dfb17" x="516.09549" y="232.189169" style="fill: #4c72b0; stroke: #ffffff; stroke-width: 0.565685"/>
    </g>
    <g clip-path="url(#p0b7617f1a7)">
     <use xlink:href="#C0_0_c0e17dfb17" x="533.512618" y="311.464066" style="fill: #4c72b0; stroke: #ffffff; stroke-width: 0.565685"/>
    </g>
    <g clip-path="url(#p0b7617f1a7)">
     <use xlink:href="#C0_0_c0e17dfb17" x="547.63752" y="454.250957" style="fill: #4c72b0; stroke: #ffffff; stroke-width: 0.565685"/>
    </g>
    <g clip-path="url(#p0b7617f1a7)">
     <use xlink:href="#C0_0_c0e17dfb17" x="82.786448" y="385.857844" style="fill: #dd8452; stroke: #ffffff; stroke-width: 0.565685"/>
    </g>
    <g clip-path="url(#p0b7617f1a7)">
     <use xlink:href="#C0_0_c0e17dfb17" x="91.947551" y="240.570211" style="fill: #dd8452; stroke: #ffffff; stroke-width: 0.565685"/>
    </g>
    <g clip-path="url(#p0b7617f1a7)">
     <use xlink:href="#C0_0_c0e17dfb17" x="110.168619" y="292.069334" style="fill: #dd8452; stroke: #ffffff; stroke-width: 0.565685"/>
    </g>
    <g clip-path="url(#p0b7617f1a7)">
     <use xlink:href="#C0_0_c0e17dfb17" x="132.534817" y="325.168109" style="fill: #dd8452; stroke: #ffffff; stroke-width: 0.565685"/>
    </g>
    <g clip-path="url(#p0b7617f1a7)">
     <use xlink:href="#C0_0_c0e17dfb17" x="149.265473" y="333.272221" style="fill: #dd8452; stroke: #ffffff; stroke-width: 0.565685"/>
    </g>
    <g clip-path="url(#p0b7617f1a7)">
     <use xlink:href="#C0_0_c0e17dfb17" x="169.631785" y="322.488788" style="fill: #dd8452; stroke: #ffffff; stroke-width: 0.565685"/>
    </g>
    <g clip-path="url(#p0b7617f1a7)">
     <use xlink:href="#C0_0_c0e17dfb17" x="191.879274" y="329.026852" style="fill: #dd8452; stroke: #ffffff; stroke-width: 0.565685"/>
    </g>
    <g clip-path="url(#p0b7617f1a7)">
     <use xlink:href="#C0_0_c0e17dfb17" x="211.990058" y="330.572765" style="fill: #dd8452; stroke: #ffffff; stroke-width: 0.565685"/>
    </g>
    <g clip-path="url(#p0b7617f1a7)">
     <use xlink:href="#C0_0_c0e17dfb17" x="230.272606" y="327.016524" style="fill: #dd8452; stroke: #ffffff; stroke-width: 0.565685"/>
    </g>
    <g clip-path="url(#p0b7617f1a7)">
     <use xlink:href="#C0_0_c0e17dfb17" x="252.18012" y="328.517942" style="fill: #dd8452; stroke: #ffffff; stroke-width: 0.565685"/>
    </g>
    <g clip-path="url(#p0b7617f1a7)">
     <use xlink:href="#C0_0_c0e17dfb17" x="271.992612" y="330.314426" style="fill: #dd8452; stroke: #ffffff; stroke-width: 0.565685"/>
    </g>
    <g clip-path="url(#p0b7617f1a7)">
     <use xlink:href="#C0_0_c0e17dfb17" x="292.070267" y="331.886423" style="fill: #dd8452; stroke: #ffffff; stroke-width: 0.565685"/>
    </g>
    <g clip-path="url(#p0b7617f1a7)">
     <use xlink:href="#C0_0_c0e17dfb17" x="312.18764" y="333.174759" style="fill: #dd8452; stroke: #ffffff; stroke-width: 0.565685"/>
    </g>
    <g clip-path="url(#p0b7617f1a7)">
     <use xlink:href="#C0_0_c0e17dfb17" x="332.195533" y="329.99488" style="fill: #dd8452; stroke: #ffffff; stroke-width: 0.565685"/>
    </g>
    <g clip-path="url(#p0b7617f1a7)">
     <use xlink:href="#C0_0_c0e17dfb17" x="354.517091" y="330.083729" style="fill: #dd8452; stroke: #ffffff; stroke-width: 0.565685"/>
    </g>
    <g clip-path="url(#p0b7617f1a7)">
     <use xlink:href="#C0_0_c0e17dfb17" x="375.0453" y="330.018856" style="fill: #dd8452; stroke: #ffffff; stroke-width: 0.565685"/>
    </g>
    <g clip-path="url(#p0b7617f1a7)">
     <use xlink:href="#C0_0_c0e17dfb17" x="392.578828" y="328.908362" style="fill: #dd8452; stroke: #ffffff; stroke-width: 0.565685"/>
    </g>
    <g clip-path="url(#p0b7617f1a7)">
     <use xlink:href="#C0_0_c0e17dfb17" x="412.891391" y="333.245055" style="fill: #dd8452; stroke: #ffffff; stroke-width: 0.565685"/>
    </g>
    <g clip-path="url(#p0b7617f1a7)">
     <use xlink:href="#C0_0_c0e17dfb17" x="436.365815" y="329.406243" style="fill: #dd8452; stroke: #ffffff; stroke-width: 0.565685"/>
    </g>
    <g clip-path="url(#p0b7617f1a7)">
     <use xlink:href="#C0_0_c0e17dfb17" x="453.263915" y="335.120046" style="fill: #dd8452; stroke: #ffffff; stroke-width: 0.565685"/>
    </g>
    <g clip-path="url(#p0b7617f1a7)">
     <use xlink:href="#C0_0_c0e17dfb17" x="473.483226" y="332.703866" style="fill: #dd8452; stroke: #ffffff; stroke-width: 0.565685"/>
    </g>
    <g clip-path="url(#p0b7617f1a7)">
     <use xlink:href="#C0_0_c0e17dfb17" x="494.022372" y="327.790286" style="fill: #dd8452; stroke: #ffffff; stroke-width: 0.565685"/>
    </g>
    <g clip-path="url(#p0b7617f1a7)">
     <use xlink:href="#C0_0_c0e17dfb17" x="516.09549" y="307.070697" style="fill: #dd8452; stroke: #ffffff; stroke-width: 0.565685"/>
    </g>
    <g clip-path="url(#p0b7617f1a7)">
     <use xlink:href="#C0_0_c0e17dfb17" x="533.512618" y="230.426149" style="fill: #dd8452; stroke: #ffffff; stroke-width: 0.565685"/>
    </g>
    <g clip-path="url(#p0b7617f1a7)">
     <use xlink:href="#C0_0_c0e17dfb17" x="547.63752" y="377.25252" style="fill: #dd8452; stroke: #ffffff; stroke-width: 0.565685"/>
    </g>
    <g clip-path="url(#p0b7617f1a7)">
     <use xlink:href="#C0_0_c0e17dfb17" x="82.786448" y="333.027561" style="fill: #55a868; stroke: #ffffff; stroke-width: 0.565685"/>
    </g>
    <g clip-path="url(#p0b7617f1a7)">
     <use xlink:href="#C0_0_c0e17dfb17" x="91.947551" y="230.665211" style="fill: #55a868; stroke: #ffffff; stroke-width: 0.565685"/>
    </g>
    <g clip-path="url(#p0b7617f1a7)">
     <use xlink:href="#C0_0_c0e17dfb17" x="110.168619" y="317.09404" style="fill: #55a868; stroke: #ffffff; stroke-width: 0.565685"/>
    </g>
    <g clip-path="url(#p0b7617f1a7)">
     <use xlink:href="#C0_0_c0e17dfb17" x="132.534817" y="326.837843" style="fill: #55a868; stroke: #ffffff; stroke-width: 0.565685"/>
    </g>
    <g clip-path="url(#p0b7617f1a7)">
     <use xlink:href="#C0_0_c0e17dfb17" x="149.265473" y="329.18989" style="fill: #55a868; stroke: #ffffff; stroke-width: 0.565685"/>
    </g>
    <g clip-path="url(#p0b7617f1a7)">
     <use xlink:href="#C0_0_c0e17dfb17" x="169.631785" y="317.786224" style="fill: #55a868; stroke: #ffffff; stroke-width: 0.565685"/>
    </g>
    <g clip-path="url(#p0b7617f1a7)">
     <use xlink:href="#C0_0_c0e17dfb17" x="191.879274" y="325.469165" style="fill: #55a868; stroke: #ffffff; stroke-width: 0.565685"/>
    </g>
    <g clip-path="url(#p0b7617f1a7)">
     <use xlink:href="#C0_0_c0e17dfb17" x="211.990058" y="322.789239" style="fill: #55a868; stroke: #ffffff; stroke-width: 0.565685"/>
    </g>
    <g clip-path="url(#p0b7617f1a7)">
     <use xlink:href="#C0_0_c0e17dfb17" x="230.272606" y="320.634994" style="fill: #55a868; stroke: #ffffff; stroke-width: 0.565685"/>
    </g>
    <g clip-path="url(#p0b7617f1a7)">
     <use xlink:href="#C0_0_c0e17dfb17" x="252.18012" y="325.392356" style="fill: #55a868; stroke: #ffffff; stroke-width: 0.565685"/>
    </g>
    <g clip-path="url(#p0b7617f1a7)">
     <use xlink:href="#C0_0_c0e17dfb17" x="271.992612" y="327.038662" style="fill: #55a868; stroke: #ffffff; stroke-width: 0.565685"/>
    </g>
    <g clip-path="url(#p0b7617f1a7)">
     <use xlink:href="#C0_0_c0e17dfb17" x="292.070267" y="328.499816" style="fill: #55a868; stroke: #ffffff; stroke-width: 0.565685"/>
    </g>
    <g clip-path="url(#p0b7617f1a7)">
     <use xlink:href="#C0_0_c0e17dfb17" x="312.18764" y="331.775723" style="fill: #55a868; stroke: #ffffff; stroke-width: 0.565685"/>
    </g>
    <g clip-path="url(#p0b7617f1a7)">
     <use xlink:href="#C0_0_c0e17dfb17" x="332.195533" y="328.93381" style="fill: #55a868; stroke: #ffffff; stroke-width: 0.565685"/>
    </g>
    <g clip-path="url(#p0b7617f1a7)">
     <use xlink:href="#C0_0_c0e17dfb17" x="354.517091" y="326.175537" style="fill: #55a868; stroke: #ffffff; stroke-width: 0.565685"/>
    </g>
    <g clip-path="url(#p0b7617f1a7)">
     <use xlink:href="#C0_0_c0e17dfb17" x="375.0453" y="330.864766" style="fill: #55a868; stroke: #ffffff; stroke-width: 0.565685"/>
    </g>
    <g clip-path="url(#p0b7617f1a7)">
     <use xlink:href="#C0_0_c0e17dfb17" x="392.578828" y="326.832106" style="fill: #55a868; stroke: #ffffff; stroke-width: 0.565685"/>
    </g>
    <g clip-path="url(#p0b7617f1a7)">
     <use xlink:href="#C0_0_c0e17dfb17" x="412.891391" y="331.661637" style="fill: #55a868; stroke: #ffffff; stroke-width: 0.565685"/>
    </g>
    <g clip-path="url(#p0b7617f1a7)">
     <use xlink:href="#C0_0_c0e17dfb17" x="436.365815" y="327.609855" style="fill: #55a868; stroke: #ffffff; stroke-width: 0.565685"/>
    </g>
    <g clip-path="url(#p0b7617f1a7)">
     <use xlink:href="#C0_0_c0e17dfb17" x="453.263915" y="329.567276" style="fill: #55a868; stroke: #ffffff; stroke-width: 0.565685"/>
    </g>
    <g clip-path="url(#p0b7617f1a7)">
     <use xlink:href="#C0_0_c0e17dfb17" x="473.483226" y="331.278881" style="fill: #55a868; stroke: #ffffff; stroke-width: 0.565685"/>
    </g>
    <g clip-path="url(#p0b7617f1a7)">
     <use xlink:href="#C0_0_c0e17dfb17" x="494.022372" y="325.797886" style="fill: #55a868; stroke: #ffffff; stroke-width: 0.565685"/>
    </g>
    <g clip-path="url(#p0b7617f1a7)">
     <use xlink:href="#C0_0_c0e17dfb17" x="516.09549" y="321.211339" style="fill: #55a868; stroke: #ffffff; stroke-width: 0.565685"/>
    </g>
    <g clip-path="url(#p0b7617f1a7)">
     <use xlink:href="#C0_0_c0e17dfb17" x="533.512618" y="247.462632" style="fill: #55a868; stroke: #ffffff; stroke-width: 0.565685"/>
    </g>
    <g clip-path="url(#p0b7617f1a7)">
     <use xlink:href="#C0_0_c0e17dfb17" x="547.63752" y="322.813229" style="fill: #55a868; stroke: #ffffff; stroke-width: 0.565685"/>
    </g>
   </g>
   <g id="FillBetweenPolyCollection_1"/>
   <g id="FillBetweenPolyCollection_2"/>
   <g id="FillBetweenPolyCollection_3"/>
   <g id="matplotlib.axis_1">
    <g id="xtick_1">
     <g id="line2d_1">
      <defs>
       <path id="mafda2329e1" d="M 0 0 
L 0 3.5 
" style="stroke: #000000; stroke-width: 0.8"/>
      </defs>
      <g>
       <use xlink:href="#mafda2329e1" x="73.206925" y="503.734496" style="stroke: #000000; stroke-width: 0.8"/>
      </g>
     </g>
     <g id="text_1">
      <!-- $0$ -->
      <g transform="translate(69.094782 523.511472) scale(0.18 -0.18)">
       <defs>
        <path id="CMR17-30" d="M 2688 2025 
C 2688 2416 2682 3080 2413 3591 
C 2176 4039 1798 4198 1466 4198 
C 1158 4198 768 4058 525 3597 
C 269 3118 243 2524 243 2025 
C 243 1661 250 1106 448 619 
C 723 -39 1216 -128 1466 -128 
C 1760 -128 2208 -7 2470 600 
C 2662 1042 2688 1559 2688 2025 
z
M 1466 -26 
C 1056 -26 813 325 723 812 
C 653 1188 653 1738 653 2096 
C 653 2588 653 2997 736 3387 
C 858 3929 1216 4096 1466 4096 
C 1728 4096 2067 3923 2189 3400 
C 2272 3036 2278 2607 2278 2096 
C 2278 1680 2278 1169 2202 792 
C 2067 95 1690 -26 1466 -26 
z
" transform="scale(0.015625)"/>
       </defs>
       <use xlink:href="#CMR17-30" transform="scale(0.996264)"/>
      </g>
     </g>
    </g>
    <g id="xtick_2">
     <g id="line2d_2">
      <g>
       <use xlink:href="#mafda2329e1" x="194.277158" y="503.734496" style="stroke: #000000; stroke-width: 0.8"/>
      </g>
     </g>
     <g id="text_2">
      <!-- $1/4$ -->
      <g transform="translate(181.66313 524.18406) scale(0.18 -0.18)">
       <defs>
        <path id="CMR17-31" d="M 1702 4058 
C 1702 4192 1696 4192 1606 4192 
C 1357 3916 979 3827 621 3827 
C 602 3827 570 3827 563 3808 
C 557 3795 557 3782 557 3648 
C 755 3648 1088 3686 1344 3839 
L 1344 461 
C 1344 236 1331 160 781 160 
L 589 160 
L 589 0 
C 896 0 1216 0 1523 0 
C 1830 0 2150 0 2458 0 
L 2458 160 
L 2266 160 
C 1715 160 1702 230 1702 458 
L 1702 4058 
z
" transform="scale(0.015625)"/>
        <path id="CMMI12-3d" d="M 2746 4562 
C 2746 4569 2784 4666 2784 4678 
C 2784 4755 2720 4800 2669 4800 
C 2637 4800 2579 4800 2528 4659 
L 384 -1363 
C 384 -1370 346 -1465 346 -1478 
C 346 -1555 410 -1600 461 -1600 
C 499 -1600 557 -1593 602 -1459 
L 2746 4562 
z
" transform="scale(0.015625)"/>
        <path id="CMR17-34" d="M 2150 4122 
C 2150 4256 2144 4256 2029 4256 
L 128 1254 
L 128 1088 
L 1779 1088 
L 1779 457 
C 1779 224 1766 160 1318 160 
L 1197 160 
L 1197 0 
C 1402 0 1747 0 1965 0 
C 2182 0 2528 0 2733 0 
L 2733 160 
L 2611 160 
C 2163 160 2150 224 2150 457 
L 2150 1088 
L 2803 1088 
L 2803 1254 
L 2150 1254 
L 2150 4122 
z
M 1798 3703 
L 1798 1254 
L 256 1254 
L 1798 3703 
z
" transform="scale(0.015625)"/>
       </defs>
       <use xlink:href="#CMR17-31" transform="scale(0.996264)"/>
       <use xlink:href="#CMMI12-3d" transform="translate(45.690477 0) scale(0.996264)"/>
       <use xlink:href="#CMR17-34" transform="translate(94.465396 0) scale(0.996264)"/>
      </g>
     </g>
    </g>
    <g id="xtick_3">
     <g id="line2d_3">
      <g>
       <use xlink:href="#mafda2329e1" x="315.347391" y="503.734496" style="stroke: #000000; stroke-width: 0.8"/>
      </g>
     </g>
     <g id="text_3">
      <!-- $1/2$ -->
      <g transform="translate(302.733363 524.18406) scale(0.18 -0.18)">
       <defs>
        <path id="CMR17-32" d="M 2669 989 
L 2554 989 
C 2490 536 2438 459 2413 420 
C 2381 369 1920 369 1830 369 
L 602 369 
C 832 619 1280 1072 1824 1597 
C 2214 1967 2669 2402 2669 3035 
C 2669 3790 2067 4224 1395 4224 
C 691 4224 262 3604 262 3030 
C 262 2780 448 2748 525 2748 
C 589 2748 781 2787 781 3010 
C 781 3207 614 3264 525 3264 
C 486 3264 448 3258 422 3245 
C 544 3790 915 4058 1306 4058 
C 1862 4058 2227 3617 2227 3035 
C 2227 2479 1901 2000 1536 1584 
L 262 146 
L 262 0 
L 2515 0 
L 2669 989 
z
" transform="scale(0.015625)"/>
       </defs>
       <use xlink:href="#CMR17-31" transform="scale(0.996264)"/>
       <use xlink:href="#CMMI12-3d" transform="translate(45.690477 0) scale(0.996264)"/>
       <use xlink:href="#CMR17-32" transform="translate(94.465396 0) scale(0.996264)"/>
      </g>
     </g>
    </g>
    <g id="xtick_4">
     <g id="line2d_4">
      <g>
       <use xlink:href="#mafda2329e1" x="436.417624" y="503.734496" style="stroke: #000000; stroke-width: 0.8"/>
      </g>
     </g>
     <g id="text_4">
      <!-- $3/4$ -->
      <g transform="translate(423.803596 524.18406) scale(0.18 -0.18)">
       <defs>
        <path id="CMR17-33" d="M 1414 2157 
C 1984 2157 2234 1662 2234 1090 
C 2234 320 1824 25 1453 25 
C 1114 25 563 194 390 693 
C 422 680 454 680 486 680 
C 640 680 755 782 755 948 
C 755 1133 614 1216 486 1216 
C 378 1216 211 1165 211 926 
C 211 335 787 -128 1466 -128 
C 2176 -128 2720 430 2720 1085 
C 2720 1707 2208 2157 1600 2227 
C 2086 2328 2554 2756 2554 3329 
C 2554 3820 2048 4179 1472 4179 
C 890 4179 378 3829 378 3329 
C 378 3110 544 3072 627 3072 
C 762 3072 877 3155 877 3321 
C 877 3486 762 3569 627 3569 
C 602 3569 570 3569 544 3557 
C 730 3959 1235 4032 1459 4032 
C 1683 4032 2106 3925 2106 3320 
C 2106 3143 2080 2828 1862 2550 
C 1670 2304 1453 2304 1242 2284 
C 1210 2284 1062 2269 1037 2269 
C 992 2263 966 2257 966 2208 
C 966 2163 973 2157 1101 2157 
L 1414 2157 
z
" transform="scale(0.015625)"/>
       </defs>
       <use xlink:href="#CMR17-33" transform="scale(0.996264)"/>
       <use xlink:href="#CMMI12-3d" transform="translate(45.690477 0) scale(0.996264)"/>
       <use xlink:href="#CMR17-34" transform="translate(94.465396 0) scale(0.996264)"/>
      </g>
     </g>
    </g>
    <g id="xtick_5">
     <g id="line2d_5">
      <g>
       <use xlink:href="#mafda2329e1" x="557.487857" y="503.734496" style="stroke: #000000; stroke-width: 0.8"/>
      </g>
     </g>
     <g id="text_5">
      <!-- $1$ -->
      <g transform="translate(553.375714 523.511472) scale(0.18 -0.18)">
       <use xlink:href="#CMR17-31" transform="scale(0.996264)"/>
      </g>
     </g>
    </g>
    <g id="text_6">
     <!-- $\theta / \pi$ -->
     <g transform="translate(301.642156 557.116812) scale(0.18 -0.18)">
      <defs>
       <path id="CMMI12-12" d="M 2835 3200 
C 2835 3850 2630 4480 2106 4480 
C 1210 4480 256 2615 256 1216 
C 256 923 320 -64 992 -64 
C 1862 -64 2835 1756 2835 3200 
z
M 896 2304 
C 992 2679 1126 3214 1382 3665 
C 1594 4047 1818 4352 2099 4352 
C 2310 4352 2451 4174 2451 3564 
C 2451 3334 2432 3017 2246 2304 
L 896 2304 
z
M 2202 2113 
C 2042 1490 1907 1088 1677 687 
C 1491 363 1267 64 998 64 
C 800 64 640 217 640 846 
C 640 1260 742 1693 845 2113 
L 2202 2113 
z
" transform="scale(0.015625)"/>
       <path id="CMMI12-19" d="M 1658 2408 
L 2381 2408 
C 2208 1692 2099 1226 2099 716 
C 2099 626 2099 -64 2362 -64 
C 2496 -64 2611 57 2611 166 
C 2611 197 2611 210 2566 306 
C 2394 747 2394 1296 2394 1341 
C 2394 1379 2394 1832 2528 2408 
L 3245 2408 
C 3328 2408 3539 2408 3539 2612 
C 3539 2752 3418 2752 3302 2752 
L 1197 2752 
C 1050 2752 832 2752 538 2440 
C 371 2254 166 1916 166 1878 
C 166 1840 198 1827 237 1827 
C 282 1827 288 1846 320 1884 
C 653 2408 986 2408 1146 2408 
L 1510 2408 
C 1370 1929 1210 1373 685 256 
C 634 154 634 140 634 102 
C 634 -32 749 -64 806 -64 
C 992 -64 1043 102 1120 370 
C 1222 696 1222 709 1286 964 
L 1658 2408 
z
" transform="scale(0.015625)"/>
      </defs>
      <use xlink:href="#CMMI12-12" transform="scale(0.996264)"/>
      <use xlink:href="#CMMI12-3d" transform="translate(48.169508 0) scale(0.996264)"/>
      <use xlink:href="#CMMI12-19" transform="translate(96.944427 0) scale(0.996264)"/>
     </g>
    </g>
   </g>
   <g id="matplotlib.axis_2">
    <g id="ytick_1">
     <g id="line2d_6">
      <defs>
       <path id="m078dce33fc" d="M 0 0 
L -3.5 0 
" style="stroke: #000000; stroke-width: 0.8"/>
      </defs>
      <g>
       <use xlink:href="#m078dce33fc" x="73.206925" y="503.734496" style="stroke: #000000; stroke-width: 0.8"/>
      </g>
     </g>
     <g id="text_7">
      <!-- $0.0$ -->
      <g transform="translate(44.880862 510.122984) scale(0.18 -0.18)">
       <defs>
        <path id="CMMI12-3a" d="M 1178 307 
C 1178 492 1024 619 870 619 
C 685 619 557 466 557 313 
C 557 128 710 0 864 0 
C 1050 0 1178 153 1178 307 
z
" transform="scale(0.015625)"/>
       </defs>
       <use xlink:href="#CMR17-30" transform="scale(0.996264)"/>
       <use xlink:href="#CMMI12-3a" transform="translate(45.690477 0) scale(0.996264)"/>
       <use xlink:href="#CMR17-30" transform="translate(72.787654 0) scale(0.996264)"/>
      </g>
     </g>
    </g>
    <g id="ytick_2">
     <g id="line2d_7">
      <g>
       <use xlink:href="#m078dce33fc" x="73.206925" y="422.043494" style="stroke: #000000; stroke-width: 0.8"/>
      </g>
     </g>
     <g id="text_8">
      <!-- $0.5$ -->
      <g transform="translate(44.880862 428.431983) scale(0.18 -0.18)">
       <defs>
        <path id="CMR17-35" d="M 730 3692 
C 794 3666 1056 3584 1325 3584 
C 1920 3584 2246 3911 2432 4100 
C 2432 4157 2432 4192 2394 4192 
C 2387 4192 2374 4192 2323 4163 
C 2099 4058 1837 3973 1517 3973 
C 1325 3973 1037 3999 723 4139 
C 653 4171 640 4171 634 4171 
C 602 4171 595 4164 595 4037 
L 595 2203 
C 595 2089 595 2057 659 2057 
C 691 2057 704 2070 736 2114 
C 941 2401 1222 2522 1542 2522 
C 1766 2522 2246 2382 2246 1289 
C 2246 1085 2246 715 2054 421 
C 1894 159 1645 25 1370 25 
C 947 25 518 320 403 814 
C 429 807 480 795 506 795 
C 589 795 749 840 749 1038 
C 749 1210 627 1280 506 1280 
C 358 1280 262 1190 262 1011 
C 262 454 704 -128 1382 -128 
C 2042 -128 2669 440 2669 1264 
C 2669 2030 2170 2624 1549 2624 
C 1222 2624 947 2503 730 2274 
L 730 3692 
z
" transform="scale(0.015625)"/>
       </defs>
       <use xlink:href="#CMR17-30" transform="scale(0.996264)"/>
       <use xlink:href="#CMMI12-3a" transform="translate(45.690477 0) scale(0.996264)"/>
       <use xlink:href="#CMR17-35" transform="translate(72.787654 0) scale(0.996264)"/>
      </g>
     </g>
    </g>
    <g id="ytick_3">
     <g id="line2d_8">
      <g>
       <use xlink:href="#m078dce33fc" x="73.206925" y="340.352493" style="stroke: #000000; stroke-width: 0.8"/>
      </g>
     </g>
     <g id="text_9">
      <!-- $1.0$ -->
      <g transform="translate(44.880862 346.740981) scale(0.18 -0.18)">
       <use xlink:href="#CMR17-31" transform="scale(0.996264)"/>
       <use xlink:href="#CMMI12-3a" transform="translate(45.690477 0) scale(0.996264)"/>
       <use xlink:href="#CMR17-30" transform="translate(72.787654 0) scale(0.996264)"/>
      </g>
     </g>
    </g>
    <g id="ytick_4">
     <g id="line2d_9">
      <g>
       <use xlink:href="#m078dce33fc" x="73.206925" y="258.661492" style="stroke: #000000; stroke-width: 0.8"/>
      </g>
     </g>
     <g id="text_10">
      <!-- $1.5$ -->
      <g transform="translate(44.880862 265.04998) scale(0.18 -0.18)">
       <use xlink:href="#CMR17-31" transform="scale(0.996264)"/>
       <use xlink:href="#CMMI12-3a" transform="translate(45.690477 0) scale(0.996264)"/>
       <use xlink:href="#CMR17-35" transform="translate(72.787654 0) scale(0.996264)"/>
      </g>
     </g>
    </g>
    <g id="ytick_5">
     <g id="line2d_10">
      <g>
       <use xlink:href="#m078dce33fc" x="73.206925" y="176.970491" style="stroke: #000000; stroke-width: 0.8"/>
      </g>
     </g>
     <g id="text_11">
      <!-- $2.0$ -->
      <g transform="translate(44.880862 183.358979) scale(0.18 -0.18)">
       <use xlink:href="#CMR17-32" transform="scale(0.996264)"/>
       <use xlink:href="#CMMI12-3a" transform="translate(45.690477 0) scale(0.996264)"/>
       <use xlink:href="#CMR17-30" transform="translate(72.787654 0) scale(0.996264)"/>
      </g>
     </g>
    </g>
    <g id="ytick_6">
     <g id="line2d_11">
      <g>
       <use xlink:href="#m078dce33fc" x="73.206925" y="95.279489" style="stroke: #000000; stroke-width: 0.8"/>
      </g>
     </g>
     <g id="text_12">
      <!-- $2.5$ -->
      <g transform="translate(44.880862 101.667978) scale(0.18 -0.18)">
       <use xlink:href="#CMR17-32" transform="scale(0.996264)"/>
       <use xlink:href="#CMMI12-3a" transform="translate(45.690477 0) scale(0.996264)"/>
       <use xlink:href="#CMR17-35" transform="translate(72.787654 0) scale(0.996264)"/>
      </g>
     </g>
    </g>
    <g id="ytick_7">
     <g id="line2d_12">
      <g>
       <use xlink:href="#m078dce33fc" x="73.206925" y="13.588488" style="stroke: #000000; stroke-width: 0.8"/>
      </g>
     </g>
     <g id="text_13">
      <!-- $3.0$ -->
      <g transform="translate(44.880862 19.976976) scale(0.18 -0.18)">
       <use xlink:href="#CMR17-33" transform="scale(0.996264)"/>
       <use xlink:href="#CMMI12-3a" transform="translate(45.690477 0) scale(0.996264)"/>
       <use xlink:href="#CMR17-30" transform="translate(72.787654 0) scale(0.996264)"/>
      </g>
     </g>
    </g>
    <g id="text_14">
     <!-- $\frac{1}{NF}\; \mathrm{Var} (\tilde{\theta})$ -->
     <g transform="translate(23.696913 295.645673) rotate(-90) scale(0.18 -0.18)">
      <defs>
       <path id="CMMI12-4e" d="M 4736 3698 
C 4806 3974 4909 4166 5395 4166 
C 5414 4166 5491 4166 5491 4279 
C 5491 4352 5434 4352 5408 4352 
C 5280 4352 4954 4352 4826 4352 
L 4518 4352 
C 4429 4352 4314 4352 4224 4352 
C 4186 4352 4109 4352 4109 4230 
C 4109 4166 4160 4166 4205 4166 
C 4589 4166 4614 4019 4614 3903 
C 4614 3846 4608 3826 4589 3737 
L 3866 850 
L 2496 4249 
C 2451 4352 2445 4352 2304 4352 
L 1523 4352 
C 1395 4352 1338 4352 1338 4230 
C 1338 4166 1382 4166 1504 4166 
C 1536 4166 1914 4166 1914 4115 
C 1914 4102 1901 4051 1894 4032 
L 1043 635 
C 966 320 813 186 390 186 
C 358 186 294 186 294 67 
C 294 0 358 0 378 0 
C 506 0 832 0 960 0 
L 1267 0 
C 1357 0 1466 0 1555 0 
C 1600 0 1670 0 1670 122 
C 1670 180 1606 186 1581 186 
C 1370 186 1165 224 1165 454 
C 1165 505 1178 562 1190 613 
L 2054 4032 
C 2093 3968 2093 3956 2118 3898 
L 3642 115 
C 3674 38 3686 0 3744 0 
C 3808 0 3814 19 3840 128 
L 4736 3698 
z
" transform="scale(0.015625)"/>
       <path id="CMMI12-46" d="M 1901 2055 
L 2515 2055 
C 3002 2055 3040 1946 3040 1761 
C 3040 1678 3027 1589 2995 1448 
C 2982 1423 2976 1391 2976 1378 
C 2976 1333 3002 1308 3046 1308 
C 3098 1308 3104 1333 3130 1435 
L 3501 2935 
C 3501 2961 3482 2999 3437 2999 
C 3379 2999 3373 2974 3347 2863 
C 3213 2376 3085 2240 2528 2240 
L 1946 2240 
L 2362 3926 
C 2419 4154 2432 4154 2694 4154 
L 3552 4154 
C 4352 4154 4467 3918 4467 3464 
C 4467 3426 4467 3285 4448 3119 
C 4442 3094 4429 3011 4429 2985 
C 4429 2934 4461 2915 4499 2915 
C 4544 2915 4570 2941 4582 3055 
L 4717 4174 
C 4717 4195 4730 4263 4730 4277 
C 4730 4352 4672 4352 4557 4352 
L 1523 4352 
C 1402 4352 1338 4352 1338 4229 
C 1338 4154 1382 4154 1491 4154 
C 1888 4154 1888 4113 1888 4050 
C 1888 4018 1882 3992 1862 3922 
L 998 473 
C 941 249 928 185 480 185 
C 358 185 294 185 294 70 
C 294 0 352 0 390 0 
C 512 0 640 0 762 0 
L 1594 0 
C 1734 0 1888 0 2029 0 
C 2086 0 2163 0 2163 115 
C 2163 185 2125 185 1984 185 
C 1478 185 1466 229 1466 324 
C 1466 356 1478 406 1491 449 
L 1901 2055 
z
" transform="scale(0.015625)"/>
       <path id="CMR17-56" d="M 3776 3745 
C 3834 3886 3936 4160 4365 4160 
L 4365 4332 
C 4218 4319 4051 4319 3891 4319 
C 3738 4319 3475 4319 3328 4332 
L 3328 4160 
C 3648 4160 3661 3936 3661 3898 
C 3661 3827 3642 3783 3622 3732 
L 2362 446 
L 1043 3886 
C 1024 3931 1011 3963 1011 3994 
C 1011 4160 1267 4160 1402 4160 
L 1402 4319 
C 1197 4319 896 4319 685 4319 
C 518 4319 218 4319 64 4332 
L 64 4160 
C 435 4160 506 4135 582 3931 
L 2106 -26 
C 2138 -115 2144 -128 2214 -128 
C 2285 -128 2291 -115 2323 -26 
L 3776 3745 
z
" transform="scale(0.015625)"/>
       <path id="CMR17-61" d="M 2304 1653 
C 2304 2072 2304 2294 2035 2543 
C 1798 2752 1523 2816 1306 2816 
C 800 2816 435 2407 435 1971 
C 435 1728 627 1728 666 1728 
C 749 1728 896 1778 896 1954 
C 896 2112 774 2181 666 2181 
C 640 2181 608 2174 589 2168 
C 723 2592 1069 2714 1293 2714 
C 1613 2714 1965 2429 1965 1885 
L 1965 1600 
C 1587 1600 1133 1549 774 1357 
C 371 1133 256 813 256 570 
C 256 77 832 -64 1171 -64 
C 1523 -64 1850 139 1990 511 
C 2003 233 2182 -18 2464 -18 
C 2598 -18 2938 70 2938 567 
L 2938 920 
L 2822 920 
L 2822 562 
C 2822 178 2650 128 2566 128 
C 2304 128 2304 458 2304 738 
L 2304 1653 
z
M 1965 870 
C 1965 317 1568 38 1216 38 
C 896 38 646 275 646 570 
C 646 761 730 1100 1101 1305 
C 1408 1478 1760 1504 1965 1504 
L 1965 870 
z
" transform="scale(0.015625)"/>
       <path id="CMR17-72" d="M 960 1497 
C 960 2112 1222 2688 1702 2688 
C 1747 2688 1792 2682 1837 2662 
C 1837 2662 1696 2617 1696 2452 
C 1696 2298 1818 2234 1914 2234 
C 1990 2234 2131 2279 2131 2458 
C 2131 2663 1926 2790 1709 2790 
C 1222 2790 1011 2317 947 2093 
L 941 2093 
L 941 2790 
L 198 2720 
L 198 2554 
C 576 2554 634 2515 634 2208 
L 634 428 
C 634 184 608 153 198 153 
L 198 -13 
C 352 0 646 0 813 0 
C 998 0 1325 0 1498 -13 
L 1498 153 
C 1037 153 960 153 960 440 
L 960 1497 
z
" transform="scale(0.015625)"/>
       <path id="CMR17-28" d="M 1958 -1561 
C 1958 -1555 1958 -1542 1939 -1523 
C 1645 -1224 858 -407 858 1581 
C 858 3569 1632 4379 1946 4697 
C 1946 4704 1958 4717 1958 4736 
C 1958 4755 1939 4768 1914 4768 
C 1843 4768 1299 4296 986 3594 
C 666 2887 576 2199 576 1588 
C 576 1128 621 351 1005 -471 
C 1312 -1135 1837 -1600 1914 -1600 
C 1946 -1600 1958 -1587 1958 -1561 
z
" transform="scale(0.015625)"/>
       <path id="CMR17-7e" d="M 2400 4184 
C 2182 3980 2061 3865 1862 3865 
C 1722 3865 1626 3932 1491 4024 
C 1363 4111 1261 4184 1120 4184 
C 890 4184 730 4004 461 3718 
L 531 3648 
C 749 3850 870 3968 1069 3968 
C 1210 3968 1306 3900 1440 3808 
C 1568 3722 1670 3648 1811 3648 
C 2042 3648 2202 3828 2470 4114 
L 2400 4184 
z
" transform="scale(0.015625)"/>
       <path id="CMR17-29" d="M 1683 1581 
C 1683 2040 1638 2817 1254 3639 
C 947 4303 422 4768 346 4768 
C 326 4768 301 4761 301 4729 
C 301 4717 307 4710 314 4697 
C 621 4378 1402 3568 1402 1584 
C 1402 -407 627 -1217 314 -1537 
C 307 -1549 301 -1556 301 -1568 
C 301 -1600 326 -1600 346 -1600 
C 416 -1600 960 -1128 1274 -426 
C 1594 281 1683 969 1683 1581 
z
" transform="scale(0.015625)"/>
      </defs>
      <use xlink:href="#CMR17-31" transform="translate(41.834651 39.226102) scale(0.697382)"/>
      <use xlink:href="#CMMI12-4e" transform="translate(0 -34.355253) scale(0.697382)"/>
      <use xlink:href="#CMMI12-46" transform="translate(61.964973 -34.355253) scale(0.697382)"/>
      <use xlink:href="#CMR17-56" transform="translate(144.522007 0) scale(0.996264)"/>
      <use xlink:href="#CMR17-61" transform="translate(205.787182 0) scale(0.996264)"/>
      <use xlink:href="#CMR17-72" transform="translate(251.477659 0) scale(0.996264)"/>
      <use xlink:href="#CMR17-28" transform="translate(286.758427 0) scale(0.996264)"/>
      <use xlink:href="#CMR17-7e" transform="translate(331.407871 26.296621) scale(0.996264)"/>
      <use xlink:href="#CMMI12-12" transform="translate(322.039194 0) scale(0.996264)"/>
      <use xlink:href="#CMR17-29" transform="translate(370.208702 0) scale(0.996264)"/>
      <path d="M 0 22.914133 
L 115.652485 22.914133 
L 115.652485 26.899083 
L 0 26.899083 
L 0 22.914133 
z
"/>
     </g>
    </g>
   </g>
   <g id="line2d_13">
    <path d="M 73.206925 503.734496 
L 74.175487 503.216735 
L 75.144049 501.668352 
L 76.112611 499.103972 
L 77.081173 495.547751 
L 78.049735 491.033038 
L 79.018297 485.601924 
L 79.986858 479.304667 
L 81.923982 464.34945 
L 83.861106 446.704913 
L 85.79823 426.987581 
L 88.703915 394.983964 
L 93.546724 340.737793 
L 96.45241 310.948246 
L 98.389534 293.235349 
L 100.326658 277.63023 
L 102.263781 264.350298 
L 104.200905 253.510913 
L 105.169467 249.016242 
L 106.138029 245.132502 
L 107.106591 241.849196 
L 108.075152 239.151399 
L 109.043714 237.020227 
L 110.012276 235.433312 
L 110.980838 234.365288 
L 111.9494 233.788278 
L 112.917962 233.672368 
L 113.886524 233.986072 
L 114.855085 234.696776 
L 115.823647 235.771155 
L 116.792209 237.175571 
L 117.760771 238.87643 
L 119.697895 243.03528 
L 121.635018 247.991549 
L 124.540704 256.407082 
L 134.226323 285.690242 
L 137.132008 293.33834 
L 139.069132 297.961775 
L 141.006256 302.186117 
L 142.943379 306.011068 
L 144.880503 309.447089 
L 146.817627 312.512632 
L 148.754751 315.231709 
L 150.691874 317.631809 
L 152.628998 319.742187 
L 154.566122 321.592494 
L 156.503246 323.211737 
L 158.440369 324.627516 
L 161.346055 326.425273 
L 164.25174 327.899655 
L 167.157426 329.115819 
L 170.063112 330.127279 
L 173.937359 331.230395 
L 178.780168 332.319266 
L 183.622978 333.18066 
L 189.434349 334.00651 
L 197.182844 334.866243 
L 205.899901 335.609198 
L 216.554081 336.298006 
L 230.113947 336.937493 
L 246.579499 337.474996 
L 266.919298 337.899765 
L 291.133345 338.172602 
L 318.253077 338.255705 
L 345.372809 338.125968 
L 369.586856 337.799812 
L 389.926655 337.30918 
L 406.392206 336.689942 
L 418.983511 336.009586 
L 429.637691 335.220712 
L 438.354748 334.356081 
L 445.134681 333.477435 
L 450.946052 332.507164 
L 455.788861 331.470697 
L 459.663109 330.426646 
L 463.537356 329.115819 
L 466.443042 327.899655 
L 469.348727 326.425273 
L 472.254413 324.627516 
L 474.191537 323.211737 
L 476.128661 321.592494 
L 478.065784 319.742187 
L 480.002908 317.631809 
L 481.940032 315.231709 
L 483.877155 312.512632 
L 485.814279 309.447089 
L 487.751403 306.011068 
L 489.688527 302.186117 
L 491.62565 297.961775 
L 493.562774 293.33834 
L 496.46846 285.690242 
L 499.374145 277.302409 
L 504.216955 262.369157 
L 508.091202 250.693487 
L 510.028326 245.42911 
L 511.965449 240.840515 
L 512.934011 238.87643 
L 513.902573 237.175571 
L 514.871135 235.771155 
L 515.839697 234.696776 
L 516.808259 233.986072 
L 517.776821 233.672368 
L 518.745383 233.788278 
L 519.713944 234.365288 
L 520.682506 235.433312 
L 521.651068 237.020227 
L 522.61963 239.151399 
L 523.588192 241.849196 
L 524.556754 245.132502 
L 525.525316 249.016242 
L 526.493877 253.510913 
L 527.462439 258.622147 
L 529.399563 270.690076 
L 531.336687 285.153284 
L 533.27381 301.846001 
L 535.210934 320.498574 
L 538.11662 351.308839 
L 545.865115 437.064564 
L 547.802238 455.826312 
L 549.739362 472.199017 
L 551.676486 485.601924 
L 552.645048 491.033038 
L 553.61361 495.547751 
L 554.582171 499.103972 
L 555.550733 501.668352 
L 556.519295 503.216735 
L 557.487857 503.734496 
L 557.487857 503.734496 
" clip-path="url(#p0b7617f1a7)" style="fill: none; stroke: #4c72b0; stroke-width: 2; stroke-linecap: square"/>
   </g>
   <g id="line2d_14">
    <path d="M 73.206925 503.734496 
L 74.175487 502.187993 
L 75.144049 497.592242 
L 76.112611 490.076713 
L 77.081173 479.851266 
L 78.049735 467.197615 
L 79.018297 452.458044 
L 80.95542 418.311084 
L 86.766791 309.13794 
L 88.703915 280.267336 
L 89.672477 268.334884 
L 90.641039 258.207642 
L 91.609601 249.919211 
L 92.578163 243.453435 
L 93.546724 238.750435 
L 94.515286 235.713506 
L 95.483848 234.216486 
L 96.45241 234.111222 
L 97.420972 235.23482 
L 98.389534 237.416396 
L 99.358096 240.483147 
L 100.326658 244.265589 
L 102.263781 253.341276 
L 109.043714 288.248144 
L 110.980838 296.636695 
L 112.917962 303.861353 
L 114.855085 309.920671 
L 116.792209 314.897711 
L 118.729333 318.922258 
L 120.666457 322.142223 
L 122.60358 324.704078 
L 124.540704 326.741077 
L 126.477828 328.367481 
L 128.414952 329.677009 
L 130.352075 330.743916 
L 133.257761 332.010733 
L 136.163446 332.994611 
L 140.037694 334.013515 
L 143.911941 334.80765 
L 148.754751 335.588451 
L 154.566122 336.312607 
L 162.314617 337.035667 
L 172.000235 337.685361 
L 183.622978 338.23064 
L 199.119968 338.717877 
L 219.459767 339.118501 
L 247.548061 339.431896 
L 286.290535 339.627689 
L 334.718628 339.649196 
L 379.272474 339.461255 
L 411.235016 339.118501 
L 433.511939 338.66775 
L 449.008928 338.152968 
L 460.631671 337.572619 
L 470.317289 336.875403 
L 478.065784 336.092103 
L 483.877155 335.299284 
L 488.719965 334.433388 
L 492.594212 333.538268 
L 495.499898 332.691853 
L 498.405583 331.625472 
L 500.342707 330.743916 
L 502.279831 329.677009 
L 504.216955 328.367481 
L 506.154078 326.741077 
L 508.091202 324.704078 
L 510.028326 322.142223 
L 511.965449 318.922258 
L 513.902573 314.897711 
L 515.839697 309.920671 
L 517.776821 303.861353 
L 519.713944 296.636695 
L 521.651068 288.248144 
L 523.588192 278.82693 
L 530.368125 244.265589 
L 531.336687 240.483147 
L 532.305249 237.416396 
L 533.27381 235.23482 
L 534.242372 234.111222 
L 535.210934 234.216486 
L 536.179496 235.713506 
L 537.148058 238.750435 
L 538.11662 243.453435 
L 539.085182 249.919211 
L 540.053744 258.207642 
L 541.022305 268.334884 
L 541.990867 280.267336 
L 542.959429 293.916904 
L 544.896553 325.726236 
L 547.802238 380.819836 
L 550.707924 436.021969 
L 552.645048 467.197615 
L 553.61361 479.851266 
L 554.582171 490.076713 
L 555.550733 497.592242 
L 556.519295 502.187993 
L 557.487857 503.734496 
L 557.487857 503.734496 
" clip-path="url(#p0b7617f1a7)" style="fill: none; stroke: #dd8452; stroke-width: 2; stroke-linecap: square"/>
   </g>
   <g id="line2d_15">
    <path d="M 73.206925 503.734496 
L 74.175487 501.162488 
L 75.144049 493.56739 
L 76.112611 481.30369 
L 77.081173 464.935352 
L 78.049735 445.198116 
L 79.986858 399.125326 
L 82.892544 327.370539 
L 84.829668 287.100414 
L 85.79823 270.880918 
L 86.766791 257.63769 
L 87.735353 247.45193 
L 88.703915 240.268339 
L 89.672477 235.917329 
L 90.641039 234.140579 
L 91.609601 234.617634 
L 92.578163 236.991595 
L 93.546724 240.892333 
L 94.515286 245.9562 
L 96.45241 258.240487 
L 100.326658 284.285541 
L 102.263781 295.502615 
L 104.200905 304.814556 
L 106.138029 312.210451 
L 107.106591 315.250114 
L 108.075152 317.898595 
L 109.043714 320.195679 
L 110.012276 322.181548 
L 110.980838 323.895118 
L 112.917962 326.648291 
L 114.855085 328.707976 
L 116.792209 330.27109 
L 118.729333 331.48258 
L 120.666457 332.444866 
L 123.572142 333.568684 
L 126.477828 334.434673 
L 130.352075 335.328404 
L 135.194885 336.169932 
L 141.006256 336.916723 
L 147.786189 337.552803 
L 156.503246 338.134359 
L 168.125988 338.658449 
L 183.622978 339.102959 
L 204.931339 339.464242 
L 235.925318 339.741156 
L 282.416288 339.912619 
L 345.372809 339.917702 
L 397.67515 339.722815 
L 430.606253 339.399042 
L 451.914614 338.986226 
L 466.443042 338.507503 
L 477.097222 337.963279 
L 485.814279 337.304805 
L 492.594212 336.572199 
L 497.437022 335.862587 
L 501.311269 335.127033 
L 505.185516 334.168525 
L 508.091202 333.228376 
L 510.028326 332.444866 
L 511.965449 331.48258 
L 513.902573 330.27109 
L 515.839697 328.707976 
L 517.776821 326.648291 
L 518.745383 325.372899 
L 519.713944 323.895118 
L 520.682506 322.181548 
L 521.651068 320.195679 
L 522.61963 317.898595 
L 523.588192 315.250114 
L 524.556754 312.210451 
L 525.525316 308.742462 
L 526.493877 304.814556 
L 528.431001 295.502615 
L 530.368125 284.285541 
L 532.305249 271.552882 
L 535.210934 251.841631 
L 536.179496 245.9562 
L 537.148058 240.892333 
L 538.11662 236.991595 
L 539.085182 234.617634 
L 540.053744 234.140579 
L 541.022305 235.917329 
L 541.990867 240.268339 
L 542.959429 247.45193 
L 543.927991 257.63769 
L 544.896553 270.880918 
L 545.865115 287.100414 
L 546.833677 306.062061 
L 548.7708 350.471176 
L 552.645048 445.198116 
L 553.61361 464.935352 
L 554.582171 481.30369 
L 555.550733 493.56739 
L 556.519295 501.162488 
L 557.487857 503.734496 
L 557.487857 503.734496 
" clip-path="url(#p0b7617f1a7)" style="fill: none; stroke: #55a868; stroke-width: 2; stroke-linecap: square"/>
   </g>
   <g id="line2d_16">
    <path d="M 73.206925 340.352493 
L 557.487857 340.352493 
" clip-path="url(#p0b7617f1a7)" style="fill: none; stroke-dasharray: 5.55,2.4; stroke-dashoffset: 0; stroke: #808080; stroke-width: 1.5"/>
   </g>
   <g id="patch_3">
    <path d="M 73.206925 503.734496 
L 73.206925 13.588488 
" style="fill: none; stroke: #000000; stroke-width: 0.8; stroke-linejoin: miter; stroke-linecap: square"/>
   </g>
   <g id="patch_4">
    <path d="M 73.206925 503.734496 
L 557.487857 503.734496 
" style="fill: none; stroke: #000000; stroke-width: 0.8; stroke-linejoin: miter; stroke-linecap: square"/>
   </g>
   <g id="legend_1">
    <g id="line2d_17">
     <path d="M 91.206925 38.065465 
L 109.206925 38.065465 
L 127.206925 38.065465 
" style="fill: none"/>
     <defs>
      <path id="m50c5727662" d="M 0 3 
C 0.795609 3 1.55874 2.683901 2.12132 2.12132 
C 2.683901 1.55874 3 0.795609 3 0 
C 3 -0.795609 2.683901 -1.55874 2.12132 -2.12132 
C 1.55874 -2.683901 0.795609 -3 0 -3 
C -0.795609 -3 -1.55874 -2.683901 -2.12132 -2.12132 
C -2.683901 -1.55874 -3 -0.795609 -3 0 
C -3 0.795609 -2.683901 1.55874 -2.12132 2.12132 
C -1.55874 2.683901 -0.795609 3 0 3 
z
" style="stroke: #000000"/>
     </defs>
     <g>
      <use xlink:href="#m50c5727662" x="109.206925" y="38.065465" style="stroke: #000000"/>
     </g>
    </g>
    <g id="text_15">
     <!-- $\mathrm{Experiment}$ -->
     <g transform="translate(141.606925 44.365465) scale(0.18 -0.18)">
      <defs>
       <path id="CMR17-45" d="M 3885 1615 
L 3770 1615 
C 3629 676 3546 166 2419 166 
L 1530 166 
C 1274 166 1261 197 1261 414 
L 1261 2176 
L 1862 2176 
C 2464 2176 2522 1960 2522 1430 
L 2637 1430 
L 2637 3081 
L 2522 3081 
C 2522 2557 2464 2342 1862 2342 
L 1261 2342 
L 1261 3913 
C 1261 4128 1274 4160 1530 4160 
L 2406 4160 
C 3398 4160 3514 3769 3603 2929 
L 3718 2929 
L 3565 4325 
L 326 4325 
L 326 4160 
C 768 4160 838 4160 838 3874 
L 838 451 
C 838 166 768 166 326 166 
L 326 0 
L 3654 0 
L 3885 1615 
z
" transform="scale(0.015625)"/>
       <path id="CMR17-78" d="M 1664 1477 
C 1856 1726 2074 2006 2253 2216 
C 2464 2458 2707 2560 2989 2560 
L 2989 2726 
C 2880 2726 2656 2726 2541 2726 
C 2368 2726 2170 2726 2022 2732 
L 2022 2566 
C 2112 2553 2163 2489 2163 2400 
C 2163 2285 2099 2215 2067 2171 
L 1594 1573 
L 1030 2306 
C 973 2376 973 2388 973 2420 
C 973 2497 1037 2560 1146 2560 
L 1146 2732 
C 992 2726 717 2726 557 2726 
C 384 2726 179 2726 38 2732 
L 38 2560 
C 384 2560 461 2534 614 2343 
L 1350 1395 
C 1363 1382 1395 1344 1395 1325 
C 1395 1299 838 619 768 530 
C 480 185 179 160 6 160 
L 6 0 
C 115 0 339 0 454 0 
C 582 0 864 0 979 -6 
L 979 160 
C 941 166 838 179 838 325 
C 838 440 890 510 947 586 
L 1478 1236 
L 2035 512 
C 2086 442 2163 346 2163 301 
C 2163 211 2086 160 1984 160 
L 1984 -6 
C 2138 0 2413 0 2573 0 
C 2746 0 2950 0 3091 -6 
L 3091 160 
C 2771 160 2675 172 2522 370 
L 1664 1477 
z
" transform="scale(0.015625)"/>
       <path id="CMR17-70" d="M 1408 -1063 
C 998 -1063 973 -1037 973 -789 
L 973 402 
C 1158 134 1427 -38 1766 -38 
C 2406 -38 3053 523 3053 1388 
C 3053 2191 2496 2802 1837 2802 
C 1453 2802 1139 2592 960 2338 
L 960 2802 
L 198 2732 
L 198 2567 
C 576 2567 634 2528 634 2223 
L 634 -789 
C 634 -1031 608 -1063 198 -1063 
L 198 -1228 
C 352 -1216 634 -1216 800 -1216 
C 966 -1216 1254 -1216 1408 -1228 
L 1408 -1063 
z
M 973 2012 
C 973 2102 973 2235 1222 2471 
C 1254 2497 1472 2688 1792 2688 
C 2259 2688 2643 2108 2643 1382 
C 2643 656 2234 64 1728 64 
C 1498 64 1248 172 1056 472 
C 973 612 973 650 973 752 
L 973 2012 
z
" transform="scale(0.015625)"/>
       <path id="CMR17-65" d="M 2438 1472 
C 2464 1498 2464 1511 2464 1576 
C 2464 2238 2118 2816 1389 2816 
C 710 2816 173 2169 173 1383 
C 173 551 781 -64 1459 -64 
C 2176 -64 2458 607 2458 740 
C 2458 784 2419 784 2406 784 
C 2362 784 2355 771 2330 696 
C 2189 265 1837 51 1504 51 
C 1229 51 954 203 781 480 
C 582 803 582 1176 582 1472 
L 2438 1472 
z
M 589 1568 
C 634 2505 1126 2714 1382 2714 
C 1818 2714 2112 2297 2118 1568 
L 589 1568 
z
" transform="scale(0.015625)"/>
       <path id="CMR17-69" d="M 992 3909 
C 992 4049 877 4170 730 4170 
C 589 4170 467 4056 467 3909 
C 467 3769 582 3648 730 3648 
C 870 3648 992 3763 992 3909 
z
M 243 2706 
L 243 2541 
C 602 2541 653 2502 653 2197 
L 653 427 
C 653 184 627 153 218 153 
L 218 -13 
C 371 0 646 0 806 0 
C 960 0 1222 0 1370 -13 
L 1370 153 
C 992 153 979 191 979 420 
L 979 2776 
L 243 2706 
z
" transform="scale(0.015625)"/>
       <path id="CMR17-6d" d="M 4326 1933 
C 4326 2252 4269 2790 3507 2790 
C 3072 2790 2771 2496 2656 2151 
L 2650 2151 
C 2573 2676 2195 2790 1837 2790 
C 1331 2790 1069 2400 973 2144 
L 966 2144 
L 966 2790 
L 211 2720 
L 211 2554 
C 589 2554 646 2515 646 2208 
L 646 428 
C 646 184 621 153 211 153 
L 211 -13 
C 365 0 646 0 813 0 
C 979 0 1267 0 1421 -13 
L 1421 153 
C 1011 153 986 178 986 428 
L 986 1658 
C 986 2247 1344 2688 1792 2688 
C 2266 2688 2317 2266 2317 1958 
L 2317 428 
C 2317 184 2291 153 1882 153 
L 1882 -13 
C 2035 0 2317 0 2483 0 
C 2650 0 2938 0 3091 -13 
L 3091 153 
C 2682 153 2656 178 2656 428 
L 2656 1658 
C 2656 2247 3014 2688 3462 2688 
C 3936 2688 3987 2266 3987 1958 
L 3987 428 
C 3987 184 3962 153 3552 153 
L 3552 -13 
C 3706 0 3987 0 4154 0 
C 4320 0 4608 0 4762 -13 
L 4762 153 
C 4352 153 4326 178 4326 428 
L 4326 1933 
z
" transform="scale(0.015625)"/>
       <path id="CMR17-6e" d="M 2656 1933 
C 2656 2259 2592 2790 1837 2790 
C 1331 2790 1069 2400 973 2144 
L 966 2144 
L 966 2790 
L 211 2720 
L 211 2554 
C 589 2554 646 2515 646 2208 
L 646 428 
C 646 184 621 153 211 153 
L 211 -13 
C 365 0 646 0 813 0 
C 979 0 1267 0 1421 -13 
L 1421 153 
C 1011 153 986 178 986 428 
L 986 1658 
C 986 2247 1344 2688 1792 2688 
C 2266 2688 2317 2266 2317 1958 
L 2317 428 
C 2317 184 2291 153 1882 153 
L 1882 -13 
C 2035 0 2317 0 2483 0 
C 2650 0 2938 0 3091 -13 
L 3091 153 
C 2682 153 2656 178 2656 428 
L 2656 1933 
z
" transform="scale(0.015625)"/>
       <path id="CMR17-74" d="M 966 2560 
L 1862 2560 
L 1862 2725 
L 966 2725 
L 966 3904 
L 851 3904 
C 838 3245 614 2668 70 2668 
L 70 2560 
L 627 2560 
L 627 771 
C 627 650 627 -64 1370 -64 
C 1747 -64 1965 306 1965 777 
L 1965 1140 
L 1850 1140 
L 1850 783 
C 1850 344 1677 51 1408 51 
C 1222 51 966 178 966 758 
L 966 2560 
z
" transform="scale(0.015625)"/>
      </defs>
      <use xlink:href="#CMR17-45" transform="scale(0.996264)"/>
      <use xlink:href="#CMR17-78" transform="translate(62.586301 0) scale(0.996264)"/>
      <use xlink:href="#CMR17-70" transform="translate(110.879216 0) scale(0.996264)"/>
      <use xlink:href="#CMR17-65" transform="translate(164.377025 0) scale(0.996264)"/>
      <use xlink:href="#CMR17-72" transform="translate(204.862685 0) scale(0.996264)"/>
      <use xlink:href="#CMR17-69" transform="translate(240.143453 0) scale(0.996264)"/>
      <use xlink:href="#CMR17-6d" transform="translate(265.014512 0) scale(0.996264)"/>
      <use xlink:href="#CMR17-65" transform="translate(341.934101 0) scale(0.996264)"/>
      <use xlink:href="#CMR17-6e" transform="translate(382.419762 0) scale(0.996264)"/>
      <use xlink:href="#CMR17-74" transform="translate(430.712678 0) scale(0.996264)"/>
     </g>
    </g>
    <g id="line2d_18">
     <path d="M 91.206925 63.662011 
L 109.206925 63.662011 
L 127.206925 63.662011 
" style="fill: none; stroke: #000000; stroke-width: 2; stroke-linecap: square"/>
    </g>
    <g id="text_16">
     <!-- $\mathrm{Theory}$ -->
     <g transform="translate(141.606925 69.962011) scale(0.18 -0.18)">
      <defs>
       <path id="CMR17-54" d="M 3981 4326 
L 288 4326 
L 179 2918 
L 294 2918 
C 378 3976 467 4160 1453 4160 
C 1568 4160 1754 4160 1805 4154 
C 1926 4135 1926 4058 1926 3912 
L 1926 459 
C 1926 230 1907 160 1376 160 
L 1197 160 
L 1197 0 
C 1504 0 1824 0 2138 0 
C 2451 0 2771 0 3078 0 
L 3078 160 
L 2899 160 
C 2368 160 2349 230 2349 459 
L 2349 3912 
C 2349 4052 2349 4129 2464 4154 
C 2515 4160 2701 4160 2816 4160 
C 3795 4160 3891 3976 3974 2918 
L 4090 2918 
L 3981 4326 
z
" transform="scale(0.015625)"/>
       <path id="CMR17-68" d="M 2656 1933 
C 2656 2259 2592 2790 1837 2790 
C 1312 2790 1056 2368 979 2157 
L 973 2157 
L 973 4396 
L 211 4326 
L 211 4160 
C 589 4160 646 4122 646 3817 
L 646 426 
C 646 184 621 153 211 153 
L 211 -13 
C 365 0 646 0 813 0 
C 979 0 1267 0 1421 -13 
L 1421 153 
C 1011 153 986 178 986 428 
L 986 1658 
C 986 2247 1344 2688 1792 2688 
C 2266 2688 2317 2266 2317 1958 
L 2317 428 
C 2317 184 2291 153 1882 153 
L 1882 -13 
C 2035 0 2317 0 2483 0 
C 2650 0 2938 0 3091 -13 
L 3091 153 
C 2682 153 2656 178 2656 428 
L 2656 1933 
z
" transform="scale(0.015625)"/>
       <path id="CMR17-6f" d="M 2758 1356 
C 2758 2176 2163 2816 1466 2816 
C 768 2816 173 2176 173 1356 
C 173 551 768 -64 1466 -64 
C 2163 -64 2758 551 2758 1356 
z
M 1466 51 
C 1165 51 909 230 762 480 
C 602 767 582 1126 582 1408 
C 582 1677 595 2010 762 2298 
C 890 2509 1139 2714 1466 2714 
C 1754 2714 1997 2554 2150 2330 
C 2349 2029 2349 1607 2349 1408 
C 2349 1158 2336 775 2163 467 
C 1984 173 1709 51 1466 51 
z
" transform="scale(0.015625)"/>
       <path id="CMR17-79" d="M 2496 2197 
C 2656 2586 2944 2586 3034 2586 
L 3034 2752 
C 2912 2752 2752 2752 2630 2752 
C 2496 2752 2285 2752 2157 2758 
L 2157 2592 
C 2400 2573 2406 2394 2406 2343 
C 2406 2280 2394 2248 2362 2171 
L 1664 449 
L 902 2306 
C 870 2382 870 2426 870 2433 
C 870 2573 1018 2586 1171 2586 
L 1171 2758 
C 1018 2752 742 2752 582 2752 
C 410 2752 205 2752 64 2758 
L 64 2586 
C 410 2586 448 2554 531 2350 
L 1485 15 
C 1197 -738 1030 -1178 627 -1178 
C 557 -1178 397 -1159 282 -1044 
C 429 -1031 493 -942 493 -833 
C 493 -725 416 -629 288 -629 
C 147 -629 77 -725 77 -840 
C 77 -1095 339 -1280 627 -1280 
C 998 -1280 1229 -922 1357 -604 
L 2496 2197 
z
" transform="scale(0.015625)"/>
      </defs>
      <use xlink:href="#CMR17-54" transform="scale(0.996264)"/>
      <use xlink:href="#CMR17-68" transform="translate(66.509881 0) scale(0.996264)"/>
      <use xlink:href="#CMR17-65" transform="translate(117.40525 0) scale(0.996264)"/>
      <use xlink:href="#CMR17-6f" transform="translate(157.890911 0) scale(0.996264)"/>
      <use xlink:href="#CMR17-72" transform="translate(203.581388 0) scale(0.996264)"/>
      <use xlink:href="#CMR17-79" transform="translate(238.862156 0) scale(0.996264)"/>
     </g>
    </g>
    <g id="line2d_19">
     <path d="M 91.206925 89.258557 
L 109.206925 89.258557 
L 127.206925 89.258557 
" style="fill: none; stroke: #4c72b0; stroke-width: 2; stroke-linecap: square"/>
     <defs>
      <path id="m75377443af" d="M 0 3 
C 0.795609 3 1.55874 2.683901 2.12132 2.12132 
C 2.683901 1.55874 3 0.795609 3 0 
C 3 -0.795609 2.683901 -1.55874 2.12132 -2.12132 
C 1.55874 -2.683901 0.795609 -3 0 -3 
C -0.795609 -3 -1.55874 -2.683901 -2.12132 -2.12132 
C -2.683901 -1.55874 -3 -0.795609 -3 0 
C -3 0.795609 -2.683901 1.55874 -2.12132 2.12132 
C -1.55874 2.683901 -0.795609 3 0 3 
z
" style="stroke: #4c72b0"/>
     </defs>
     <g>
      <use xlink:href="#m75377443af" x="109.206925" y="89.258557" style="fill: #4c72b0; stroke: #4c72b0"/>
     </g>
    </g>
    <g id="text_17">
     <!-- $N = 40$ -->
     <g transform="translate(141.606925 95.558557) scale(0.18 -0.18)">
      <defs>
       <path id="CMR17-3d" d="M 4115 2017 
C 4211 2017 4307 2017 4307 2125 
C 4307 2240 4198 2240 4090 2240 
L 512 2240 
C 403 2240 294 2240 294 2125 
C 294 2017 390 2017 486 2017 
L 4115 2017 
z
M 4090 896 
C 4198 896 4307 896 4307 1011 
C 4307 1119 4211 1119 4115 1119 
L 486 1119 
C 390 1119 294 1119 294 1011 
C 294 896 403 896 512 896 
L 4090 896 
z
" transform="scale(0.015625)"/>
      </defs>
      <use xlink:href="#CMMI12-4e" transform="scale(0.996264)"/>
      <use xlink:href="#CMR17-3d" transform="translate(116.195781 0) scale(0.996264)"/>
      <use xlink:href="#CMR17-34" transform="translate(215.584578 0) scale(0.996264)"/>
      <use xlink:href="#CMR17-30" transform="translate(261.275056 0) scale(0.996264)"/>
     </g>
    </g>
    <g id="line2d_20">
     <path d="M 91.206925 114.855102 
L 109.206925 114.855102 
L 127.206925 114.855102 
" style="fill: none; stroke: #dd8452; stroke-width: 2; stroke-linecap: square"/>
     <defs>
      <path id="mcd6bcf5a07" d="M 0 3 
C 0.795609 3 1.55874 2.683901 2.12132 2.12132 
C 2.683901 1.55874 3 0.795609 3 0 
C 3 -0.795609 2.683901 -1.55874 2.12132 -2.12132 
C 1.55874 -2.683901 0.795609 -3 0 -3 
C -0.795609 -3 -1.55874 -2.683901 -2.12132 -2.12132 
C -2.683901 -1.55874 -3 -0.795609 -3 0 
C -3 0.795609 -2.683901 1.55874 -2.12132 2.12132 
C -1.55874 2.683901 -0.795609 3 0 3 
z
" style="stroke: #dd8452"/>
     </defs>
     <g>
      <use xlink:href="#mcd6bcf5a07" x="109.206925" y="114.855102" style="fill: #dd8452; stroke: #dd8452"/>
     </g>
    </g>
    <g id="text_18">
     <!-- $N = 120$ -->
     <g transform="translate(141.606925 121.155102) scale(0.18 -0.18)">
      <use xlink:href="#CMMI12-4e" transform="scale(0.996264)"/>
      <use xlink:href="#CMR17-3d" transform="translate(116.195781 0) scale(0.996264)"/>
      <use xlink:href="#CMR17-31" transform="translate(215.584578 0) scale(0.996264)"/>
      <use xlink:href="#CMR17-32" transform="translate(261.275056 0) scale(0.996264)"/>
      <use xlink:href="#CMR17-30" transform="translate(306.965533 0) scale(0.996264)"/>
     </g>
    </g>
    <g id="line2d_21">
     <path d="M 91.206925 140.451648 
L 109.206925 140.451648 
L 127.206925 140.451648 
" style="fill: none; stroke: #55a868; stroke-width: 2; stroke-linecap: square"/>
     <defs>
      <path id="ma01d211b4e" d="M 0 3 
C 0.795609 3 1.55874 2.683901 2.12132 2.12132 
C 2.683901 1.55874 3 0.795609 3 0 
C 3 -0.795609 2.683901 -1.55874 2.12132 -2.12132 
C 1.55874 -2.683901 0.795609 -3 0 -3 
C -0.795609 -3 -1.55874 -2.683901 -2.12132 -2.12132 
C -2.683901 -1.55874 -3 -0.795609 -3 0 
C -3 0.795609 -2.683901 1.55874 -2.12132 2.12132 
C -1.55874 2.683901 -0.795609 3 0 3 
z
" style="stroke: #55a868"/>
     </defs>
     <g>
      <use xlink:href="#ma01d211b4e" x="109.206925" y="140.451648" style="fill: #55a868; stroke: #55a868"/>
     </g>
    </g>
    <g id="text_19">
     <!-- $N = 200$ -->
     <g transform="translate(141.606925 146.751648) scale(0.18 -0.18)">
      <use xlink:href="#CMMI12-4e" transform="scale(0.996264)"/>
      <use xlink:href="#CMR17-3d" transform="translate(116.195781 0) scale(0.996264)"/>
      <use xlink:href="#CMR17-32" transform="translate(215.584578 0) scale(0.996264)"/>
      <use xlink:href="#CMR17-30" transform="translate(261.275056 0) scale(0.996264)"/>
      <use xlink:href="#CMR17-30" transform="translate(306.965533 0) scale(0.996264)"/>
     </g>
    </g>
   </g>
  </g>
  <g id="axes_2">
   <g id="patch_5">
    <path d="M 358.775484 214.646891 
L 552.487857 214.646891 
L 552.487857 18.588488 
L 358.775484 18.588488 
z
" style="fill: #ffffff"/>
   </g>
   <g id="PathCollection_2">
    <defs>
     <path id="C1_0_4dbf359ab6" d="M 0 3.162278 
C 0.838646 3.162278 1.643056 2.82908 2.236068 2.236068 
C 2.82908 1.643056 3.162278 0.838646 3.162278 -0 
C 3.162278 -0.838646 2.82908 -1.643056 2.236068 -2.236068 
C 1.643056 -2.82908 0.838646 -3.162278 0 -3.162278 
C -0.838646 -3.162278 -1.643056 -2.82908 -2.236068 -2.236068 
C -2.82908 -1.643056 -3.162278 -0.838646 -3.162278 0 
C -3.162278 0.838646 -2.82908 1.643056 -2.236068 2.236068 
C -1.643056 2.82908 -0.838646 3.162278 0 3.162278 
z
"/>
    </defs>
    <g clip-path="url(#pbd61e60558)">
     <use xlink:href="#C1_0_4dbf359ab6" x="362.531832" y="172.174761" style="fill: #4c72b0; stroke: #ffffff; stroke-width: 0.505964"/>
    </g>
    <g clip-path="url(#pbd61e60558)">
     <use xlink:href="#C1_0_4dbf359ab6" x="362.531832" y="190.19846" style="fill: #dd8452; stroke: #ffffff; stroke-width: 0.505964"/>
    </g>
    <g clip-path="url(#pbd61e60558)">
     <use xlink:href="#C1_0_4dbf359ab6" x="362.531832" y="193.437043" style="fill: #55a868; stroke: #ffffff; stroke-width: 0.505964"/>
    </g>
    <g clip-path="url(#pbd61e60558)">
     <use xlink:href="#C1_0_4dbf359ab6" x="366.557431" y="192.101627" style="fill: #4c72b0; stroke: #ffffff; stroke-width: 0.505964"/>
    </g>
    <g clip-path="url(#pbd61e60558)">
     <use xlink:href="#C1_0_4dbf359ab6" x="366.557431" y="180.670749" style="fill: #dd8452; stroke: #ffffff; stroke-width: 0.505964"/>
    </g>
    <g clip-path="url(#pbd61e60558)">
     <use xlink:href="#C1_0_4dbf359ab6" x="366.557431" y="165.226682" style="fill: #55a868; stroke: #ffffff; stroke-width: 0.505964"/>
    </g>
    <g clip-path="url(#pbd61e60558)">
     <use xlink:href="#C1_0_4dbf359ab6" x="373.808655" y="173.540752" style="fill: #4c72b0; stroke: #ffffff; stroke-width: 0.505964"/>
    </g>
    <g clip-path="url(#pbd61e60558)">
     <use xlink:href="#C1_0_4dbf359ab6" x="373.808655" y="140.107548" style="fill: #dd8452; stroke: #ffffff; stroke-width: 0.505964"/>
    </g>
    <g clip-path="url(#pbd61e60558)">
     <use xlink:href="#C1_0_4dbf359ab6" x="373.808655" y="132.171957" style="fill: #55a868; stroke: #ffffff; stroke-width: 0.505964"/>
    </g>
    <g clip-path="url(#pbd61e60558)">
     <use xlink:href="#C1_0_4dbf359ab6" x="381.646158" y="146.434644" style="fill: #4c72b0; stroke: #ffffff; stroke-width: 0.505964"/>
    </g>
    <g clip-path="url(#pbd61e60558)">
     <use xlink:href="#C1_0_4dbf359ab6" x="381.646158" y="128.986279" style="fill: #dd8452; stroke: #ffffff; stroke-width: 0.505964"/>
    </g>
    <g clip-path="url(#pbd61e60558)">
     <use xlink:href="#C1_0_4dbf359ab6" x="381.646158" y="125.876519" style="fill: #55a868; stroke: #ffffff; stroke-width: 0.505964"/>
    </g>
    <g clip-path="url(#pbd61e60558)">
     <use xlink:href="#C1_0_4dbf359ab6" x="388.996539" y="133.573441" style="fill: #4c72b0; stroke: #ffffff; stroke-width: 0.505964"/>
    </g>
    <g clip-path="url(#pbd61e60558)">
     <use xlink:href="#C1_0_4dbf359ab6" x="388.996539" y="125.301544" style="fill: #dd8452; stroke: #ffffff; stroke-width: 0.505964"/>
    </g>
    <g clip-path="url(#pbd61e60558)">
     <use xlink:href="#C1_0_4dbf359ab6" x="388.996539" y="123.455796" style="fill: #55a868; stroke: #ffffff; stroke-width: 0.505964"/>
    </g>
    <g clip-path="url(#pbd61e60558)">
     <use xlink:href="#C1_0_4dbf359ab6" x="397.312673" y="128.533481" style="fill: #4c72b0; stroke: #ffffff; stroke-width: 0.505964"/>
    </g>
    <g clip-path="url(#pbd61e60558)">
     <use xlink:href="#C1_0_4dbf359ab6" x="397.312673" y="123.215784" style="fill: #dd8452; stroke: #ffffff; stroke-width: 0.505964"/>
    </g>
    <g clip-path="url(#pbd61e60558)">
     <use xlink:href="#C1_0_4dbf359ab6" x="397.312673" y="121.677737" style="fill: #55a868; stroke: #ffffff; stroke-width: 0.505964"/>
    </g>
    <g clip-path="url(#pbd61e60558)">
     <use xlink:href="#C1_0_4dbf359ab6" x="405.486489" y="123.225568" style="fill: #4c72b0; stroke: #ffffff; stroke-width: 0.505964"/>
    </g>
    <g clip-path="url(#pbd61e60558)">
     <use xlink:href="#C1_0_4dbf359ab6" x="405.486489" y="117.791593" style="fill: #dd8452; stroke: #ffffff; stroke-width: 0.505964"/>
    </g>
    <g clip-path="url(#pbd61e60558)">
     <use xlink:href="#C1_0_4dbf359ab6" x="405.486489" y="115.604216" style="fill: #55a868; stroke: #ffffff; stroke-width: 0.505964"/>
    </g>
    <g clip-path="url(#pbd61e60558)">
     <use xlink:href="#C1_0_4dbf359ab6" x="413.323365" y="123.408222" style="fill: #4c72b0; stroke: #ffffff; stroke-width: 0.505964"/>
    </g>
    <g clip-path="url(#pbd61e60558)">
     <use xlink:href="#C1_0_4dbf359ab6" x="413.323365" y="120.344381" style="fill: #dd8452; stroke: #ffffff; stroke-width: 0.505964"/>
    </g>
    <g clip-path="url(#pbd61e60558)">
     <use xlink:href="#C1_0_4dbf359ab6" x="413.323365" y="119.576667" style="fill: #55a868; stroke: #ffffff; stroke-width: 0.505964"/>
    </g>
    <g clip-path="url(#pbd61e60558)">
     <use xlink:href="#C1_0_4dbf359ab6" x="421.346958" y="121.752074" style="fill: #4c72b0; stroke: #ffffff; stroke-width: 0.505964"/>
    </g>
    <g clip-path="url(#pbd61e60558)">
     <use xlink:href="#C1_0_4dbf359ab6" x="421.346958" y="119.500719" style="fill: #dd8452; stroke: #ffffff; stroke-width: 0.505964"/>
    </g>
    <g clip-path="url(#pbd61e60558)">
     <use xlink:href="#C1_0_4dbf359ab6" x="421.346958" y="118.825574" style="fill: #55a868; stroke: #ffffff; stroke-width: 0.505964"/>
    </g>
    <g clip-path="url(#pbd61e60558)">
     <use xlink:href="#C1_0_4dbf359ab6" x="429.532076" y="120.275966" style="fill: #4c72b0; stroke: #ffffff; stroke-width: 0.505964"/>
    </g>
    <g clip-path="url(#pbd61e60558)">
     <use xlink:href="#C1_0_4dbf359ab6" x="429.532076" y="118.695397" style="fill: #dd8452; stroke: #ffffff; stroke-width: 0.505964"/>
    </g>
    <g clip-path="url(#pbd61e60558)">
     <use xlink:href="#C1_0_4dbf359ab6" x="429.532076" y="118.21387" style="fill: #55a868; stroke: #ffffff; stroke-width: 0.505964"/>
    </g>
    <g clip-path="url(#pbd61e60558)">
     <use xlink:href="#C1_0_4dbf359ab6" x="437.630833" y="119.082403" style="fill: #4c72b0; stroke: #ffffff; stroke-width: 0.505964"/>
    </g>
    <g clip-path="url(#pbd61e60558)">
     <use xlink:href="#C1_0_4dbf359ab6" x="437.630833" y="117.991587" style="fill: #dd8452; stroke: #ffffff; stroke-width: 0.505964"/>
    </g>
    <g clip-path="url(#pbd61e60558)">
     <use xlink:href="#C1_0_4dbf359ab6" x="437.630833" y="117.643307" style="fill: #55a868; stroke: #ffffff; stroke-width: 0.505964"/>
    </g>
    <g clip-path="url(#pbd61e60558)">
     <use xlink:href="#C1_0_4dbf359ab6" x="445.94393" y="117.909443" style="fill: #4c72b0; stroke: #ffffff; stroke-width: 0.505964"/>
    </g>
    <g clip-path="url(#pbd61e60558)">
     <use xlink:href="#C1_0_4dbf359ab6" x="445.94393" y="117.354014" style="fill: #dd8452; stroke: #ffffff; stroke-width: 0.505964"/>
    </g>
    <g clip-path="url(#pbd61e60558)">
     <use xlink:href="#C1_0_4dbf359ab6" x="445.94393" y="117.155549" style="fill: #55a868; stroke: #ffffff; stroke-width: 0.505964"/>
    </g>
    <g clip-path="url(#pbd61e60558)">
     <use xlink:href="#C1_0_4dbf359ab6" x="454.183577" y="116.404453" style="fill: #4c72b0; stroke: #ffffff; stroke-width: 0.505964"/>
    </g>
    <g clip-path="url(#pbd61e60558)">
     <use xlink:href="#C1_0_4dbf359ab6" x="454.183577" y="116.024735" style="fill: #dd8452; stroke: #ffffff; stroke-width: 0.505964"/>
    </g>
    <g clip-path="url(#pbd61e60558)">
     <use xlink:href="#C1_0_4dbf359ab6" x="454.183577" y="115.790686" style="fill: #55a868; stroke: #ffffff; stroke-width: 0.505964"/>
    </g>
    <g clip-path="url(#pbd61e60558)">
     <use xlink:href="#C1_0_4dbf359ab6" x="462.555264" y="115.694128" style="fill: #4c72b0; stroke: #ffffff; stroke-width: 0.505964"/>
    </g>
    <g clip-path="url(#pbd61e60558)">
     <use xlink:href="#C1_0_4dbf359ab6" x="462.555264" y="116.080594" style="fill: #dd8452; stroke: #ffffff; stroke-width: 0.505964"/>
    </g>
    <g clip-path="url(#pbd61e60558)">
     <use xlink:href="#C1_0_4dbf359ab6" x="462.555264" y="116.17758" style="fill: #55a868; stroke: #ffffff; stroke-width: 0.505964"/>
    </g>
    <g clip-path="url(#pbd61e60558)">
     <use xlink:href="#C1_0_4dbf359ab6" x="470.640252" y="114.588499" style="fill: #4c72b0; stroke: #ffffff; stroke-width: 0.505964"/>
    </g>
    <g clip-path="url(#pbd61e60558)">
     <use xlink:href="#C1_0_4dbf359ab6" x="470.640252" y="115.45703" style="fill: #dd8452; stroke: #ffffff; stroke-width: 0.505964"/>
    </g>
    <g clip-path="url(#pbd61e60558)">
     <use xlink:href="#C1_0_4dbf359ab6" x="470.640252" y="115.708181" style="fill: #55a868; stroke: #ffffff; stroke-width: 0.505964"/>
    </g>
    <g clip-path="url(#pbd61e60558)">
     <use xlink:href="#C1_0_4dbf359ab6" x="479.040397" y="113.346952" style="fill: #4c72b0; stroke: #ffffff; stroke-width: 0.505964"/>
    </g>
    <g clip-path="url(#pbd61e60558)">
     <use xlink:href="#C1_0_4dbf359ab6" x="479.040397" y="114.74932" style="fill: #dd8452; stroke: #ffffff; stroke-width: 0.505964"/>
    </g>
    <g clip-path="url(#pbd61e60558)">
     <use xlink:href="#C1_0_4dbf359ab6" x="479.040397" y="115.176362" style="fill: #55a868; stroke: #ffffff; stroke-width: 0.505964"/>
    </g>
    <g clip-path="url(#pbd61e60558)">
     <use xlink:href="#C1_0_4dbf359ab6" x="487.327749" y="111.969321" style="fill: #4c72b0; stroke: #ffffff; stroke-width: 0.505964"/>
    </g>
    <g clip-path="url(#pbd61e60558)">
     <use xlink:href="#C1_0_4dbf359ab6" x="487.327749" y="113.958008" style="fill: #dd8452; stroke: #ffffff; stroke-width: 0.505964"/>
    </g>
    <g clip-path="url(#pbd61e60558)">
     <use xlink:href="#C1_0_4dbf359ab6" x="487.327749" y="114.538097" style="fill: #55a868; stroke: #ffffff; stroke-width: 0.505964"/>
    </g>
    <g clip-path="url(#pbd61e60558)">
     <use xlink:href="#C1_0_4dbf359ab6" x="495.541089" y="110.44828" style="fill: #4c72b0; stroke: #ffffff; stroke-width: 0.505964"/>
    </g>
    <g clip-path="url(#pbd61e60558)">
     <use xlink:href="#C1_0_4dbf359ab6" x="495.541089" y="113.14636" style="fill: #dd8452; stroke: #ffffff; stroke-width: 0.505964"/>
    </g>
    <g clip-path="url(#pbd61e60558)">
     <use xlink:href="#C1_0_4dbf359ab6" x="495.541089" y="113.971285" style="fill: #55a868; stroke: #ffffff; stroke-width: 0.505964"/>
    </g>
    <g clip-path="url(#pbd61e60558)">
     <use xlink:href="#C1_0_4dbf359ab6" x="503.714167" y="108.422216" style="fill: #4c72b0; stroke: #ffffff; stroke-width: 0.505964"/>
    </g>
    <g clip-path="url(#pbd61e60558)">
     <use xlink:href="#C1_0_4dbf359ab6" x="503.714167" y="112.046456" style="fill: #dd8452; stroke: #ffffff; stroke-width: 0.505964"/>
    </g>
    <g clip-path="url(#pbd61e60558)">
     <use xlink:href="#C1_0_4dbf359ab6" x="503.714167" y="113.111348" style="fill: #55a868; stroke: #ffffff; stroke-width: 0.505964"/>
    </g>
    <g clip-path="url(#pbd61e60558)">
     <use xlink:href="#C1_0_4dbf359ab6" x="511.602207" y="105.989835" style="fill: #4c72b0; stroke: #ffffff; stroke-width: 0.505964"/>
    </g>
    <g clip-path="url(#pbd61e60558)">
     <use xlink:href="#C1_0_4dbf359ab6" x="511.602207" y="110.911578" style="fill: #dd8452; stroke: #ffffff; stroke-width: 0.505964"/>
    </g>
    <g clip-path="url(#pbd61e60558)">
     <use xlink:href="#C1_0_4dbf359ab6" x="511.602207" y="112.166286" style="fill: #55a868; stroke: #ffffff; stroke-width: 0.505964"/>
    </g>
    <g clip-path="url(#pbd61e60558)">
     <use xlink:href="#C1_0_4dbf359ab6" x="519.711072" y="101.463324" style="fill: #4c72b0; stroke: #ffffff; stroke-width: 0.505964"/>
    </g>
    <g clip-path="url(#pbd61e60558)">
     <use xlink:href="#C1_0_4dbf359ab6" x="519.711072" y="108.810853" style="fill: #dd8452; stroke: #ffffff; stroke-width: 0.505964"/>
    </g>
    <g clip-path="url(#pbd61e60558)">
     <use xlink:href="#C1_0_4dbf359ab6" x="519.711072" y="110.653773" style="fill: #55a868; stroke: #ffffff; stroke-width: 0.505964"/>
    </g>
    <g clip-path="url(#pbd61e60558)">
     <use xlink:href="#C1_0_4dbf359ab6" x="527.803631" y="91.087088" style="fill: #4c72b0; stroke: #ffffff; stroke-width: 0.505964"/>
    </g>
    <g clip-path="url(#pbd61e60558)">
     <use xlink:href="#C1_0_4dbf359ab6" x="527.803631" y="105.333467" style="fill: #dd8452; stroke: #ffffff; stroke-width: 0.505964"/>
    </g>
    <g clip-path="url(#pbd61e60558)">
     <use xlink:href="#C1_0_4dbf359ab6" x="527.803631" y="107.935294" style="fill: #55a868; stroke: #ffffff; stroke-width: 0.505964"/>
    </g>
    <g clip-path="url(#pbd61e60558)">
     <use xlink:href="#C1_0_4dbf359ab6" x="535.66995" y="66.539105" style="fill: #4c72b0; stroke: #ffffff; stroke-width: 0.505964"/>
    </g>
    <g clip-path="url(#pbd61e60558)">
     <use xlink:href="#C1_0_4dbf359ab6" x="535.66995" y="97.192678" style="fill: #dd8452; stroke: #ffffff; stroke-width: 0.505964"/>
    </g>
    <g clip-path="url(#pbd61e60558)">
     <use xlink:href="#C1_0_4dbf359ab6" x="535.66995" y="102.924217" style="fill: #55a868; stroke: #ffffff; stroke-width: 0.505964"/>
    </g>
    <g clip-path="url(#pbd61e60558)">
     <use xlink:href="#C1_0_4dbf359ab6" x="543.236606" y="40.880979" style="fill: #4c72b0; stroke: #ffffff; stroke-width: 0.505964"/>
    </g>
    <g clip-path="url(#pbd61e60558)">
     <use xlink:href="#C1_0_4dbf359ab6" x="543.236606" y="62.504987" style="fill: #dd8452; stroke: #ffffff; stroke-width: 0.505964"/>
    </g>
    <g clip-path="url(#pbd61e60558)">
     <use xlink:href="#C1_0_4dbf359ab6" x="543.236606" y="79.035729" style="fill: #55a868; stroke: #ffffff; stroke-width: 0.505964"/>
    </g>
    <g clip-path="url(#pbd61e60558)">
     <use xlink:href="#C1_0_4dbf359ab6" x="548.539321" y="59.31004" style="fill: #4c72b0; stroke: #ffffff; stroke-width: 0.505964"/>
    </g>
    <g clip-path="url(#pbd61e60558)">
     <use xlink:href="#C1_0_4dbf359ab6" x="548.539321" y="42.544621" style="fill: #dd8452; stroke: #ffffff; stroke-width: 0.505964"/>
    </g>
    <g clip-path="url(#pbd61e60558)">
     <use xlink:href="#C1_0_4dbf359ab6" x="548.539321" y="40.340829" style="fill: #55a868; stroke: #ffffff; stroke-width: 0.505964"/>
    </g>
   </g>
   <g id="FillBetweenPolyCollection_4"/>
   <g id="FillBetweenPolyCollection_5"/>
   <g id="FillBetweenPolyCollection_6"/>
   <g id="matplotlib.axis_3">
    <g id="xtick_6">
     <g id="line2d_22">
      <g>
       <use xlink:href="#mafda2329e1" x="358.775484" y="214.646891" style="stroke: #000000; stroke-width: 0.8"/>
      </g>
     </g>
     <g id="text_20">
      <!-- $0$ -->
      <g transform="translate(354.663341 234.423868) scale(0.18 -0.18)">
       <use xlink:href="#CMR17-30" transform="scale(0.996264)"/>
      </g>
     </g>
    </g>
    <g id="xtick_7">
     <g id="line2d_23">
      <g>
       <use xlink:href="#mafda2329e1" x="455.631671" y="214.646891" style="stroke: #000000; stroke-width: 0.8"/>
      </g>
     </g>
     <g id="text_21">
      <!-- $1/2$ -->
      <g transform="translate(443.017642 235.096455) scale(0.18 -0.18)">
       <use xlink:href="#CMR17-31" transform="scale(0.996264)"/>
       <use xlink:href="#CMMI12-3d" transform="translate(45.690477 0) scale(0.996264)"/>
       <use xlink:href="#CMR17-32" transform="translate(94.465396 0) scale(0.996264)"/>
      </g>
     </g>
    </g>
    <g id="xtick_8">
     <g id="line2d_24">
      <g>
       <use xlink:href="#mafda2329e1" x="552.487857" y="214.646891" style="stroke: #000000; stroke-width: 0.8"/>
      </g>
     </g>
     <g id="text_22">
      <!-- $1$ -->
      <g transform="translate(548.375714 234.423868) scale(0.18 -0.18)">
       <use xlink:href="#CMR17-31" transform="scale(0.996264)"/>
      </g>
     </g>
    </g>
    <g id="text_23">
     <!-- $\theta / \pi$ -->
     <g transform="translate(441.926435 257.029208) scale(0.18 -0.18)">
      <use xlink:href="#CMMI12-12" transform="scale(0.996264)"/>
      <use xlink:href="#CMMI12-3d" transform="translate(48.169508 0) scale(0.996264)"/>
      <use xlink:href="#CMMI12-19" transform="translate(96.944427 0) scale(0.996264)"/>
     </g>
    </g>
   </g>
   <g id="matplotlib.axis_4">
    <g id="ytick_8">
     <g id="line2d_25">
      <g>
       <use xlink:href="#m078dce33fc" x="358.775484" y="214.646891" style="stroke: #000000; stroke-width: 0.8"/>
      </g>
     </g>
     <g id="text_24">
      <!-- $-0.5$ -->
      <g transform="translate(316.501679 221.035379) scale(0.18 -0.18)">
       <defs>
        <path id="CMSY10-0" d="M 4218 1472 
C 4326 1472 4442 1472 4442 1600 
C 4442 1728 4326 1728 4218 1728 
L 755 1728 
C 646 1728 531 1728 531 1600 
C 531 1472 646 1472 755 1472 
L 4218 1472 
z
" transform="scale(0.015625)"/>
       </defs>
       <use xlink:href="#CMSY10-0" transform="scale(0.996264)"/>
       <use xlink:href="#CMR17-30" transform="translate(77.487468 0) scale(0.996264)"/>
       <use xlink:href="#CMMI12-3a" transform="translate(123.177945 0) scale(0.996264)"/>
       <use xlink:href="#CMR17-35" transform="translate(150.275122 0) scale(0.996264)"/>
      </g>
     </g>
    </g>
    <g id="ytick_9">
     <g id="line2d_26">
      <g>
       <use xlink:href="#m078dce33fc" x="358.775484" y="116.61769" style="stroke: #000000; stroke-width: 0.8"/>
      </g>
     </g>
     <g id="text_25">
      <!-- $0.0$ -->
      <g transform="translate(330.449421 123.006178) scale(0.18 -0.18)">
       <use xlink:href="#CMR17-30" transform="scale(0.996264)"/>
       <use xlink:href="#CMMI12-3a" transform="translate(45.690477 0) scale(0.996264)"/>
       <use xlink:href="#CMR17-30" transform="translate(72.787654 0) scale(0.996264)"/>
      </g>
     </g>
    </g>
    <g id="ytick_10">
     <g id="line2d_27">
      <g>
       <use xlink:href="#m078dce33fc" x="358.775484" y="18.588488" style="stroke: #000000; stroke-width: 0.8"/>
      </g>
     </g>
     <g id="text_26">
      <!-- $0.5$ -->
      <g transform="translate(330.449421 24.976976) scale(0.18 -0.18)">
       <use xlink:href="#CMR17-30" transform="scale(0.996264)"/>
       <use xlink:href="#CMMI12-3a" transform="translate(45.690477 0) scale(0.996264)"/>
       <use xlink:href="#CMR17-35" transform="translate(72.787654 0) scale(0.996264)"/>
      </g>
     </g>
    </g>
    <g id="text_27">
     <!-- $\sqrt{N} \cdot (\mathbb{E}(\tilde{\theta}) - \theta)$ -->
     <g transform="translate(308.033495 176.840463) rotate(-90) scale(0.18 -0.18)">
      <defs>
       <path id="CMSY10-70" d="M 2490 -5472 
L 1363 -2982 
C 1318 -2880 1286 -2880 1267 -2880 
C 1261 -2880 1229 -2880 1158 -2931 
L 550 -3392 
C 467 -3456 467 -3475 467 -3494 
C 467 -3526 486 -3565 531 -3565 
C 570 -3565 678 -3475 749 -3424 
C 787 -3393 883 -3323 954 -3271 
L 2214 -6042 
C 2259 -6144 2291 -6144 2349 -6144 
C 2445 -6144 2464 -6106 2509 -6016 
L 5414 0 
C 5459 90 5459 115 5459 128 
C 5459 192 5408 256 5331 256 
C 5280 256 5235 224 5184 122 
L 2490 -5472 
z
" transform="scale(0.015625)"/>
       <path id="CMSY10-1" d="M 1229 1619 
C 1229 1805 1075 1958 890 1958 
C 704 1958 550 1805 550 1619 
C 550 1433 704 1280 890 1280 
C 1075 1280 1229 1433 1229 1619 
z
" transform="scale(0.015625)"/>
       <path id="MSBM10-45" d="M 1658 2176 
C 1818 2176 2125 2176 2349 2046 
C 2656 1853 2682 1517 2682 1480 
C 2688 1393 2688 1312 2797 1312 
C 2906 1312 2906 1401 2906 1517 
L 2906 3251 
C 2906 3353 2906 3456 2797 3456 
C 2688 3456 2682 3355 2682 3301 
C 2643 2432 1990 2432 1658 2432 
L 1658 3772 
C 1658 4198 1779 4198 1933 4198 
L 2240 4198 
C 3104 4198 3533 3759 3571 3320 
C 3578 3269 3584 3174 3686 3174 
C 3795 3174 3795 3276 3795 3385 
L 3795 4218 
C 3795 4416 3782 4416 3584 4416 
L 307 4416 
C 192 4416 90 4416 90 4304 
C 90 4198 211 4198 262 4198 
C 627 4198 653 4147 653 3832 
L 653 622 
C 653 320 634 256 294 256 
C 198 256 90 256 90 147 
C 90 32 192 32 307 32 
L 3699 32 
C 3821 32 3885 32 3904 123 
C 3910 129 4090 1213 4090 1245 
C 4090 1316 4032 1362 3981 1362 
C 3891 1362 3866 1278 3866 1271 
C 3827 1102 3763 828 3296 549 
C 2963 347 2637 256 2285 256 
L 1933 256 
C 1779 256 1658 256 1658 684 
L 1658 2176 
z
M 3571 4198 
L 3571 3896 
C 3462 4015 3341 4116 3206 4198 
L 3571 4198 
z
M 2323 2315 
C 2426 2360 2566 2456 2682 2590 
L 2682 2052 
C 2528 2225 2330 2308 2323 2308 
L 2323 2315 
z
M 877 3845 
C 877 3923 877 4083 826 4198 
L 1504 4198 
C 1434 4051 1434 3839 1434 3781 
L 1434 673 
C 1434 442 1478 314 1504 256 
L 826 256 
C 877 371 877 531 877 609 
L 877 3845 
z
M 3258 256 
L 3258 262 
C 3462 367 3635 504 3763 621 
C 3757 596 3712 308 3706 256 
L 3258 256 
z
" transform="scale(0.015625)"/>
      </defs>
      <use xlink:href="#CMSY10-70" transform="translate(0 84.350328) scale(0.996264)"/>
      <use xlink:href="#CMMI12-4e" transform="translate(83.022254 0) scale(0.996264)"/>
      <use xlink:href="#CMSY10-1" transform="translate(193.683234 0) scale(0.996264)"/>
      <use xlink:href="#CMR17-28" transform="translate(243.496525 0) scale(0.996264)"/>
      <use xlink:href="#MSBM10-45" transform="translate(278.777293 0) scale(0.996264)"/>
      <use xlink:href="#CMR17-28" transform="translate(345.195112 0) scale(0.996264)"/>
      <use xlink:href="#CMR17-7e" transform="translate(389.844556 26.296621) scale(0.996264)"/>
      <use xlink:href="#CMMI12-12" transform="translate(380.47588 0) scale(0.996264)"/>
      <use xlink:href="#CMR17-29" transform="translate(428.645387 0) scale(0.996264)"/>
      <use xlink:href="#CMSY10-0" transform="translate(486.065362 0) scale(0.996264)"/>
      <use xlink:href="#CMMI12-12" transform="translate(585.692037 0) scale(0.996264)"/>
      <use xlink:href="#CMR17-29" transform="translate(633.861545 0) scale(0.996264)"/>
      <path d="M 83.022254 84.350328 
L 171.544027 84.350328 
L 171.544027 88.335277 
L 83.022254 88.335277 
L 83.022254 84.350328 
z
"/>
     </g>
    </g>
   </g>
   <g id="line2d_28">
    <path d="M 358.775484 116.61769 
L 359.937759 138.020462 
L 361.100033 155.531221 
L 362.262307 169.293146 
L 363.037157 176.495193 
L 363.812006 182.218279 
L 364.586856 186.56155 
L 365.361705 189.634192 
L 366.136555 191.552904 
L 366.523979 192.11742 
L 366.911404 192.439303 
L 367.298829 192.534098 
L 367.686254 192.417346 
L 368.073678 192.1045 
L 368.848528 190.951513 
L 369.623377 189.19453 
L 370.785651 185.673975 
L 372.33535 179.866949 
L 378.534146 155.098724 
L 380.083845 150.154059 
L 381.633544 145.926162 
L 383.183243 142.381816 
L 384.732942 139.449579 
L 386.282641 137.040348 
L 387.83234 135.062143 
L 389.382039 133.429518 
L 391.319163 131.763295 
L 393.256287 130.406902 
L 395.580835 129.069838 
L 398.292808 127.787001 
L 401.392206 126.56802 
L 405.266454 125.294415 
L 409.915551 124.016511 
L 415.339497 122.762829 
L 421.925718 121.474414 
L 430.061638 120.115985 
L 440.90953 118.54564 
L 459.893343 116.070087 
L 476.940032 113.761174 
L 486.62565 112.23722 
L 493.986721 110.873985 
L 500.185516 109.505998 
L 505.222038 108.170351 
L 509.48371 106.805628 
L 512.970533 105.448378 
L 515.682506 104.165541 
L 518.007055 102.828477 
L 519.944178 101.472084 
L 521.881302 99.805861 
L 523.431001 98.173236 
L 524.9807 96.195032 
L 526.530399 93.7858 
L 528.080098 90.853564 
L 529.629797 87.309217 
L 531.179496 83.08132 
L 532.729195 78.136656 
L 534.666319 71.003109 
L 537.378292 59.803088 
L 539.70284 50.345561 
L 540.865115 46.287862 
L 542.027389 43.094129 
L 542.802238 41.624517 
L 543.189663 41.130879 
L 543.577088 40.818034 
L 543.964513 40.701281 
L 544.351937 40.796077 
L 544.739362 41.117959 
L 545.126787 41.682475 
L 545.514212 42.505106 
L 546.289061 44.985828 
L 547.063911 48.679606 
L 547.83876 53.699706 
L 548.61361 60.150602 
L 549.388459 68.125517 
L 550.550733 83.115594 
L 551.713008 101.91233 
L 552.487857 116.61769 
L 552.487857 116.61769 
" clip-path="url(#pbd61e60558)" style="fill: none; stroke: #4c72b0; stroke-width: 2; stroke-linecap: square"/>
   </g>
   <g id="line2d_29">
    <path d="M 358.775484 116.61769 
L 359.550334 140.985009 
L 360.325183 160.19538 
L 361.100033 174.501028 
L 361.874882 184.300765 
L 362.649732 190.110284 
L 363.037157 191.702855 
L 363.424581 192.525378 
L 363.812006 192.658287 
L 364.199431 192.182062 
L 364.586856 191.176081 
L 365.361705 187.880749 
L 366.136555 183.348726 
L 367.686254 172.509049 
L 369.623377 159.136916 
L 370.785651 152.354056 
L 371.947926 146.761878 
L 373.1102 142.314695 
L 374.272474 138.855326 
L 375.434748 136.187522 
L 376.597023 134.121767 
L 377.759297 132.498178 
L 378.921571 131.193233 
L 380.47127 129.797907 
L 382.408394 128.421389 
L 384.345518 127.311813 
L 386.670066 126.216673 
L 389.382039 125.167054 
L 392.868862 124.070179 
L 396.743109 123.084309 
L 401.392206 122.124292 
L 407.203578 121.156595 
L 414.564648 120.17377 
L 423.862842 119.174357 
L 436.260433 118.082389 
L 456.793945 116.532775 
L 480.426854 114.699404 
L 492.437022 113.545849 
L 500.960366 112.519417 
L 507.546587 111.523889 
L 512.970533 110.494007 
L 517.232205 109.482858 
L 521.106453 108.333405 
L 524.205851 107.18183 
L 526.917824 105.923566 
L 528.854948 104.81399 
L 530.792071 103.437473 
L 532.34177 102.042147 
L 533.504045 100.737202 
L 534.666319 99.113612 
L 535.828593 97.047858 
L 536.990867 94.380053 
L 538.153141 90.920684 
L 539.315416 86.473502 
L 540.47769 80.881323 
L 541.639964 74.098464 
L 543.189663 63.525424 
L 545.514212 47.499506 
L 546.289061 43.517793 
L 546.676486 42.059299 
L 547.063911 41.053318 
L 547.451335 40.577092 
L 547.83876 40.710002 
L 548.226185 41.532524 
L 548.61361 43.125095 
L 549.001034 45.566899 
L 549.388459 48.934614 
L 550.163309 58.734352 
L 550.938158 73.039999 
L 551.713008 92.25037 
L 552.487857 116.61769 
L 552.487857 116.61769 
" clip-path="url(#pbd61e60558)" style="fill: none; stroke: #dd8452; stroke-width: 2; stroke-linecap: square"/>
   </g>
   <g id="line2d_30">
    <path d="M 358.775484 116.61769 
L 359.550334 147.100154 
L 360.325183 169.100084 
L 361.100033 183.30012 
L 361.487458 187.790015 
L 361.874882 190.742328 
L 362.262307 192.322981 
L 362.649732 192.703701 
L 363.037157 192.057592 
L 363.424581 190.555005 
L 364.199431 185.626297 
L 365.361705 175.544602 
L 367.298829 158.281584 
L 368.461103 149.96857 
L 369.623377 143.621954 
L 370.398227 140.373317 
L 371.173076 137.773078 
L 372.33535 134.815692 
L 373.497625 132.665364 
L 374.659899 131.046421 
L 375.822173 129.775244 
L 377.371872 128.430126 
L 379.308996 127.109122 
L 381.24612 126.051008 
L 383.570668 125.018552 
L 386.282641 124.044467 
L 389.769464 123.045 
L 394.031136 122.08554 
L 399.067658 121.197675 
L 405.266454 120.342166 
L 413.014949 119.50518 
L 423.087992 118.649247 
L 437.035283 117.700624 
L 464.155015 116.133564 
L 484.688527 114.842649 
L 496.698694 113.875807 
L 505.609463 112.940271 
L 512.195684 112.037704 
L 517.61963 111.071819 
L 521.881302 110.09044 
L 525.368125 109.063984 
L 528.080098 108.059289 
L 530.404647 106.98934 
L 532.34177 105.886528 
L 533.891469 104.805253 
L 535.441168 103.460135 
L 536.603442 102.188958 
L 537.765717 100.570015 
L 538.927991 98.419688 
L 539.70284 96.558938 
L 540.47769 94.23524 
L 541.252539 91.326733 
L 542.027389 87.70724 
L 542.802238 83.266809 
L 543.964513 74.953795 
L 545.514212 61.303459 
L 547.063911 47.609083 
L 547.83876 42.680374 
L 548.226185 41.177787 
L 548.61361 40.531679 
L 549.001034 40.912398 
L 549.388459 42.493051 
L 549.775884 45.445364 
L 550.163309 49.935259 
L 550.550733 56.118314 
L 551.325583 74.107943 
L 552.100432 100.290204 
L 552.487857 116.61769 
L 552.487857 116.61769 
" clip-path="url(#pbd61e60558)" style="fill: none; stroke: #55a868; stroke-width: 2; stroke-linecap: square"/>
   </g>
   <g id="line2d_31">
    <path d="M 358.775484 116.61769 
L 552.487857 116.61769 
" clip-path="url(#pbd61e60558)" style="fill: none; stroke-dasharray: 5.55,2.4; stroke-dashoffset: 0; stroke: #808080; stroke-width: 1.5"/>
   </g>
   <g id="patch_6">
    <path d="M 358.775484 214.646891 
L 358.775484 18.588488 
" style="fill: none; stroke: #000000; stroke-width: 0.8; stroke-linejoin: miter; stroke-linecap: square"/>
   </g>
   <g id="patch_7">
    <path d="M 358.775484 214.646891 
L 552.487857 214.646891 
" style="fill: none; stroke: #000000; stroke-width: 0.8; stroke-linejoin: miter; stroke-linecap: square"/>
   </g>
  </g>
 </g>
 <defs>
  <clipPath id="p0b7617f1a7">
   <rect x="73.206925" y="13.588488" width="484.280932" height="490.146007"/>
  </clipPath>
  <clipPath id="pbd61e60558">
   <rect x="358.775484" y="18.588488" width="193.712373" height="196.058403"/>
  </clipPath>
 </defs>
</svg>
