<?xml version="1.0" encoding="utf-8" standalone="no"?>
<!DOCTYPE svg PUBLIC "-//W3C//DTD SVG 1.1//EN"
  "http://www.w3.org/Graphics/SVG/1.1/DTD/svg11.dtd">
<svg xmlns:xlink="http://www.w3.org/1999/xlink" width="446.4pt" height="332.64pt" viewBox="0 0 446.4 332.64" xmlns="http://www.w3.org/2000/svg" version="1.1">
 <metadata>
  <rdf:RDF xmlns:dc="http://purl.org/dc/elements/1.1/" xmlns:cc="http://creativecommons.org/ns#" xmlns:rdf="http://www.w3.org/1999/02/22-rdf-syntax-ns#">
   <cc:Work>
    <dc:type rdf:resource="http://purl.org/dc/dcmitype/StillImage"/>
    <dc:date>2025-07-17T15:27:06.447186</dc:date>
    <dc:format>image/svg+xml</dc:format>
    <dc:creator>
     <cc:Agent>
      <dc:title>Matplotlib v3.10.3, https://matplotlib.org/</dc:title>
     </cc:Agent>
    </dc:creator>
   </cc:Work>
  </rdf:RDF>
 </metadata>
 <defs>
  <style type="text/css">*{stroke-linejoin: round; stroke-linecap: butt}</style>
 </defs>
 <g id="figure_1">
  <g id="patch_1">
   <path d="M 0 332.64 
L 446.4 332.64 
L 446.4 0 
L 0 0 
z
" style="fill: #ffffff"/>
  </g>
  <g id="axes_1">
   <g id="legend_1">
    <g id="line2d_1">
     <path d="M 148.600692 107.415107 
L 168.600692 107.415107 
L 188.600692 107.415107 
" style="fill: none"/>
     <defs>
      <path id="m12adc0bb72" d="M 0 3 
C 0.795609 3 1.55874 2.683901 2.12132 2.12132 
C 2.683901 1.55874 3 0.795609 3 0 
C 3 -0.795609 2.683901 -1.55874 2.12132 -2.12132 
C 1.55874 -2.683901 0.795609 -3 0 -3 
C -0.795609 -3 -1.55874 -2.683901 -2.12132 -2.12132 
C -2.683901 -1.55874 -3 -0.795609 -3 0 
C -3 0.795609 -2.683901 1.55874 -2.12132 2.12132 
C -1.55874 2.683901 -0.795609 3 0 3 
z
" style="stroke: #000000"/>
     </defs>
     <g>
      <use xlink:href="#m12adc0bb72" x="168.600692" y="107.415107" style="stroke: #000000"/>
     </g>
    </g>
    <g id="text_1">
     <!-- $\mathrm{Experiment}$ -->
     <g transform="translate(204.600692 114.415107) scale(0.2 -0.2)">
      <defs>
       <path id="CMR17-45" d="M 3885 1615 
L 3770 1615 
C 3629 676 3546 166 2419 166 
L 1530 166 
C 1274 166 1261 197 1261 414 
L 1261 2176 
L 1862 2176 
C 2464 2176 2522 1960 2522 1430 
L 2637 1430 
L 2637 3081 
L 2522 3081 
C 2522 2557 2464 2342 1862 2342 
L 1261 2342 
L 1261 3913 
C 1261 4128 1274 4160 1530 4160 
L 2406 4160 
C 3398 4160 3514 3769 3603 2929 
L 3718 2929 
L 3565 4325 
L 326 4325 
L 326 4160 
C 768 4160 838 4160 838 3874 
L 838 451 
C 838 166 768 166 326 166 
L 326 0 
L 3654 0 
L 3885 1615 
z
" transform="scale(0.015625)"/>
       <path id="CMR17-78" d="M 1664 1477 
C 1856 1726 2074 2006 2253 2216 
C 2464 2458 2707 2560 2989 2560 
L 2989 2726 
C 2880 2726 2656 2726 2541 2726 
C 2368 2726 2170 2726 2022 2732 
L 2022 2566 
C 2112 2553 2163 2489 2163 2400 
C 2163 2285 2099 2215 2067 2171 
L 1594 1573 
L 1030 2306 
C 973 2376 973 2388 973 2420 
C 973 2497 1037 2560 1146 2560 
L 1146 2732 
C 992 2726 717 2726 557 2726 
C 384 2726 179 2726 38 2732 
L 38 2560 
C 384 2560 461 2534 614 2343 
L 1350 1395 
C 1363 1382 1395 1344 1395 1325 
C 1395 1299 838 619 768 530 
C 480 185 179 160 6 160 
L 6 0 
C 115 0 339 0 454 0 
C 582 0 864 0 979 -6 
L 979 160 
C 941 166 838 179 838 325 
C 838 440 890 510 947 586 
L 1478 1236 
L 2035 512 
C 2086 442 2163 346 2163 301 
C 2163 211 2086 160 1984 160 
L 1984 -6 
C 2138 0 2413 0 2573 0 
C 2746 0 2950 0 3091 -6 
L 3091 160 
C 2771 160 2675 172 2522 370 
L 1664 1477 
z
" transform="scale(0.015625)"/>
       <path id="CMR17-70" d="M 1408 -1063 
C 998 -1063 973 -1037 973 -789 
L 973 402 
C 1158 134 1427 -38 1766 -38 
C 2406 -38 3053 523 3053 1388 
C 3053 2191 2496 2802 1837 2802 
C 1453 2802 1139 2592 960 2338 
L 960 2802 
L 198 2732 
L 198 2567 
C 576 2567 634 2528 634 2223 
L 634 -789 
C 634 -1031 608 -1063 198 -1063 
L 198 -1228 
C 352 -1216 634 -1216 800 -1216 
C 966 -1216 1254 -1216 1408 -1228 
L 1408 -1063 
z
M 973 2012 
C 973 2102 973 2235 1222 2471 
C 1254 2497 1472 2688 1792 2688 
C 2259 2688 2643 2108 2643 1382 
C 2643 656 2234 64 1728 64 
C 1498 64 1248 172 1056 472 
C 973 612 973 650 973 752 
L 973 2012 
z
" transform="scale(0.015625)"/>
       <path id="CMR17-65" d="M 2438 1472 
C 2464 1498 2464 1511 2464 1576 
C 2464 2238 2118 2816 1389 2816 
C 710 2816 173 2169 173 1383 
C 173 551 781 -64 1459 -64 
C 2176 -64 2458 607 2458 740 
C 2458 784 2419 784 2406 784 
C 2362 784 2355 771 2330 696 
C 2189 265 1837 51 1504 51 
C 1229 51 954 203 781 480 
C 582 803 582 1176 582 1472 
L 2438 1472 
z
M 589 1568 
C 634 2505 1126 2714 1382 2714 
C 1818 2714 2112 2297 2118 1568 
L 589 1568 
z
" transform="scale(0.015625)"/>
       <path id="CMR17-72" d="M 960 1497 
C 960 2112 1222 2688 1702 2688 
C 1747 2688 1792 2682 1837 2662 
C 1837 2662 1696 2617 1696 2452 
C 1696 2298 1818 2234 1914 2234 
C 1990 2234 2131 2279 2131 2458 
C 2131 2663 1926 2790 1709 2790 
C 1222 2790 1011 2317 947 2093 
L 941 2093 
L 941 2790 
L 198 2720 
L 198 2554 
C 576 2554 634 2515 634 2208 
L 634 428 
C 634 184 608 153 198 153 
L 198 -13 
C 352 0 646 0 813 0 
C 998 0 1325 0 1498 -13 
L 1498 153 
C 1037 153 960 153 960 440 
L 960 1497 
z
" transform="scale(0.015625)"/>
       <path id="CMR17-69" d="M 992 3909 
C 992 4049 877 4170 730 4170 
C 589 4170 467 4056 467 3909 
C 467 3769 582 3648 730 3648 
C 870 3648 992 3763 992 3909 
z
M 243 2706 
L 243 2541 
C 602 2541 653 2502 653 2197 
L 653 427 
C 653 184 627 153 218 153 
L 218 -13 
C 371 0 646 0 806 0 
C 960 0 1222 0 1370 -13 
L 1370 153 
C 992 153 979 191 979 420 
L 979 2776 
L 243 2706 
z
" transform="scale(0.015625)"/>
       <path id="CMR17-6d" d="M 4326 1933 
C 4326 2252 4269 2790 3507 2790 
C 3072 2790 2771 2496 2656 2151 
L 2650 2151 
C 2573 2676 2195 2790 1837 2790 
C 1331 2790 1069 2400 973 2144 
L 966 2144 
L 966 2790 
L 211 2720 
L 211 2554 
C 589 2554 646 2515 646 2208 
L 646 428 
C 646 184 621 153 211 153 
L 211 -13 
C 365 0 646 0 813 0 
C 979 0 1267 0 1421 -13 
L 1421 153 
C 1011 153 986 178 986 428 
L 986 1658 
C 986 2247 1344 2688 1792 2688 
C 2266 2688 2317 2266 2317 1958 
L 2317 428 
C 2317 184 2291 153 1882 153 
L 1882 -13 
C 2035 0 2317 0 2483 0 
C 2650 0 2938 0 3091 -13 
L 3091 153 
C 2682 153 2656 178 2656 428 
L 2656 1658 
C 2656 2247 3014 2688 3462 2688 
C 3936 2688 3987 2266 3987 1958 
L 3987 428 
C 3987 184 3962 153 3552 153 
L 3552 -13 
C 3706 0 3987 0 4154 0 
C 4320 0 4608 0 4762 -13 
L 4762 153 
C 4352 153 4326 178 4326 428 
L 4326 1933 
z
" transform="scale(0.015625)"/>
       <path id="CMR17-6e" d="M 2656 1933 
C 2656 2259 2592 2790 1837 2790 
C 1331 2790 1069 2400 973 2144 
L 966 2144 
L 966 2790 
L 211 2720 
L 211 2554 
C 589 2554 646 2515 646 2208 
L 646 428 
C 646 184 621 153 211 153 
L 211 -13 
C 365 0 646 0 813 0 
C 979 0 1267 0 1421 -13 
L 1421 153 
C 1011 153 986 178 986 428 
L 986 1658 
C 986 2247 1344 2688 1792 2688 
C 2266 2688 2317 2266 2317 1958 
L 2317 428 
C 2317 184 2291 153 1882 153 
L 1882 -13 
C 2035 0 2317 0 2483 0 
C 2650 0 2938 0 3091 -13 
L 3091 153 
C 2682 153 2656 178 2656 428 
L 2656 1933 
z
" transform="scale(0.015625)"/>
       <path id="CMR17-74" d="M 966 2560 
L 1862 2560 
L 1862 2725 
L 966 2725 
L 966 3904 
L 851 3904 
C 838 3245 614 2668 70 2668 
L 70 2560 
L 627 2560 
L 627 771 
C 627 650 627 -64 1370 -64 
C 1747 -64 1965 306 1965 777 
L 1965 1140 
L 1850 1140 
L 1850 783 
C 1850 344 1677 51 1408 51 
C 1222 51 966 178 966 758 
L 966 2560 
z
" transform="scale(0.015625)"/>
      </defs>
      <use xlink:href="#CMR17-45" transform="scale(0.996264)"/>
      <use xlink:href="#CMR17-78" transform="translate(62.586301 0) scale(0.996264)"/>
      <use xlink:href="#CMR17-70" transform="translate(110.879216 0) scale(0.996264)"/>
      <use xlink:href="#CMR17-65" transform="translate(164.377025 0) scale(0.996264)"/>
      <use xlink:href="#CMR17-72" transform="translate(204.862685 0) scale(0.996264)"/>
      <use xlink:href="#CMR17-69" transform="translate(240.143453 0) scale(0.996264)"/>
      <use xlink:href="#CMR17-6d" transform="translate(265.014512 0) scale(0.996264)"/>
      <use xlink:href="#CMR17-65" transform="translate(341.934101 0) scale(0.996264)"/>
      <use xlink:href="#CMR17-6e" transform="translate(382.419762 0) scale(0.996264)"/>
      <use xlink:href="#CMR17-74" transform="translate(430.712678 0) scale(0.996264)"/>
     </g>
    </g>
    <g id="line2d_2">
     <path d="M 148.600692 135.855721 
L 168.600692 135.855721 
L 188.600692 135.855721 
" style="fill: none; stroke: #000000; stroke-width: 2; stroke-linecap: square"/>
    </g>
    <g id="text_2">
     <!-- $\mathrm{Theory}$ -->
     <g transform="translate(204.600692 142.855721) scale(0.2 -0.2)">
      <defs>
       <path id="CMR17-54" d="M 3981 4326 
L 288 4326 
L 179 2918 
L 294 2918 
C 378 3976 467 4160 1453 4160 
C 1568 4160 1754 4160 1805 4154 
C 1926 4135 1926 4058 1926 3912 
L 1926 459 
C 1926 230 1907 160 1376 160 
L 1197 160 
L 1197 0 
C 1504 0 1824 0 2138 0 
C 2451 0 2771 0 3078 0 
L 3078 160 
L 2899 160 
C 2368 160 2349 230 2349 459 
L 2349 3912 
C 2349 4052 2349 4129 2464 4154 
C 2515 4160 2701 4160 2816 4160 
C 3795 4160 3891 3976 3974 2918 
L 4090 2918 
L 3981 4326 
z
" transform="scale(0.015625)"/>
       <path id="CMR17-68" d="M 2656 1933 
C 2656 2259 2592 2790 1837 2790 
C 1312 2790 1056 2368 979 2157 
L 973 2157 
L 973 4396 
L 211 4326 
L 211 4160 
C 589 4160 646 4122 646 3817 
L 646 426 
C 646 184 621 153 211 153 
L 211 -13 
C 365 0 646 0 813 0 
C 979 0 1267 0 1421 -13 
L 1421 153 
C 1011 153 986 178 986 428 
L 986 1658 
C 986 2247 1344 2688 1792 2688 
C 2266 2688 2317 2266 2317 1958 
L 2317 428 
C 2317 184 2291 153 1882 153 
L 1882 -13 
C 2035 0 2317 0 2483 0 
C 2650 0 2938 0 3091 -13 
L 3091 153 
C 2682 153 2656 178 2656 428 
L 2656 1933 
z
" transform="scale(0.015625)"/>
       <path id="CMR17-6f" d="M 2758 1356 
C 2758 2176 2163 2816 1466 2816 
C 768 2816 173 2176 173 1356 
C 173 551 768 -64 1466 -64 
C 2163 -64 2758 551 2758 1356 
z
M 1466 51 
C 1165 51 909 230 762 480 
C 602 767 582 1126 582 1408 
C 582 1677 595 2010 762 2298 
C 890 2509 1139 2714 1466 2714 
C 1754 2714 1997 2554 2150 2330 
C 2349 2029 2349 1607 2349 1408 
C 2349 1158 2336 775 2163 467 
C 1984 173 1709 51 1466 51 
z
" transform="scale(0.015625)"/>
       <path id="CMR17-79" d="M 2496 2197 
C 2656 2586 2944 2586 3034 2586 
L 3034 2752 
C 2912 2752 2752 2752 2630 2752 
C 2496 2752 2285 2752 2157 2758 
L 2157 2592 
C 2400 2573 2406 2394 2406 2343 
C 2406 2280 2394 2248 2362 2171 
L 1664 449 
L 902 2306 
C 870 2382 870 2426 870 2433 
C 870 2573 1018 2586 1171 2586 
L 1171 2758 
C 1018 2752 742 2752 582 2752 
C 410 2752 205 2752 64 2758 
L 64 2586 
C 410 2586 448 2554 531 2350 
L 1485 15 
C 1197 -738 1030 -1178 627 -1178 
C 557 -1178 397 -1159 282 -1044 
C 429 -1031 493 -942 493 -833 
C 493 -725 416 -629 288 -629 
C 147 -629 77 -725 77 -840 
C 77 -1095 339 -1280 627 -1280 
C 998 -1280 1229 -922 1357 -604 
L 2496 2197 
z
" transform="scale(0.015625)"/>
      </defs>
      <use xlink:href="#CMR17-54" transform="scale(0.996264)"/>
      <use xlink:href="#CMR17-68" transform="translate(66.509881 0) scale(0.996264)"/>
      <use xlink:href="#CMR17-65" transform="translate(117.40525 0) scale(0.996264)"/>
      <use xlink:href="#CMR17-6f" transform="translate(157.890911 0) scale(0.996264)"/>
      <use xlink:href="#CMR17-72" transform="translate(203.581388 0) scale(0.996264)"/>
      <use xlink:href="#CMR17-79" transform="translate(238.862156 0) scale(0.996264)"/>
     </g>
    </g>
    <g id="line2d_3">
     <path d="M 148.600692 164.296334 
L 168.600692 164.296334 
L 188.600692 164.296334 
" style="fill: none; stroke: #4c72b0; stroke-width: 2; stroke-linecap: square"/>
     <defs>
      <path id="m358fc2bf86" d="M 0 3 
C 0.795609 3 1.55874 2.683901 2.12132 2.12132 
C 2.683901 1.55874 3 0.795609 3 0 
C 3 -0.795609 2.683901 -1.55874 2.12132 -2.12132 
C 1.55874 -2.683901 0.795609 -3 0 -3 
C -0.795609 -3 -1.55874 -2.683901 -2.12132 -2.12132 
C -2.683901 -1.55874 -3 -0.795609 -3 0 
C -3 0.795609 -2.683901 1.55874 -2.12132 2.12132 
C -1.55874 2.683901 -0.795609 3 0 3 
z
" style="stroke: #4c72b0"/>
     </defs>
     <g>
      <use xlink:href="#m358fc2bf86" x="168.600692" y="164.296334" style="fill: #4c72b0; stroke: #4c72b0"/>
     </g>
    </g>
    <g id="text_3">
     <!-- $N = 40$ -->
     <g transform="translate(204.600692 171.296334) scale(0.2 -0.2)">
      <defs>
       <path id="CMMI12-4e" d="M 4736 3698 
C 4806 3974 4909 4166 5395 4166 
C 5414 4166 5491 4166 5491 4279 
C 5491 4352 5434 4352 5408 4352 
C 5280 4352 4954 4352 4826 4352 
L 4518 4352 
C 4429 4352 4314 4352 4224 4352 
C 4186 4352 4109 4352 4109 4230 
C 4109 4166 4160 4166 4205 4166 
C 4589 4166 4614 4019 4614 3903 
C 4614 3846 4608 3826 4589 3737 
L 3866 850 
L 2496 4249 
C 2451 4352 2445 4352 2304 4352 
L 1523 4352 
C 1395 4352 1338 4352 1338 4230 
C 1338 4166 1382 4166 1504 4166 
C 1536 4166 1914 4166 1914 4115 
C 1914 4102 1901 4051 1894 4032 
L 1043 635 
C 966 320 813 186 390 186 
C 358 186 294 186 294 67 
C 294 0 358 0 378 0 
C 506 0 832 0 960 0 
L 1267 0 
C 1357 0 1466 0 1555 0 
C 1600 0 1670 0 1670 122 
C 1670 180 1606 186 1581 186 
C 1370 186 1165 224 1165 454 
C 1165 505 1178 562 1190 613 
L 2054 4032 
C 2093 3968 2093 3956 2118 3898 
L 3642 115 
C 3674 38 3686 0 3744 0 
C 3808 0 3814 19 3840 128 
L 4736 3698 
z
" transform="scale(0.015625)"/>
       <path id="CMR17-3d" d="M 4115 2017 
C 4211 2017 4307 2017 4307 2125 
C 4307 2240 4198 2240 4090 2240 
L 512 2240 
C 403 2240 294 2240 294 2125 
C 294 2017 390 2017 486 2017 
L 4115 2017 
z
M 4090 896 
C 4198 896 4307 896 4307 1011 
C 4307 1119 4211 1119 4115 1119 
L 486 1119 
C 390 1119 294 1119 294 1011 
C 294 896 403 896 512 896 
L 4090 896 
z
" transform="scale(0.015625)"/>
       <path id="CMR17-34" d="M 2150 4122 
C 2150 4256 2144 4256 2029 4256 
L 128 1254 
L 128 1088 
L 1779 1088 
L 1779 457 
C 1779 224 1766 160 1318 160 
L 1197 160 
L 1197 0 
C 1402 0 1747 0 1965 0 
C 2182 0 2528 0 2733 0 
L 2733 160 
L 2611 160 
C 2163 160 2150 224 2150 457 
L 2150 1088 
L 2803 1088 
L 2803 1254 
L 2150 1254 
L 2150 4122 
z
M 1798 3703 
L 1798 1254 
L 256 1254 
L 1798 3703 
z
" transform="scale(0.015625)"/>
       <path id="CMR17-30" d="M 2688 2025 
C 2688 2416 2682 3080 2413 3591 
C 2176 4039 1798 4198 1466 4198 
C 1158 4198 768 4058 525 3597 
C 269 3118 243 2524 243 2025 
C 243 1661 250 1106 448 619 
C 723 -39 1216 -128 1466 -128 
C 1760 -128 2208 -7 2470 600 
C 2662 1042 2688 1559 2688 2025 
z
M 1466 -26 
C 1056 -26 813 325 723 812 
C 653 1188 653 1738 653 2096 
C 653 2588 653 2997 736 3387 
C 858 3929 1216 4096 1466 4096 
C 1728 4096 2067 3923 2189 3400 
C 2272 3036 2278 2607 2278 2096 
C 2278 1680 2278 1169 2202 792 
C 2067 95 1690 -26 1466 -26 
z
" transform="scale(0.015625)"/>
      </defs>
      <use xlink:href="#CMMI12-4e" transform="scale(0.996264)"/>
      <use xlink:href="#CMR17-3d" transform="translate(116.195781 0) scale(0.996264)"/>
      <use xlink:href="#CMR17-34" transform="translate(215.584578 0) scale(0.996264)"/>
      <use xlink:href="#CMR17-30" transform="translate(261.275056 0) scale(0.996264)"/>
     </g>
    </g>
    <g id="line2d_4">
     <path d="M 148.600692 192.736947 
L 168.600692 192.736947 
L 188.600692 192.736947 
" style="fill: none; stroke: #dd8452; stroke-width: 2; stroke-linecap: square"/>
     <defs>
      <path id="m0cbd4e60dc" d="M 0 3 
C 0.795609 3 1.55874 2.683901 2.12132 2.12132 
C 2.683901 1.55874 3 0.795609 3 0 
C 3 -0.795609 2.683901 -1.55874 2.12132 -2.12132 
C 1.55874 -2.683901 0.795609 -3 0 -3 
C -0.795609 -3 -1.55874 -2.683901 -2.12132 -2.12132 
C -2.683901 -1.55874 -3 -0.795609 -3 0 
C -3 0.795609 -2.683901 1.55874 -2.12132 2.12132 
C -1.55874 2.683901 -0.795609 3 0 3 
z
" style="stroke: #dd8452"/>
     </defs>
     <g>
      <use xlink:href="#m0cbd4e60dc" x="168.600692" y="192.736947" style="fill: #dd8452; stroke: #dd8452"/>
     </g>
    </g>
    <g id="text_4">
     <!-- $N = 120$ -->
     <g transform="translate(204.600692 199.736947) scale(0.2 -0.2)">
      <defs>
       <path id="CMR17-31" d="M 1702 4058 
C 1702 4192 1696 4192 1606 4192 
C 1357 3916 979 3827 621 3827 
C 602 3827 570 3827 563 3808 
C 557 3795 557 3782 557 3648 
C 755 3648 1088 3686 1344 3839 
L 1344 461 
C 1344 236 1331 160 781 160 
L 589 160 
L 589 0 
C 896 0 1216 0 1523 0 
C 1830 0 2150 0 2458 0 
L 2458 160 
L 2266 160 
C 1715 160 1702 230 1702 458 
L 1702 4058 
z
" transform="scale(0.015625)"/>
       <path id="CMR17-32" d="M 2669 989 
L 2554 989 
C 2490 536 2438 459 2413 420 
C 2381 369 1920 369 1830 369 
L 602 369 
C 832 619 1280 1072 1824 1597 
C 2214 1967 2669 2402 2669 3035 
C 2669 3790 2067 4224 1395 4224 
C 691 4224 262 3604 262 3030 
C 262 2780 448 2748 525 2748 
C 589 2748 781 2787 781 3010 
C 781 3207 614 3264 525 3264 
C 486 3264 448 3258 422 3245 
C 544 3790 915 4058 1306 4058 
C 1862 4058 2227 3617 2227 3035 
C 2227 2479 1901 2000 1536 1584 
L 262 146 
L 262 0 
L 2515 0 
L 2669 989 
z
" transform="scale(0.015625)"/>
      </defs>
      <use xlink:href="#CMMI12-4e" transform="scale(0.996264)"/>
      <use xlink:href="#CMR17-3d" transform="translate(116.195781 0) scale(0.996264)"/>
      <use xlink:href="#CMR17-31" transform="translate(215.584578 0) scale(0.996264)"/>
      <use xlink:href="#CMR17-32" transform="translate(261.275056 0) scale(0.996264)"/>
      <use xlink:href="#CMR17-30" transform="translate(306.965533 0) scale(0.996264)"/>
     </g>
    </g>
    <g id="line2d_5">
     <path d="M 148.600692 221.177561 
L 168.600692 221.177561 
L 188.600692 221.177561 
" style="fill: none; stroke: #55a868; stroke-width: 2; stroke-linecap: square"/>
     <defs>
      <path id="mddf309dbd9" d="M 0 3 
C 0.795609 3 1.55874 2.683901 2.12132 2.12132 
C 2.683901 1.55874 3 0.795609 3 0 
C 3 -0.795609 2.683901 -1.55874 2.12132 -2.12132 
C 1.55874 -2.683901 0.795609 -3 0 -3 
C -0.795609 -3 -1.55874 -2.683901 -2.12132 -2.12132 
C -2.683901 -1.55874 -3 -0.795609 -3 0 
C -3 0.795609 -2.683901 1.55874 -2.12132 2.12132 
C -1.55874 2.683901 -0.795609 3 0 3 
z
" style="stroke: #55a868"/>
     </defs>
     <g>
      <use xlink:href="#mddf309dbd9" x="168.600692" y="221.177561" style="fill: #55a868; stroke: #55a868"/>
     </g>
    </g>
    <g id="text_5">
     <!-- $N = 200$ -->
     <g transform="translate(204.600692 228.177561) scale(0.2 -0.2)">
      <use xlink:href="#CMMI12-4e" transform="scale(0.996264)"/>
      <use xlink:href="#CMR17-3d" transform="translate(116.195781 0) scale(0.996264)"/>
      <use xlink:href="#CMR17-32" transform="translate(215.584578 0) scale(0.996264)"/>
      <use xlink:href="#CMR17-30" transform="translate(261.275056 0) scale(0.996264)"/>
      <use xlink:href="#CMR17-30" transform="translate(306.965533 0) scale(0.996264)"/>
     </g>
    </g>
   </g>
  </g>
 </g>
</svg>
