<?xml version="1.0" encoding="utf-8" standalone="no"?>
<!DOCTYPE svg PUBLIC "-//W3C//DTD SVG 1.1//EN"
  "http://www.w3.org/Graphics/SVG/1.1/DTD/svg11.dtd">
<svg xmlns:xlink="http://www.w3.org/1999/xlink" width="568.8pt" height="424.8pt" viewBox="0 0 568.8 424.8" xmlns="http://www.w3.org/2000/svg" version="1.1">
 <metadata>
  <rdf:RDF xmlns:dc="http://purl.org/dc/elements/1.1/" xmlns:cc="http://creativecommons.org/ns#" xmlns:rdf="http://www.w3.org/1999/02/22-rdf-syntax-ns#">
   <cc:Work>
    <dc:type rdf:resource="http://purl.org/dc/dcmitype/StillImage"/>
    <dc:date>2025-07-10T16:56:20.365045</dc:date>
    <dc:format>image/svg+xml</dc:format>
    <dc:creator>
     <cc:Agent>
      <dc:title>Matplotlib v3.10.3, https://matplotlib.org/</dc:title>
     </cc:Agent>
    </dc:creator>
   </cc:Work>
  </rdf:RDF>
 </metadata>
 <defs>
  <style type="text/css">*{stroke-linejoin: round; stroke-linecap: butt}</style>
 </defs>
 <g id="figure_1">
  <g id="patch_1">
   <path d="M 0 424.8 
L 568.8 424.8 
L 568.8 0 
L 0 0 
z
" style="fill: #ffffff"/>
  </g>
  <g id="axes_1">
   <g id="patch_2">
    <path d="M 86.101427 359.086976 
L 548.985971 359.086976 
L 548.985971 13.588488 
L 86.101427 13.588488 
z
" style="fill: #ffffff"/>
   </g>
   <g id="PathCollection_1">
    <defs>
     <path id="C0_0_433646ecbb" d="M 0 3.535534 
C 0.937635 3.535534 1.836992 3.163008 2.5 2.5 
C 3.163008 1.836992 3.535534 0.937635 3.535534 -0 
C 3.535534 -0.937635 3.163008 -1.836992 2.5 -2.5 
C 1.836992 -3.163008 0.937635 -3.535534 0 -3.535534 
C -0.937635 -3.535534 -1.836992 -3.163008 -2.5 -2.5 
C -3.163008 -1.836992 -3.535534 -0.937635 -3.535534 0 
C -3.535534 0.937635 -3.163008 1.836992 -2.5 2.5 
C -1.836992 3.163008 -0.937635 3.535534 0 3.535534 
z
"/>
    </defs>
    <g clip-path="url(#p4296ba59a0)">
     <use xlink:href="#C0_0_433646ecbb" x="113.954552" y="61.482969" style="fill: #4c72b0; stroke: #ffffff; stroke-width: 0.565685"/>
    </g>
    <g clip-path="url(#p4296ba59a0)">
     <use xlink:href="#C0_0_433646ecbb" x="113.954552" y="104.599406" style="fill: #dd8452; stroke: #ffffff; stroke-width: 0.565685"/>
    </g>
    <g clip-path="url(#p4296ba59a0)">
     <use xlink:href="#C0_0_433646ecbb" x="113.954552" y="134.324144" style="fill: #55a868; stroke: #ffffff; stroke-width: 0.565685"/>
    </g>
    <g clip-path="url(#p4296ba59a0)">
     <use xlink:href="#C0_0_433646ecbb" x="111.766946" y="56.643081" style="fill: #4c72b0; stroke: #ffffff; stroke-width: 0.565685"/>
    </g>
    <g clip-path="url(#p4296ba59a0)">
     <use xlink:href="#C0_0_433646ecbb" x="111.766946" y="97.931577" style="fill: #dd8452; stroke: #ffffff; stroke-width: 0.565685"/>
    </g>
    <g clip-path="url(#p4296ba59a0)">
     <use xlink:href="#C0_0_433646ecbb" x="111.766946" y="127.877127" style="fill: #55a868; stroke: #ffffff; stroke-width: 0.565685"/>
    </g>
    <g clip-path="url(#p4296ba59a0)">
     <use xlink:href="#C0_0_433646ecbb" x="122.318608" y="74.389913" style="fill: #4c72b0; stroke: #ffffff; stroke-width: 0.565685"/>
    </g>
    <g clip-path="url(#p4296ba59a0)">
     <use xlink:href="#C0_0_433646ecbb" x="122.318608" y="122.064408" style="fill: #dd8452; stroke: #ffffff; stroke-width: 0.565685"/>
    </g>
    <g clip-path="url(#p4296ba59a0)">
     <use xlink:href="#C0_0_433646ecbb" x="122.318608" y="154.808481" style="fill: #55a868; stroke: #ffffff; stroke-width: 0.565685"/>
    </g>
    <g clip-path="url(#p4296ba59a0)">
     <use xlink:href="#C0_0_433646ecbb" x="136.121317" y="93.72758" style="fill: #4c72b0; stroke: #ffffff; stroke-width: 0.565685"/>
    </g>
    <g clip-path="url(#p4296ba59a0)">
     <use xlink:href="#C0_0_433646ecbb" x="136.121317" y="147.151521" style="fill: #dd8452; stroke: #ffffff; stroke-width: 0.565685"/>
    </g>
    <g clip-path="url(#p4296ba59a0)">
     <use xlink:href="#C0_0_433646ecbb" x="136.121317" y="176.465739" style="fill: #55a868; stroke: #ffffff; stroke-width: 0.565685"/>
    </g>
    <g clip-path="url(#p4296ba59a0)">
     <use xlink:href="#C0_0_433646ecbb" x="153.32494" y="115.203942" style="fill: #4c72b0; stroke: #ffffff; stroke-width: 0.565685"/>
    </g>
    <g clip-path="url(#p4296ba59a0)">
     <use xlink:href="#C0_0_433646ecbb" x="153.32494" y="172.819891" style="fill: #dd8452; stroke: #ffffff; stroke-width: 0.565685"/>
    </g>
    <g clip-path="url(#p4296ba59a0)">
     <use xlink:href="#C0_0_433646ecbb" x="153.32494" y="192.956157" style="fill: #55a868; stroke: #ffffff; stroke-width: 0.565685"/>
    </g>
    <g clip-path="url(#p4296ba59a0)">
     <use xlink:href="#C0_0_433646ecbb" x="170.119763" y="135.062589" style="fill: #4c72b0; stroke: #ffffff; stroke-width: 0.565685"/>
    </g>
    <g clip-path="url(#p4296ba59a0)">
     <use xlink:href="#C0_0_433646ecbb" x="170.119763" y="184.798799" style="fill: #dd8452; stroke: #ffffff; stroke-width: 0.565685"/>
    </g>
    <g clip-path="url(#p4296ba59a0)">
     <use xlink:href="#C0_0_433646ecbb" x="170.119763" y="195.007205" style="fill: #55a868; stroke: #ffffff; stroke-width: 0.565685"/>
    </g>
    <g clip-path="url(#p4296ba59a0)">
     <use xlink:href="#C0_0_433646ecbb" x="189.021427" y="151.470878" style="fill: #4c72b0; stroke: #ffffff; stroke-width: 0.565685"/>
    </g>
    <g clip-path="url(#p4296ba59a0)">
     <use xlink:href="#C0_0_433646ecbb" x="189.021427" y="192.722411" style="fill: #dd8452; stroke: #ffffff; stroke-width: 0.565685"/>
    </g>
    <g clip-path="url(#p4296ba59a0)">
     <use xlink:href="#C0_0_433646ecbb" x="189.021427" y="195.284364" style="fill: #55a868; stroke: #ffffff; stroke-width: 0.565685"/>
    </g>
    <g clip-path="url(#p4296ba59a0)">
     <use xlink:href="#C0_0_433646ecbb" x="208.07112" y="164.708409" style="fill: #4c72b0; stroke: #ffffff; stroke-width: 0.565685"/>
    </g>
    <g clip-path="url(#p4296ba59a0)">
     <use xlink:href="#C0_0_433646ecbb" x="208.07112" y="194.14726" style="fill: #dd8452; stroke: #ffffff; stroke-width: 0.565685"/>
    </g>
    <g clip-path="url(#p4296ba59a0)">
     <use xlink:href="#C0_0_433646ecbb" x="208.07112" y="193.708472" style="fill: #55a868; stroke: #ffffff; stroke-width: 0.565685"/>
    </g>
    <g clip-path="url(#p4296ba59a0)">
     <use xlink:href="#C0_0_433646ecbb" x="227.877149" y="174.483865" style="fill: #4c72b0; stroke: #ffffff; stroke-width: 0.565685"/>
    </g>
    <g clip-path="url(#p4296ba59a0)">
     <use xlink:href="#C0_0_433646ecbb" x="227.877149" y="192.943643" style="fill: #dd8452; stroke: #ffffff; stroke-width: 0.565685"/>
    </g>
    <g clip-path="url(#p4296ba59a0)">
     <use xlink:href="#C0_0_433646ecbb" x="227.877149" y="191.701404" style="fill: #55a868; stroke: #ffffff; stroke-width: 0.565685"/>
    </g>
    <g clip-path="url(#p4296ba59a0)">
     <use xlink:href="#C0_0_433646ecbb" x="247.69694" y="181.070519" style="fill: #4c72b0; stroke: #ffffff; stroke-width: 0.565685"/>
    </g>
    <g clip-path="url(#p4296ba59a0)">
     <use xlink:href="#C0_0_433646ecbb" x="247.69694" y="191.137088" style="fill: #dd8452; stroke: #ffffff; stroke-width: 0.565685"/>
    </g>
    <g clip-path="url(#p4296ba59a0)">
     <use xlink:href="#C0_0_433646ecbb" x="247.69694" y="189.928175" style="fill: #55a868; stroke: #ffffff; stroke-width: 0.565685"/>
    </g>
    <g clip-path="url(#p4296ba59a0)">
     <use xlink:href="#C0_0_433646ecbb" x="264.634345" y="184.657056" style="fill: #4c72b0; stroke: #ffffff; stroke-width: 0.565685"/>
    </g>
    <g clip-path="url(#p4296ba59a0)">
     <use xlink:href="#C0_0_433646ecbb" x="264.634345" y="190.106806" style="fill: #dd8452; stroke: #ffffff; stroke-width: 0.565685"/>
    </g>
    <g clip-path="url(#p4296ba59a0)">
     <use xlink:href="#C0_0_433646ecbb" x="264.634345" y="189.435519" style="fill: #55a868; stroke: #ffffff; stroke-width: 0.565685"/>
    </g>
    <g clip-path="url(#p4296ba59a0)">
     <use xlink:href="#C0_0_433646ecbb" x="282.853172" y="185.646684" style="fill: #4c72b0; stroke: #ffffff; stroke-width: 0.565685"/>
    </g>
    <g clip-path="url(#p4296ba59a0)">
     <use xlink:href="#C0_0_433646ecbb" x="282.853172" y="188.851202" style="fill: #dd8452; stroke: #ffffff; stroke-width: 0.565685"/>
    </g>
    <g clip-path="url(#p4296ba59a0)">
     <use xlink:href="#C0_0_433646ecbb" x="282.853172" y="188.421702" style="fill: #55a868; stroke: #ffffff; stroke-width: 0.565685"/>
    </g>
    <g clip-path="url(#p4296ba59a0)">
     <use xlink:href="#C0_0_433646ecbb" x="302.433076" y="187.202407" style="fill: #4c72b0; stroke: #ffffff; stroke-width: 0.565685"/>
    </g>
    <g clip-path="url(#p4296ba59a0)">
     <use xlink:href="#C0_0_433646ecbb" x="302.433076" y="188.811447" style="fill: #dd8452; stroke: #ffffff; stroke-width: 0.565685"/>
    </g>
    <g clip-path="url(#p4296ba59a0)">
     <use xlink:href="#C0_0_433646ecbb" x="302.433076" y="188.939223" style="fill: #55a868; stroke: #ffffff; stroke-width: 0.565685"/>
    </g>
    <g clip-path="url(#p4296ba59a0)">
     <use xlink:href="#C0_0_433646ecbb" x="320.346266" y="186.476919" style="fill: #4c72b0; stroke: #ffffff; stroke-width: 0.565685"/>
    </g>
    <g clip-path="url(#p4296ba59a0)">
     <use xlink:href="#C0_0_433646ecbb" x="320.346266" y="186.082075" style="fill: #dd8452; stroke: #ffffff; stroke-width: 0.565685"/>
    </g>
    <g clip-path="url(#p4296ba59a0)">
     <use xlink:href="#C0_0_433646ecbb" x="320.346266" y="186.328165" style="fill: #55a868; stroke: #ffffff; stroke-width: 0.565685"/>
    </g>
    <g clip-path="url(#p4296ba59a0)">
     <use xlink:href="#C0_0_433646ecbb" x="338.404107" y="186.574722" style="fill: #4c72b0; stroke: #ffffff; stroke-width: 0.565685"/>
    </g>
    <g clip-path="url(#p4296ba59a0)">
     <use xlink:href="#C0_0_433646ecbb" x="338.404107" y="185.335209" style="fill: #dd8452; stroke: #ffffff; stroke-width: 0.565685"/>
    </g>
    <g clip-path="url(#p4296ba59a0)">
     <use xlink:href="#C0_0_433646ecbb" x="338.404107" y="185.625777" style="fill: #55a868; stroke: #ffffff; stroke-width: 0.565685"/>
    </g>
    <g clip-path="url(#p4296ba59a0)">
     <use xlink:href="#C0_0_433646ecbb" x="356.597952" y="186.976299" style="fill: #4c72b0; stroke: #ffffff; stroke-width: 0.565685"/>
    </g>
    <g clip-path="url(#p4296ba59a0)">
     <use xlink:href="#C0_0_433646ecbb" x="356.597952" y="183.480945" style="fill: #dd8452; stroke: #ffffff; stroke-width: 0.565685"/>
    </g>
    <g clip-path="url(#p4296ba59a0)">
     <use xlink:href="#C0_0_433646ecbb" x="356.597952" y="184.545549" style="fill: #55a868; stroke: #ffffff; stroke-width: 0.565685"/>
    </g>
    <g clip-path="url(#p4296ba59a0)">
     <use xlink:href="#C0_0_433646ecbb" x="374.327052" y="189.34722" style="fill: #4c72b0; stroke: #ffffff; stroke-width: 0.565685"/>
    </g>
    <g clip-path="url(#p4296ba59a0)">
     <use xlink:href="#C0_0_433646ecbb" x="374.327052" y="182.129978" style="fill: #dd8452; stroke: #ffffff; stroke-width: 0.565685"/>
    </g>
    <g clip-path="url(#p4296ba59a0)">
     <use xlink:href="#C0_0_433646ecbb" x="374.327052" y="183.150344" style="fill: #55a868; stroke: #ffffff; stroke-width: 0.565685"/>
    </g>
    <g clip-path="url(#p4296ba59a0)">
     <use xlink:href="#C0_0_433646ecbb" x="393.371525" y="194.486181" style="fill: #4c72b0; stroke: #ffffff; stroke-width: 0.565685"/>
    </g>
    <g clip-path="url(#p4296ba59a0)">
     <use xlink:href="#C0_0_433646ecbb" x="393.371525" y="180.687937" style="fill: #dd8452; stroke: #ffffff; stroke-width: 0.565685"/>
    </g>
    <g clip-path="url(#p4296ba59a0)">
     <use xlink:href="#C0_0_433646ecbb" x="393.371525" y="182.027881" style="fill: #55a868; stroke: #ffffff; stroke-width: 0.565685"/>
    </g>
    <g clip-path="url(#p4296ba59a0)">
     <use xlink:href="#C0_0_433646ecbb" x="412.068584" y="201.590275" style="fill: #4c72b0; stroke: #ffffff; stroke-width: 0.565685"/>
    </g>
    <g clip-path="url(#p4296ba59a0)">
     <use xlink:href="#C0_0_433646ecbb" x="412.068584" y="178.827813" style="fill: #dd8452; stroke: #ffffff; stroke-width: 0.565685"/>
    </g>
    <g clip-path="url(#p4296ba59a0)">
     <use xlink:href="#C0_0_433646ecbb" x="412.068584" y="180.462771" style="fill: #55a868; stroke: #ffffff; stroke-width: 0.565685"/>
    </g>
    <g clip-path="url(#p4296ba59a0)">
     <use xlink:href="#C0_0_433646ecbb" x="432.936999" y="216.426891" style="fill: #4c72b0; stroke: #ffffff; stroke-width: 0.565685"/>
    </g>
    <g clip-path="url(#p4296ba59a0)">
     <use xlink:href="#C0_0_433646ecbb" x="432.936999" y="179.197994" style="fill: #dd8452; stroke: #ffffff; stroke-width: 0.565685"/>
    </g>
    <g clip-path="url(#p4296ba59a0)">
     <use xlink:href="#C0_0_433646ecbb" x="432.936999" y="178.450679" style="fill: #55a868; stroke: #ffffff; stroke-width: 0.565685"/>
    </g>
    <g clip-path="url(#p4296ba59a0)">
     <use xlink:href="#C0_0_433646ecbb" x="451.607665" y="230.107449" style="fill: #4c72b0; stroke: #ffffff; stroke-width: 0.565685"/>
    </g>
    <g clip-path="url(#p4296ba59a0)">
     <use xlink:href="#C0_0_433646ecbb" x="451.607665" y="182.839351" style="fill: #dd8452; stroke: #ffffff; stroke-width: 0.565685"/>
    </g>
    <g clip-path="url(#p4296ba59a0)">
     <use xlink:href="#C0_0_433646ecbb" x="451.607665" y="176.730541" style="fill: #55a868; stroke: #ffffff; stroke-width: 0.565685"/>
    </g>
    <g clip-path="url(#p4296ba59a0)">
     <use xlink:href="#C0_0_433646ecbb" x="471.501843" y="250.647564" style="fill: #4c72b0; stroke: #ffffff; stroke-width: 0.565685"/>
    </g>
    <g clip-path="url(#p4296ba59a0)">
     <use xlink:href="#C0_0_433646ecbb" x="471.501843" y="194.138043" style="fill: #dd8452; stroke: #ffffff; stroke-width: 0.565685"/>
    </g>
    <g clip-path="url(#p4296ba59a0)">
     <use xlink:href="#C0_0_433646ecbb" x="471.501843" y="177.795487" style="fill: #55a868; stroke: #ffffff; stroke-width: 0.565685"/>
    </g>
    <g clip-path="url(#p4296ba59a0)">
     <use xlink:href="#C0_0_433646ecbb" x="490.899127" y="273.882534" style="fill: #4c72b0; stroke: #ffffff; stroke-width: 0.565685"/>
    </g>
    <g clip-path="url(#p4296ba59a0)">
     <use xlink:href="#C0_0_433646ecbb" x="490.899127" y="215.796947" style="fill: #dd8452; stroke: #ffffff; stroke-width: 0.565685"/>
    </g>
    <g clip-path="url(#p4296ba59a0)">
     <use xlink:href="#C0_0_433646ecbb" x="490.899127" y="190.361262" style="fill: #55a868; stroke: #ffffff; stroke-width: 0.565685"/>
    </g>
    <g clip-path="url(#p4296ba59a0)">
     <use xlink:href="#C0_0_433646ecbb" x="509.912697" y="301.928925" style="fill: #4c72b0; stroke: #ffffff; stroke-width: 0.565685"/>
    </g>
    <g clip-path="url(#p4296ba59a0)">
     <use xlink:href="#C0_0_433646ecbb" x="509.912697" y="251.412235" style="fill: #dd8452; stroke: #ffffff; stroke-width: 0.565685"/>
    </g>
    <g clip-path="url(#p4296ba59a0)">
     <use xlink:href="#C0_0_433646ecbb" x="509.912697" y="222.006752" style="fill: #55a868; stroke: #ffffff; stroke-width: 0.565685"/>
    </g>
    <g clip-path="url(#p4296ba59a0)">
     <use xlink:href="#C0_0_433646ecbb" x="525.616623" y="328.020775" style="fill: #4c72b0; stroke: #ffffff; stroke-width: 0.565685"/>
    </g>
    <g clip-path="url(#p4296ba59a0)">
     <use xlink:href="#C0_0_433646ecbb" x="525.616623" y="289.798317" style="fill: #dd8452; stroke: #ffffff; stroke-width: 0.565685"/>
    </g>
    <g clip-path="url(#p4296ba59a0)">
     <use xlink:href="#C0_0_433646ecbb" x="525.616623" y="260.871031" style="fill: #55a868; stroke: #ffffff; stroke-width: 0.565685"/>
    </g>
   </g>
   <g id="FillBetweenPolyCollection_1"/>
   <g id="FillBetweenPolyCollection_2"/>
   <g id="FillBetweenPolyCollection_3"/>
   <g id="matplotlib.axis_1">
    <g id="xtick_1">
     <g id="line2d_1">
      <defs>
       <path id="m16fe6aa768" d="M 0 0 
L 0 3.5 
" style="stroke: #000000; stroke-width: 0.8"/>
      </defs>
      <g>
       <use xlink:href="#m16fe6aa768" x="86.101427" y="359.086976" style="stroke: #000000; stroke-width: 0.8"/>
      </g>
     </g>
     <g id="text_1">
      <!-- $0$ -->
      <g transform="translate(81.989284 378.863952) scale(0.18 -0.18)">
       <defs>
        <path id="CMR17-30" d="M 2688 2025 
C 2688 2416 2682 3080 2413 3591 
C 2176 4039 1798 4198 1466 4198 
C 1158 4198 768 4058 525 3597 
C 269 3118 243 2524 243 2025 
C 243 1661 250 1106 448 619 
C 723 -39 1216 -128 1466 -128 
C 1760 -128 2208 -7 2470 600 
C 2662 1042 2688 1559 2688 2025 
z
M 1466 -26 
C 1056 -26 813 325 723 812 
C 653 1188 653 1738 653 2096 
C 653 2588 653 2997 736 3387 
C 858 3929 1216 4096 1466 4096 
C 1728 4096 2067 3923 2189 3400 
C 2272 3036 2278 2607 2278 2096 
C 2278 1680 2278 1169 2202 792 
C 2067 95 1690 -26 1466 -26 
z
" transform="scale(0.015625)"/>
       </defs>
       <use xlink:href="#CMR17-30" transform="scale(0.996264)"/>
      </g>
     </g>
    </g>
    <g id="xtick_2">
     <g id="line2d_2">
      <g>
       <use xlink:href="#m16fe6aa768" x="201.822563" y="359.086976" style="stroke: #000000; stroke-width: 0.8"/>
      </g>
     </g>
     <g id="text_2">
      <!-- $1/8$ -->
      <g transform="translate(189.208534 379.53654) scale(0.18 -0.18)">
       <defs>
        <path id="CMR17-31" d="M 1702 4058 
C 1702 4192 1696 4192 1606 4192 
C 1357 3916 979 3827 621 3827 
C 602 3827 570 3827 563 3808 
C 557 3795 557 3782 557 3648 
C 755 3648 1088 3686 1344 3839 
L 1344 461 
C 1344 236 1331 160 781 160 
L 589 160 
L 589 0 
C 896 0 1216 0 1523 0 
C 1830 0 2150 0 2458 0 
L 2458 160 
L 2266 160 
C 1715 160 1702 230 1702 458 
L 1702 4058 
z
" transform="scale(0.015625)"/>
        <path id="CMMI12-3d" d="M 2746 4562 
C 2746 4569 2784 4666 2784 4678 
C 2784 4755 2720 4800 2669 4800 
C 2637 4800 2579 4800 2528 4659 
L 384 -1363 
C 384 -1370 346 -1465 346 -1478 
C 346 -1555 410 -1600 461 -1600 
C 499 -1600 557 -1593 602 -1459 
L 2746 4562 
z
" transform="scale(0.015625)"/>
        <path id="CMR17-38" d="M 1741 2264 
C 2144 2467 2554 2773 2554 3263 
C 2554 3841 1990 4179 1472 4179 
C 890 4179 378 3759 378 3180 
C 378 3021 416 2747 666 2505 
C 730 2442 998 2251 1171 2130 
C 883 1983 211 1634 211 934 
C 211 279 838 -128 1459 -128 
C 2144 -128 2720 362 2720 1010 
C 2720 1590 2330 1857 2074 2029 
L 1741 2264 
z
M 902 2822 
C 851 2854 595 3051 595 3351 
C 595 3739 998 4032 1459 4032 
C 1965 4032 2336 3676 2336 3262 
C 2336 2669 1670 2331 1638 2331 
C 1632 2331 1626 2331 1574 2370 
L 902 2822 
z
M 2080 1519 
C 2176 1449 2483 1240 2483 851 
C 2483 381 2010 25 1472 25 
C 890 25 448 438 448 940 
C 448 1443 838 1862 1280 2060 
L 2080 1519 
z
" transform="scale(0.015625)"/>
       </defs>
       <use xlink:href="#CMR17-31" transform="scale(0.996264)"/>
       <use xlink:href="#CMMI12-3d" transform="translate(45.690477 0) scale(0.996264)"/>
       <use xlink:href="#CMR17-38" transform="translate(94.465396 0) scale(0.996264)"/>
      </g>
     </g>
    </g>
    <g id="xtick_3">
     <g id="line2d_3">
      <g>
       <use xlink:href="#m16fe6aa768" x="317.543699" y="359.086976" style="stroke: #000000; stroke-width: 0.8"/>
      </g>
     </g>
     <g id="text_3">
      <!-- $1/4$ -->
      <g transform="translate(304.929671 379.53654) scale(0.18 -0.18)">
       <defs>
        <path id="CMR17-34" d="M 2150 4122 
C 2150 4256 2144 4256 2029 4256 
L 128 1254 
L 128 1088 
L 1779 1088 
L 1779 457 
C 1779 224 1766 160 1318 160 
L 1197 160 
L 1197 0 
C 1402 0 1747 0 1965 0 
C 2182 0 2528 0 2733 0 
L 2733 160 
L 2611 160 
C 2163 160 2150 224 2150 457 
L 2150 1088 
L 2803 1088 
L 2803 1254 
L 2150 1254 
L 2150 4122 
z
M 1798 3703 
L 1798 1254 
L 256 1254 
L 1798 3703 
z
" transform="scale(0.015625)"/>
       </defs>
       <use xlink:href="#CMR17-31" transform="scale(0.996264)"/>
       <use xlink:href="#CMMI12-3d" transform="translate(45.690477 0) scale(0.996264)"/>
       <use xlink:href="#CMR17-34" transform="translate(94.465396 0) scale(0.996264)"/>
      </g>
     </g>
    </g>
    <g id="xtick_4">
     <g id="line2d_4">
      <g>
       <use xlink:href="#m16fe6aa768" x="433.264835" y="359.086976" style="stroke: #000000; stroke-width: 0.8"/>
      </g>
     </g>
     <g id="text_4">
      <!-- $3/8$ -->
      <g transform="translate(420.650807 379.53654) scale(0.18 -0.18)">
       <defs>
        <path id="CMR17-33" d="M 1414 2157 
C 1984 2157 2234 1662 2234 1090 
C 2234 320 1824 25 1453 25 
C 1114 25 563 194 390 693 
C 422 680 454 680 486 680 
C 640 680 755 782 755 948 
C 755 1133 614 1216 486 1216 
C 378 1216 211 1165 211 926 
C 211 335 787 -128 1466 -128 
C 2176 -128 2720 430 2720 1085 
C 2720 1707 2208 2157 1600 2227 
C 2086 2328 2554 2756 2554 3329 
C 2554 3820 2048 4179 1472 4179 
C 890 4179 378 3829 378 3329 
C 378 3110 544 3072 627 3072 
C 762 3072 877 3155 877 3321 
C 877 3486 762 3569 627 3569 
C 602 3569 570 3569 544 3557 
C 730 3959 1235 4032 1459 4032 
C 1683 4032 2106 3925 2106 3320 
C 2106 3143 2080 2828 1862 2550 
C 1670 2304 1453 2304 1242 2284 
C 1210 2284 1062 2269 1037 2269 
C 992 2263 966 2257 966 2208 
C 966 2163 973 2157 1101 2157 
L 1414 2157 
z
" transform="scale(0.015625)"/>
       </defs>
       <use xlink:href="#CMR17-33" transform="scale(0.996264)"/>
       <use xlink:href="#CMMI12-3d" transform="translate(45.690477 0) scale(0.996264)"/>
       <use xlink:href="#CMR17-38" transform="translate(94.465396 0) scale(0.996264)"/>
      </g>
     </g>
    </g>
    <g id="xtick_5">
     <g id="line2d_5">
      <g>
       <use xlink:href="#m16fe6aa768" x="548.985971" y="359.086976" style="stroke: #000000; stroke-width: 0.8"/>
      </g>
     </g>
     <g id="text_5">
      <!-- $1/2$ -->
      <g transform="translate(536.371943 379.53654) scale(0.18 -0.18)">
       <defs>
        <path id="CMR17-32" d="M 2669 989 
L 2554 989 
C 2490 536 2438 459 2413 420 
C 2381 369 1920 369 1830 369 
L 602 369 
C 832 619 1280 1072 1824 1597 
C 2214 1967 2669 2402 2669 3035 
C 2669 3790 2067 4224 1395 4224 
C 691 4224 262 3604 262 3030 
C 262 2780 448 2748 525 2748 
C 589 2748 781 2787 781 3010 
C 781 3207 614 3264 525 3264 
C 486 3264 448 3258 422 3245 
C 544 3790 915 4058 1306 4058 
C 1862 4058 2227 3617 2227 3035 
C 2227 2479 1901 2000 1536 1584 
L 262 146 
L 262 0 
L 2515 0 
L 2669 989 
z
" transform="scale(0.015625)"/>
       </defs>
       <use xlink:href="#CMR17-31" transform="scale(0.996264)"/>
       <use xlink:href="#CMMI12-3d" transform="translate(45.690477 0) scale(0.996264)"/>
       <use xlink:href="#CMR17-32" transform="translate(94.465396 0) scale(0.996264)"/>
      </g>
     </g>
    </g>
    <g id="text_6">
     <!-- $\delta_\phi / \pi$ -->
     <g transform="translate(300.398931 412.469292) scale(0.18 -0.18)">
      <defs>
       <path id="CMMI12-e" d="M 1664 2795 
C 845 2597 256 1748 256 1001 
C 256 319 717 -64 1229 -64 
C 1984 -64 2496 970 2496 1818 
C 2496 2392 2227 2744 2067 2954 
C 1830 3254 1446 3746 1446 4052 
C 1446 4161 1530 4352 1811 4352 
C 2010 4352 2131 4282 2323 4173 
C 2381 4134 2528 4052 2611 4052 
C 2746 4052 2842 4185 2842 4287 
C 2842 4409 2746 4428 2522 4479 
C 2221 4543 2131 4543 2022 4543 
C 1914 4543 1286 4543 1286 3892 
C 1286 3579 1446 3216 1664 2795 
z
M 1734 2669 
C 1978 2165 2074 1974 2074 1560 
C 2074 1063 1805 63 1235 63 
C 986 63 627 229 627 821 
C 627 1235 864 2439 1734 2669 
z
" transform="scale(0.015625)"/>
       <path id="CMMI12-1e" d="M 2752 4390 
C 2752 4448 2707 4448 2688 4448 
C 2630 4448 2624 4435 2598 4326 
L 2253 2939 
C 2234 2856 2227 2849 2221 2843 
C 2214 2830 2170 2824 2157 2824 
C 1107 2734 301 1864 301 1057 
C 301 361 832 -64 1498 -64 
C 1446 -261 1402 -463 1350 -659 
C 1261 -995 1210 -1204 1210 -1229 
C 1210 -1241 1210 -1280 1274 -1280 
C 1293 -1280 1318 -1280 1331 -1254 
C 1344 -1241 1382 -1089 1408 -1008 
L 1645 -64 
C 2739 -64 3571 854 3571 1680 
C 3571 2343 3085 2816 2374 2816 
L 2752 4390 
z
M 2336 2701 
C 2758 2701 3181 2463 3181 1828 
C 3181 1097 2675 128 1677 50 
L 2336 2701 
z
M 1530 50 
C 1216 50 691 220 691 938 
C 691 1761 1274 2676 2195 2676 
L 1530 50 
z
" transform="scale(0.015625)"/>
       <path id="CMMI12-19" d="M 1658 2408 
L 2381 2408 
C 2208 1692 2099 1226 2099 716 
C 2099 626 2099 -64 2362 -64 
C 2496 -64 2611 57 2611 166 
C 2611 197 2611 210 2566 306 
C 2394 747 2394 1296 2394 1341 
C 2394 1379 2394 1832 2528 2408 
L 3245 2408 
C 3328 2408 3539 2408 3539 2612 
C 3539 2752 3418 2752 3302 2752 
L 1197 2752 
C 1050 2752 832 2752 538 2440 
C 371 2254 166 1916 166 1878 
C 166 1840 198 1827 237 1827 
C 282 1827 288 1846 320 1884 
C 653 2408 986 2408 1146 2408 
L 1510 2408 
C 1370 1929 1210 1373 685 256 
C 634 154 634 140 634 102 
C 634 -32 749 -64 806 -64 
C 992 -64 1043 102 1120 370 
C 1222 696 1222 709 1286 964 
L 1658 2408 
z
" transform="scale(0.015625)"/>
      </defs>
      <use xlink:href="#CMMI12-e" transform="scale(0.996264)"/>
      <use xlink:href="#CMMI12-1e" transform="translate(43.205457 -14.943915) scale(0.697382)"/>
      <use xlink:href="#CMMI12-3d" transform="translate(84.11733 0) scale(0.996264)"/>
      <use xlink:href="#CMMI12-19" transform="translate(132.892249 0) scale(0.996264)"/>
     </g>
    </g>
   </g>
   <g id="matplotlib.axis_2">
    <g id="ytick_1">
     <g id="line2d_6">
      <defs>
       <path id="mfc9bcba655" d="M 0 0 
L -3.5 0 
" style="stroke: #000000; stroke-width: 0.8"/>
      </defs>
      <g>
       <use xlink:href="#mfc9bcba655" x="86.101427" y="359.086976" style="stroke: #000000; stroke-width: 0.8"/>
      </g>
     </g>
     <g id="text_7">
      <!-- $-2.0$ -->
      <g transform="translate(43.827621 365.475464) scale(0.18 -0.18)">
       <defs>
        <path id="CMSY10-0" d="M 4218 1472 
C 4326 1472 4442 1472 4442 1600 
C 4442 1728 4326 1728 4218 1728 
L 755 1728 
C 646 1728 531 1728 531 1600 
C 531 1472 646 1472 755 1472 
L 4218 1472 
z
" transform="scale(0.015625)"/>
        <path id="CMMI12-3a" d="M 1178 307 
C 1178 492 1024 619 870 619 
C 685 619 557 466 557 313 
C 557 128 710 0 864 0 
C 1050 0 1178 153 1178 307 
z
" transform="scale(0.015625)"/>
       </defs>
       <use xlink:href="#CMSY10-0" transform="scale(0.996264)"/>
       <use xlink:href="#CMR17-32" transform="translate(77.487468 0) scale(0.996264)"/>
       <use xlink:href="#CMMI12-3a" transform="translate(123.177945 0) scale(0.996264)"/>
       <use xlink:href="#CMR17-30" transform="translate(150.275122 0) scale(0.996264)"/>
      </g>
     </g>
    </g>
    <g id="ytick_2">
     <g id="line2d_7">
      <g>
       <use xlink:href="#mfc9bcba655" x="86.101427" y="272.712354" style="stroke: #000000; stroke-width: 0.8"/>
      </g>
     </g>
     <g id="text_8">
      <!-- $-1.0$ -->
      <g transform="translate(43.827621 279.100842) scale(0.18 -0.18)">
       <use xlink:href="#CMSY10-0" transform="scale(0.996264)"/>
       <use xlink:href="#CMR17-31" transform="translate(77.487468 0) scale(0.996264)"/>
       <use xlink:href="#CMMI12-3a" transform="translate(123.177945 0) scale(0.996264)"/>
       <use xlink:href="#CMR17-30" transform="translate(150.275122 0) scale(0.996264)"/>
      </g>
     </g>
    </g>
    <g id="ytick_3">
     <g id="line2d_8">
      <g>
       <use xlink:href="#mfc9bcba655" x="86.101427" y="186.337732" style="stroke: #000000; stroke-width: 0.8"/>
      </g>
     </g>
     <g id="text_9">
      <!-- $0.0$ -->
      <g transform="translate(57.775363 192.72622) scale(0.18 -0.18)">
       <use xlink:href="#CMR17-30" transform="scale(0.996264)"/>
       <use xlink:href="#CMMI12-3a" transform="translate(45.690477 0) scale(0.996264)"/>
       <use xlink:href="#CMR17-30" transform="translate(72.787654 0) scale(0.996264)"/>
      </g>
     </g>
    </g>
    <g id="ytick_4">
     <g id="line2d_9">
      <g>
       <use xlink:href="#mfc9bcba655" x="86.101427" y="99.96311" style="stroke: #000000; stroke-width: 0.8"/>
      </g>
     </g>
     <g id="text_10">
      <!-- $1.0$ -->
      <g transform="translate(57.775363 106.351598) scale(0.18 -0.18)">
       <use xlink:href="#CMR17-31" transform="scale(0.996264)"/>
       <use xlink:href="#CMMI12-3a" transform="translate(45.690477 0) scale(0.996264)"/>
       <use xlink:href="#CMR17-30" transform="translate(72.787654 0) scale(0.996264)"/>
      </g>
     </g>
    </g>
    <g id="ytick_5">
     <g id="line2d_10">
      <g>
       <use xlink:href="#mfc9bcba655" x="86.101427" y="13.588488" style="stroke: #000000; stroke-width: 0.8"/>
      </g>
     </g>
     <g id="text_11">
      <!-- $2.0$ -->
      <g transform="translate(57.775363 19.976976) scale(0.18 -0.18)">
       <use xlink:href="#CMR17-32" transform="scale(0.996264)"/>
       <use xlink:href="#CMMI12-3a" transform="translate(45.690477 0) scale(0.996264)"/>
       <use xlink:href="#CMR17-30" transform="translate(72.787654 0) scale(0.996264)"/>
      </g>
     </g>
    </g>
    <g id="text_12">
     <!-- $\sqrt{N} \cdot (\mathbb{E}(\tilde{\delta_\phi}) - \delta_\phi)$ -->
     <g transform="translate(23.696913 253.43957) rotate(-90) scale(0.18 -0.18)">
      <defs>
       <path id="CMSY10-70" d="M 2490 -5472 
L 1363 -2982 
C 1318 -2880 1286 -2880 1267 -2880 
C 1261 -2880 1229 -2880 1158 -2931 
L 550 -3392 
C 467 -3456 467 -3475 467 -3494 
C 467 -3526 486 -3565 531 -3565 
C 570 -3565 678 -3475 749 -3424 
C 787 -3393 883 -3323 954 -3271 
L 2214 -6042 
C 2259 -6144 2291 -6144 2349 -6144 
C 2445 -6144 2464 -6106 2509 -6016 
L 5414 0 
C 5459 90 5459 115 5459 128 
C 5459 192 5408 256 5331 256 
C 5280 256 5235 224 5184 122 
L 2490 -5472 
z
" transform="scale(0.015625)"/>
       <path id="CMMI12-4e" d="M 4736 3698 
C 4806 3974 4909 4166 5395 4166 
C 5414 4166 5491 4166 5491 4279 
C 5491 4352 5434 4352 5408 4352 
C 5280 4352 4954 4352 4826 4352 
L 4518 4352 
C 4429 4352 4314 4352 4224 4352 
C 4186 4352 4109 4352 4109 4230 
C 4109 4166 4160 4166 4205 4166 
C 4589 4166 4614 4019 4614 3903 
C 4614 3846 4608 3826 4589 3737 
L 3866 850 
L 2496 4249 
C 2451 4352 2445 4352 2304 4352 
L 1523 4352 
C 1395 4352 1338 4352 1338 4230 
C 1338 4166 1382 4166 1504 4166 
C 1536 4166 1914 4166 1914 4115 
C 1914 4102 1901 4051 1894 4032 
L 1043 635 
C 966 320 813 186 390 186 
C 358 186 294 186 294 67 
C 294 0 358 0 378 0 
C 506 0 832 0 960 0 
L 1267 0 
C 1357 0 1466 0 1555 0 
C 1600 0 1670 0 1670 122 
C 1670 180 1606 186 1581 186 
C 1370 186 1165 224 1165 454 
C 1165 505 1178 562 1190 613 
L 2054 4032 
C 2093 3968 2093 3956 2118 3898 
L 3642 115 
C 3674 38 3686 0 3744 0 
C 3808 0 3814 19 3840 128 
L 4736 3698 
z
" transform="scale(0.015625)"/>
       <path id="CMSY10-1" d="M 1229 1619 
C 1229 1805 1075 1958 890 1958 
C 704 1958 550 1805 550 1619 
C 550 1433 704 1280 890 1280 
C 1075 1280 1229 1433 1229 1619 
z
" transform="scale(0.015625)"/>
       <path id="CMR17-28" d="M 1958 -1561 
C 1958 -1555 1958 -1542 1939 -1523 
C 1645 -1224 858 -407 858 1581 
C 858 3569 1632 4379 1946 4697 
C 1946 4704 1958 4717 1958 4736 
C 1958 4755 1939 4768 1914 4768 
C 1843 4768 1299 4296 986 3594 
C 666 2887 576 2199 576 1588 
C 576 1128 621 351 1005 -471 
C 1312 -1135 1837 -1600 1914 -1600 
C 1946 -1600 1958 -1587 1958 -1561 
z
" transform="scale(0.015625)"/>
       <path id="MSBM10-45" d="M 1658 2176 
C 1818 2176 2125 2176 2349 2046 
C 2656 1853 2682 1517 2682 1480 
C 2688 1393 2688 1312 2797 1312 
C 2906 1312 2906 1401 2906 1517 
L 2906 3251 
C 2906 3353 2906 3456 2797 3456 
C 2688 3456 2682 3355 2682 3301 
C 2643 2432 1990 2432 1658 2432 
L 1658 3772 
C 1658 4198 1779 4198 1933 4198 
L 2240 4198 
C 3104 4198 3533 3759 3571 3320 
C 3578 3269 3584 3174 3686 3174 
C 3795 3174 3795 3276 3795 3385 
L 3795 4218 
C 3795 4416 3782 4416 3584 4416 
L 307 4416 
C 192 4416 90 4416 90 4304 
C 90 4198 211 4198 262 4198 
C 627 4198 653 4147 653 3832 
L 653 622 
C 653 320 634 256 294 256 
C 198 256 90 256 90 147 
C 90 32 192 32 307 32 
L 3699 32 
C 3821 32 3885 32 3904 123 
C 3910 129 4090 1213 4090 1245 
C 4090 1316 4032 1362 3981 1362 
C 3891 1362 3866 1278 3866 1271 
C 3827 1102 3763 828 3296 549 
C 2963 347 2637 256 2285 256 
L 1933 256 
C 1779 256 1658 256 1658 684 
L 1658 2176 
z
M 3571 4198 
L 3571 3896 
C 3462 4015 3341 4116 3206 4198 
L 3571 4198 
z
M 2323 2315 
C 2426 2360 2566 2456 2682 2590 
L 2682 2052 
C 2528 2225 2330 2308 2323 2308 
L 2323 2315 
z
M 877 3845 
C 877 3923 877 4083 826 4198 
L 1504 4198 
C 1434 4051 1434 3839 1434 3781 
L 1434 673 
C 1434 442 1478 314 1504 256 
L 826 256 
C 877 371 877 531 877 609 
L 877 3845 
z
M 3258 256 
L 3258 262 
C 3462 367 3635 504 3763 621 
C 3757 596 3712 308 3706 256 
L 3258 256 
z
" transform="scale(0.015625)"/>
       <path id="CMR17-7e" d="M 2400 4184 
C 2182 3980 2061 3865 1862 3865 
C 1722 3865 1626 3932 1491 4024 
C 1363 4111 1261 4184 1120 4184 
C 890 4184 730 4004 461 3718 
L 531 3648 
C 749 3850 870 3968 1069 3968 
C 1210 3968 1306 3900 1440 3808 
C 1568 3722 1670 3648 1811 3648 
C 2042 3648 2202 3828 2470 4114 
L 2400 4184 
z
" transform="scale(0.015625)"/>
       <path id="CMR17-29" d="M 1683 1581 
C 1683 2040 1638 2817 1254 3639 
C 947 4303 422 4768 346 4768 
C 326 4768 301 4761 301 4729 
C 301 4717 307 4710 314 4697 
C 621 4378 1402 3568 1402 1584 
C 1402 -407 627 -1217 314 -1537 
C 307 -1549 301 -1556 301 -1568 
C 301 -1600 326 -1600 346 -1600 
C 416 -1600 960 -1128 1274 -426 
C 1594 281 1683 969 1683 1581 
z
" transform="scale(0.015625)"/>
      </defs>
      <use xlink:href="#CMSY10-70" transform="translate(0 84.350328) scale(0.996264)"/>
      <use xlink:href="#CMMI12-4e" transform="translate(83.022254 0) scale(0.996264)"/>
      <use xlink:href="#CMSY10-1" transform="translate(193.683234 0) scale(0.996264)"/>
      <use xlink:href="#CMR17-28" transform="translate(243.496525 0) scale(0.996264)"/>
      <use xlink:href="#MSBM10-45" transform="translate(278.777293 0) scale(0.996264)"/>
      <use xlink:href="#CMR17-28" transform="translate(345.195112 0) scale(0.996264)"/>
      <use xlink:href="#CMR17-7e" transform="translate(399.689306 26.296621) scale(0.996264)"/>
      <use xlink:href="#CMMI12-e" transform="translate(380.47588 0) scale(0.996264)"/>
      <use xlink:href="#CMMI12-1e" transform="translate(423.681337 -14.943915) scale(0.697382)"/>
      <use xlink:href="#CMR17-29" transform="translate(464.593209 0) scale(0.996264)"/>
      <use xlink:href="#CMSY10-0" transform="translate(522.013184 0) scale(0.996264)"/>
      <use xlink:href="#CMMI12-e" transform="translate(621.639859 0) scale(0.996264)"/>
      <use xlink:href="#CMMI12-1e" transform="translate(664.845316 -14.943915) scale(0.697382)"/>
      <use xlink:href="#CMR17-29" transform="translate(705.757189 0) scale(0.996264)"/>
      <path d="M 83.022254 84.350328 
L 171.544027 84.350328 
L 171.544027 88.335277 
L 83.022254 88.335277 
L 83.022254 84.350328 
z
"/>
     </g>
    </g>
   </g>
   <g id="line2d_11">
    <path d="M 87.027196 18.154944 
L 94.433349 31.557324 
L 100.913732 42.853928 
L 107.394116 53.746229 
L 113.874499 64.23048 
L 120.354883 74.30176 
L 126.835267 83.954131 
L 133.31565 93.180842 
L 139.796034 101.974576 
L 145.350648 109.1617 
L 150.905263 116.020392 
L 156.459878 122.546108 
L 162.014492 128.7347 
L 167.569107 134.582613 
L 173.123721 140.087089 
L 178.678336 145.246367 
L 184.23295 150.059883 
L 189.787565 154.528448 
L 194.41641 157.990397 
L 199.045256 161.216645 
L 203.674101 164.210281 
L 208.302947 166.975269 
L 212.931792 169.516452 
L 217.560637 171.839551 
L 222.189483 173.951138 
L 227.744097 176.216296 
L 233.298712 178.201726 
L 238.853327 179.922989 
L 244.407941 181.396812 
L 249.962556 182.640852 
L 255.51717 183.673438 
L 261.997554 184.635897 
L 268.477937 185.366129 
L 275.88409 185.954692 
L 283.290243 186.322847 
L 291.622165 186.526386 
L 301.805625 186.553717 
L 317.543699 186.337732 
L 336.98485 186.109249 
L 347.16831 186.215508 
L 355.500232 186.511834 
L 362.906384 186.98479 
L 369.386768 187.595783 
L 375.867152 188.421859 
L 382.347535 189.493052 
L 387.90215 190.629042 
L 393.456764 191.985718 
L 399.011379 193.581107 
L 404.565993 195.43243 
L 410.120608 197.55586 
L 414.749453 199.544034 
L 419.378299 201.739384 
L 424.007144 204.148975 
L 428.63599 206.779043 
L 433.264835 209.634958 
L 437.893681 212.721212 
L 442.522526 216.041418 
L 447.151372 219.598322 
L 451.780217 223.393839 
L 457.334832 228.264964 
L 462.889446 233.481849 
L 468.444061 239.043717 
L 473.998675 244.948625 
L 479.55329 251.19367 
L 485.107904 257.775183 
L 490.662519 264.688937 
L 496.217133 271.93034 
L 501.771748 279.494622 
L 508.252132 288.721333 
L 514.732515 298.373704 
L 521.212899 308.444984 
L 527.693282 318.929235 
L 534.173666 329.821536 
L 540.65405 341.11814 
L 547.134433 352.81659 
L 548.985971 356.232625 
L 548.985971 356.232625 
" clip-path="url(#p4296ba59a0)" style="fill: none; stroke: #4c72b0; stroke-width: 2; stroke-linecap: square"/>
   </g>
   <g id="line2d_12">
    <path d="M 87.027196 33.095624 
L 91.656041 47.500147 
L 96.284887 61.248272 
L 100.913732 74.33532 
L 105.542578 86.75415 
L 110.171423 98.495568 
L 114.800269 109.548884 
L 118.503345 117.888408 
L 122.206421 125.774351 
L 125.909498 133.201226 
L 129.612574 140.16429 
L 133.31565 146.65993 
L 137.018727 152.686076 
L 140.721803 158.242603 
L 144.424879 163.331717 
L 148.127956 167.958307 
L 151.831032 172.130226 
L 154.608339 174.967296 
L 157.385647 177.560599 
L 160.162954 179.917024 
L 162.940261 182.044466 
L 165.717568 183.951781 
L 168.494876 185.648713 
L 171.272183 187.145801 
L 174.975259 188.850517 
L 178.678336 190.248002 
L 182.381412 191.367422 
L 186.084488 192.238422 
L 189.787565 192.890481 
L 194.41641 193.44128 
L 199.045256 193.747785 
L 204.59987 193.861075 
L 211.080254 193.733865 
L 219.412176 193.302936 
L 231.447174 192.414116 
L 272.181014 189.254259 
L 299.028317 187.484486 
L 369.386768 182.959029 
L 392.530995 181.165916 
L 416.600992 179.31422 
L 424.932913 178.909864 
L 431.413297 178.81694 
L 436.967912 178.97184 
L 441.596757 179.323161 
L 446.225603 179.92906 
L 449.928679 180.633123 
L 453.631755 181.563447 
L 457.334832 182.749612 
L 461.037908 184.221204 
L 463.815215 185.529663 
L 466.592522 187.026751 
L 469.36983 188.723683 
L 472.147137 190.630998 
L 474.924444 192.75844 
L 477.701752 195.114865 
L 480.479059 197.708168 
L 483.256366 200.545238 
L 486.033673 203.631927 
L 489.73675 208.143992 
L 493.439826 213.116905 
L 497.142902 218.556273 
L 500.845979 224.464941 
L 504.549055 230.843333 
L 508.252132 237.689826 
L 511.955208 245.001156 
L 515.658284 252.772823 
L 519.361361 260.999493 
L 523.064437 269.675364 
L 527.693282 281.142885 
L 532.322128 293.291952 
L 536.950973 306.112695 
L 541.579819 319.597096 
L 546.208664 333.739452 
L 548.985971 342.53929 
L 548.985971 342.53929 
" clip-path="url(#p4296ba59a0)" style="fill: none; stroke: #dd8452; stroke-width: 2; stroke-linecap: square"/>
   </g>
   <g id="line2d_13">
    <path d="M 87.027196 48.473516 
L 90.730272 63.230467 
L 94.433349 77.195114 
L 98.136425 90.364124 
L 101.839501 102.732653 
L 105.542578 114.294886 
L 109.245654 125.044752 
L 112.94873 134.976834 
L 115.726038 141.8869 
L 118.503345 148.334274 
L 121.280652 154.319629 
L 124.057959 159.845161 
L 126.835267 164.914883 
L 129.612574 169.534901 
L 132.389881 173.713642 
L 135.167189 177.46204 
L 137.944496 180.793642 
L 140.721803 183.724638 
L 143.49911 186.273788 
L 146.276418 188.462258 
L 149.053725 190.313356 
L 151.831032 191.852169 
L 154.608339 193.105134 
L 157.385647 194.09954 
L 160.162954 194.86301 
L 162.940261 195.422964 
L 166.643338 195.899004 
L 170.346414 196.1205 
L 174.975259 196.122075 
L 180.529874 195.840177 
L 187.936027 195.184765 
L 224.96679 191.499835 
L 240.704865 190.34015 
L 260.146016 189.151475 
L 286.06755 187.807032 
L 342.539465 185.179562 
L 374.015614 183.575814 
L 395.308303 182.272886 
L 411.046377 181.100001 
L 424.932913 179.846198 
L 440.670988 178.179245 
L 452.705986 176.976883 
L 458.260601 176.619045 
L 462.889446 176.522353 
L 466.592522 176.637449 
L 470.295599 176.979025 
L 473.072906 177.418207 
L 475.850213 178.042987 
L 478.627521 178.880368 
L 481.404828 179.957897 
L 484.182135 181.303143 
L 486.959442 182.943171 
L 489.73675 184.904018 
L 492.514057 187.210225 
L 495.291364 189.884419 
L 498.068672 192.946991 
L 500.845979 196.415856 
L 503.623286 200.306327 
L 506.400593 204.631072 
L 509.177901 209.400174 
L 511.955208 214.621263 
L 514.732515 220.299719 
L 517.509822 226.438918 
L 520.28713 233.040514 
L 523.064437 240.10474 
L 526.767513 250.241702 
L 530.47059 261.195211 
L 534.173666 272.959591 
L 537.876742 285.528758 
L 541.579819 298.89708 
L 545.282895 313.060048 
L 548.985971 328.014766 
L 548.985971 328.014766 
" clip-path="url(#p4296ba59a0)" style="fill: none; stroke: #55a868; stroke-width: 2; stroke-linecap: square"/>
   </g>
   <g id="line2d_14">
    <path d="M 86.101427 186.337732 
L 548.985971 186.337732 
" clip-path="url(#p4296ba59a0)" style="fill: none; stroke-dasharray: 5.55,2.4; stroke-dashoffset: 0; stroke: #808080; stroke-width: 1.5"/>
   </g>
   <g id="patch_3">
    <path d="M 86.101427 359.086976 
L 86.101427 13.588488 
" style="fill: none; stroke: #000000; stroke-width: 0.8; stroke-linejoin: miter; stroke-linecap: square"/>
   </g>
   <g id="patch_4">
    <path d="M 86.101427 359.086976 
L 548.985971 359.086976 
" style="fill: none; stroke: #000000; stroke-width: 0.8; stroke-linejoin: miter; stroke-linecap: square"/>
   </g>
   <g id="legend_1">
    <g id="line2d_15">
     <path d="M 255.366419 243.08182 
L 271.366419 243.08182 
L 287.366419 243.08182 
" style="fill: none"/>
     <defs>
      <path id="ma80f7fbaab" d="M 0 3 
C 0.795609 3 1.55874 2.683901 2.12132 2.12132 
C 2.683901 1.55874 3 0.795609 3 0 
C 3 -0.795609 2.683901 -1.55874 2.12132 -2.12132 
C 1.55874 -2.683901 0.795609 -3 0 -3 
C -0.795609 -3 -1.55874 -2.683901 -2.12132 -2.12132 
C -2.683901 -1.55874 -3 -0.795609 -3 0 
C -3 0.795609 -2.683901 1.55874 -2.12132 2.12132 
C -1.55874 2.683901 -0.795609 3 0 3 
z
" style="stroke: #000000"/>
     </defs>
     <g>
      <use xlink:href="#ma80f7fbaab" x="271.366419" y="243.08182" style="stroke: #000000"/>
     </g>
    </g>
    <g id="text_13">
     <!-- $\mathrm{Experiment}$ -->
     <g transform="translate(300.166419 248.68182) scale(0.16 -0.16)">
      <defs>
       <path id="CMR17-45" d="M 3885 1615 
L 3770 1615 
C 3629 676 3546 166 2419 166 
L 1530 166 
C 1274 166 1261 197 1261 414 
L 1261 2176 
L 1862 2176 
C 2464 2176 2522 1960 2522 1430 
L 2637 1430 
L 2637 3081 
L 2522 3081 
C 2522 2557 2464 2342 1862 2342 
L 1261 2342 
L 1261 3913 
C 1261 4128 1274 4160 1530 4160 
L 2406 4160 
C 3398 4160 3514 3769 3603 2929 
L 3718 2929 
L 3565 4325 
L 326 4325 
L 326 4160 
C 768 4160 838 4160 838 3874 
L 838 451 
C 838 166 768 166 326 166 
L 326 0 
L 3654 0 
L 3885 1615 
z
" transform="scale(0.015625)"/>
       <path id="CMR17-78" d="M 1664 1477 
C 1856 1726 2074 2006 2253 2216 
C 2464 2458 2707 2560 2989 2560 
L 2989 2726 
C 2880 2726 2656 2726 2541 2726 
C 2368 2726 2170 2726 2022 2732 
L 2022 2566 
C 2112 2553 2163 2489 2163 2400 
C 2163 2285 2099 2215 2067 2171 
L 1594 1573 
L 1030 2306 
C 973 2376 973 2388 973 2420 
C 973 2497 1037 2560 1146 2560 
L 1146 2732 
C 992 2726 717 2726 557 2726 
C 384 2726 179 2726 38 2732 
L 38 2560 
C 384 2560 461 2534 614 2343 
L 1350 1395 
C 1363 1382 1395 1344 1395 1325 
C 1395 1299 838 619 768 530 
C 480 185 179 160 6 160 
L 6 0 
C 115 0 339 0 454 0 
C 582 0 864 0 979 -6 
L 979 160 
C 941 166 838 179 838 325 
C 838 440 890 510 947 586 
L 1478 1236 
L 2035 512 
C 2086 442 2163 346 2163 301 
C 2163 211 2086 160 1984 160 
L 1984 -6 
C 2138 0 2413 0 2573 0 
C 2746 0 2950 0 3091 -6 
L 3091 160 
C 2771 160 2675 172 2522 370 
L 1664 1477 
z
" transform="scale(0.015625)"/>
       <path id="CMR17-70" d="M 1408 -1063 
C 998 -1063 973 -1037 973 -789 
L 973 402 
C 1158 134 1427 -38 1766 -38 
C 2406 -38 3053 523 3053 1388 
C 3053 2191 2496 2802 1837 2802 
C 1453 2802 1139 2592 960 2338 
L 960 2802 
L 198 2732 
L 198 2567 
C 576 2567 634 2528 634 2223 
L 634 -789 
C 634 -1031 608 -1063 198 -1063 
L 198 -1228 
C 352 -1216 634 -1216 800 -1216 
C 966 -1216 1254 -1216 1408 -1228 
L 1408 -1063 
z
M 973 2012 
C 973 2102 973 2235 1222 2471 
C 1254 2497 1472 2688 1792 2688 
C 2259 2688 2643 2108 2643 1382 
C 2643 656 2234 64 1728 64 
C 1498 64 1248 172 1056 472 
C 973 612 973 650 973 752 
L 973 2012 
z
" transform="scale(0.015625)"/>
       <path id="CMR17-65" d="M 2438 1472 
C 2464 1498 2464 1511 2464 1576 
C 2464 2238 2118 2816 1389 2816 
C 710 2816 173 2169 173 1383 
C 173 551 781 -64 1459 -64 
C 2176 -64 2458 607 2458 740 
C 2458 784 2419 784 2406 784 
C 2362 784 2355 771 2330 696 
C 2189 265 1837 51 1504 51 
C 1229 51 954 203 781 480 
C 582 803 582 1176 582 1472 
L 2438 1472 
z
M 589 1568 
C 634 2505 1126 2714 1382 2714 
C 1818 2714 2112 2297 2118 1568 
L 589 1568 
z
" transform="scale(0.015625)"/>
       <path id="CMR17-72" d="M 960 1497 
C 960 2112 1222 2688 1702 2688 
C 1747 2688 1792 2682 1837 2662 
C 1837 2662 1696 2617 1696 2452 
C 1696 2298 1818 2234 1914 2234 
C 1990 2234 2131 2279 2131 2458 
C 2131 2663 1926 2790 1709 2790 
C 1222 2790 1011 2317 947 2093 
L 941 2093 
L 941 2790 
L 198 2720 
L 198 2554 
C 576 2554 634 2515 634 2208 
L 634 428 
C 634 184 608 153 198 153 
L 198 -13 
C 352 0 646 0 813 0 
C 998 0 1325 0 1498 -13 
L 1498 153 
C 1037 153 960 153 960 440 
L 960 1497 
z
" transform="scale(0.015625)"/>
       <path id="CMR17-69" d="M 992 3909 
C 992 4049 877 4170 730 4170 
C 589 4170 467 4056 467 3909 
C 467 3769 582 3648 730 3648 
C 870 3648 992 3763 992 3909 
z
M 243 2706 
L 243 2541 
C 602 2541 653 2502 653 2197 
L 653 427 
C 653 184 627 153 218 153 
L 218 -13 
C 371 0 646 0 806 0 
C 960 0 1222 0 1370 -13 
L 1370 153 
C 992 153 979 191 979 420 
L 979 2776 
L 243 2706 
z
" transform="scale(0.015625)"/>
       <path id="CMR17-6d" d="M 4326 1933 
C 4326 2252 4269 2790 3507 2790 
C 3072 2790 2771 2496 2656 2151 
L 2650 2151 
C 2573 2676 2195 2790 1837 2790 
C 1331 2790 1069 2400 973 2144 
L 966 2144 
L 966 2790 
L 211 2720 
L 211 2554 
C 589 2554 646 2515 646 2208 
L 646 428 
C 646 184 621 153 211 153 
L 211 -13 
C 365 0 646 0 813 0 
C 979 0 1267 0 1421 -13 
L 1421 153 
C 1011 153 986 178 986 428 
L 986 1658 
C 986 2247 1344 2688 1792 2688 
C 2266 2688 2317 2266 2317 1958 
L 2317 428 
C 2317 184 2291 153 1882 153 
L 1882 -13 
C 2035 0 2317 0 2483 0 
C 2650 0 2938 0 3091 -13 
L 3091 153 
C 2682 153 2656 178 2656 428 
L 2656 1658 
C 2656 2247 3014 2688 3462 2688 
C 3936 2688 3987 2266 3987 1958 
L 3987 428 
C 3987 184 3962 153 3552 153 
L 3552 -13 
C 3706 0 3987 0 4154 0 
C 4320 0 4608 0 4762 -13 
L 4762 153 
C 4352 153 4326 178 4326 428 
L 4326 1933 
z
" transform="scale(0.015625)"/>
       <path id="CMR17-6e" d="M 2656 1933 
C 2656 2259 2592 2790 1837 2790 
C 1331 2790 1069 2400 973 2144 
L 966 2144 
L 966 2790 
L 211 2720 
L 211 2554 
C 589 2554 646 2515 646 2208 
L 646 428 
C 646 184 621 153 211 153 
L 211 -13 
C 365 0 646 0 813 0 
C 979 0 1267 0 1421 -13 
L 1421 153 
C 1011 153 986 178 986 428 
L 986 1658 
C 986 2247 1344 2688 1792 2688 
C 2266 2688 2317 2266 2317 1958 
L 2317 428 
C 2317 184 2291 153 1882 153 
L 1882 -13 
C 2035 0 2317 0 2483 0 
C 2650 0 2938 0 3091 -13 
L 3091 153 
C 2682 153 2656 178 2656 428 
L 2656 1933 
z
" transform="scale(0.015625)"/>
       <path id="CMR17-74" d="M 966 2560 
L 1862 2560 
L 1862 2725 
L 966 2725 
L 966 3904 
L 851 3904 
C 838 3245 614 2668 70 2668 
L 70 2560 
L 627 2560 
L 627 771 
C 627 650 627 -64 1370 -64 
C 1747 -64 1965 306 1965 777 
L 1965 1140 
L 1850 1140 
L 1850 783 
C 1850 344 1677 51 1408 51 
C 1222 51 966 178 966 758 
L 966 2560 
z
" transform="scale(0.015625)"/>
      </defs>
      <use xlink:href="#CMR17-45" transform="scale(0.996264)"/>
      <use xlink:href="#CMR17-78" transform="translate(62.586301 0) scale(0.996264)"/>
      <use xlink:href="#CMR17-70" transform="translate(110.879216 0) scale(0.996264)"/>
      <use xlink:href="#CMR17-65" transform="translate(164.377025 0) scale(0.996264)"/>
      <use xlink:href="#CMR17-72" transform="translate(204.862685 0) scale(0.996264)"/>
      <use xlink:href="#CMR17-69" transform="translate(240.143453 0) scale(0.996264)"/>
      <use xlink:href="#CMR17-6d" transform="translate(265.014512 0) scale(0.996264)"/>
      <use xlink:href="#CMR17-65" transform="translate(341.934101 0) scale(0.996264)"/>
      <use xlink:href="#CMR17-6e" transform="translate(382.419762 0) scale(0.996264)"/>
      <use xlink:href="#CMR17-74" transform="translate(430.712678 0) scale(0.996264)"/>
     </g>
    </g>
    <g id="line2d_16">
     <path d="M 255.366419 265.834313 
L 271.366419 265.834313 
L 287.366419 265.834313 
" style="fill: none; stroke: #000000; stroke-width: 2; stroke-linecap: square"/>
    </g>
    <g id="text_14">
     <!-- $\mathrm{Theory}$ -->
     <g transform="translate(300.166419 271.434313) scale(0.16 -0.16)">
      <defs>
       <path id="CMR17-54" d="M 3981 4326 
L 288 4326 
L 179 2918 
L 294 2918 
C 378 3976 467 4160 1453 4160 
C 1568 4160 1754 4160 1805 4154 
C 1926 4135 1926 4058 1926 3912 
L 1926 459 
C 1926 230 1907 160 1376 160 
L 1197 160 
L 1197 0 
C 1504 0 1824 0 2138 0 
C 2451 0 2771 0 3078 0 
L 3078 160 
L 2899 160 
C 2368 160 2349 230 2349 459 
L 2349 3912 
C 2349 4052 2349 4129 2464 4154 
C 2515 4160 2701 4160 2816 4160 
C 3795 4160 3891 3976 3974 2918 
L 4090 2918 
L 3981 4326 
z
" transform="scale(0.015625)"/>
       <path id="CMR17-68" d="M 2656 1933 
C 2656 2259 2592 2790 1837 2790 
C 1312 2790 1056 2368 979 2157 
L 973 2157 
L 973 4396 
L 211 4326 
L 211 4160 
C 589 4160 646 4122 646 3817 
L 646 426 
C 646 184 621 153 211 153 
L 211 -13 
C 365 0 646 0 813 0 
C 979 0 1267 0 1421 -13 
L 1421 153 
C 1011 153 986 178 986 428 
L 986 1658 
C 986 2247 1344 2688 1792 2688 
C 2266 2688 2317 2266 2317 1958 
L 2317 428 
C 2317 184 2291 153 1882 153 
L 1882 -13 
C 2035 0 2317 0 2483 0 
C 2650 0 2938 0 3091 -13 
L 3091 153 
C 2682 153 2656 178 2656 428 
L 2656 1933 
z
" transform="scale(0.015625)"/>
       <path id="CMR17-6f" d="M 2758 1356 
C 2758 2176 2163 2816 1466 2816 
C 768 2816 173 2176 173 1356 
C 173 551 768 -64 1466 -64 
C 2163 -64 2758 551 2758 1356 
z
M 1466 51 
C 1165 51 909 230 762 480 
C 602 767 582 1126 582 1408 
C 582 1677 595 2010 762 2298 
C 890 2509 1139 2714 1466 2714 
C 1754 2714 1997 2554 2150 2330 
C 2349 2029 2349 1607 2349 1408 
C 2349 1158 2336 775 2163 467 
C 1984 173 1709 51 1466 51 
z
" transform="scale(0.015625)"/>
       <path id="CMR17-79" d="M 2496 2197 
C 2656 2586 2944 2586 3034 2586 
L 3034 2752 
C 2912 2752 2752 2752 2630 2752 
C 2496 2752 2285 2752 2157 2758 
L 2157 2592 
C 2400 2573 2406 2394 2406 2343 
C 2406 2280 2394 2248 2362 2171 
L 1664 449 
L 902 2306 
C 870 2382 870 2426 870 2433 
C 870 2573 1018 2586 1171 2586 
L 1171 2758 
C 1018 2752 742 2752 582 2752 
C 410 2752 205 2752 64 2758 
L 64 2586 
C 410 2586 448 2554 531 2350 
L 1485 15 
C 1197 -738 1030 -1178 627 -1178 
C 557 -1178 397 -1159 282 -1044 
C 429 -1031 493 -942 493 -833 
C 493 -725 416 -629 288 -629 
C 147 -629 77 -725 77 -840 
C 77 -1095 339 -1280 627 -1280 
C 998 -1280 1229 -922 1357 -604 
L 2496 2197 
z
" transform="scale(0.015625)"/>
      </defs>
      <use xlink:href="#CMR17-54" transform="scale(0.996264)"/>
      <use xlink:href="#CMR17-68" transform="translate(66.509881 0) scale(0.996264)"/>
      <use xlink:href="#CMR17-65" transform="translate(117.40525 0) scale(0.996264)"/>
      <use xlink:href="#CMR17-6f" transform="translate(157.890911 0) scale(0.996264)"/>
      <use xlink:href="#CMR17-72" transform="translate(203.581388 0) scale(0.996264)"/>
      <use xlink:href="#CMR17-79" transform="translate(238.862156 0) scale(0.996264)"/>
     </g>
    </g>
    <g id="line2d_17">
     <path d="M 255.366419 288.586807 
L 271.366419 288.586807 
L 287.366419 288.586807 
" style="fill: none; stroke: #4c72b0; stroke-width: 2; stroke-linecap: square"/>
     <defs>
      <path id="mf5553ca7b2" d="M 0 3 
C 0.795609 3 1.55874 2.683901 2.12132 2.12132 
C 2.683901 1.55874 3 0.795609 3 0 
C 3 -0.795609 2.683901 -1.55874 2.12132 -2.12132 
C 1.55874 -2.683901 0.795609 -3 0 -3 
C -0.795609 -3 -1.55874 -2.683901 -2.12132 -2.12132 
C -2.683901 -1.55874 -3 -0.795609 -3 0 
C -3 0.795609 -2.683901 1.55874 -2.12132 2.12132 
C -1.55874 2.683901 -0.795609 3 0 3 
z
" style="stroke: #4c72b0"/>
     </defs>
     <g>
      <use xlink:href="#mf5553ca7b2" x="271.366419" y="288.586807" style="fill: #4c72b0; stroke: #4c72b0"/>
     </g>
    </g>
    <g id="text_15">
     <!-- $N = 40$ -->
     <g transform="translate(300.166419 294.186807) scale(0.16 -0.16)">
      <defs>
       <path id="CMR17-3d" d="M 4115 2017 
C 4211 2017 4307 2017 4307 2125 
C 4307 2240 4198 2240 4090 2240 
L 512 2240 
C 403 2240 294 2240 294 2125 
C 294 2017 390 2017 486 2017 
L 4115 2017 
z
M 4090 896 
C 4198 896 4307 896 4307 1011 
C 4307 1119 4211 1119 4115 1119 
L 486 1119 
C 390 1119 294 1119 294 1011 
C 294 896 403 896 512 896 
L 4090 896 
z
" transform="scale(0.015625)"/>
      </defs>
      <use xlink:href="#CMMI12-4e" transform="scale(0.996264)"/>
      <use xlink:href="#CMR17-3d" transform="translate(116.195781 0) scale(0.996264)"/>
      <use xlink:href="#CMR17-34" transform="translate(215.584578 0) scale(0.996264)"/>
      <use xlink:href="#CMR17-30" transform="translate(261.275056 0) scale(0.996264)"/>
     </g>
    </g>
    <g id="line2d_18">
     <path d="M 255.366419 311.339301 
L 271.366419 311.339301 
L 287.366419 311.339301 
" style="fill: none; stroke: #dd8452; stroke-width: 2; stroke-linecap: square"/>
     <defs>
      <path id="m376c301a5a" d="M 0 3 
C 0.795609 3 1.55874 2.683901 2.12132 2.12132 
C 2.683901 1.55874 3 0.795609 3 0 
C 3 -0.795609 2.683901 -1.55874 2.12132 -2.12132 
C 1.55874 -2.683901 0.795609 -3 0 -3 
C -0.795609 -3 -1.55874 -2.683901 -2.12132 -2.12132 
C -2.683901 -1.55874 -3 -0.795609 -3 0 
C -3 0.795609 -2.683901 1.55874 -2.12132 2.12132 
C -1.55874 2.683901 -0.795609 3 0 3 
z
" style="stroke: #dd8452"/>
     </defs>
     <g>
      <use xlink:href="#m376c301a5a" x="271.366419" y="311.339301" style="fill: #dd8452; stroke: #dd8452"/>
     </g>
    </g>
    <g id="text_16">
     <!-- $N = 120$ -->
     <g transform="translate(300.166419 316.939301) scale(0.16 -0.16)">
      <use xlink:href="#CMMI12-4e" transform="scale(0.996264)"/>
      <use xlink:href="#CMR17-3d" transform="translate(116.195781 0) scale(0.996264)"/>
      <use xlink:href="#CMR17-31" transform="translate(215.584578 0) scale(0.996264)"/>
      <use xlink:href="#CMR17-32" transform="translate(261.275056 0) scale(0.996264)"/>
      <use xlink:href="#CMR17-30" transform="translate(306.965533 0) scale(0.996264)"/>
     </g>
    </g>
    <g id="line2d_19">
     <path d="M 255.366419 334.091794 
L 271.366419 334.091794 
L 287.366419 334.091794 
" style="fill: none; stroke: #55a868; stroke-width: 2; stroke-linecap: square"/>
     <defs>
      <path id="m4e22bf7df4" d="M 0 3 
C 0.795609 3 1.55874 2.683901 2.12132 2.12132 
C 2.683901 1.55874 3 0.795609 3 0 
C 3 -0.795609 2.683901 -1.55874 2.12132 -2.12132 
C 1.55874 -2.683901 0.795609 -3 0 -3 
C -0.795609 -3 -1.55874 -2.683901 -2.12132 -2.12132 
C -2.683901 -1.55874 -3 -0.795609 -3 0 
C -3 0.795609 -2.683901 1.55874 -2.12132 2.12132 
C -1.55874 2.683901 -0.795609 3 0 3 
z
" style="stroke: #55a868"/>
     </defs>
     <g>
      <use xlink:href="#m4e22bf7df4" x="271.366419" y="334.091794" style="fill: #55a868; stroke: #55a868"/>
     </g>
    </g>
    <g id="text_17">
     <!-- $N = 200$ -->
     <g transform="translate(300.166419 339.691794) scale(0.16 -0.16)">
      <use xlink:href="#CMMI12-4e" transform="scale(0.996264)"/>
      <use xlink:href="#CMR17-3d" transform="translate(116.195781 0) scale(0.996264)"/>
      <use xlink:href="#CMR17-32" transform="translate(215.584578 0) scale(0.996264)"/>
      <use xlink:href="#CMR17-30" transform="translate(261.275056 0) scale(0.996264)"/>
      <use xlink:href="#CMR17-30" transform="translate(306.965533 0) scale(0.996264)"/>
     </g>
    </g>
   </g>
  </g>
 </g>
 <defs>
  <clipPath id="p4296ba59a0">
   <rect x="86.101427" y="13.588488" width="462.884545" height="345.498487"/>
  </clipPath>
 </defs>
</svg>
