<?xml version="1.0" encoding="utf-8" standalone="no"?>
<!DOCTYPE svg PUBLIC "-//W3C//DTD SVG 1.1//EN"
  "http://www.w3.org/Graphics/SVG/1.1/DTD/svg11.dtd">
<svg xmlns:xlink="http://www.w3.org/1999/xlink" width="568.8pt" height="424.8pt" viewBox="0 0 568.8 424.8" xmlns="http://www.w3.org/2000/svg" version="1.1">
 <metadata>
  <rdf:RDF xmlns:dc="http://purl.org/dc/elements/1.1/" xmlns:cc="http://creativecommons.org/ns#" xmlns:rdf="http://www.w3.org/1999/02/22-rdf-syntax-ns#">
   <cc:Work>
    <dc:type rdf:resource="http://purl.org/dc/dcmitype/StillImage"/>
    <dc:date>2025-07-10T16:56:50.562151</dc:date>
    <dc:format>image/svg+xml</dc:format>
    <dc:creator>
     <cc:Agent>
      <dc:title>Matplotlib v3.10.3, https://matplotlib.org/</dc:title>
     </cc:Agent>
    </dc:creator>
   </cc:Work>
  </rdf:RDF>
 </metadata>
 <defs>
  <style type="text/css">*{stroke-linejoin: round; stroke-linecap: butt}</style>
 </defs>
 <g id="figure_1">
  <g id="patch_1">
   <path d="M 0 424.8 
L 568.8 424.8 
L 568.8 0 
L 0 0 
z
" style="fill: #ffffff"/>
  </g>
  <g id="axes_1">
   <g id="patch_2">
    <path d="M 85.438903 359.734496 
L 557.487857 359.734496 
L 557.487857 7.2 
L 85.438903 7.2 
z
" style="fill: #ffffff"/>
   </g>
   <g id="PathCollection_1">
    <defs>
     <path id="C0_0_a7a9f51f41" d="M 0 3.535534 
C 0.937635 3.535534 1.836992 3.163008 2.5 2.5 
C 3.163008 1.836992 3.535534 0.937635 3.535534 -0 
C 3.535534 -0.937635 3.163008 -1.836992 2.5 -2.5 
C 1.836992 -3.163008 0.937635 -3.535534 0 -3.535534 
C -0.937635 -3.535534 -1.836992 -3.163008 -2.5 -2.5 
C -3.163008 -1.836992 -3.535534 -0.937635 -3.535534 0 
C -3.535534 0.937635 -3.163008 1.836992 -2.5 2.5 
C -1.836992 3.163008 -0.937635 3.535534 0 3.535534 
z
"/>
    </defs>
    <g clip-path="url(#p07dfc3d112)">
     <use xlink:href="#C0_0_a7a9f51f41" x="94.592576" y="283.364952" style="fill: #4c72b0; stroke: #ffffff; stroke-width: 0.565685"/>
    </g>
    <g clip-path="url(#p07dfc3d112)">
     <use xlink:href="#C0_0_a7a9f51f41" x="94.592576" y="315.773536" style="fill: #dd8452; stroke: #ffffff; stroke-width: 0.565685"/>
    </g>
    <g clip-path="url(#p07dfc3d112)">
     <use xlink:href="#C0_0_a7a9f51f41" x="94.592576" y="321.596864" style="fill: #55a868; stroke: #ffffff; stroke-width: 0.565685"/>
    </g>
    <g clip-path="url(#p07dfc3d112)">
     <use xlink:href="#C0_0_a7a9f51f41" x="104.402378" y="319.19564" style="fill: #4c72b0; stroke: #ffffff; stroke-width: 0.565685"/>
    </g>
    <g clip-path="url(#p07dfc3d112)">
     <use xlink:href="#C0_0_a7a9f51f41" x="104.402378" y="298.641668" style="fill: #dd8452; stroke: #ffffff; stroke-width: 0.565685"/>
    </g>
    <g clip-path="url(#p07dfc3d112)">
     <use xlink:href="#C0_0_a7a9f51f41" x="104.402378" y="270.871543" style="fill: #55a868; stroke: #ffffff; stroke-width: 0.565685"/>
    </g>
    <g clip-path="url(#p07dfc3d112)">
     <use xlink:href="#C0_0_a7a9f51f41" x="122.072559" y="285.821153" style="fill: #4c72b0; stroke: #ffffff; stroke-width: 0.565685"/>
    </g>
    <g clip-path="url(#p07dfc3d112)">
     <use xlink:href="#C0_0_a7a9f51f41" x="122.072559" y="225.704588" style="fill: #dd8452; stroke: #ffffff; stroke-width: 0.565685"/>
    </g>
    <g clip-path="url(#p07dfc3d112)">
     <use xlink:href="#C0_0_a7a9f51f41" x="122.072559" y="211.435525" style="fill: #55a868; stroke: #ffffff; stroke-width: 0.565685"/>
    </g>
    <g clip-path="url(#p07dfc3d112)">
     <use xlink:href="#C0_0_a7a9f51f41" x="141.171416" y="237.0814" style="fill: #4c72b0; stroke: #ffffff; stroke-width: 0.565685"/>
    </g>
    <g clip-path="url(#p07dfc3d112)">
     <use xlink:href="#C0_0_a7a9f51f41" x="141.171416" y="205.707327" style="fill: #dd8452; stroke: #ffffff; stroke-width: 0.565685"/>
    </g>
    <g clip-path="url(#p07dfc3d112)">
     <use xlink:href="#C0_0_a7a9f51f41" x="141.171416" y="200.115637" style="fill: #55a868; stroke: #ffffff; stroke-width: 0.565685"/>
    </g>
    <g clip-path="url(#p07dfc3d112)">
     <use xlink:href="#C0_0_a7a9f51f41" x="159.083229" y="213.955547" style="fill: #4c72b0; stroke: #ffffff; stroke-width: 0.565685"/>
    </g>
    <g clip-path="url(#p07dfc3d112)">
     <use xlink:href="#C0_0_a7a9f51f41" x="159.083229" y="199.081769" style="fill: #dd8452; stroke: #ffffff; stroke-width: 0.565685"/>
    </g>
    <g clip-path="url(#p07dfc3d112)">
     <use xlink:href="#C0_0_a7a9f51f41" x="159.083229" y="195.762912" style="fill: #55a868; stroke: #ffffff; stroke-width: 0.565685"/>
    </g>
    <g clip-path="url(#p07dfc3d112)">
     <use xlink:href="#C0_0_a7a9f51f41" x="179.348441" y="204.893147" style="fill: #4c72b0; stroke: #ffffff; stroke-width: 0.565685"/>
    </g>
    <g clip-path="url(#p07dfc3d112)">
     <use xlink:href="#C0_0_a7a9f51f41" x="179.348441" y="195.331345" style="fill: #dd8452; stroke: #ffffff; stroke-width: 0.565685"/>
    </g>
    <g clip-path="url(#p07dfc3d112)">
     <use xlink:href="#C0_0_a7a9f51f41" x="179.348441" y="192.565767" style="fill: #55a868; stroke: #ffffff; stroke-width: 0.565685"/>
    </g>
    <g clip-path="url(#p07dfc3d112)">
     <use xlink:href="#C0_0_a7a9f51f41" x="199.266847" y="195.348938" style="fill: #4c72b0; stroke: #ffffff; stroke-width: 0.565685"/>
    </g>
    <g clip-path="url(#p07dfc3d112)">
     <use xlink:href="#C0_0_a7a9f51f41" x="199.266847" y="185.578055" style="fill: #dd8452; stroke: #ffffff; stroke-width: 0.565685"/>
    </g>
    <g clip-path="url(#p07dfc3d112)">
     <use xlink:href="#C0_0_a7a9f51f41" x="199.266847" y="181.64491" style="fill: #55a868; stroke: #ffffff; stroke-width: 0.565685"/>
    </g>
    <g clip-path="url(#p07dfc3d112)">
     <use xlink:href="#C0_0_a7a9f51f41" x="218.364176" y="195.677369" style="fill: #4c72b0; stroke: #ffffff; stroke-width: 0.565685"/>
    </g>
    <g clip-path="url(#p07dfc3d112)">
     <use xlink:href="#C0_0_a7a9f51f41" x="218.364176" y="190.168248" style="fill: #dd8452; stroke: #ffffff; stroke-width: 0.565685"/>
    </g>
    <g clip-path="url(#p07dfc3d112)">
     <use xlink:href="#C0_0_a7a9f51f41" x="218.364176" y="188.787813" style="fill: #55a868; stroke: #ffffff; stroke-width: 0.565685"/>
    </g>
    <g clip-path="url(#p07dfc3d112)">
     <use xlink:href="#C0_0_a7a9f51f41" x="237.916508" y="192.699433" style="fill: #4c72b0; stroke: #ffffff; stroke-width: 0.565685"/>
    </g>
    <g clip-path="url(#p07dfc3d112)">
     <use xlink:href="#C0_0_a7a9f51f41" x="237.916508" y="188.65125" style="fill: #dd8452; stroke: #ffffff; stroke-width: 0.565685"/>
    </g>
    <g clip-path="url(#p07dfc3d112)">
     <use xlink:href="#C0_0_a7a9f51f41" x="237.916508" y="187.437265" style="fill: #55a868; stroke: #ffffff; stroke-width: 0.565685"/>
    </g>
    <g clip-path="url(#p07dfc3d112)">
     <use xlink:href="#C0_0_a7a9f51f41" x="257.862452" y="190.045229" style="fill: #4c72b0; stroke: #ffffff; stroke-width: 0.565685"/>
    </g>
    <g clip-path="url(#p07dfc3d112)">
     <use xlink:href="#C0_0_a7a9f51f41" x="257.862452" y="187.203193" style="fill: #dd8452; stroke: #ffffff; stroke-width: 0.565685"/>
    </g>
    <g clip-path="url(#p07dfc3d112)">
     <use xlink:href="#C0_0_a7a9f51f41" x="257.862452" y="186.337356" style="fill: #55a868; stroke: #ffffff; stroke-width: 0.565685"/>
    </g>
    <g clip-path="url(#p07dfc3d112)">
     <use xlink:href="#C0_0_a7a9f51f41" x="277.597948" y="187.899073" style="fill: #4c72b0; stroke: #ffffff; stroke-width: 0.565685"/>
    </g>
    <g clip-path="url(#p07dfc3d112)">
     <use xlink:href="#C0_0_a7a9f51f41" x="277.597948" y="185.937665" style="fill: #dd8452; stroke: #ffffff; stroke-width: 0.565685"/>
    </g>
    <g clip-path="url(#p07dfc3d112)">
     <use xlink:href="#C0_0_a7a9f51f41" x="277.597948" y="185.311419" style="fill: #55a868; stroke: #ffffff; stroke-width: 0.565685"/>
    </g>
    <g clip-path="url(#p07dfc3d112)">
     <use xlink:href="#C0_0_a7a9f51f41" x="297.855762" y="185.789962" style="fill: #4c72b0; stroke: #ffffff; stroke-width: 0.565685"/>
    </g>
    <g clip-path="url(#p07dfc3d112)">
     <use xlink:href="#C0_0_a7a9f51f41" x="297.855762" y="184.791239" style="fill: #dd8452; stroke: #ffffff; stroke-width: 0.565685"/>
    </g>
    <g clip-path="url(#p07dfc3d112)">
     <use xlink:href="#C0_0_a7a9f51f41" x="297.855762" y="184.434377" style="fill: #55a868; stroke: #ffffff; stroke-width: 0.565685"/>
    </g>
    <g clip-path="url(#p07dfc3d112)">
     <use xlink:href="#C0_0_a7a9f51f41" x="317.934585" y="183.083824" style="fill: #4c72b0; stroke: #ffffff; stroke-width: 0.565685"/>
    </g>
    <g clip-path="url(#p07dfc3d112)">
     <use xlink:href="#C0_0_a7a9f51f41" x="317.934585" y="182.40105" style="fill: #dd8452; stroke: #ffffff; stroke-width: 0.565685"/>
    </g>
    <g clip-path="url(#p07dfc3d112)">
     <use xlink:href="#C0_0_a7a9f51f41" x="317.934585" y="181.980205" style="fill: #55a868; stroke: #ffffff; stroke-width: 0.565685"/>
    </g>
    <g clip-path="url(#p07dfc3d112)">
     <use xlink:href="#C0_0_a7a9f51f41" x="338.335172" y="181.806583" style="fill: #4c72b0; stroke: #ffffff; stroke-width: 0.565685"/>
    </g>
    <g clip-path="url(#p07dfc3d112)">
     <use xlink:href="#C0_0_a7a9f51f41" x="338.335172" y="182.501492" style="fill: #dd8452; stroke: #ffffff; stroke-width: 0.565685"/>
    </g>
    <g clip-path="url(#p07dfc3d112)">
     <use xlink:href="#C0_0_a7a9f51f41" x="338.335172" y="182.675882" style="fill: #55a868; stroke: #ffffff; stroke-width: 0.565685"/>
    </g>
    <g clip-path="url(#p07dfc3d112)">
     <use xlink:href="#C0_0_a7a9f51f41" x="358.037117" y="179.818541" style="fill: #4c72b0; stroke: #ffffff; stroke-width: 0.565685"/>
    </g>
    <g clip-path="url(#p07dfc3d112)">
     <use xlink:href="#C0_0_a7a9f51f41" x="358.037117" y="181.380255" style="fill: #dd8452; stroke: #ffffff; stroke-width: 0.565685"/>
    </g>
    <g clip-path="url(#p07dfc3d112)">
     <use xlink:href="#C0_0_a7a9f51f41" x="358.037117" y="181.831851" style="fill: #55a868; stroke: #ffffff; stroke-width: 0.565685"/>
    </g>
    <g clip-path="url(#p07dfc3d112)">
     <use xlink:href="#C0_0_a7a9f51f41" x="378.50705" y="177.586103" style="fill: #4c72b0; stroke: #ffffff; stroke-width: 0.565685"/>
    </g>
    <g clip-path="url(#p07dfc3d112)">
     <use xlink:href="#C0_0_a7a9f51f41" x="378.50705" y="180.107715" style="fill: #dd8452; stroke: #ffffff; stroke-width: 0.565685"/>
    </g>
    <g clip-path="url(#p07dfc3d112)">
     <use xlink:href="#C0_0_a7a9f51f41" x="378.50705" y="180.875583" style="fill: #55a868; stroke: #ffffff; stroke-width: 0.565685"/>
    </g>
    <g clip-path="url(#p07dfc3d112)">
     <use xlink:href="#C0_0_a7a9f51f41" x="398.702126" y="175.108972" style="fill: #4c72b0; stroke: #ffffff; stroke-width: 0.565685"/>
    </g>
    <g clip-path="url(#p07dfc3d112)">
     <use xlink:href="#C0_0_a7a9f51f41" x="398.702126" y="178.684849" style="fill: #dd8452; stroke: #ffffff; stroke-width: 0.565685"/>
    </g>
    <g clip-path="url(#p07dfc3d112)">
     <use xlink:href="#C0_0_a7a9f51f41" x="398.702126" y="179.727912" style="fill: #55a868; stroke: #ffffff; stroke-width: 0.565685"/>
    </g>
    <g clip-path="url(#p07dfc3d112)">
     <use xlink:href="#C0_0_a7a9f51f41" x="418.716842" y="172.373974" style="fill: #4c72b0; stroke: #ffffff; stroke-width: 0.565685"/>
    </g>
    <g clip-path="url(#p07dfc3d112)">
     <use xlink:href="#C0_0_a7a9f51f41" x="418.716842" y="177.225416" style="fill: #dd8452; stroke: #ffffff; stroke-width: 0.565685"/>
    </g>
    <g clip-path="url(#p07dfc3d112)">
     <use xlink:href="#C0_0_a7a9f51f41" x="418.716842" y="178.708721" style="fill: #55a868; stroke: #ffffff; stroke-width: 0.565685"/>
    </g>
    <g clip-path="url(#p07dfc3d112)">
     <use xlink:href="#C0_0_a7a9f51f41" x="438.633449" y="168.730888" style="fill: #4c72b0; stroke: #ffffff; stroke-width: 0.565685"/>
    </g>
    <g clip-path="url(#p07dfc3d112)">
     <use xlink:href="#C0_0_a7a9f51f41" x="438.633449" y="175.247668" style="fill: #dd8452; stroke: #ffffff; stroke-width: 0.565685"/>
    </g>
    <g clip-path="url(#p07dfc3d112)">
     <use xlink:href="#C0_0_a7a9f51f41" x="438.633449" y="177.162461" style="fill: #55a868; stroke: #ffffff; stroke-width: 0.565685"/>
    </g>
    <g clip-path="url(#p07dfc3d112)">
     <use xlink:href="#C0_0_a7a9f51f41" x="457.855457" y="164.357201" style="fill: #4c72b0; stroke: #ffffff; stroke-width: 0.565685"/>
    </g>
    <g clip-path="url(#p07dfc3d112)">
     <use xlink:href="#C0_0_a7a9f51f41" x="457.855457" y="173.207034" style="fill: #dd8452; stroke: #ffffff; stroke-width: 0.565685"/>
    </g>
    <g clip-path="url(#p07dfc3d112)">
     <use xlink:href="#C0_0_a7a9f51f41" x="457.855457" y="175.463136" style="fill: #55a868; stroke: #ffffff; stroke-width: 0.565685"/>
    </g>
    <g clip-path="url(#p07dfc3d112)">
     <use xlink:href="#C0_0_a7a9f51f41" x="477.615586" y="156.218037" style="fill: #4c72b0; stroke: #ffffff; stroke-width: 0.565685"/>
    </g>
    <g clip-path="url(#p07dfc3d112)">
     <use xlink:href="#C0_0_a7a9f51f41" x="477.615586" y="169.4297" style="fill: #dd8452; stroke: #ffffff; stroke-width: 0.565685"/>
    </g>
    <g clip-path="url(#p07dfc3d112)">
     <use xlink:href="#C0_0_a7a9f51f41" x="477.615586" y="172.743471" style="fill: #55a868; stroke: #ffffff; stroke-width: 0.565685"/>
    </g>
    <g clip-path="url(#p07dfc3d112)">
     <use xlink:href="#C0_0_a7a9f51f41" x="497.335978" y="137.560427" style="fill: #4c72b0; stroke: #ffffff; stroke-width: 0.565685"/>
    </g>
    <g clip-path="url(#p07dfc3d112)">
     <use xlink:href="#C0_0_a7a9f51f41" x="497.335978" y="163.176979" style="fill: #dd8452; stroke: #ffffff; stroke-width: 0.565685"/>
    </g>
    <g clip-path="url(#p07dfc3d112)">
     <use xlink:href="#C0_0_a7a9f51f41" x="497.335978" y="167.85535" style="fill: #55a868; stroke: #ffffff; stroke-width: 0.565685"/>
    </g>
    <g clip-path="url(#p07dfc3d112)">
     <use xlink:href="#C0_0_a7a9f51f41" x="516.505057" y="93.420464" style="fill: #4c72b0; stroke: #ffffff; stroke-width: 0.565685"/>
    </g>
    <g clip-path="url(#p07dfc3d112)">
     <use xlink:href="#C0_0_a7a9f51f41" x="516.505057" y="148.538947" style="fill: #dd8452; stroke: #ffffff; stroke-width: 0.565685"/>
    </g>
    <g clip-path="url(#p07dfc3d112)">
     <use xlink:href="#C0_0_a7a9f51f41" x="516.505057" y="158.844884" style="fill: #55a868; stroke: #ffffff; stroke-width: 0.565685"/>
    </g>
    <g clip-path="url(#p07dfc3d112)">
     <use xlink:href="#C0_0_a7a9f51f41" x="534.943899" y="47.284342" style="fill: #4c72b0; stroke: #ffffff; stroke-width: 0.565685"/>
    </g>
    <g clip-path="url(#p07dfc3d112)">
     <use xlink:href="#C0_0_a7a9f51f41" x="534.943899" y="86.166679" style="fill: #dd8452; stroke: #ffffff; stroke-width: 0.565685"/>
    </g>
    <g clip-path="url(#p07dfc3d112)">
     <use xlink:href="#C0_0_a7a9f51f41" x="534.943899" y="115.890764" style="fill: #55a868; stroke: #ffffff; stroke-width: 0.565685"/>
    </g>
    <g clip-path="url(#p07dfc3d112)">
     <use xlink:href="#C0_0_a7a9f51f41" x="547.865847" y="80.421813" style="fill: #4c72b0; stroke: #ffffff; stroke-width: 0.565685"/>
    </g>
    <g clip-path="url(#p07dfc3d112)">
     <use xlink:href="#C0_0_a7a9f51f41" x="547.865847" y="50.275753" style="fill: #dd8452; stroke: #ffffff; stroke-width: 0.565685"/>
    </g>
    <g clip-path="url(#p07dfc3d112)">
     <use xlink:href="#C0_0_a7a9f51f41" x="547.865847" y="46.313093" style="fill: #55a868; stroke: #ffffff; stroke-width: 0.565685"/>
    </g>
   </g>
   <g id="FillBetweenPolyCollection_1"/>
   <g id="FillBetweenPolyCollection_2"/>
   <g id="FillBetweenPolyCollection_3"/>
   <g id="matplotlib.axis_1">
    <g id="xtick_1">
     <g id="line2d_1">
      <defs>
       <path id="m75d828faa0" d="M 0 0 
L 0 3.5 
" style="stroke: #000000; stroke-width: 0.8"/>
      </defs>
      <g>
       <use xlink:href="#m75d828faa0" x="85.438903" y="359.734496" style="stroke: #000000; stroke-width: 0.8"/>
      </g>
     </g>
     <g id="text_1">
      <!-- $0$ -->
      <g transform="translate(81.32676 379.511472) scale(0.18 -0.18)">
       <defs>
        <path id="CMR17-30" d="M 2688 2025 
C 2688 2416 2682 3080 2413 3591 
C 2176 4039 1798 4198 1466 4198 
C 1158 4198 768 4058 525 3597 
C 269 3118 243 2524 243 2025 
C 243 1661 250 1106 448 619 
C 723 -39 1216 -128 1466 -128 
C 1760 -128 2208 -7 2470 600 
C 2662 1042 2688 1559 2688 2025 
z
M 1466 -26 
C 1056 -26 813 325 723 812 
C 653 1188 653 1738 653 2096 
C 653 2588 653 2997 736 3387 
C 858 3929 1216 4096 1466 4096 
C 1728 4096 2067 3923 2189 3400 
C 2272 3036 2278 2607 2278 2096 
C 2278 1680 2278 1169 2202 792 
C 2067 95 1690 -26 1466 -26 
z
" transform="scale(0.015625)"/>
       </defs>
       <use xlink:href="#CMR17-30" transform="scale(0.996264)"/>
      </g>
     </g>
    </g>
    <g id="xtick_2">
     <g id="line2d_2">
      <g>
       <use xlink:href="#m75d828faa0" x="203.451141" y="359.734496" style="stroke: #000000; stroke-width: 0.8"/>
      </g>
     </g>
     <g id="text_2">
      <!-- $1/4$ -->
      <g transform="translate(190.837113 380.18406) scale(0.18 -0.18)">
       <defs>
        <path id="CMR17-31" d="M 1702 4058 
C 1702 4192 1696 4192 1606 4192 
C 1357 3916 979 3827 621 3827 
C 602 3827 570 3827 563 3808 
C 557 3795 557 3782 557 3648 
C 755 3648 1088 3686 1344 3839 
L 1344 461 
C 1344 236 1331 160 781 160 
L 589 160 
L 589 0 
C 896 0 1216 0 1523 0 
C 1830 0 2150 0 2458 0 
L 2458 160 
L 2266 160 
C 1715 160 1702 230 1702 458 
L 1702 4058 
z
" transform="scale(0.015625)"/>
        <path id="CMMI12-3d" d="M 2746 4562 
C 2746 4569 2784 4666 2784 4678 
C 2784 4755 2720 4800 2669 4800 
C 2637 4800 2579 4800 2528 4659 
L 384 -1363 
C 384 -1370 346 -1465 346 -1478 
C 346 -1555 410 -1600 461 -1600 
C 499 -1600 557 -1593 602 -1459 
L 2746 4562 
z
" transform="scale(0.015625)"/>
        <path id="CMR17-34" d="M 2150 4122 
C 2150 4256 2144 4256 2029 4256 
L 128 1254 
L 128 1088 
L 1779 1088 
L 1779 457 
C 1779 224 1766 160 1318 160 
L 1197 160 
L 1197 0 
C 1402 0 1747 0 1965 0 
C 2182 0 2528 0 2733 0 
L 2733 160 
L 2611 160 
C 2163 160 2150 224 2150 457 
L 2150 1088 
L 2803 1088 
L 2803 1254 
L 2150 1254 
L 2150 4122 
z
M 1798 3703 
L 1798 1254 
L 256 1254 
L 1798 3703 
z
" transform="scale(0.015625)"/>
       </defs>
       <use xlink:href="#CMR17-31" transform="scale(0.996264)"/>
       <use xlink:href="#CMMI12-3d" transform="translate(45.690477 0) scale(0.996264)"/>
       <use xlink:href="#CMR17-34" transform="translate(94.465396 0) scale(0.996264)"/>
      </g>
     </g>
    </g>
    <g id="xtick_3">
     <g id="line2d_3">
      <g>
       <use xlink:href="#m75d828faa0" x="321.46338" y="359.734496" style="stroke: #000000; stroke-width: 0.8"/>
      </g>
     </g>
     <g id="text_3">
      <!-- $1/2$ -->
      <g transform="translate(308.849351 380.18406) scale(0.18 -0.18)">
       <defs>
        <path id="CMR17-32" d="M 2669 989 
L 2554 989 
C 2490 536 2438 459 2413 420 
C 2381 369 1920 369 1830 369 
L 602 369 
C 832 619 1280 1072 1824 1597 
C 2214 1967 2669 2402 2669 3035 
C 2669 3790 2067 4224 1395 4224 
C 691 4224 262 3604 262 3030 
C 262 2780 448 2748 525 2748 
C 589 2748 781 2787 781 3010 
C 781 3207 614 3264 525 3264 
C 486 3264 448 3258 422 3245 
C 544 3790 915 4058 1306 4058 
C 1862 4058 2227 3617 2227 3035 
C 2227 2479 1901 2000 1536 1584 
L 262 146 
L 262 0 
L 2515 0 
L 2669 989 
z
" transform="scale(0.015625)"/>
       </defs>
       <use xlink:href="#CMR17-31" transform="scale(0.996264)"/>
       <use xlink:href="#CMMI12-3d" transform="translate(45.690477 0) scale(0.996264)"/>
       <use xlink:href="#CMR17-32" transform="translate(94.465396 0) scale(0.996264)"/>
      </g>
     </g>
    </g>
    <g id="xtick_4">
     <g id="line2d_4">
      <g>
       <use xlink:href="#m75d828faa0" x="439.475618" y="359.734496" style="stroke: #000000; stroke-width: 0.8"/>
      </g>
     </g>
     <g id="text_4">
      <!-- $3/4$ -->
      <g transform="translate(426.86159 380.18406) scale(0.18 -0.18)">
       <defs>
        <path id="CMR17-33" d="M 1414 2157 
C 1984 2157 2234 1662 2234 1090 
C 2234 320 1824 25 1453 25 
C 1114 25 563 194 390 693 
C 422 680 454 680 486 680 
C 640 680 755 782 755 948 
C 755 1133 614 1216 486 1216 
C 378 1216 211 1165 211 926 
C 211 335 787 -128 1466 -128 
C 2176 -128 2720 430 2720 1085 
C 2720 1707 2208 2157 1600 2227 
C 2086 2328 2554 2756 2554 3329 
C 2554 3820 2048 4179 1472 4179 
C 890 4179 378 3829 378 3329 
C 378 3110 544 3072 627 3072 
C 762 3072 877 3155 877 3321 
C 877 3486 762 3569 627 3569 
C 602 3569 570 3569 544 3557 
C 730 3959 1235 4032 1459 4032 
C 1683 4032 2106 3925 2106 3320 
C 2106 3143 2080 2828 1862 2550 
C 1670 2304 1453 2304 1242 2284 
C 1210 2284 1062 2269 1037 2269 
C 992 2263 966 2257 966 2208 
C 966 2163 973 2157 1101 2157 
L 1414 2157 
z
" transform="scale(0.015625)"/>
       </defs>
       <use xlink:href="#CMR17-33" transform="scale(0.996264)"/>
       <use xlink:href="#CMMI12-3d" transform="translate(45.690477 0) scale(0.996264)"/>
       <use xlink:href="#CMR17-34" transform="translate(94.465396 0) scale(0.996264)"/>
      </g>
     </g>
    </g>
    <g id="xtick_5">
     <g id="line2d_5">
      <g>
       <use xlink:href="#m75d828faa0" x="557.487857" y="359.734496" style="stroke: #000000; stroke-width: 0.8"/>
      </g>
     </g>
     <g id="text_5">
      <!-- $1$ -->
      <g transform="translate(553.375714 379.511472) scale(0.18 -0.18)">
       <use xlink:href="#CMR17-31" transform="scale(0.996264)"/>
      </g>
     </g>
    </g>
    <g id="text_6">
     <!-- $\theta / \pi$ -->
     <g transform="translate(307.758145 413.116812) scale(0.18 -0.18)">
      <defs>
       <path id="CMMI12-12" d="M 2835 3200 
C 2835 3850 2630 4480 2106 4480 
C 1210 4480 256 2615 256 1216 
C 256 923 320 -64 992 -64 
C 1862 -64 2835 1756 2835 3200 
z
M 896 2304 
C 992 2679 1126 3214 1382 3665 
C 1594 4047 1818 4352 2099 4352 
C 2310 4352 2451 4174 2451 3564 
C 2451 3334 2432 3017 2246 2304 
L 896 2304 
z
M 2202 2113 
C 2042 1490 1907 1088 1677 687 
C 1491 363 1267 64 998 64 
C 800 64 640 217 640 846 
C 640 1260 742 1693 845 2113 
L 2202 2113 
z
" transform="scale(0.015625)"/>
       <path id="CMMI12-19" d="M 1658 2408 
L 2381 2408 
C 2208 1692 2099 1226 2099 716 
C 2099 626 2099 -64 2362 -64 
C 2496 -64 2611 57 2611 166 
C 2611 197 2611 210 2566 306 
C 2394 747 2394 1296 2394 1341 
C 2394 1379 2394 1832 2528 2408 
L 3245 2408 
C 3328 2408 3539 2408 3539 2612 
C 3539 2752 3418 2752 3302 2752 
L 1197 2752 
C 1050 2752 832 2752 538 2440 
C 371 2254 166 1916 166 1878 
C 166 1840 198 1827 237 1827 
C 282 1827 288 1846 320 1884 
C 653 2408 986 2408 1146 2408 
L 1510 2408 
C 1370 1929 1210 1373 685 256 
C 634 154 634 140 634 102 
C 634 -32 749 -64 806 -64 
C 992 -64 1043 102 1120 370 
C 1222 696 1222 709 1286 964 
L 1658 2408 
z
" transform="scale(0.015625)"/>
      </defs>
      <use xlink:href="#CMMI12-12" transform="scale(0.996264)"/>
      <use xlink:href="#CMMI12-3d" transform="translate(48.169508 0) scale(0.996264)"/>
      <use xlink:href="#CMMI12-19" transform="translate(96.944427 0) scale(0.996264)"/>
     </g>
    </g>
   </g>
   <g id="matplotlib.axis_2">
    <g id="ytick_1">
     <g id="line2d_6">
      <defs>
       <path id="mdda88c734e" d="M 0 0 
L -3.5 0 
" style="stroke: #000000; stroke-width: 0.8"/>
      </defs>
      <g>
       <use xlink:href="#mdda88c734e" x="85.438903" y="324.481046" style="stroke: #000000; stroke-width: 0.8"/>
      </g>
     </g>
     <g id="text_7">
      <!-- $-0.4$ -->
      <g transform="translate(43.165097 330.869534) scale(0.18 -0.18)">
       <defs>
        <path id="CMSY10-0" d="M 4218 1472 
C 4326 1472 4442 1472 4442 1600 
C 4442 1728 4326 1728 4218 1728 
L 755 1728 
C 646 1728 531 1728 531 1600 
C 531 1472 646 1472 755 1472 
L 4218 1472 
z
" transform="scale(0.015625)"/>
        <path id="CMMI12-3a" d="M 1178 307 
C 1178 492 1024 619 870 619 
C 685 619 557 466 557 313 
C 557 128 710 0 864 0 
C 1050 0 1178 153 1178 307 
z
" transform="scale(0.015625)"/>
       </defs>
       <use xlink:href="#CMSY10-0" transform="scale(0.996264)"/>
       <use xlink:href="#CMR17-30" transform="translate(77.487468 0) scale(0.996264)"/>
       <use xlink:href="#CMMI12-3a" transform="translate(123.177945 0) scale(0.996264)"/>
       <use xlink:href="#CMR17-34" transform="translate(150.275122 0) scale(0.996264)"/>
      </g>
     </g>
    </g>
    <g id="ytick_2">
     <g id="line2d_7">
      <g>
       <use xlink:href="#mdda88c734e" x="85.438903" y="253.974147" style="stroke: #000000; stroke-width: 0.8"/>
      </g>
     </g>
     <g id="text_8">
      <!-- $-0.2$ -->
      <g transform="translate(43.165097 260.362635) scale(0.18 -0.18)">
       <use xlink:href="#CMSY10-0" transform="scale(0.996264)"/>
       <use xlink:href="#CMR17-30" transform="translate(77.487468 0) scale(0.996264)"/>
       <use xlink:href="#CMMI12-3a" transform="translate(123.177945 0) scale(0.996264)"/>
       <use xlink:href="#CMR17-32" transform="translate(150.275122 0) scale(0.996264)"/>
      </g>
     </g>
    </g>
    <g id="ytick_3">
     <g id="line2d_8">
      <g>
       <use xlink:href="#mdda88c734e" x="85.438903" y="183.467248" style="stroke: #000000; stroke-width: 0.8"/>
      </g>
     </g>
     <g id="text_9">
      <!-- $0.0$ -->
      <g transform="translate(57.112839 189.855736) scale(0.18 -0.18)">
       <use xlink:href="#CMR17-30" transform="scale(0.996264)"/>
       <use xlink:href="#CMMI12-3a" transform="translate(45.690477 0) scale(0.996264)"/>
       <use xlink:href="#CMR17-30" transform="translate(72.787654 0) scale(0.996264)"/>
      </g>
     </g>
    </g>
    <g id="ytick_4">
     <g id="line2d_9">
      <g>
       <use xlink:href="#mdda88c734e" x="85.438903" y="112.960349" style="stroke: #000000; stroke-width: 0.8"/>
      </g>
     </g>
     <g id="text_10">
      <!-- $0.2$ -->
      <g transform="translate(57.112839 119.348837) scale(0.18 -0.18)">
       <use xlink:href="#CMR17-30" transform="scale(0.996264)"/>
       <use xlink:href="#CMMI12-3a" transform="translate(45.690477 0) scale(0.996264)"/>
       <use xlink:href="#CMR17-32" transform="translate(72.787654 0) scale(0.996264)"/>
      </g>
     </g>
    </g>
    <g id="ytick_5">
     <g id="line2d_10">
      <g>
       <use xlink:href="#mdda88c734e" x="85.438903" y="42.45345" style="stroke: #000000; stroke-width: 0.8"/>
      </g>
     </g>
     <g id="text_11">
      <!-- $0.4$ -->
      <g transform="translate(57.112839 48.841938) scale(0.18 -0.18)">
       <use xlink:href="#CMR17-30" transform="scale(0.996264)"/>
       <use xlink:href="#CMMI12-3a" transform="translate(45.690477 0) scale(0.996264)"/>
       <use xlink:href="#CMR17-34" transform="translate(72.787654 0) scale(0.996264)"/>
      </g>
     </g>
    </g>
    <g id="text_12">
     <!-- $\sqrt{N} \cdot (\mathbb{E}(\tilde{\theta}) - \theta)$ -->
     <g transform="translate(23.696913 243.690021) rotate(-90) scale(0.18 -0.18)">
      <defs>
       <path id="CMSY10-70" d="M 2490 -5472 
L 1363 -2982 
C 1318 -2880 1286 -2880 1267 -2880 
C 1261 -2880 1229 -2880 1158 -2931 
L 550 -3392 
C 467 -3456 467 -3475 467 -3494 
C 467 -3526 486 -3565 531 -3565 
C 570 -3565 678 -3475 749 -3424 
C 787 -3393 883 -3323 954 -3271 
L 2214 -6042 
C 2259 -6144 2291 -6144 2349 -6144 
C 2445 -6144 2464 -6106 2509 -6016 
L 5414 0 
C 5459 90 5459 115 5459 128 
C 5459 192 5408 256 5331 256 
C 5280 256 5235 224 5184 122 
L 2490 -5472 
z
" transform="scale(0.015625)"/>
       <path id="CMMI12-4e" d="M 4736 3698 
C 4806 3974 4909 4166 5395 4166 
C 5414 4166 5491 4166 5491 4279 
C 5491 4352 5434 4352 5408 4352 
C 5280 4352 4954 4352 4826 4352 
L 4518 4352 
C 4429 4352 4314 4352 4224 4352 
C 4186 4352 4109 4352 4109 4230 
C 4109 4166 4160 4166 4205 4166 
C 4589 4166 4614 4019 4614 3903 
C 4614 3846 4608 3826 4589 3737 
L 3866 850 
L 2496 4249 
C 2451 4352 2445 4352 2304 4352 
L 1523 4352 
C 1395 4352 1338 4352 1338 4230 
C 1338 4166 1382 4166 1504 4166 
C 1536 4166 1914 4166 1914 4115 
C 1914 4102 1901 4051 1894 4032 
L 1043 635 
C 966 320 813 186 390 186 
C 358 186 294 186 294 67 
C 294 0 358 0 378 0 
C 506 0 832 0 960 0 
L 1267 0 
C 1357 0 1466 0 1555 0 
C 1600 0 1670 0 1670 122 
C 1670 180 1606 186 1581 186 
C 1370 186 1165 224 1165 454 
C 1165 505 1178 562 1190 613 
L 2054 4032 
C 2093 3968 2093 3956 2118 3898 
L 3642 115 
C 3674 38 3686 0 3744 0 
C 3808 0 3814 19 3840 128 
L 4736 3698 
z
" transform="scale(0.015625)"/>
       <path id="CMSY10-1" d="M 1229 1619 
C 1229 1805 1075 1958 890 1958 
C 704 1958 550 1805 550 1619 
C 550 1433 704 1280 890 1280 
C 1075 1280 1229 1433 1229 1619 
z
" transform="scale(0.015625)"/>
       <path id="CMR17-28" d="M 1958 -1561 
C 1958 -1555 1958 -1542 1939 -1523 
C 1645 -1224 858 -407 858 1581 
C 858 3569 1632 4379 1946 4697 
C 1946 4704 1958 4717 1958 4736 
C 1958 4755 1939 4768 1914 4768 
C 1843 4768 1299 4296 986 3594 
C 666 2887 576 2199 576 1588 
C 576 1128 621 351 1005 -471 
C 1312 -1135 1837 -1600 1914 -1600 
C 1946 -1600 1958 -1587 1958 -1561 
z
" transform="scale(0.015625)"/>
       <path id="MSBM10-45" d="M 1658 2176 
C 1818 2176 2125 2176 2349 2046 
C 2656 1853 2682 1517 2682 1480 
C 2688 1393 2688 1312 2797 1312 
C 2906 1312 2906 1401 2906 1517 
L 2906 3251 
C 2906 3353 2906 3456 2797 3456 
C 2688 3456 2682 3355 2682 3301 
C 2643 2432 1990 2432 1658 2432 
L 1658 3772 
C 1658 4198 1779 4198 1933 4198 
L 2240 4198 
C 3104 4198 3533 3759 3571 3320 
C 3578 3269 3584 3174 3686 3174 
C 3795 3174 3795 3276 3795 3385 
L 3795 4218 
C 3795 4416 3782 4416 3584 4416 
L 307 4416 
C 192 4416 90 4416 90 4304 
C 90 4198 211 4198 262 4198 
C 627 4198 653 4147 653 3832 
L 653 622 
C 653 320 634 256 294 256 
C 198 256 90 256 90 147 
C 90 32 192 32 307 32 
L 3699 32 
C 3821 32 3885 32 3904 123 
C 3910 129 4090 1213 4090 1245 
C 4090 1316 4032 1362 3981 1362 
C 3891 1362 3866 1278 3866 1271 
C 3827 1102 3763 828 3296 549 
C 2963 347 2637 256 2285 256 
L 1933 256 
C 1779 256 1658 256 1658 684 
L 1658 2176 
z
M 3571 4198 
L 3571 3896 
C 3462 4015 3341 4116 3206 4198 
L 3571 4198 
z
M 2323 2315 
C 2426 2360 2566 2456 2682 2590 
L 2682 2052 
C 2528 2225 2330 2308 2323 2308 
L 2323 2315 
z
M 877 3845 
C 877 3923 877 4083 826 4198 
L 1504 4198 
C 1434 4051 1434 3839 1434 3781 
L 1434 673 
C 1434 442 1478 314 1504 256 
L 826 256 
C 877 371 877 531 877 609 
L 877 3845 
z
M 3258 256 
L 3258 262 
C 3462 367 3635 504 3763 621 
C 3757 596 3712 308 3706 256 
L 3258 256 
z
" transform="scale(0.015625)"/>
       <path id="CMR17-7e" d="M 2400 4184 
C 2182 3980 2061 3865 1862 3865 
C 1722 3865 1626 3932 1491 4024 
C 1363 4111 1261 4184 1120 4184 
C 890 4184 730 4004 461 3718 
L 531 3648 
C 749 3850 870 3968 1069 3968 
C 1210 3968 1306 3900 1440 3808 
C 1568 3722 1670 3648 1811 3648 
C 2042 3648 2202 3828 2470 4114 
L 2400 4184 
z
" transform="scale(0.015625)"/>
       <path id="CMR17-29" d="M 1683 1581 
C 1683 2040 1638 2817 1254 3639 
C 947 4303 422 4768 346 4768 
C 326 4768 301 4761 301 4729 
C 301 4717 307 4710 314 4697 
C 621 4378 1402 3568 1402 1584 
C 1402 -407 627 -1217 314 -1537 
C 307 -1549 301 -1556 301 -1568 
C 301 -1600 326 -1600 346 -1600 
C 416 -1600 960 -1128 1274 -426 
C 1594 281 1683 969 1683 1581 
z
" transform="scale(0.015625)"/>
      </defs>
      <use xlink:href="#CMSY10-70" transform="translate(0 84.350328) scale(0.996264)"/>
      <use xlink:href="#CMMI12-4e" transform="translate(83.022254 0) scale(0.996264)"/>
      <use xlink:href="#CMSY10-1" transform="translate(193.683234 0) scale(0.996264)"/>
      <use xlink:href="#CMR17-28" transform="translate(243.496525 0) scale(0.996264)"/>
      <use xlink:href="#MSBM10-45" transform="translate(278.777293 0) scale(0.996264)"/>
      <use xlink:href="#CMR17-28" transform="translate(345.195112 0) scale(0.996264)"/>
      <use xlink:href="#CMR17-7e" transform="translate(389.844556 26.296621) scale(0.996264)"/>
      <use xlink:href="#CMMI12-12" transform="translate(380.47588 0) scale(0.996264)"/>
      <use xlink:href="#CMR17-29" transform="translate(428.645387 0) scale(0.996264)"/>
      <use xlink:href="#CMSY10-0" transform="translate(486.065362 0) scale(0.996264)"/>
      <use xlink:href="#CMMI12-12" transform="translate(585.692037 0) scale(0.996264)"/>
      <use xlink:href="#CMR17-29" transform="translate(633.861545 0) scale(0.996264)"/>
      <path d="M 83.022254 84.350328 
L 171.544027 84.350328 
L 171.544027 88.335277 
L 83.022254 88.335277 
L 83.022254 84.350328 
z
"/>
     </g>
    </g>
   </g>
   <g id="line2d_11">
    <path d="M 85.438903 183.467248 
L 87.327099 209.909097 
L 89.215294 233.215465 
L 91.10349 253.438042 
L 92.991686 270.661489 
L 94.879882 285.00126 
L 96.768078 296.600678 
L 97.712176 301.424297 
L 98.656273 305.627368 
L 99.600371 309.233974 
L 100.544469 312.269186 
L 101.488567 314.758921 
L 102.432665 316.729795 
L 103.376763 318.208976 
L 104.320861 319.224038 
L 105.264959 319.802817 
L 106.209057 319.973271 
L 107.153155 319.763337 
L 108.097253 319.200806 
L 109.04135 318.313191 
L 109.985448 317.127609 
L 110.929546 315.670668 
L 112.817742 312.045971 
L 114.705938 307.638017 
L 116.594134 302.631798 
L 119.426427 294.365756 
L 129.811504 262.784987 
L 132.643798 255.08129 
L 135.476092 248.0539 
L 138.308386 241.748684 
L 141.140679 236.167094 
L 143.972973 231.278257 
L 146.805267 227.02978 
L 149.63756 223.356842 
L 152.469854 220.189425 
L 155.302148 217.457705 
L 158.134442 215.095758 
L 160.966735 213.04384 
L 163.799029 211.249527 
L 167.575421 209.181432 
L 171.351812 207.40617 
L 175.128204 205.857576 
L 179.848694 204.166187 
L 185.513281 202.40632 
L 192.121966 200.627467 
L 199.67475 198.861064 
L 208.171631 197.126979 
L 217.61261 195.436797 
L 228.941785 193.655104 
L 242.159156 191.82725 
L 257.264722 189.975287 
L 276.14668 187.901834 
L 300.693226 185.44672 
L 374.332863 178.228772 
L 392.270723 176.174785 
L 407.37629 174.222069 
L 419.649562 172.417614 
L 430.034639 170.679647 
L 439.475618 168.872937 
L 447.028402 167.220829 
L 453.637087 165.575463 
L 459.301675 163.969257 
L 464.966262 162.120009 
L 469.686752 160.327509 
L 473.463143 158.672732 
L 477.239535 156.760502 
L 480.071829 155.112565 
L 482.904122 153.237737 
L 485.736416 151.088676 
L 488.56871 148.610448 
L 491.401003 145.741073 
L 494.233297 142.413008 
L 496.121493 139.904715 
L 498.009689 137.140526 
L 499.897885 134.1007 
L 501.78608 130.767402 
L 504.618374 125.185811 
L 507.450668 118.880595 
L 510.282962 111.853206 
L 513.115255 104.149509 
L 516.891647 93.013706 
L 526.332626 64.302698 
L 528.220822 59.296479 
L 530.109018 54.888525 
L 531.997214 51.263828 
L 532.941311 49.806886 
L 533.885409 48.621304 
L 534.829507 47.73369 
L 535.773605 47.171159 
L 536.717703 46.961225 
L 537.661801 47.131678 
L 538.605899 47.710458 
L 539.549997 48.72552 
L 540.494095 50.2047 
L 541.438193 52.175574 
L 542.382291 54.66531 
L 543.326388 57.700522 
L 544.270486 61.307128 
L 545.214584 65.510199 
L 546.158682 70.333818 
L 547.10278 75.800935 
L 548.990976 88.751005 
L 550.879172 104.516364 
L 552.767368 123.226809 
L 554.655563 144.982718 
L 556.543759 169.852488 
L 557.487857 183.467248 
L 557.487857 183.467248 
" clip-path="url(#p07dfc3d112)" style="fill: none; stroke: #4c72b0; stroke-width: 2; stroke-linecap: square"/>
   </g>
   <g id="line2d_12">
    <path d="M 85.438903 183.467248 
L 87.327099 227.282358 
L 88.271196 245.690973 
L 89.215294 261.824711 
L 90.159392 275.749487 
L 91.10349 287.547833 
L 92.047588 297.317341 
L 92.991686 305.168836 
L 93.935784 311.224356 
L 94.879882 315.614987 
L 95.82398 318.478605 
L 96.768078 319.95759 
L 97.712176 320.196576 
L 98.656273 319.34027 
L 99.600371 317.531406 
L 100.544469 314.908873 
L 101.488567 311.606039 
L 103.376763 303.456965 
L 105.264959 293.992317 
L 110.929546 264.426848 
L 112.817742 255.626332 
L 114.705938 247.725151 
L 116.594134 240.783139 
L 118.48233 234.786825 
L 120.370525 229.67328 
L 122.258721 225.35048 
L 124.146917 221.713433 
L 126.035113 218.655951 
L 127.923309 216.078435 
L 129.811504 213.892344 
L 131.6997 212.022106 
L 133.587896 210.405249 
L 136.42019 208.34784 
L 139.252483 206.622386 
L 142.084777 205.141636 
L 145.861169 203.448573 
L 149.63756 201.996191 
L 154.35805 200.433958 
L 160.022637 198.839941 
L 165.687225 197.47845 
L 172.29591 196.114113 
L 179.848694 194.780895 
L 188.345575 193.499399 
L 198.730652 192.16744 
L 211.003925 190.836391 
L 225.165393 189.534171 
L 242.159156 188.200815 
L 263.873407 186.736972 
L 292.196345 185.065531 
L 390.382527 179.46052 
L 410.208583 178.018592 
L 426.258248 176.644481 
L 439.475618 175.305798 
L 450.804793 173.945513 
L 460.245772 172.603429 
L 468.742654 171.173864 
L 476.295437 169.664344 
L 482.904122 168.094555 
L 488.56871 166.500538 
L 493.289199 164.938304 
L 497.065591 163.485922 
L 500.841983 161.79286 
L 503.674276 160.312109 
L 506.50657 158.586656 
L 509.338864 156.529246 
L 511.22706 154.91239 
L 513.115255 153.042151 
L 515.003451 150.85606 
L 516.891647 148.278545 
L 518.779843 145.221063 
L 520.668039 141.584016 
L 522.556234 137.261216 
L 524.44443 132.147671 
L 526.332626 126.151357 
L 528.220822 119.209345 
L 530.109018 111.308164 
L 531.997214 102.507647 
L 534.829507 88.001535 
L 538.605899 68.096335 
L 540.494095 59.185179 
L 541.438193 55.328457 
L 542.382291 52.025623 
L 543.326388 49.40309 
L 544.270486 47.594226 
L 545.214584 46.737919 
L 546.158682 46.976905 
L 547.10278 48.455891 
L 548.046878 51.319508 
L 548.990976 55.710139 
L 549.935074 61.76566 
L 550.879172 69.617155 
L 551.82327 79.386663 
L 552.767368 91.185009 
L 553.711465 105.109784 
L 554.655563 121.243523 
L 555.599661 139.652137 
L 557.487857 183.467248 
L 557.487857 183.467248 
" clip-path="url(#p07dfc3d112)" style="fill: none; stroke: #dd8452; stroke-width: 2; stroke-linecap: square"/>
   </g>
   <g id="line2d_13">
    <path d="M 85.438903 183.467248 
L 86.383001 212.825857 
L 87.327099 238.27806 
L 88.271196 259.904431 
L 89.215294 277.836345 
L 90.159392 292.251755 
L 91.10349 303.369566 
L 92.047588 311.44289 
L 92.991686 316.751472 
L 93.935784 319.593659 
L 94.879882 320.278234 
L 95.82398 319.11646 
L 96.768078 316.414644 
L 97.712176 312.467467 
L 98.656273 307.552286 
L 100.544469 295.814356 
L 105.264959 264.119941 
L 107.153155 253.008332 
L 109.04135 243.435786 
L 110.929546 235.451406 
L 112.817742 228.94316 
L 114.705938 223.713346 
L 116.594134 219.535082 
L 118.48233 216.18925 
L 120.370525 213.484634 
L 122.258721 211.265587 
L 124.146917 209.411689 
L 126.035113 207.83316 
L 128.867407 205.844081 
L 131.6997 204.184108 
L 134.531994 202.763052 
L 138.308386 201.14465 
L 142.084777 199.766245 
L 146.805267 198.298787 
L 151.525756 197.049638 
L 157.190344 195.770868 
L 163.799029 194.510402 
L 171.351812 193.299042 
L 179.848694 192.153621 
L 190.233771 190.982723 
L 202.507043 189.832541 
L 217.61261 188.659272 
L 235.55047 187.50079 
L 258.20882 186.271198 
L 289.364051 184.824884 
L 396.047115 180.074095 
L 417.761367 178.788497 
L 434.755129 177.568342 
L 448.916598 176.328885 
L 460.245772 175.1221 
L 469.686752 173.907591 
L 478.183633 172.587503 
L 484.792318 171.357429 
L 490.456906 170.113089 
L 496.121493 168.635709 
L 500.841983 167.16825 
L 504.618374 165.789846 
L 508.394766 164.171443 
L 511.22706 162.750387 
L 514.059353 161.090415 
L 516.891647 159.101335 
L 518.779843 157.522807 
L 520.668039 155.668909 
L 522.556234 153.449862 
L 524.44443 150.745246 
L 526.332626 147.399414 
L 528.220822 143.22115 
L 530.109018 137.991335 
L 531.997214 131.48309 
L 533.885409 123.49871 
L 535.773605 113.926164 
L 537.661801 102.814554 
L 540.494095 84.006198 
L 543.326388 65.009952 
L 544.270486 59.382209 
L 545.214584 54.467028 
L 546.158682 50.519851 
L 547.10278 47.818036 
L 548.046878 46.656262 
L 548.990976 47.340836 
L 549.935074 50.183024 
L 550.879172 55.491606 
L 551.82327 63.564929 
L 552.767368 74.682741 
L 553.711465 89.09815 
L 554.655563 107.030065 
L 555.599661 128.656436 
L 556.543759 154.108638 
L 557.487857 183.467248 
L 557.487857 183.467248 
" clip-path="url(#p07dfc3d112)" style="fill: none; stroke: #55a868; stroke-width: 2; stroke-linecap: square"/>
   </g>
   <g id="line2d_14">
    <path d="M 85.438903 183.467248 
L 557.487857 183.467248 
" clip-path="url(#p07dfc3d112)" style="fill: none; stroke-dasharray: 5.55,2.4; stroke-dashoffset: 0; stroke: #808080; stroke-width: 1.5"/>
   </g>
   <g id="patch_3">
    <path d="M 85.438903 359.734496 
L 85.438903 7.2 
" style="fill: none; stroke: #000000; stroke-width: 0.8; stroke-linejoin: miter; stroke-linecap: square"/>
   </g>
   <g id="patch_4">
    <path d="M 85.438903 359.734496 
L 557.487857 359.734496 
" style="fill: none; stroke: #000000; stroke-width: 0.8; stroke-linejoin: miter; stroke-linecap: square"/>
   </g>
   <g id="legend_1">
    <g id="line2d_15">
     <path d="M 259.2861 243.72934 
L 275.2861 243.72934 
L 291.2861 243.72934 
" style="fill: none"/>
     <defs>
      <path id="m0038ed73e0" d="M 0 3 
C 0.795609 3 1.55874 2.683901 2.12132 2.12132 
C 2.683901 1.55874 3 0.795609 3 0 
C 3 -0.795609 2.683901 -1.55874 2.12132 -2.12132 
C 1.55874 -2.683901 0.795609 -3 0 -3 
C -0.795609 -3 -1.55874 -2.683901 -2.12132 -2.12132 
C -2.683901 -1.55874 -3 -0.795609 -3 0 
C -3 0.795609 -2.683901 1.55874 -2.12132 2.12132 
C -1.55874 2.683901 -0.795609 3 0 3 
z
" style="stroke: #000000"/>
     </defs>
     <g>
      <use xlink:href="#m0038ed73e0" x="275.2861" y="243.72934" style="stroke: #000000"/>
     </g>
    </g>
    <g id="text_13">
     <!-- $\mathrm{Experiment}$ -->
     <g transform="translate(304.0861 249.32934) scale(0.16 -0.16)">
      <defs>
       <path id="CMR17-45" d="M 3885 1615 
L 3770 1615 
C 3629 676 3546 166 2419 166 
L 1530 166 
C 1274 166 1261 197 1261 414 
L 1261 2176 
L 1862 2176 
C 2464 2176 2522 1960 2522 1430 
L 2637 1430 
L 2637 3081 
L 2522 3081 
C 2522 2557 2464 2342 1862 2342 
L 1261 2342 
L 1261 3913 
C 1261 4128 1274 4160 1530 4160 
L 2406 4160 
C 3398 4160 3514 3769 3603 2929 
L 3718 2929 
L 3565 4325 
L 326 4325 
L 326 4160 
C 768 4160 838 4160 838 3874 
L 838 451 
C 838 166 768 166 326 166 
L 326 0 
L 3654 0 
L 3885 1615 
z
" transform="scale(0.015625)"/>
       <path id="CMR17-78" d="M 1664 1477 
C 1856 1726 2074 2006 2253 2216 
C 2464 2458 2707 2560 2989 2560 
L 2989 2726 
C 2880 2726 2656 2726 2541 2726 
C 2368 2726 2170 2726 2022 2732 
L 2022 2566 
C 2112 2553 2163 2489 2163 2400 
C 2163 2285 2099 2215 2067 2171 
L 1594 1573 
L 1030 2306 
C 973 2376 973 2388 973 2420 
C 973 2497 1037 2560 1146 2560 
L 1146 2732 
C 992 2726 717 2726 557 2726 
C 384 2726 179 2726 38 2732 
L 38 2560 
C 384 2560 461 2534 614 2343 
L 1350 1395 
C 1363 1382 1395 1344 1395 1325 
C 1395 1299 838 619 768 530 
C 480 185 179 160 6 160 
L 6 0 
C 115 0 339 0 454 0 
C 582 0 864 0 979 -6 
L 979 160 
C 941 166 838 179 838 325 
C 838 440 890 510 947 586 
L 1478 1236 
L 2035 512 
C 2086 442 2163 346 2163 301 
C 2163 211 2086 160 1984 160 
L 1984 -6 
C 2138 0 2413 0 2573 0 
C 2746 0 2950 0 3091 -6 
L 3091 160 
C 2771 160 2675 172 2522 370 
L 1664 1477 
z
" transform="scale(0.015625)"/>
       <path id="CMR17-70" d="M 1408 -1063 
C 998 -1063 973 -1037 973 -789 
L 973 402 
C 1158 134 1427 -38 1766 -38 
C 2406 -38 3053 523 3053 1388 
C 3053 2191 2496 2802 1837 2802 
C 1453 2802 1139 2592 960 2338 
L 960 2802 
L 198 2732 
L 198 2567 
C 576 2567 634 2528 634 2223 
L 634 -789 
C 634 -1031 608 -1063 198 -1063 
L 198 -1228 
C 352 -1216 634 -1216 800 -1216 
C 966 -1216 1254 -1216 1408 -1228 
L 1408 -1063 
z
M 973 2012 
C 973 2102 973 2235 1222 2471 
C 1254 2497 1472 2688 1792 2688 
C 2259 2688 2643 2108 2643 1382 
C 2643 656 2234 64 1728 64 
C 1498 64 1248 172 1056 472 
C 973 612 973 650 973 752 
L 973 2012 
z
" transform="scale(0.015625)"/>
       <path id="CMR17-65" d="M 2438 1472 
C 2464 1498 2464 1511 2464 1576 
C 2464 2238 2118 2816 1389 2816 
C 710 2816 173 2169 173 1383 
C 173 551 781 -64 1459 -64 
C 2176 -64 2458 607 2458 740 
C 2458 784 2419 784 2406 784 
C 2362 784 2355 771 2330 696 
C 2189 265 1837 51 1504 51 
C 1229 51 954 203 781 480 
C 582 803 582 1176 582 1472 
L 2438 1472 
z
M 589 1568 
C 634 2505 1126 2714 1382 2714 
C 1818 2714 2112 2297 2118 1568 
L 589 1568 
z
" transform="scale(0.015625)"/>
       <path id="CMR17-72" d="M 960 1497 
C 960 2112 1222 2688 1702 2688 
C 1747 2688 1792 2682 1837 2662 
C 1837 2662 1696 2617 1696 2452 
C 1696 2298 1818 2234 1914 2234 
C 1990 2234 2131 2279 2131 2458 
C 2131 2663 1926 2790 1709 2790 
C 1222 2790 1011 2317 947 2093 
L 941 2093 
L 941 2790 
L 198 2720 
L 198 2554 
C 576 2554 634 2515 634 2208 
L 634 428 
C 634 184 608 153 198 153 
L 198 -13 
C 352 0 646 0 813 0 
C 998 0 1325 0 1498 -13 
L 1498 153 
C 1037 153 960 153 960 440 
L 960 1497 
z
" transform="scale(0.015625)"/>
       <path id="CMR17-69" d="M 992 3909 
C 992 4049 877 4170 730 4170 
C 589 4170 467 4056 467 3909 
C 467 3769 582 3648 730 3648 
C 870 3648 992 3763 992 3909 
z
M 243 2706 
L 243 2541 
C 602 2541 653 2502 653 2197 
L 653 427 
C 653 184 627 153 218 153 
L 218 -13 
C 371 0 646 0 806 0 
C 960 0 1222 0 1370 -13 
L 1370 153 
C 992 153 979 191 979 420 
L 979 2776 
L 243 2706 
z
" transform="scale(0.015625)"/>
       <path id="CMR17-6d" d="M 4326 1933 
C 4326 2252 4269 2790 3507 2790 
C 3072 2790 2771 2496 2656 2151 
L 2650 2151 
C 2573 2676 2195 2790 1837 2790 
C 1331 2790 1069 2400 973 2144 
L 966 2144 
L 966 2790 
L 211 2720 
L 211 2554 
C 589 2554 646 2515 646 2208 
L 646 428 
C 646 184 621 153 211 153 
L 211 -13 
C 365 0 646 0 813 0 
C 979 0 1267 0 1421 -13 
L 1421 153 
C 1011 153 986 178 986 428 
L 986 1658 
C 986 2247 1344 2688 1792 2688 
C 2266 2688 2317 2266 2317 1958 
L 2317 428 
C 2317 184 2291 153 1882 153 
L 1882 -13 
C 2035 0 2317 0 2483 0 
C 2650 0 2938 0 3091 -13 
L 3091 153 
C 2682 153 2656 178 2656 428 
L 2656 1658 
C 2656 2247 3014 2688 3462 2688 
C 3936 2688 3987 2266 3987 1958 
L 3987 428 
C 3987 184 3962 153 3552 153 
L 3552 -13 
C 3706 0 3987 0 4154 0 
C 4320 0 4608 0 4762 -13 
L 4762 153 
C 4352 153 4326 178 4326 428 
L 4326 1933 
z
" transform="scale(0.015625)"/>
       <path id="CMR17-6e" d="M 2656 1933 
C 2656 2259 2592 2790 1837 2790 
C 1331 2790 1069 2400 973 2144 
L 966 2144 
L 966 2790 
L 211 2720 
L 211 2554 
C 589 2554 646 2515 646 2208 
L 646 428 
C 646 184 621 153 211 153 
L 211 -13 
C 365 0 646 0 813 0 
C 979 0 1267 0 1421 -13 
L 1421 153 
C 1011 153 986 178 986 428 
L 986 1658 
C 986 2247 1344 2688 1792 2688 
C 2266 2688 2317 2266 2317 1958 
L 2317 428 
C 2317 184 2291 153 1882 153 
L 1882 -13 
C 2035 0 2317 0 2483 0 
C 2650 0 2938 0 3091 -13 
L 3091 153 
C 2682 153 2656 178 2656 428 
L 2656 1933 
z
" transform="scale(0.015625)"/>
       <path id="CMR17-74" d="M 966 2560 
L 1862 2560 
L 1862 2725 
L 966 2725 
L 966 3904 
L 851 3904 
C 838 3245 614 2668 70 2668 
L 70 2560 
L 627 2560 
L 627 771 
C 627 650 627 -64 1370 -64 
C 1747 -64 1965 306 1965 777 
L 1965 1140 
L 1850 1140 
L 1850 783 
C 1850 344 1677 51 1408 51 
C 1222 51 966 178 966 758 
L 966 2560 
z
" transform="scale(0.015625)"/>
      </defs>
      <use xlink:href="#CMR17-45" transform="scale(0.996264)"/>
      <use xlink:href="#CMR17-78" transform="translate(62.586301 0) scale(0.996264)"/>
      <use xlink:href="#CMR17-70" transform="translate(110.879216 0) scale(0.996264)"/>
      <use xlink:href="#CMR17-65" transform="translate(164.377025 0) scale(0.996264)"/>
      <use xlink:href="#CMR17-72" transform="translate(204.862685 0) scale(0.996264)"/>
      <use xlink:href="#CMR17-69" transform="translate(240.143453 0) scale(0.996264)"/>
      <use xlink:href="#CMR17-6d" transform="translate(265.014512 0) scale(0.996264)"/>
      <use xlink:href="#CMR17-65" transform="translate(341.934101 0) scale(0.996264)"/>
      <use xlink:href="#CMR17-6e" transform="translate(382.419762 0) scale(0.996264)"/>
      <use xlink:href="#CMR17-74" transform="translate(430.712678 0) scale(0.996264)"/>
     </g>
    </g>
    <g id="line2d_16">
     <path d="M 259.2861 266.481833 
L 275.2861 266.481833 
L 291.2861 266.481833 
" style="fill: none; stroke: #000000; stroke-width: 2; stroke-linecap: square"/>
    </g>
    <g id="text_14">
     <!-- $\mathrm{Theory}$ -->
     <g transform="translate(304.0861 272.081833) scale(0.16 -0.16)">
      <defs>
       <path id="CMR17-54" d="M 3981 4326 
L 288 4326 
L 179 2918 
L 294 2918 
C 378 3976 467 4160 1453 4160 
C 1568 4160 1754 4160 1805 4154 
C 1926 4135 1926 4058 1926 3912 
L 1926 459 
C 1926 230 1907 160 1376 160 
L 1197 160 
L 1197 0 
C 1504 0 1824 0 2138 0 
C 2451 0 2771 0 3078 0 
L 3078 160 
L 2899 160 
C 2368 160 2349 230 2349 459 
L 2349 3912 
C 2349 4052 2349 4129 2464 4154 
C 2515 4160 2701 4160 2816 4160 
C 3795 4160 3891 3976 3974 2918 
L 4090 2918 
L 3981 4326 
z
" transform="scale(0.015625)"/>
       <path id="CMR17-68" d="M 2656 1933 
C 2656 2259 2592 2790 1837 2790 
C 1312 2790 1056 2368 979 2157 
L 973 2157 
L 973 4396 
L 211 4326 
L 211 4160 
C 589 4160 646 4122 646 3817 
L 646 426 
C 646 184 621 153 211 153 
L 211 -13 
C 365 0 646 0 813 0 
C 979 0 1267 0 1421 -13 
L 1421 153 
C 1011 153 986 178 986 428 
L 986 1658 
C 986 2247 1344 2688 1792 2688 
C 2266 2688 2317 2266 2317 1958 
L 2317 428 
C 2317 184 2291 153 1882 153 
L 1882 -13 
C 2035 0 2317 0 2483 0 
C 2650 0 2938 0 3091 -13 
L 3091 153 
C 2682 153 2656 178 2656 428 
L 2656 1933 
z
" transform="scale(0.015625)"/>
       <path id="CMR17-6f" d="M 2758 1356 
C 2758 2176 2163 2816 1466 2816 
C 768 2816 173 2176 173 1356 
C 173 551 768 -64 1466 -64 
C 2163 -64 2758 551 2758 1356 
z
M 1466 51 
C 1165 51 909 230 762 480 
C 602 767 582 1126 582 1408 
C 582 1677 595 2010 762 2298 
C 890 2509 1139 2714 1466 2714 
C 1754 2714 1997 2554 2150 2330 
C 2349 2029 2349 1607 2349 1408 
C 2349 1158 2336 775 2163 467 
C 1984 173 1709 51 1466 51 
z
" transform="scale(0.015625)"/>
       <path id="CMR17-79" d="M 2496 2197 
C 2656 2586 2944 2586 3034 2586 
L 3034 2752 
C 2912 2752 2752 2752 2630 2752 
C 2496 2752 2285 2752 2157 2758 
L 2157 2592 
C 2400 2573 2406 2394 2406 2343 
C 2406 2280 2394 2248 2362 2171 
L 1664 449 
L 902 2306 
C 870 2382 870 2426 870 2433 
C 870 2573 1018 2586 1171 2586 
L 1171 2758 
C 1018 2752 742 2752 582 2752 
C 410 2752 205 2752 64 2758 
L 64 2586 
C 410 2586 448 2554 531 2350 
L 1485 15 
C 1197 -738 1030 -1178 627 -1178 
C 557 -1178 397 -1159 282 -1044 
C 429 -1031 493 -942 493 -833 
C 493 -725 416 -629 288 -629 
C 147 -629 77 -725 77 -840 
C 77 -1095 339 -1280 627 -1280 
C 998 -1280 1229 -922 1357 -604 
L 2496 2197 
z
" transform="scale(0.015625)"/>
      </defs>
      <use xlink:href="#CMR17-54" transform="scale(0.996264)"/>
      <use xlink:href="#CMR17-68" transform="translate(66.509881 0) scale(0.996264)"/>
      <use xlink:href="#CMR17-65" transform="translate(117.40525 0) scale(0.996264)"/>
      <use xlink:href="#CMR17-6f" transform="translate(157.890911 0) scale(0.996264)"/>
      <use xlink:href="#CMR17-72" transform="translate(203.581388 0) scale(0.996264)"/>
      <use xlink:href="#CMR17-79" transform="translate(238.862156 0) scale(0.996264)"/>
     </g>
    </g>
    <g id="line2d_17">
     <path d="M 259.2861 289.234327 
L 275.2861 289.234327 
L 291.2861 289.234327 
" style="fill: none; stroke: #4c72b0; stroke-width: 2; stroke-linecap: square"/>
     <defs>
      <path id="m0d80e82a34" d="M 0 3 
C 0.795609 3 1.55874 2.683901 2.12132 2.12132 
C 2.683901 1.55874 3 0.795609 3 0 
C 3 -0.795609 2.683901 -1.55874 2.12132 -2.12132 
C 1.55874 -2.683901 0.795609 -3 0 -3 
C -0.795609 -3 -1.55874 -2.683901 -2.12132 -2.12132 
C -2.683901 -1.55874 -3 -0.795609 -3 0 
C -3 0.795609 -2.683901 1.55874 -2.12132 2.12132 
C -1.55874 2.683901 -0.795609 3 0 3 
z
" style="stroke: #4c72b0"/>
     </defs>
     <g>
      <use xlink:href="#m0d80e82a34" x="275.2861" y="289.234327" style="fill: #4c72b0; stroke: #4c72b0"/>
     </g>
    </g>
    <g id="text_15">
     <!-- $N = 40$ -->
     <g transform="translate(304.0861 294.834327) scale(0.16 -0.16)">
      <defs>
       <path id="CMR17-3d" d="M 4115 2017 
C 4211 2017 4307 2017 4307 2125 
C 4307 2240 4198 2240 4090 2240 
L 512 2240 
C 403 2240 294 2240 294 2125 
C 294 2017 390 2017 486 2017 
L 4115 2017 
z
M 4090 896 
C 4198 896 4307 896 4307 1011 
C 4307 1119 4211 1119 4115 1119 
L 486 1119 
C 390 1119 294 1119 294 1011 
C 294 896 403 896 512 896 
L 4090 896 
z
" transform="scale(0.015625)"/>
      </defs>
      <use xlink:href="#CMMI12-4e" transform="scale(0.996264)"/>
      <use xlink:href="#CMR17-3d" transform="translate(116.195781 0) scale(0.996264)"/>
      <use xlink:href="#CMR17-34" transform="translate(215.584578 0) scale(0.996264)"/>
      <use xlink:href="#CMR17-30" transform="translate(261.275056 0) scale(0.996264)"/>
     </g>
    </g>
    <g id="line2d_18">
     <path d="M 259.2861 311.986821 
L 275.2861 311.986821 
L 291.2861 311.986821 
" style="fill: none; stroke: #dd8452; stroke-width: 2; stroke-linecap: square"/>
     <defs>
      <path id="m73c624688d" d="M 0 3 
C 0.795609 3 1.55874 2.683901 2.12132 2.12132 
C 2.683901 1.55874 3 0.795609 3 0 
C 3 -0.795609 2.683901 -1.55874 2.12132 -2.12132 
C 1.55874 -2.683901 0.795609 -3 0 -3 
C -0.795609 -3 -1.55874 -2.683901 -2.12132 -2.12132 
C -2.683901 -1.55874 -3 -0.795609 -3 0 
C -3 0.795609 -2.683901 1.55874 -2.12132 2.12132 
C -1.55874 2.683901 -0.795609 3 0 3 
z
" style="stroke: #dd8452"/>
     </defs>
     <g>
      <use xlink:href="#m73c624688d" x="275.2861" y="311.986821" style="fill: #dd8452; stroke: #dd8452"/>
     </g>
    </g>
    <g id="text_16">
     <!-- $N = 120$ -->
     <g transform="translate(304.0861 317.586821) scale(0.16 -0.16)">
      <use xlink:href="#CMMI12-4e" transform="scale(0.996264)"/>
      <use xlink:href="#CMR17-3d" transform="translate(116.195781 0) scale(0.996264)"/>
      <use xlink:href="#CMR17-31" transform="translate(215.584578 0) scale(0.996264)"/>
      <use xlink:href="#CMR17-32" transform="translate(261.275056 0) scale(0.996264)"/>
      <use xlink:href="#CMR17-30" transform="translate(306.965533 0) scale(0.996264)"/>
     </g>
    </g>
    <g id="line2d_19">
     <path d="M 259.2861 334.739314 
L 275.2861 334.739314 
L 291.2861 334.739314 
" style="fill: none; stroke: #55a868; stroke-width: 2; stroke-linecap: square"/>
     <defs>
      <path id="m0e02603ef2" d="M 0 3 
C 0.795609 3 1.55874 2.683901 2.12132 2.12132 
C 2.683901 1.55874 3 0.795609 3 0 
C 3 -0.795609 2.683901 -1.55874 2.12132 -2.12132 
C 1.55874 -2.683901 0.795609 -3 0 -3 
C -0.795609 -3 -1.55874 -2.683901 -2.12132 -2.12132 
C -2.683901 -1.55874 -3 -0.795609 -3 0 
C -3 0.795609 -2.683901 1.55874 -2.12132 2.12132 
C -1.55874 2.683901 -0.795609 3 0 3 
z
" style="stroke: #55a868"/>
     </defs>
     <g>
      <use xlink:href="#m0e02603ef2" x="275.2861" y="334.739314" style="fill: #55a868; stroke: #55a868"/>
     </g>
    </g>
    <g id="text_17">
     <!-- $N = 200$ -->
     <g transform="translate(304.0861 340.339314) scale(0.16 -0.16)">
      <use xlink:href="#CMMI12-4e" transform="scale(0.996264)"/>
      <use xlink:href="#CMR17-3d" transform="translate(116.195781 0) scale(0.996264)"/>
      <use xlink:href="#CMR17-32" transform="translate(215.584578 0) scale(0.996264)"/>
      <use xlink:href="#CMR17-30" transform="translate(261.275056 0) scale(0.996264)"/>
      <use xlink:href="#CMR17-30" transform="translate(306.965533 0) scale(0.996264)"/>
     </g>
    </g>
   </g>
  </g>
 </g>
 <defs>
  <clipPath id="p07dfc3d112">
   <rect x="85.438903" y="7.2" width="472.048954" height="352.534496"/>
  </clipPath>
 </defs>
</svg>
