<?xml version="1.0" encoding="utf-8" standalone="no"?>
<!DOCTYPE svg PUBLIC "-//W3C//DTD SVG 1.1//EN"
  "http://www.w3.org/Graphics/SVG/1.1/DTD/svg11.dtd">
<svg xmlns:xlink="http://www.w3.org/1999/xlink" width="568.8pt" height="424.8pt" viewBox="0 0 568.8 424.8" xmlns="http://www.w3.org/2000/svg" version="1.1">
 <metadata>
  <rdf:RDF xmlns:dc="http://purl.org/dc/elements/1.1/" xmlns:cc="http://creativecommons.org/ns#" xmlns:rdf="http://www.w3.org/1999/02/22-rdf-syntax-ns#">
   <cc:Work>
    <dc:type rdf:resource="http://purl.org/dc/dcmitype/StillImage"/>
    <dc:date>2025-07-01T14:23:00.880898</dc:date>
    <dc:format>image/svg+xml</dc:format>
    <dc:creator>
     <cc:Agent>
      <dc:title>Matplotlib v3.10.3, https://matplotlib.org/</dc:title>
     </cc:Agent>
    </dc:creator>
   </cc:Work>
  </rdf:RDF>
 </metadata>
 <defs>
  <style type="text/css">*{stroke-linejoin: round; stroke-linecap: butt}</style>
 </defs>
 <g id="figure_1">
  <g id="patch_1">
   <path d="M 0 424.8 
L 568.8 424.8 
L 568.8 0 
L 0 0 
z
" style="fill: #ffffff"/>
  </g>
  <g id="axes_1">
   <g id="patch_2">
    <path d="M 126.438824 332.680446 
L 540.576619 332.680446 
L 540.576619 17.84748 
L 126.438824 17.84748 
z
" style="fill: #ffffff"/>
   </g>
   <g id="PathCollection_1">
    <defs>
     <path id="C0_0_2b43b23787" d="M 0 3.535534 
C 0.937635 3.535534 1.836992 3.163008 2.5 2.5 
C 3.163008 1.836992 3.535534 0.937635 3.535534 -0 
C 3.535534 -0.937635 3.163008 -1.836992 2.5 -2.5 
C 1.836992 -3.163008 0.937635 -3.535534 0 -3.535534 
C -0.937635 -3.535534 -1.836992 -3.163008 -2.5 -2.5 
C -3.163008 -1.836992 -3.535534 -0.937635 -3.535534 0 
C -3.535534 0.937635 -3.163008 1.836992 -2.5 2.5 
C -1.836992 3.163008 -0.937635 3.535534 0 3.535534 
z
"/>
    </defs>
    <g clip-path="url(#p589ed5767a)">
     <use xlink:href="#C0_0_2b43b23787" x="151.358714" y="61.490975" style="fill: #4c72b0; stroke: #ffffff; stroke-width: 0.565685"/>
    </g>
    <g clip-path="url(#p589ed5767a)">
     <use xlink:href="#C0_0_2b43b23787" x="151.358714" y="100.780512" style="fill: #dd8452; stroke: #ffffff; stroke-width: 0.565685"/>
    </g>
    <g clip-path="url(#p589ed5767a)">
     <use xlink:href="#C0_0_2b43b23787" x="151.358714" y="127.866962" style="fill: #55a868; stroke: #ffffff; stroke-width: 0.565685"/>
    </g>
    <g clip-path="url(#p589ed5767a)">
     <use xlink:href="#C0_0_2b43b23787" x="149.401486" y="57.080663" style="fill: #4c72b0; stroke: #ffffff; stroke-width: 0.565685"/>
    </g>
    <g clip-path="url(#p589ed5767a)">
     <use xlink:href="#C0_0_2b43b23787" x="149.401486" y="94.704502" style="fill: #dd8452; stroke: #ffffff; stroke-width: 0.565685"/>
    </g>
    <g clip-path="url(#p589ed5767a)">
     <use xlink:href="#C0_0_2b43b23787" x="149.401486" y="121.992165" style="fill: #55a868; stroke: #ffffff; stroke-width: 0.565685"/>
    </g>
    <g clip-path="url(#p589ed5767a)">
     <use xlink:href="#C0_0_2b43b23787" x="158.841944" y="73.252334" style="fill: #4c72b0; stroke: #ffffff; stroke-width: 0.565685"/>
    </g>
    <g clip-path="url(#p589ed5767a)">
     <use xlink:href="#C0_0_2b43b23787" x="158.841944" y="116.695368" style="fill: #dd8452; stroke: #ffffff; stroke-width: 0.565685"/>
    </g>
    <g clip-path="url(#p589ed5767a)">
     <use xlink:href="#C0_0_2b43b23787" x="158.841944" y="146.533165" style="fill: #55a868; stroke: #ffffff; stroke-width: 0.565685"/>
    </g>
    <g clip-path="url(#p589ed5767a)">
     <use xlink:href="#C0_0_2b43b23787" x="171.191079" y="90.873641" style="fill: #4c72b0; stroke: #ffffff; stroke-width: 0.565685"/>
    </g>
    <g clip-path="url(#p589ed5767a)">
     <use xlink:href="#C0_0_2b43b23787" x="171.191079" y="139.555816" style="fill: #dd8452; stroke: #ffffff; stroke-width: 0.565685"/>
    </g>
    <g clip-path="url(#p589ed5767a)">
     <use xlink:href="#C0_0_2b43b23787" x="171.191079" y="166.268182" style="fill: #55a868; stroke: #ffffff; stroke-width: 0.565685"/>
    </g>
    <g clip-path="url(#p589ed5767a)">
     <use xlink:href="#C0_0_2b43b23787" x="186.582974" y="110.443818" style="fill: #4c72b0; stroke: #ffffff; stroke-width: 0.565685"/>
    </g>
    <g clip-path="url(#p589ed5767a)">
     <use xlink:href="#C0_0_2b43b23787" x="186.582974" y="162.945929" style="fill: #dd8452; stroke: #ffffff; stroke-width: 0.565685"/>
    </g>
    <g clip-path="url(#p589ed5767a)">
     <use xlink:href="#C0_0_2b43b23787" x="186.582974" y="181.294954" style="fill: #55a868; stroke: #ffffff; stroke-width: 0.565685"/>
    </g>
    <g clip-path="url(#p589ed5767a)">
     <use xlink:href="#C0_0_2b43b23787" x="201.60912" y="128.539865" style="fill: #4c72b0; stroke: #ffffff; stroke-width: 0.565685"/>
    </g>
    <g clip-path="url(#p589ed5767a)">
     <use xlink:href="#C0_0_2b43b23787" x="201.60912" y="173.861622" style="fill: #dd8452; stroke: #ffffff; stroke-width: 0.565685"/>
    </g>
    <g clip-path="url(#p589ed5767a)">
     <use xlink:href="#C0_0_2b43b23787" x="201.60912" y="183.163957" style="fill: #55a868; stroke: #ffffff; stroke-width: 0.565685"/>
    </g>
    <g clip-path="url(#p589ed5767a)">
     <use xlink:href="#C0_0_2b43b23787" x="218.520235" y="143.491798" style="fill: #4c72b0; stroke: #ffffff; stroke-width: 0.565685"/>
    </g>
    <g clip-path="url(#p589ed5767a)">
     <use xlink:href="#C0_0_2b43b23787" x="218.520235" y="181.081955" style="fill: #dd8452; stroke: #ffffff; stroke-width: 0.565685"/>
    </g>
    <g clip-path="url(#p589ed5767a)">
     <use xlink:href="#C0_0_2b43b23787" x="218.520235" y="183.416516" style="fill: #55a868; stroke: #ffffff; stroke-width: 0.565685"/>
    </g>
    <g clip-path="url(#p589ed5767a)">
     <use xlink:href="#C0_0_2b43b23787" x="235.563789" y="155.554401" style="fill: #4c72b0; stroke: #ffffff; stroke-width: 0.565685"/>
    </g>
    <g clip-path="url(#p589ed5767a)">
     <use xlink:href="#C0_0_2b43b23787" x="235.563789" y="182.380338" style="fill: #dd8452; stroke: #ffffff; stroke-width: 0.565685"/>
    </g>
    <g clip-path="url(#p589ed5767a)">
     <use xlink:href="#C0_0_2b43b23787" x="235.563789" y="181.980496" style="fill: #55a868; stroke: #ffffff; stroke-width: 0.565685"/>
    </g>
    <g clip-path="url(#p589ed5767a)">
     <use xlink:href="#C0_0_2b43b23787" x="253.284029" y="164.462214" style="fill: #4c72b0; stroke: #ffffff; stroke-width: 0.565685"/>
    </g>
    <g clip-path="url(#p589ed5767a)">
     <use xlink:href="#C0_0_2b43b23787" x="253.284029" y="181.283551" style="fill: #dd8452; stroke: #ffffff; stroke-width: 0.565685"/>
    </g>
    <g clip-path="url(#p589ed5767a)">
     <use xlink:href="#C0_0_2b43b23787" x="253.284029" y="180.15157" style="fill: #55a868; stroke: #ffffff; stroke-width: 0.565685"/>
    </g>
    <g clip-path="url(#p589ed5767a)">
     <use xlink:href="#C0_0_2b43b23787" x="271.016582" y="170.464254" style="fill: #4c72b0; stroke: #ffffff; stroke-width: 0.565685"/>
    </g>
    <g clip-path="url(#p589ed5767a)">
     <use xlink:href="#C0_0_2b43b23787" x="271.016582" y="179.637341" style="fill: #dd8452; stroke: #ffffff; stroke-width: 0.565685"/>
    </g>
    <g clip-path="url(#p589ed5767a)">
     <use xlink:href="#C0_0_2b43b23787" x="271.016582" y="178.535728" style="fill: #55a868; stroke: #ffffff; stroke-width: 0.565685"/>
    </g>
    <g clip-path="url(#p589ed5767a)">
     <use xlink:href="#C0_0_2b43b23787" x="286.170295" y="173.73246" style="fill: #4c72b0; stroke: #ffffff; stroke-width: 0.565685"/>
    </g>
    <g clip-path="url(#p589ed5767a)">
     <use xlink:href="#C0_0_2b43b23787" x="286.170295" y="178.698504" style="fill: #dd8452; stroke: #ffffff; stroke-width: 0.565685"/>
    </g>
    <g clip-path="url(#p589ed5767a)">
     <use xlink:href="#C0_0_2b43b23787" x="286.170295" y="178.086799" style="fill: #55a868; stroke: #ffffff; stroke-width: 0.565685"/>
    </g>
    <g clip-path="url(#p589ed5767a)">
     <use xlink:href="#C0_0_2b43b23787" x="302.470482" y="174.634251" style="fill: #4c72b0; stroke: #ffffff; stroke-width: 0.565685"/>
    </g>
    <g clip-path="url(#p589ed5767a)">
     <use xlink:href="#C0_0_2b43b23787" x="302.470482" y="177.554344" style="fill: #dd8452; stroke: #ffffff; stroke-width: 0.565685"/>
    </g>
    <g clip-path="url(#p589ed5767a)">
     <use xlink:href="#C0_0_2b43b23787" x="302.470482" y="177.162965" style="fill: #55a868; stroke: #ffffff; stroke-width: 0.565685"/>
    </g>
    <g clip-path="url(#p589ed5767a)">
     <use xlink:href="#C0_0_2b43b23787" x="319.988411" y="176.051892" style="fill: #4c72b0; stroke: #ffffff; stroke-width: 0.565685"/>
    </g>
    <g clip-path="url(#p589ed5767a)">
     <use xlink:href="#C0_0_2b43b23787" x="319.988411" y="177.518118" style="fill: #dd8452; stroke: #ffffff; stroke-width: 0.565685"/>
    </g>
    <g clip-path="url(#p589ed5767a)">
     <use xlink:href="#C0_0_2b43b23787" x="319.988411" y="177.634553" style="fill: #55a868; stroke: #ffffff; stroke-width: 0.565685"/>
    </g>
    <g clip-path="url(#p589ed5767a)">
     <use xlink:href="#C0_0_2b43b23787" x="336.015148" y="175.390796" style="fill: #4c72b0; stroke: #ffffff; stroke-width: 0.565685"/>
    </g>
    <g clip-path="url(#p589ed5767a)">
     <use xlink:href="#C0_0_2b43b23787" x="336.015148" y="175.030998" style="fill: #dd8452; stroke: #ffffff; stroke-width: 0.565685"/>
    </g>
    <g clip-path="url(#p589ed5767a)">
     <use xlink:href="#C0_0_2b43b23787" x="336.015148" y="175.255245" style="fill: #55a868; stroke: #ffffff; stroke-width: 0.565685"/>
    </g>
    <g clip-path="url(#p589ed5767a)">
     <use xlink:href="#C0_0_2b43b23787" x="352.171303" y="175.479919" style="fill: #4c72b0; stroke: #ffffff; stroke-width: 0.565685"/>
    </g>
    <g clip-path="url(#p589ed5767a)">
     <use xlink:href="#C0_0_2b43b23787" x="352.171303" y="174.350422" style="fill: #dd8452; stroke: #ffffff; stroke-width: 0.565685"/>
    </g>
    <g clip-path="url(#p589ed5767a)">
     <use xlink:href="#C0_0_2b43b23787" x="352.171303" y="174.615199" style="fill: #55a868; stroke: #ffffff; stroke-width: 0.565685"/>
    </g>
    <g clip-path="url(#p589ed5767a)">
     <use xlink:href="#C0_0_2b43b23787" x="368.44914" y="175.845853" style="fill: #4c72b0; stroke: #ffffff; stroke-width: 0.565685"/>
    </g>
    <g clip-path="url(#p589ed5767a)">
     <use xlink:href="#C0_0_2b43b23787" x="368.44914" y="172.660737" style="fill: #dd8452; stroke: #ffffff; stroke-width: 0.565685"/>
    </g>
    <g clip-path="url(#p589ed5767a)">
     <use xlink:href="#C0_0_2b43b23787" x="368.44914" y="173.63085" style="fill: #55a868; stroke: #ffffff; stroke-width: 0.565685"/>
    </g>
    <g clip-path="url(#p589ed5767a)">
     <use xlink:href="#C0_0_2b43b23787" x="384.311173" y="178.006337" style="fill: #4c72b0; stroke: #ffffff; stroke-width: 0.565685"/>
    </g>
    <g clip-path="url(#p589ed5767a)">
     <use xlink:href="#C0_0_2b43b23787" x="384.311173" y="171.429678" style="fill: #dd8452; stroke: #ffffff; stroke-width: 0.565685"/>
    </g>
    <g clip-path="url(#p589ed5767a)">
     <use xlink:href="#C0_0_2b43b23787" x="384.311173" y="172.35948" style="fill: #55a868; stroke: #ffffff; stroke-width: 0.565685"/>
    </g>
    <g clip-path="url(#p589ed5767a)">
     <use xlink:href="#C0_0_2b43b23787" x="401.350057" y="182.689177" style="fill: #4c72b0; stroke: #ffffff; stroke-width: 0.565685"/>
    </g>
    <g clip-path="url(#p589ed5767a)">
     <use xlink:href="#C0_0_2b43b23787" x="401.350057" y="170.115629" style="fill: #dd8452; stroke: #ffffff; stroke-width: 0.565685"/>
    </g>
    <g clip-path="url(#p589ed5767a)">
     <use xlink:href="#C0_0_2b43b23787" x="401.350057" y="171.336643" style="fill: #55a868; stroke: #ffffff; stroke-width: 0.565685"/>
    </g>
    <g clip-path="url(#p589ed5767a)">
     <use xlink:href="#C0_0_2b43b23787" x="418.078113" y="189.162731" style="fill: #4c72b0; stroke: #ffffff; stroke-width: 0.565685"/>
    </g>
    <g clip-path="url(#p589ed5767a)">
     <use xlink:href="#C0_0_2b43b23787" x="418.078113" y="168.420605" style="fill: #dd8452; stroke: #ffffff; stroke-width: 0.565685"/>
    </g>
    <g clip-path="url(#p589ed5767a)">
     <use xlink:href="#C0_0_2b43b23787" x="418.078113" y="169.910448" style="fill: #55a868; stroke: #ffffff; stroke-width: 0.565685"/>
    </g>
    <g clip-path="url(#p589ed5767a)">
     <use xlink:href="#C0_0_2b43b23787" x="436.748859" y="202.682489" style="fill: #4c72b0; stroke: #ffffff; stroke-width: 0.565685"/>
    </g>
    <g clip-path="url(#p589ed5767a)">
     <use xlink:href="#C0_0_2b43b23787" x="436.748859" y="168.757929" style="fill: #dd8452; stroke: #ffffff; stroke-width: 0.565685"/>
    </g>
    <g clip-path="url(#p589ed5767a)">
     <use xlink:href="#C0_0_2b43b23787" x="436.748859" y="168.076944" style="fill: #55a868; stroke: #ffffff; stroke-width: 0.565685"/>
    </g>
    <g clip-path="url(#p589ed5767a)">
     <use xlink:href="#C0_0_2b43b23787" x="453.453302" y="215.148798" style="fill: #4c72b0; stroke: #ffffff; stroke-width: 0.565685"/>
    </g>
    <g clip-path="url(#p589ed5767a)">
     <use xlink:href="#C0_0_2b43b23787" x="453.453302" y="172.076089" style="fill: #dd8452; stroke: #ffffff; stroke-width: 0.565685"/>
    </g>
    <g clip-path="url(#p589ed5767a)">
     <use xlink:href="#C0_0_2b43b23787" x="453.453302" y="166.509481" style="fill: #55a868; stroke: #ffffff; stroke-width: 0.565685"/>
    </g>
    <g clip-path="url(#p589ed5767a)">
     <use xlink:href="#C0_0_2b43b23787" x="471.252407" y="233.865827" style="fill: #4c72b0; stroke: #ffffff; stroke-width: 0.565685"/>
    </g>
    <g clip-path="url(#p589ed5767a)">
     <use xlink:href="#C0_0_2b43b23787" x="471.252407" y="182.37194" style="fill: #dd8452; stroke: #ffffff; stroke-width: 0.565685"/>
    </g>
    <g clip-path="url(#p589ed5767a)">
     <use xlink:href="#C0_0_2b43b23787" x="471.252407" y="167.479905" style="fill: #55a868; stroke: #ffffff; stroke-width: 0.565685"/>
    </g>
    <g clip-path="url(#p589ed5767a)">
     <use xlink:href="#C0_0_2b43b23787" x="488.606948" y="255.038523" style="fill: #4c72b0; stroke: #ffffff; stroke-width: 0.565685"/>
    </g>
    <g clip-path="url(#p589ed5767a)">
     <use xlink:href="#C0_0_2b43b23787" x="488.606948" y="202.108457" style="fill: #dd8452; stroke: #ffffff; stroke-width: 0.565685"/>
    </g>
    <g clip-path="url(#p589ed5767a)">
     <use xlink:href="#C0_0_2b43b23787" x="488.606948" y="178.930376" style="fill: #55a868; stroke: #ffffff; stroke-width: 0.565685"/>
    </g>
    <g clip-path="url(#p589ed5767a)">
     <use xlink:href="#C0_0_2b43b23787" x="505.618183" y="280.595591" style="fill: #4c72b0; stroke: #ffffff; stroke-width: 0.565685"/>
    </g>
    <g clip-path="url(#p589ed5767a)">
     <use xlink:href="#C0_0_2b43b23787" x="505.618183" y="234.562627" style="fill: #dd8452; stroke: #ffffff; stroke-width: 0.565685"/>
    </g>
    <g clip-path="url(#p589ed5767a)">
     <use xlink:href="#C0_0_2b43b23787" x="505.618183" y="207.767096" style="fill: #55a868; stroke: #ffffff; stroke-width: 0.565685"/>
    </g>
    <g clip-path="url(#p589ed5767a)">
     <use xlink:href="#C0_0_2b43b23787" x="519.668316" y="304.371598" style="fill: #4c72b0; stroke: #ffffff; stroke-width: 0.565685"/>
    </g>
    <g clip-path="url(#p589ed5767a)">
     <use xlink:href="#C0_0_2b43b23787" x="519.668316" y="269.541663" style="fill: #dd8452; stroke: #ffffff; stroke-width: 0.565685"/>
    </g>
    <g clip-path="url(#p589ed5767a)">
     <use xlink:href="#C0_0_2b43b23787" x="519.668316" y="243.181886" style="fill: #55a868; stroke: #ffffff; stroke-width: 0.565685"/>
    </g>
   </g>
   <g id="FillBetweenPolyCollection_1"/>
   <g id="FillBetweenPolyCollection_2"/>
   <g id="FillBetweenPolyCollection_3"/>
   <g id="matplotlib.axis_1">
    <g id="xtick_1">
     <g id="line2d_1">
      <defs>
       <path id="mb71c65a6e9" d="M 0 0 
L 0 3.5 
" style="stroke: #000000; stroke-width: 0.8"/>
      </defs>
      <g>
       <use xlink:href="#mb71c65a6e9" x="126.438824" y="332.680446" style="stroke: #000000; stroke-width: 0.8"/>
      </g>
     </g>
     <g id="text_1">
      <!-- $0$ -->
      <g transform="translate(119.585253 360.975407) scale(0.3 -0.3)">
       <defs>
        <path id="CMR17-30" d="M 2688 2025 
C 2688 2416 2682 3080 2413 3591 
C 2176 4039 1798 4198 1466 4198 
C 1158 4198 768 4058 525 3597 
C 269 3118 243 2524 243 2025 
C 243 1661 250 1106 448 619 
C 723 -39 1216 -128 1466 -128 
C 1760 -128 2208 -7 2470 600 
C 2662 1042 2688 1559 2688 2025 
z
M 1466 -26 
C 1056 -26 813 325 723 812 
C 653 1188 653 1738 653 2096 
C 653 2588 653 2997 736 3387 
C 858 3929 1216 4096 1466 4096 
C 1728 4096 2067 3923 2189 3400 
C 2272 3036 2278 2607 2278 2096 
C 2278 1680 2278 1169 2202 792 
C 2067 95 1690 -26 1466 -26 
z
" transform="scale(0.015625)"/>
       </defs>
       <use xlink:href="#CMR17-30" transform="scale(0.996264)"/>
      </g>
     </g>
    </g>
    <g id="xtick_2">
     <g id="line2d_2">
      <g>
       <use xlink:href="#mb71c65a6e9" x="229.973273" y="332.680446" style="stroke: #000000; stroke-width: 0.8"/>
      </g>
     </g>
    </g>
    <g id="xtick_3">
     <g id="line2d_3">
      <g>
       <use xlink:href="#mb71c65a6e9" x="333.507722" y="332.680446" style="stroke: #000000; stroke-width: 0.8"/>
      </g>
     </g>
     <g id="text_2">
      <!-- $1/4$ -->
      <g transform="translate(312.484341 362.096386) scale(0.3 -0.3)">
       <defs>
        <path id="CMR17-31" d="M 1702 4058 
C 1702 4192 1696 4192 1606 4192 
C 1357 3916 979 3827 621 3827 
C 602 3827 570 3827 563 3808 
C 557 3795 557 3782 557 3648 
C 755 3648 1088 3686 1344 3839 
L 1344 461 
C 1344 236 1331 160 781 160 
L 589 160 
L 589 0 
C 896 0 1216 0 1523 0 
C 1830 0 2150 0 2458 0 
L 2458 160 
L 2266 160 
C 1715 160 1702 230 1702 458 
L 1702 4058 
z
" transform="scale(0.015625)"/>
        <path id="CMMI12-3d" d="M 2746 4562 
C 2746 4569 2784 4666 2784 4678 
C 2784 4755 2720 4800 2669 4800 
C 2637 4800 2579 4800 2528 4659 
L 384 -1363 
C 384 -1370 346 -1465 346 -1478 
C 346 -1555 410 -1600 461 -1600 
C 499 -1600 557 -1593 602 -1459 
L 2746 4562 
z
" transform="scale(0.015625)"/>
        <path id="CMR17-34" d="M 2150 4122 
C 2150 4256 2144 4256 2029 4256 
L 128 1254 
L 128 1088 
L 1779 1088 
L 1779 457 
C 1779 224 1766 160 1318 160 
L 1197 160 
L 1197 0 
C 1402 0 1747 0 1965 0 
C 2182 0 2528 0 2733 0 
L 2733 160 
L 2611 160 
C 2163 160 2150 224 2150 457 
L 2150 1088 
L 2803 1088 
L 2803 1254 
L 2150 1254 
L 2150 4122 
z
M 1798 3703 
L 1798 1254 
L 256 1254 
L 1798 3703 
z
" transform="scale(0.015625)"/>
       </defs>
       <use xlink:href="#CMR17-31" transform="scale(0.996264)"/>
       <use xlink:href="#CMMI12-3d" transform="translate(45.690477 0) scale(0.996264)"/>
       <use xlink:href="#CMR17-34" transform="translate(94.465396 0) scale(0.996264)"/>
      </g>
     </g>
    </g>
    <g id="xtick_4">
     <g id="line2d_4">
      <g>
       <use xlink:href="#mb71c65a6e9" x="437.04217" y="332.680446" style="stroke: #000000; stroke-width: 0.8"/>
      </g>
     </g>
    </g>
    <g id="xtick_5">
     <g id="line2d_5">
      <g>
       <use xlink:href="#mb71c65a6e9" x="540.576619" y="332.680446" style="stroke: #000000; stroke-width: 0.8"/>
      </g>
     </g>
     <g id="text_3">
      <!-- $1/2$ -->
      <g transform="translate(519.553238 362.096386) scale(0.3 -0.3)">
       <defs>
        <path id="CMR17-32" d="M 2669 989 
L 2554 989 
C 2490 536 2438 459 2413 420 
C 2381 369 1920 369 1830 369 
L 602 369 
C 832 619 1280 1072 1824 1597 
C 2214 1967 2669 2402 2669 3035 
C 2669 3790 2067 4224 1395 4224 
C 691 4224 262 3604 262 3030 
C 262 2780 448 2748 525 2748 
C 589 2748 781 2787 781 3010 
C 781 3207 614 3264 525 3264 
C 486 3264 448 3258 422 3245 
C 544 3790 915 4058 1306 4058 
C 1862 4058 2227 3617 2227 3035 
C 2227 2479 1901 2000 1536 1584 
L 262 146 
L 262 0 
L 2515 0 
L 2669 989 
z
" transform="scale(0.015625)"/>
       </defs>
       <use xlink:href="#CMR17-31" transform="scale(0.996264)"/>
       <use xlink:href="#CMMI12-3d" transform="translate(45.690477 0) scale(0.996264)"/>
       <use xlink:href="#CMR17-32" transform="translate(94.465396 0) scale(0.996264)"/>
      </g>
     </g>
    </g>
    <g id="text_4">
     <!-- $\delta_\phi / \pi$ -->
     <g transform="translate(303.221834 408.478703) scale(0.32 -0.32)">
      <defs>
       <path id="CMMI12-e" d="M 1664 2795 
C 845 2597 256 1748 256 1001 
C 256 319 717 -64 1229 -64 
C 1984 -64 2496 970 2496 1818 
C 2496 2392 2227 2744 2067 2954 
C 1830 3254 1446 3746 1446 4052 
C 1446 4161 1530 4352 1811 4352 
C 2010 4352 2131 4282 2323 4173 
C 2381 4134 2528 4052 2611 4052 
C 2746 4052 2842 4185 2842 4287 
C 2842 4409 2746 4428 2522 4479 
C 2221 4543 2131 4543 2022 4543 
C 1914 4543 1286 4543 1286 3892 
C 1286 3579 1446 3216 1664 2795 
z
M 1734 2669 
C 1978 2165 2074 1974 2074 1560 
C 2074 1063 1805 63 1235 63 
C 986 63 627 229 627 821 
C 627 1235 864 2439 1734 2669 
z
" transform="scale(0.015625)"/>
       <path id="CMMI12-1e" d="M 2752 4390 
C 2752 4448 2707 4448 2688 4448 
C 2630 4448 2624 4435 2598 4326 
L 2253 2939 
C 2234 2856 2227 2849 2221 2843 
C 2214 2830 2170 2824 2157 2824 
C 1107 2734 301 1864 301 1057 
C 301 361 832 -64 1498 -64 
C 1446 -261 1402 -463 1350 -659 
C 1261 -995 1210 -1204 1210 -1229 
C 1210 -1241 1210 -1280 1274 -1280 
C 1293 -1280 1318 -1280 1331 -1254 
C 1344 -1241 1382 -1089 1408 -1008 
L 1645 -64 
C 2739 -64 3571 854 3571 1680 
C 3571 2343 3085 2816 2374 2816 
L 2752 4390 
z
M 2336 2701 
C 2758 2701 3181 2463 3181 1828 
C 3181 1097 2675 128 1677 50 
L 2336 2701 
z
M 1530 50 
C 1216 50 691 220 691 938 
C 691 1761 1274 2676 2195 2676 
L 1530 50 
z
" transform="scale(0.015625)"/>
       <path id="CMMI12-19" d="M 1658 2408 
L 2381 2408 
C 2208 1692 2099 1226 2099 716 
C 2099 626 2099 -64 2362 -64 
C 2496 -64 2611 57 2611 166 
C 2611 197 2611 210 2566 306 
C 2394 747 2394 1296 2394 1341 
C 2394 1379 2394 1832 2528 2408 
L 3245 2408 
C 3328 2408 3539 2408 3539 2612 
C 3539 2752 3418 2752 3302 2752 
L 1197 2752 
C 1050 2752 832 2752 538 2440 
C 371 2254 166 1916 166 1878 
C 166 1840 198 1827 237 1827 
C 282 1827 288 1846 320 1884 
C 653 2408 986 2408 1146 2408 
L 1510 2408 
C 1370 1929 1210 1373 685 256 
C 634 154 634 140 634 102 
C 634 -32 749 -64 806 -64 
C 992 -64 1043 102 1120 370 
C 1222 696 1222 709 1286 964 
L 1658 2408 
z
" transform="scale(0.015625)"/>
      </defs>
      <use xlink:href="#CMMI12-e" transform="scale(0.996264)"/>
      <use xlink:href="#CMMI12-1e" transform="translate(43.205457 -14.943915) scale(0.697382)"/>
      <use xlink:href="#CMMI12-3d" transform="translate(84.11733 0) scale(0.996264)"/>
      <use xlink:href="#CMMI12-19" transform="translate(132.892249 0) scale(0.996264)"/>
     </g>
    </g>
   </g>
   <g id="matplotlib.axis_2">
    <g id="ytick_1">
     <g id="line2d_6">
      <defs>
       <path id="mcd5da08fcf" d="M 0 0 
L -3.5 0 
" style="stroke: #000000; stroke-width: 0.8"/>
      </defs>
      <g>
       <use xlink:href="#mcd5da08fcf" x="126.438824" y="332.680446" style="stroke: #000000; stroke-width: 0.8"/>
      </g>
     </g>
     <g id="text_5">
      <!-- $-2.0$ -->
      <g transform="translate(60.649154 343.327926) scale(0.3 -0.3)">
       <defs>
        <path id="CMSY10-0" d="M 4218 1472 
C 4326 1472 4442 1472 4442 1600 
C 4442 1728 4326 1728 4218 1728 
L 755 1728 
C 646 1728 531 1728 531 1600 
C 531 1472 646 1472 755 1472 
L 4218 1472 
z
" transform="scale(0.015625)"/>
        <path id="CMMI12-3a" d="M 1178 307 
C 1178 492 1024 619 870 619 
C 685 619 557 466 557 313 
C 557 128 710 0 864 0 
C 1050 0 1178 153 1178 307 
z
" transform="scale(0.015625)"/>
       </defs>
       <use xlink:href="#CMSY10-0" transform="scale(0.996264)"/>
       <use xlink:href="#CMR17-32" transform="translate(77.487468 0) scale(0.996264)"/>
       <use xlink:href="#CMMI12-3a" transform="translate(123.177945 0) scale(0.996264)"/>
       <use xlink:href="#CMR17-30" transform="translate(150.275122 0) scale(0.996264)"/>
      </g>
     </g>
    </g>
    <g id="ytick_2">
     <g id="line2d_7">
      <g>
       <use xlink:href="#mcd5da08fcf" x="126.438824" y="253.972205" style="stroke: #000000; stroke-width: 0.8"/>
      </g>
     </g>
     <g id="text_6">
      <!-- $-1.0$ -->
      <g transform="translate(60.649154 264.619685) scale(0.3 -0.3)">
       <use xlink:href="#CMSY10-0" transform="scale(0.996264)"/>
       <use xlink:href="#CMR17-31" transform="translate(77.487468 0) scale(0.996264)"/>
       <use xlink:href="#CMMI12-3a" transform="translate(123.177945 0) scale(0.996264)"/>
       <use xlink:href="#CMR17-30" transform="translate(150.275122 0) scale(0.996264)"/>
      </g>
     </g>
    </g>
    <g id="ytick_3">
     <g id="line2d_8">
      <g>
       <use xlink:href="#mcd5da08fcf" x="126.438824" y="175.263963" style="stroke: #000000; stroke-width: 0.8"/>
      </g>
     </g>
     <g id="text_7">
      <!-- $0.0$ -->
      <g transform="translate(83.895385 185.911444) scale(0.3 -0.3)">
       <use xlink:href="#CMR17-30" transform="scale(0.996264)"/>
       <use xlink:href="#CMMI12-3a" transform="translate(45.690477 0) scale(0.996264)"/>
       <use xlink:href="#CMR17-30" transform="translate(72.787654 0) scale(0.996264)"/>
      </g>
     </g>
    </g>
    <g id="ytick_4">
     <g id="line2d_9">
      <g>
       <use xlink:href="#mcd5da08fcf" x="126.438824" y="96.555722" style="stroke: #000000; stroke-width: 0.8"/>
      </g>
     </g>
     <g id="text_8">
      <!-- $1.0$ -->
      <g transform="translate(83.895385 107.203202) scale(0.3 -0.3)">
       <use xlink:href="#CMR17-31" transform="scale(0.996264)"/>
       <use xlink:href="#CMMI12-3a" transform="translate(45.690477 0) scale(0.996264)"/>
       <use xlink:href="#CMR17-30" transform="translate(72.787654 0) scale(0.996264)"/>
      </g>
     </g>
    </g>
    <g id="ytick_5">
     <g id="line2d_10">
      <g>
       <use xlink:href="#mcd5da08fcf" x="126.438824" y="17.84748" style="stroke: #000000; stroke-width: 0.8"/>
      </g>
     </g>
     <g id="text_9">
      <!-- $2.0$ -->
      <g transform="translate(83.895385 28.494961) scale(0.3 -0.3)">
       <use xlink:href="#CMR17-32" transform="scale(0.996264)"/>
       <use xlink:href="#CMMI12-3a" transform="translate(45.690477 0) scale(0.996264)"/>
       <use xlink:href="#CMR17-30" transform="translate(72.787654 0) scale(0.996264)"/>
      </g>
     </g>
    </g>
    <g id="text_10">
     <!-- $\sqrt{N} \cdot (\mathbb{E}(\tilde{\delta_\phi}) - \delta_\phi)$ -->
     <g transform="translate(36.527856 294.168717) rotate(-90) scale(0.32 -0.32)">
      <defs>
       <path id="CMSY10-70" d="M 2490 -5472 
L 1363 -2982 
C 1318 -2880 1286 -2880 1267 -2880 
C 1261 -2880 1229 -2880 1158 -2931 
L 550 -3392 
C 467 -3456 467 -3475 467 -3494 
C 467 -3526 486 -3565 531 -3565 
C 570 -3565 678 -3475 749 -3424 
C 787 -3393 883 -3323 954 -3271 
L 2214 -6042 
C 2259 -6144 2291 -6144 2349 -6144 
C 2445 -6144 2464 -6106 2509 -6016 
L 5414 0 
C 5459 90 5459 115 5459 128 
C 5459 192 5408 256 5331 256 
C 5280 256 5235 224 5184 122 
L 2490 -5472 
z
" transform="scale(0.015625)"/>
       <path id="CMMI12-4e" d="M 4736 3698 
C 4806 3974 4909 4166 5395 4166 
C 5414 4166 5491 4166 5491 4279 
C 5491 4352 5434 4352 5408 4352 
C 5280 4352 4954 4352 4826 4352 
L 4518 4352 
C 4429 4352 4314 4352 4224 4352 
C 4186 4352 4109 4352 4109 4230 
C 4109 4166 4160 4166 4205 4166 
C 4589 4166 4614 4019 4614 3903 
C 4614 3846 4608 3826 4589 3737 
L 3866 850 
L 2496 4249 
C 2451 4352 2445 4352 2304 4352 
L 1523 4352 
C 1395 4352 1338 4352 1338 4230 
C 1338 4166 1382 4166 1504 4166 
C 1536 4166 1914 4166 1914 4115 
C 1914 4102 1901 4051 1894 4032 
L 1043 635 
C 966 320 813 186 390 186 
C 358 186 294 186 294 67 
C 294 0 358 0 378 0 
C 506 0 832 0 960 0 
L 1267 0 
C 1357 0 1466 0 1555 0 
C 1600 0 1670 0 1670 122 
C 1670 180 1606 186 1581 186 
C 1370 186 1165 224 1165 454 
C 1165 505 1178 562 1190 613 
L 2054 4032 
C 2093 3968 2093 3956 2118 3898 
L 3642 115 
C 3674 38 3686 0 3744 0 
C 3808 0 3814 19 3840 128 
L 4736 3698 
z
" transform="scale(0.015625)"/>
       <path id="CMSY10-1" d="M 1229 1619 
C 1229 1805 1075 1958 890 1958 
C 704 1958 550 1805 550 1619 
C 550 1433 704 1280 890 1280 
C 1075 1280 1229 1433 1229 1619 
z
" transform="scale(0.015625)"/>
       <path id="CMR17-28" d="M 1958 -1561 
C 1958 -1555 1958 -1542 1939 -1523 
C 1645 -1224 858 -407 858 1581 
C 858 3569 1632 4379 1946 4697 
C 1946 4704 1958 4717 1958 4736 
C 1958 4755 1939 4768 1914 4768 
C 1843 4768 1299 4296 986 3594 
C 666 2887 576 2199 576 1588 
C 576 1128 621 351 1005 -471 
C 1312 -1135 1837 -1600 1914 -1600 
C 1946 -1600 1958 -1587 1958 -1561 
z
" transform="scale(0.015625)"/>
       <path id="MSBM10-45" d="M 1658 2176 
C 1818 2176 2125 2176 2349 2046 
C 2656 1853 2682 1517 2682 1480 
C 2688 1393 2688 1312 2797 1312 
C 2906 1312 2906 1401 2906 1517 
L 2906 3251 
C 2906 3353 2906 3456 2797 3456 
C 2688 3456 2682 3355 2682 3301 
C 2643 2432 1990 2432 1658 2432 
L 1658 3772 
C 1658 4198 1779 4198 1933 4198 
L 2240 4198 
C 3104 4198 3533 3759 3571 3320 
C 3578 3269 3584 3174 3686 3174 
C 3795 3174 3795 3276 3795 3385 
L 3795 4218 
C 3795 4416 3782 4416 3584 4416 
L 307 4416 
C 192 4416 90 4416 90 4304 
C 90 4198 211 4198 262 4198 
C 627 4198 653 4147 653 3832 
L 653 622 
C 653 320 634 256 294 256 
C 198 256 90 256 90 147 
C 90 32 192 32 307 32 
L 3699 32 
C 3821 32 3885 32 3904 123 
C 3910 129 4090 1213 4090 1245 
C 4090 1316 4032 1362 3981 1362 
C 3891 1362 3866 1278 3866 1271 
C 3827 1102 3763 828 3296 549 
C 2963 347 2637 256 2285 256 
L 1933 256 
C 1779 256 1658 256 1658 684 
L 1658 2176 
z
M 3571 4198 
L 3571 3896 
C 3462 4015 3341 4116 3206 4198 
L 3571 4198 
z
M 2323 2315 
C 2426 2360 2566 2456 2682 2590 
L 2682 2052 
C 2528 2225 2330 2308 2323 2308 
L 2323 2315 
z
M 877 3845 
C 877 3923 877 4083 826 4198 
L 1504 4198 
C 1434 4051 1434 3839 1434 3781 
L 1434 673 
C 1434 442 1478 314 1504 256 
L 826 256 
C 877 371 877 531 877 609 
L 877 3845 
z
M 3258 256 
L 3258 262 
C 3462 367 3635 504 3763 621 
C 3757 596 3712 308 3706 256 
L 3258 256 
z
" transform="scale(0.015625)"/>
       <path id="CMR17-7e" d="M 2400 4184 
C 2182 3980 2061 3865 1862 3865 
C 1722 3865 1626 3932 1491 4024 
C 1363 4111 1261 4184 1120 4184 
C 890 4184 730 4004 461 3718 
L 531 3648 
C 749 3850 870 3968 1069 3968 
C 1210 3968 1306 3900 1440 3808 
C 1568 3722 1670 3648 1811 3648 
C 2042 3648 2202 3828 2470 4114 
L 2400 4184 
z
" transform="scale(0.015625)"/>
       <path id="CMR17-29" d="M 1683 1581 
C 1683 2040 1638 2817 1254 3639 
C 947 4303 422 4768 346 4768 
C 326 4768 301 4761 301 4729 
C 301 4717 307 4710 314 4697 
C 621 4378 1402 3568 1402 1584 
C 1402 -407 627 -1217 314 -1537 
C 307 -1549 301 -1556 301 -1568 
C 301 -1600 326 -1600 346 -1600 
C 416 -1600 960 -1128 1274 -426 
C 1594 281 1683 969 1683 1581 
z
" transform="scale(0.015625)"/>
      </defs>
      <use xlink:href="#CMSY10-70" transform="translate(0 84.350328) scale(0.996264)"/>
      <use xlink:href="#CMMI12-4e" transform="translate(83.022254 0) scale(0.996264)"/>
      <use xlink:href="#CMSY10-1" transform="translate(193.683234 0) scale(0.996264)"/>
      <use xlink:href="#CMR17-28" transform="translate(243.496525 0) scale(0.996264)"/>
      <use xlink:href="#MSBM10-45" transform="translate(278.777293 0) scale(0.996264)"/>
      <use xlink:href="#CMR17-28" transform="translate(345.195112 0) scale(0.996264)"/>
      <use xlink:href="#CMR17-7e" transform="translate(399.689306 26.296621) scale(0.996264)"/>
      <use xlink:href="#CMMI12-e" transform="translate(380.47588 0) scale(0.996264)"/>
      <use xlink:href="#CMMI12-1e" transform="translate(423.681337 -14.943915) scale(0.697382)"/>
      <use xlink:href="#CMR17-29" transform="translate(464.593209 0) scale(0.996264)"/>
      <use xlink:href="#CMSY10-0" transform="translate(522.013184 0) scale(0.996264)"/>
      <use xlink:href="#CMMI12-e" transform="translate(621.639859 0) scale(0.996264)"/>
      <use xlink:href="#CMMI12-1e" transform="translate(664.845316 -14.943915) scale(0.697382)"/>
      <use xlink:href="#CMR17-29" transform="translate(705.757189 0) scale(0.996264)"/>
      <path d="M 83.022254 84.350328 
L 171.544027 84.350328 
L 171.544027 88.335277 
L 83.022254 88.335277 
L 83.022254 84.350328 
z
"/>
     </g>
    </g>
   </g>
   <g id="line2d_11">
    <path d="M 127.2671 22.00863 
L 133.893305 34.22145 
L 140.519509 45.955954 
L 147.145714 57.208674 
L 153.771919 67.974163 
L 159.569848 76.988656 
L 165.367777 85.618863 
L 171.165706 93.858382 
L 176.963635 101.700405 
L 182.761564 109.138006 
L 187.731218 115.186099 
L 192.700871 120.928199 
L 197.670525 126.360866 
L 202.640178 131.481325 
L 207.609832 136.287647 
L 212.579486 140.778935 
L 217.549139 144.955495 
L 222.518793 148.818986 
L 227.488446 152.372557 
L 232.4581 155.620939 
L 237.427753 158.570513 
L 242.397407 161.22932 
L 247.36706 163.607043 
L 252.336714 165.714927 
L 257.306367 167.565666 
L 262.276021 169.173242 
L 267.245674 170.552735 
L 272.215328 171.72011 
L 278.013257 172.836145 
L 283.811186 173.713178 
L 289.609115 174.378597 
L 296.23532 174.914921 
L 303.6898 175.280155 
L 311.972556 175.454582 
L 322.740139 175.431477 
L 358.355989 175.118278 
L 366.638745 175.382282 
L 374.093226 175.85359 
L 380.71943 176.505254 
L 386.517359 177.288239 
L 392.315289 178.298501 
L 397.284942 179.366015 
L 402.254596 180.637407 
L 407.224249 182.128996 
L 412.193903 183.856332 
L 417.163556 185.833972 
L 422.13321 188.075276 
L 427.102863 190.592231 
L 432.072517 193.395313 
L 437.04217 196.49339 
L 442.011824 199.893673 
L 446.981477 203.601713 
L 451.951131 207.621441 
L 456.920785 211.955245 
L 461.890438 216.604091 
L 466.860092 221.567662 
L 471.829745 226.844524 
L 476.799399 232.4323 
L 481.769052 238.327861 
L 486.738706 244.527503 
L 492.536635 252.139271 
L 498.334564 260.152497 
L 504.132493 268.56027 
L 509.930422 277.355922 
L 515.728351 286.533302 
L 521.52628 296.086999 
L 528.152485 307.460602 
L 534.77869 319.314929 
L 540.576619 330.07944 
L 540.576619 330.07944 
" clip-path="url(#p589ed5767a)" style="fill: none; stroke: #4c72b0; stroke-width: 2; stroke-linecap: square"/>
   </g>
   <g id="line2d_12">
    <path d="M 127.2671 35.623215 
L 132.236753 51.302759 
L 136.378131 63.710575 
L 140.519509 75.514856 
L 144.660887 86.708689 
L 148.802265 97.283376 
L 152.943643 107.22898 
L 157.085021 116.535012 
L 161.226399 125.191259 
L 164.539501 131.642316 
L 167.852604 137.668143 
L 171.165706 143.266466 
L 174.478808 148.436695 
L 177.791911 153.180277 
L 181.105013 157.50103 
L 184.418116 161.405413 
L 187.731218 164.902736 
L 191.04432 168.00527 
L 194.357423 170.728254 
L 197.670525 173.089783 
L 200.983627 175.110578 
L 204.29673 176.813638 
L 207.609832 178.223796 
L 210.922934 179.367188 
L 214.236037 180.270685 
L 217.549139 180.961297 
L 221.690517 181.565594 
L 225.831895 181.928379 
L 230.801549 182.109358 
L 236.599478 182.05776 
L 243.225682 181.764275 
L 253.164989 181.066958 
L 303.6898 177.176638 
L 338.477375 174.952581 
L 374.093226 172.6063 
L 395.628391 170.960166 
L 423.789761 168.763651 
L 431.244241 168.448907 
L 437.04217 168.432285 
L 442.011824 168.655053 
L 446.153202 169.062327 
L 450.29458 169.72079 
L 453.607682 170.462106 
L 456.920785 171.42304 
L 460.233887 172.630623 
L 463.546989 174.111597 
L 466.860092 175.891826 
L 470.173194 177.995731 
L 473.486296 180.445778 
L 476.799399 183.262061 
L 480.112501 186.461979 
L 483.425603 190.060033 
L 486.738706 194.06775 
L 490.051808 198.493712 
L 493.36491 203.343696 
L 496.678013 208.620898 
L 499.991115 214.326225 
L 503.304218 220.45863 
L 506.61732 227.015477 
L 509.930422 233.992915 
L 514.0718 243.298946 
L 518.213178 253.24455 
L 522.354556 263.819238 
L 526.495934 275.013071 
L 530.637312 286.817352 
L 534.77869 299.225167 
L 539.748343 314.904712 
L 540.576619 317.601489 
L 540.576619 317.601489 
" clip-path="url(#p589ed5767a)" style="fill: none; stroke: #dd8452; stroke-width: 2; stroke-linecap: square"/>
   </g>
   <g id="line2d_13">
    <path d="M 127.2671 49.636206 
L 131.408478 66.332443 
L 134.72158 78.876716 
L 138.034683 90.694979 
L 141.347785 101.782546 
L 144.660887 112.133991 
L 147.97399 121.743848 
L 151.287092 130.607473 
L 154.600194 138.722051 
L 157.085021 144.316351 
L 159.569848 149.490803 
L 162.054675 154.248482 
L 164.539501 158.594291 
L 167.024328 162.535183 
L 169.509155 166.080346 
L 171.993982 169.241325 
L 174.478808 172.03207 
L 176.963635 174.46891 
L 179.448462 176.570424 
L 181.933289 178.357232 
L 184.418116 179.851695 
L 186.902942 181.077541 
L 189.387769 182.059431 
L 191.872596 182.822489 
L 194.357423 183.391815 
L 197.670525 183.891961 
L 200.983627 184.146909 
L 205.125005 184.198122 
L 210.094659 183.980606 
L 216.720864 183.410135 
L 231.629824 181.783492 
L 244.882234 180.468693 
L 258.134643 179.383368 
L 274.700155 178.268927 
L 296.23532 177.063512 
L 330.194619 175.41842 
L 378.234603 173.069226 
L 398.941493 171.838802 
L 414.678729 170.695372 
L 427.931139 169.513174 
L 442.011824 168.014315 
L 454.435958 166.733958 
L 460.233887 166.374278 
L 464.375265 166.329313 
L 467.688367 166.481156 
L 471.00147 166.852004 
L 474.314572 167.495366 
L 476.799399 168.191073 
L 479.284225 169.097218 
L 481.769052 170.238973 
L 484.253879 171.641205 
L 486.738706 173.328004 
L 489.223532 175.322232 
L 491.708359 177.645126 
L 494.193186 180.315974 
L 496.678013 183.351873 
L 499.16284 186.767573 
L 501.647666 190.57542 
L 504.132493 194.785377 
L 506.61732 199.405125 
L 509.102147 204.440225 
L 511.586973 209.894336 
L 514.0718 215.769458 
L 517.384903 224.258756 
L 520.698005 233.495988 
L 524.011107 243.477292 
L 527.32421 254.197497 
L 530.637312 265.651059 
L 533.950414 277.832844 
L 537.263517 290.738745 
L 540.576619 304.366122 
L 540.576619 304.366122 
" clip-path="url(#p589ed5767a)" style="fill: none; stroke: #55a868; stroke-width: 2; stroke-linecap: square"/>
   </g>
   <g id="line2d_14">
    <path d="M 126.438824 175.263963 
L 540.576619 175.263963 
" clip-path="url(#p589ed5767a)" style="fill: none; stroke-dasharray: 5.55,2.4; stroke-dashoffset: 0; stroke: #808080; stroke-width: 1.5"/>
   </g>
   <g id="patch_3">
    <path d="M 126.438824 332.680446 
L 126.438824 17.84748 
" style="fill: none; stroke: #000000; stroke-width: 0.8; stroke-linejoin: miter; stroke-linecap: square"/>
   </g>
   <g id="patch_4">
    <path d="M 126.438824 332.680446 
L 540.576619 332.680446 
" style="fill: none; stroke: #000000; stroke-width: 0.8; stroke-linejoin: miter; stroke-linecap: square"/>
   </g>
  </g>
 </g>
 <defs>
  <clipPath id="p589ed5767a">
   <rect x="126.438824" y="17.84748" width="414.137795" height="314.832966"/>
  </clipPath>
 </defs>
</svg>
