<?xml version="1.0" encoding="utf-8" standalone="no"?>
<!DOCTYPE svg PUBLIC "-//W3C//DTD SVG 1.1//EN"
  "http://www.w3.org/Graphics/SVG/1.1/DTD/svg11.dtd">
<svg xmlns:xlink="http://www.w3.org/1999/xlink" width="338.4pt" height="252pt" viewBox="0 0 338.4 252" xmlns="http://www.w3.org/2000/svg" version="1.1">
 <metadata>
  <rdf:RDF xmlns:dc="http://purl.org/dc/elements/1.1/" xmlns:cc="http://creativecommons.org/ns#" xmlns:rdf="http://www.w3.org/1999/02/22-rdf-syntax-ns#">
   <cc:Work>
    <dc:type rdf:resource="http://purl.org/dc/dcmitype/StillImage"/>
    <dc:date>2025-07-02T15:11:54.410437</dc:date>
    <dc:format>image/svg+xml</dc:format>
    <dc:creator>
     <cc:Agent>
      <dc:title>Matplotlib v3.10.3, https://matplotlib.org/</dc:title>
     </cc:Agent>
    </dc:creator>
   </cc:Work>
  </rdf:RDF>
 </metadata>
 <defs>
  <style type="text/css">*{stroke-linejoin: round; stroke-linecap: butt}</style>
 </defs>
 <g id="figure_1">
  <g id="patch_1">
   <path d="M 0 252 
L 338.4 252 
L 338.4 0 
L 0 0 
z
" style="fill: #ffffff"/>
  </g>
  <g id="axes_1">
   <g id="patch_2">
    <path d="M 97.775073 159.880446 
L 310.176619 159.880446 
L 310.176619 7.2 
L 97.775073 7.2 
z
" style="fill: #ffffff"/>
   </g>
   <g id="matplotlib.axis_1">
    <g id="xtick_1">
     <g id="line2d_1">
      <defs>
       <path id="mdf2086be91" d="M 0 0 
L 0 3.5 
" style="stroke: #000000; stroke-width: 0.8"/>
      </defs>
      <g>
       <use xlink:href="#mdf2086be91" x="97.775073" y="159.880446" style="stroke: #000000; stroke-width: 0.8"/>
      </g>
     </g>
     <g id="text_1">
      <!-- $0$ -->
      <g transform="translate(90.921502 188.175407) scale(0.3 -0.3)">
       <defs>
        <path id="CMR17-30" d="M 2688 2025 
C 2688 2416 2682 3080 2413 3591 
C 2176 4039 1798 4198 1466 4198 
C 1158 4198 768 4058 525 3597 
C 269 3118 243 2524 243 2025 
C 243 1661 250 1106 448 619 
C 723 -39 1216 -128 1466 -128 
C 1760 -128 2208 -7 2470 600 
C 2662 1042 2688 1559 2688 2025 
z
M 1466 -26 
C 1056 -26 813 325 723 812 
C 653 1188 653 1738 653 2096 
C 653 2588 653 2997 736 3387 
C 858 3929 1216 4096 1466 4096 
C 1728 4096 2067 3923 2189 3400 
C 2272 3036 2278 2607 2278 2096 
C 2278 1680 2278 1169 2202 792 
C 2067 95 1690 -26 1466 -26 
z
" transform="scale(0.015625)"/>
       </defs>
       <use xlink:href="#CMR17-30" transform="scale(0.996264)"/>
      </g>
     </g>
    </g>
    <g id="xtick_2">
     <g id="line2d_2">
      <g>
       <use xlink:href="#mdf2086be91" x="150.87546" y="159.880446" style="stroke: #000000; stroke-width: 0.8"/>
      </g>
     </g>
    </g>
    <g id="xtick_3">
     <g id="line2d_3">
      <g>
       <use xlink:href="#mdf2086be91" x="203.975846" y="159.880446" style="stroke: #000000; stroke-width: 0.8"/>
      </g>
     </g>
     <g id="text_2">
      <!-- $1/4$ -->
      <g transform="translate(182.952465 189.296386) scale(0.3 -0.3)">
       <defs>
        <path id="CMR17-31" d="M 1702 4058 
C 1702 4192 1696 4192 1606 4192 
C 1357 3916 979 3827 621 3827 
C 602 3827 570 3827 563 3808 
C 557 3795 557 3782 557 3648 
C 755 3648 1088 3686 1344 3839 
L 1344 461 
C 1344 236 1331 160 781 160 
L 589 160 
L 589 0 
C 896 0 1216 0 1523 0 
C 1830 0 2150 0 2458 0 
L 2458 160 
L 2266 160 
C 1715 160 1702 230 1702 458 
L 1702 4058 
z
" transform="scale(0.015625)"/>
        <path id="CMMI12-3d" d="M 2746 4562 
C 2746 4569 2784 4666 2784 4678 
C 2784 4755 2720 4800 2669 4800 
C 2637 4800 2579 4800 2528 4659 
L 384 -1363 
C 384 -1370 346 -1465 346 -1478 
C 346 -1555 410 -1600 461 -1600 
C 499 -1600 557 -1593 602 -1459 
L 2746 4562 
z
" transform="scale(0.015625)"/>
        <path id="CMR17-34" d="M 2150 4122 
C 2150 4256 2144 4256 2029 4256 
L 128 1254 
L 128 1088 
L 1779 1088 
L 1779 457 
C 1779 224 1766 160 1318 160 
L 1197 160 
L 1197 0 
C 1402 0 1747 0 1965 0 
C 2182 0 2528 0 2733 0 
L 2733 160 
L 2611 160 
C 2163 160 2150 224 2150 457 
L 2150 1088 
L 2803 1088 
L 2803 1254 
L 2150 1254 
L 2150 4122 
z
M 1798 3703 
L 1798 1254 
L 256 1254 
L 1798 3703 
z
" transform="scale(0.015625)"/>
       </defs>
       <use xlink:href="#CMR17-31" transform="scale(0.996264)"/>
       <use xlink:href="#CMMI12-3d" transform="translate(45.690477 0) scale(0.996264)"/>
       <use xlink:href="#CMR17-34" transform="translate(94.465396 0) scale(0.996264)"/>
      </g>
     </g>
    </g>
    <g id="xtick_4">
     <g id="line2d_4">
      <g>
       <use xlink:href="#mdf2086be91" x="257.076233" y="159.880446" style="stroke: #000000; stroke-width: 0.8"/>
      </g>
     </g>
    </g>
    <g id="xtick_5">
     <g id="line2d_5">
      <g>
       <use xlink:href="#mdf2086be91" x="310.176619" y="159.880446" style="stroke: #000000; stroke-width: 0.8"/>
      </g>
     </g>
     <g id="text_3">
      <!-- $1/2$ -->
      <g transform="translate(289.153238 189.296386) scale(0.3 -0.3)">
       <defs>
        <path id="CMR17-32" d="M 2669 989 
L 2554 989 
C 2490 536 2438 459 2413 420 
C 2381 369 1920 369 1830 369 
L 602 369 
C 832 619 1280 1072 1824 1597 
C 2214 1967 2669 2402 2669 3035 
C 2669 3790 2067 4224 1395 4224 
C 691 4224 262 3604 262 3030 
C 262 2780 448 2748 525 2748 
C 589 2748 781 2787 781 3010 
C 781 3207 614 3264 525 3264 
C 486 3264 448 3258 422 3245 
C 544 3790 915 4058 1306 4058 
C 1862 4058 2227 3617 2227 3035 
C 2227 2479 1901 2000 1536 1584 
L 262 146 
L 262 0 
L 2515 0 
L 2669 989 
z
" transform="scale(0.015625)"/>
       </defs>
       <use xlink:href="#CMR17-31" transform="scale(0.996264)"/>
       <use xlink:href="#CMMI12-3d" transform="translate(45.690477 0) scale(0.996264)"/>
       <use xlink:href="#CMR17-32" transform="translate(94.465396 0) scale(0.996264)"/>
      </g>
     </g>
    </g>
    <g id="text_4">
     <!-- $\delta_\phi / \pi$ -->
     <g transform="translate(173.689958 235.678703) scale(0.32 -0.32)">
      <defs>
       <path id="CMMI12-e" d="M 1664 2795 
C 845 2597 256 1748 256 1001 
C 256 319 717 -64 1229 -64 
C 1984 -64 2496 970 2496 1818 
C 2496 2392 2227 2744 2067 2954 
C 1830 3254 1446 3746 1446 4052 
C 1446 4161 1530 4352 1811 4352 
C 2010 4352 2131 4282 2323 4173 
C 2381 4134 2528 4052 2611 4052 
C 2746 4052 2842 4185 2842 4287 
C 2842 4409 2746 4428 2522 4479 
C 2221 4543 2131 4543 2022 4543 
C 1914 4543 1286 4543 1286 3892 
C 1286 3579 1446 3216 1664 2795 
z
M 1734 2669 
C 1978 2165 2074 1974 2074 1560 
C 2074 1063 1805 63 1235 63 
C 986 63 627 229 627 821 
C 627 1235 864 2439 1734 2669 
z
" transform="scale(0.015625)"/>
       <path id="CMMI12-1e" d="M 2752 4390 
C 2752 4448 2707 4448 2688 4448 
C 2630 4448 2624 4435 2598 4326 
L 2253 2939 
C 2234 2856 2227 2849 2221 2843 
C 2214 2830 2170 2824 2157 2824 
C 1107 2734 301 1864 301 1057 
C 301 361 832 -64 1498 -64 
C 1446 -261 1402 -463 1350 -659 
C 1261 -995 1210 -1204 1210 -1229 
C 1210 -1241 1210 -1280 1274 -1280 
C 1293 -1280 1318 -1280 1331 -1254 
C 1344 -1241 1382 -1089 1408 -1008 
L 1645 -64 
C 2739 -64 3571 854 3571 1680 
C 3571 2343 3085 2816 2374 2816 
L 2752 4390 
z
M 2336 2701 
C 2758 2701 3181 2463 3181 1828 
C 3181 1097 2675 128 1677 50 
L 2336 2701 
z
M 1530 50 
C 1216 50 691 220 691 938 
C 691 1761 1274 2676 2195 2676 
L 1530 50 
z
" transform="scale(0.015625)"/>
       <path id="CMMI12-19" d="M 1658 2408 
L 2381 2408 
C 2208 1692 2099 1226 2099 716 
C 2099 626 2099 -64 2362 -64 
C 2496 -64 2611 57 2611 166 
C 2611 197 2611 210 2566 306 
C 2394 747 2394 1296 2394 1341 
C 2394 1379 2394 1832 2528 2408 
L 3245 2408 
C 3328 2408 3539 2408 3539 2612 
C 3539 2752 3418 2752 3302 2752 
L 1197 2752 
C 1050 2752 832 2752 538 2440 
C 371 2254 166 1916 166 1878 
C 166 1840 198 1827 237 1827 
C 282 1827 288 1846 320 1884 
C 653 2408 986 2408 1146 2408 
L 1510 2408 
C 1370 1929 1210 1373 685 256 
C 634 154 634 140 634 102 
C 634 -32 749 -64 806 -64 
C 992 -64 1043 102 1120 370 
C 1222 696 1222 709 1286 964 
L 1658 2408 
z
" transform="scale(0.015625)"/>
      </defs>
      <use xlink:href="#CMMI12-e" transform="scale(0.996264)"/>
      <use xlink:href="#CMMI12-1e" transform="translate(43.205457 -14.943915) scale(0.697382)"/>
      <use xlink:href="#CMMI12-3d" transform="translate(84.11733 0) scale(0.996264)"/>
      <use xlink:href="#CMMI12-19" transform="translate(132.892249 0) scale(0.996264)"/>
     </g>
    </g>
   </g>
   <g id="matplotlib.axis_2">
    <g id="ytick_1">
     <g id="line2d_6">
      <defs>
       <path id="m7bb0788e2f" d="M 0 0 
L -3.5 0 
" style="stroke: #000000; stroke-width: 0.8"/>
      </defs>
      <g>
       <use xlink:href="#m7bb0788e2f" x="97.775073" y="159.880446" style="stroke: #000000; stroke-width: 0.8"/>
      </g>
     </g>
     <g id="text_5">
      <!-- $0.0$ -->
      <g transform="translate(55.231634 170.527926) scale(0.3 -0.3)">
       <defs>
        <path id="CMMI12-3a" d="M 1178 307 
C 1178 492 1024 619 870 619 
C 685 619 557 466 557 313 
C 557 128 710 0 864 0 
C 1050 0 1178 153 1178 307 
z
" transform="scale(0.015625)"/>
       </defs>
       <use xlink:href="#CMR17-30" transform="scale(0.996264)"/>
       <use xlink:href="#CMMI12-3a" transform="translate(45.690477 0) scale(0.996264)"/>
       <use xlink:href="#CMR17-30" transform="translate(72.787654 0) scale(0.996264)"/>
      </g>
     </g>
    </g>
    <g id="ytick_2">
     <g id="line2d_7">
      <g>
       <use xlink:href="#m7bb0788e2f" x="97.775073" y="90.480243" style="stroke: #000000; stroke-width: 0.8"/>
      </g>
     </g>
     <g id="text_6">
      <!-- $0.5$ -->
      <g transform="translate(55.231634 101.127724) scale(0.3 -0.3)">
       <defs>
        <path id="CMR17-35" d="M 730 3692 
C 794 3666 1056 3584 1325 3584 
C 1920 3584 2246 3911 2432 4100 
C 2432 4157 2432 4192 2394 4192 
C 2387 4192 2374 4192 2323 4163 
C 2099 4058 1837 3973 1517 3973 
C 1325 3973 1037 3999 723 4139 
C 653 4171 640 4171 634 4171 
C 602 4171 595 4164 595 4037 
L 595 2203 
C 595 2089 595 2057 659 2057 
C 691 2057 704 2070 736 2114 
C 941 2401 1222 2522 1542 2522 
C 1766 2522 2246 2382 2246 1289 
C 2246 1085 2246 715 2054 421 
C 1894 159 1645 25 1370 25 
C 947 25 518 320 403 814 
C 429 807 480 795 506 795 
C 589 795 749 840 749 1038 
C 749 1210 627 1280 506 1280 
C 358 1280 262 1190 262 1011 
C 262 454 704 -128 1382 -128 
C 2042 -128 2669 440 2669 1264 
C 2669 2030 2170 2624 1549 2624 
C 1222 2624 947 2503 730 2274 
L 730 3692 
z
" transform="scale(0.015625)"/>
       </defs>
       <use xlink:href="#CMR17-30" transform="scale(0.996264)"/>
       <use xlink:href="#CMMI12-3a" transform="translate(45.690477 0) scale(0.996264)"/>
       <use xlink:href="#CMR17-35" transform="translate(72.787654 0) scale(0.996264)"/>
      </g>
     </g>
    </g>
    <g id="ytick_3">
     <g id="line2d_8">
      <g>
       <use xlink:href="#m7bb0788e2f" x="97.775073" y="21.080041" style="stroke: #000000; stroke-width: 0.8"/>
      </g>
     </g>
     <g id="text_7">
      <!-- $1.0$ -->
      <g transform="translate(55.231634 31.727521) scale(0.3 -0.3)">
       <use xlink:href="#CMR17-31" transform="scale(0.996264)"/>
       <use xlink:href="#CMMI12-3a" transform="translate(45.690477 0) scale(0.996264)"/>
       <use xlink:href="#CMR17-30" transform="translate(72.787654 0) scale(0.996264)"/>
      </g>
     </g>
    </g>
    <g id="text_8">
     <!-- $\mathcal{F}_\eta / \mathcal{H}$ -->
     <g transform="translate(31.110336 122.302875) rotate(-90) scale(0.32 -0.32)">
      <defs>
       <path id="CMSY10-46" d="M 5312 4141 
C 5312 4435 4819 4391 4621 4391 
L 2208 4391 
C 1888 4391 1318 4205 1216 3859 
C 1229 3820 1242 3814 1280 3814 
C 1421 3814 1613 3933 1702 4032 
C 1901 4032 2093 4032 2291 4032 
L 2688 4032 
C 2688 4032 2662 3916 2662 3910 
C 2413 2741 2035 1751 1754 1125 
C 1715 1041 1370 243 1280 167 
C 998 167 787 319 672 568 
C 653 606 653 632 608 632 
C 461 632 109 428 109 320 
C 109 307 115 295 122 282 
C 237 -19 525 -192 838 -192 
C 1165 -192 1542 44 1747 280 
C 1958 523 2381 1569 2547 1952 
L 3782 1952 
C 3776 1945 3770 1939 3770 1932 
C 3770 1907 3808 1888 3834 1888 
C 3974 1888 4339 2067 4339 2266 
C 4339 2310 4294 2304 4218 2304 
L 2682 2304 
C 2848 2880 3066 3443 3181 4032 
L 4026 4032 
C 4186 4032 4634 4064 4749 3929 
C 4762 3888 4742 3821 4762 3788 
C 4774 3775 4794 3775 4813 3775 
C 4966 3775 5312 3967 5312 4141 
z
" transform="scale(0.015625)"/>
       <path id="CMMI12-11" d="M 3040 1768 
C 3072 1895 3091 1973 3091 2145 
C 3091 2528 2867 2815 2381 2815 
C 1811 2815 1510 2413 1395 2254 
C 1376 2618 1114 2815 832 2815 
C 646 2815 499 2726 378 2483 
C 262 2254 173 1864 173 1839 
C 173 1813 198 1781 243 1781 
C 294 1781 301 1788 339 1934 
C 435 2311 557 2688 813 2688 
C 960 2688 1011 2586 1011 2394 
C 1011 2254 947 2005 902 1807 
L 723 1118 
C 698 996 627 709 595 593 
C 550 428 480 127 480 96 
C 480 6 550 -64 646 -64 
C 723 -64 813 -25 864 70 
C 877 102 934 326 966 453 
L 1107 1028 
L 1318 1871 
C 1331 1909 1491 2228 1728 2432 
C 1894 2586 2112 2688 2362 2688 
C 2618 2688 2707 2496 2707 2241 
C 2707 2055 2682 1953 2650 1831 
L 1907 -1107 
C 1901 -1139 1888 -1177 1888 -1216 
C 1888 -1312 1965 -1376 2061 -1376 
C 2118 -1376 2253 -1350 2304 -1158 
L 3040 1768 
z
" transform="scale(0.015625)"/>
       <path id="CMSY10-48" d="M 2118 2138 
C 2202 2437 2285 2761 2349 3067 
C 2426 3493 2470 3920 2470 3996 
C 2470 4352 2118 4352 2042 4352 
C 1555 4352 1120 4174 819 3971 
C 301 3621 134 3195 134 3164 
C 134 3120 179 3120 198 3120 
C 250 3120 550 3195 685 3437 
C 858 3759 1043 4000 1619 4000 
C 1882 4000 1926 3822 1926 3721 
C 1926 3714 1907 3415 1830 2977 
C 1798 2799 1779 2684 1645 2138 
L 1414 2138 
C 1235 2138 941 1933 941 1837 
C 941 1798 947 1792 1088 1792 
L 1549 1792 
C 1414 1343 1235 727 941 -56 
C 883 -204 883 -217 883 -224 
C 883 -268 934 -268 947 -268 
C 1037 -268 1235 -185 1363 -56 
C 1395 -18 1408 -5 1434 59 
C 1658 624 1850 1201 2016 1792 
L 3456 1792 
C 3526 1792 3648 1792 3750 1856 
C 3680 1586 3418 540 3418 33 
C 3418 -153 3526 -320 3802 -320 
C 4653 -320 5126 213 5126 418 
C 5126 456 5094 469 5062 469 
C 5011 469 4672 377 4576 123 
C 4550 71 4544 65 4422 45 
C 4352 32 4230 32 4224 32 
C 4109 32 3962 109 3962 307 
C 3962 383 4006 734 4026 874 
C 4134 1583 4448 2783 4998 4237 
C 5018 4282 5018 4295 5018 4307 
C 5018 4352 4979 4352 4954 4352 
C 4858 4352 4672 4264 4550 4155 
C 4544 4142 4506 4110 4480 4053 
C 4224 3429 4026 2787 3834 2138 
L 2118 2138 
z
" transform="scale(0.015625)"/>
      </defs>
      <use xlink:href="#CMSY10-46" transform="scale(0.996264)"/>
      <use xlink:href="#CMMI12-11" transform="translate(71.606278 -14.943915) scale(0.697382)"/>
      <use xlink:href="#CMMI12-3d" transform="translate(108.296905 0) scale(0.996264)"/>
      <use xlink:href="#CMSY10-48" transform="translate(157.071824 0) scale(0.996264)"/>
     </g>
    </g>
   </g>
   <g id="line2d_9">
    <path d="M 97.775073 159.880446 
L 98.200301 159.765284 
L 98.62553 159.420961 
L 99.263372 158.482967 
L 99.901215 157.05849 
L 100.751671 154.456948 
L 101.814742 150.214262 
L 103.090427 143.968621 
L 104.79134 134.362087 
L 110.531923 100.918014 
L 112.44545 91.431406 
L 114.358978 83.102698 
L 116.059891 76.637428 
L 117.760804 70.980855 
L 119.461717 66.046058 
L 121.162631 61.744284 
L 122.863544 57.9918 
L 124.777071 54.333084 
L 126.690599 51.180383 
L 128.604126 48.45414 
L 130.517654 46.087642 
L 132.643795 43.812818 
L 134.769937 41.85088 
L 137.108693 39.993377 
L 139.660063 38.264073 
L 142.424047 36.677002 
L 145.400645 35.238192 
L 148.589857 33.947532 
L 152.204298 32.735611 
L 156.243967 31.630482 
L 160.708864 30.648317 
L 165.811604 29.763689 
L 171.552187 29.001061 
L 178.143226 28.357104 
L 185.584721 27.858505 
L 193.876673 27.527741 
L 202.806468 27.393236 
L 211.948877 27.475944 
L 220.666058 27.772912 
L 228.532782 28.256046 
L 235.549049 28.90538 
L 241.714859 29.699522 
L 247.030213 30.606824 
L 251.707725 31.630482 
L 255.747394 32.735611 
L 259.361835 33.947532 
L 262.551047 35.238192 
L 265.527645 36.677002 
L 268.29163 38.264073 
L 270.842999 39.993377 
L 273.181755 41.85088 
L 275.307897 43.812818 
L 277.434038 46.087642 
L 279.347566 48.45414 
L 281.261093 51.180383 
L 283.174621 54.333084 
L 284.875534 57.557499 
L 286.576447 61.24682 
L 288.277361 65.475502 
L 289.978274 70.326373 
L 291.679187 75.88784 
L 293.3801 82.247605 
L 295.081014 89.480669 
L 296.994541 98.711237 
L 298.908069 109.052937 
L 301.672053 125.409183 
L 304.648651 142.832232 
L 306.13695 150.214262 
L 307.200021 154.456948 
L 308.050477 157.05849 
L 308.68832 158.482967 
L 309.326162 159.420961 
L 309.751391 159.765284 
L 310.176619 159.880446 
L 310.176619 159.880446 
" clip-path="url(#pdbe29de719)" style="fill: none; stroke: #000000; stroke-width: 2; stroke-linecap: square"/>
   </g>
   <g id="line2d_10">
    <path d="M 97.775073 21.080041 
L 310.176619 21.080041 
" clip-path="url(#pdbe29de719)" style="fill: none; stroke-dasharray: 5.55,2.4; stroke-dashoffset: 0; stroke: #808080; stroke-width: 1.5"/>
   </g>
   <g id="patch_3">
    <path d="M 97.775073 159.880446 
L 97.775073 7.2 
" style="fill: none; stroke: #000000; stroke-width: 0.8; stroke-linejoin: miter; stroke-linecap: square"/>
   </g>
   <g id="patch_4">
    <path d="M 97.775073 159.880446 
L 310.176619 159.880446 
" style="fill: none; stroke: #000000; stroke-width: 0.8; stroke-linejoin: miter; stroke-linecap: square"/>
   </g>
  </g>
 </g>
 <defs>
  <clipPath id="pdbe29de719">
   <rect x="97.775073" y="7.2" width="212.401546" height="152.680446"/>
  </clipPath>
 </defs>
</svg>
