<?xml version="1.0" encoding="utf-8" standalone="no"?>
<!DOCTYPE svg PUBLIC "-//W3C//DTD SVG 1.1//EN"
  "http://www.w3.org/Graphics/SVG/1.1/DTD/svg11.dtd">
<svg xmlns:xlink="http://www.w3.org/1999/xlink" width="568.8pt" height="424.8pt" viewBox="0 0 568.8 424.8" xmlns="http://www.w3.org/2000/svg" version="1.1">
 <metadata>
  <rdf:RDF xmlns:dc="http://purl.org/dc/elements/1.1/" xmlns:cc="http://creativecommons.org/ns#" xmlns:rdf="http://www.w3.org/1999/02/22-rdf-syntax-ns#">
   <cc:Work>
    <dc:type rdf:resource="http://purl.org/dc/dcmitype/StillImage"/>
    <dc:date>2025-07-01T14:22:59.695018</dc:date>
    <dc:format>image/svg+xml</dc:format>
    <dc:creator>
     <cc:Agent>
      <dc:title>Matplotlib v3.10.3, https://matplotlib.org/</dc:title>
     </cc:Agent>
    </dc:creator>
   </cc:Work>
  </rdf:RDF>
 </metadata>
 <defs>
  <style type="text/css">*{stroke-linejoin: round; stroke-linecap: butt}</style>
 </defs>
 <g id="figure_1">
  <g id="patch_1">
   <path d="M 0 424.8 
L 568.8 424.8 
L 568.8 0 
L 0 0 
z
" style="fill: #ffffff"/>
  </g>
  <g id="axes_1">
   <g id="patch_2">
    <path d="M 105.064981 333.831631 
L 554.746428 333.831631 
L 554.746428 17.84748 
L 105.064981 17.84748 
z
" style="fill: #ffffff"/>
   </g>
   <g id="PathCollection_1">
    <defs>
     <path id="C0_0_7e2c3283cd" d="M 0 3.535534 
C 0.937635 3.535534 1.836992 3.163008 2.5 2.5 
C 3.163008 1.836992 3.535534 0.937635 3.535534 -0 
C 3.535534 -0.937635 3.163008 -1.836992 2.5 -2.5 
C 1.836992 -3.163008 0.937635 -3.535534 0 -3.535534 
C -0.937635 -3.535534 -1.836992 -3.163008 -2.5 -2.5 
C -3.163008 -1.836992 -3.535534 -0.937635 -3.535534 0 
C -3.535534 0.937635 -3.163008 1.836992 -2.5 2.5 
C -1.836992 3.163008 -0.937635 3.535534 0 3.535534 
z
"/>
    </defs>
    <g clip-path="url(#p97013ddc2f)">
     <use xlink:href="#C0_0_7e2c3283cd" x="113.960094" y="289.988266" style="fill: #4c72b0; stroke: #ffffff; stroke-width: 0.565685"/>
    </g>
    <g clip-path="url(#p97013ddc2f)">
     <use xlink:href="#C0_0_7e2c3283cd" x="122.466682" y="184.973138" style="fill: #4c72b0; stroke: #ffffff; stroke-width: 0.565685"/>
    </g>
    <g clip-path="url(#p97013ddc2f)">
     <use xlink:href="#C0_0_7e2c3283cd" x="139.385945" y="73.086217" style="fill: #4c72b0; stroke: #ffffff; stroke-width: 0.565685"/>
    </g>
    <g clip-path="url(#p97013ddc2f)">
     <use xlink:href="#C0_0_7e2c3283cd" x="160.154188" y="106.79518" style="fill: #4c72b0; stroke: #ffffff; stroke-width: 0.565685"/>
    </g>
    <g clip-path="url(#p97013ddc2f)">
     <use xlink:href="#C0_0_7e2c3283cd" x="175.68952" y="153.095363" style="fill: #4c72b0; stroke: #ffffff; stroke-width: 0.565685"/>
    </g>
    <g clip-path="url(#p97013ddc2f)">
     <use xlink:href="#C0_0_7e2c3283cd" x="194.60076" y="158.62493" style="fill: #4c72b0; stroke: #ffffff; stroke-width: 0.565685"/>
    </g>
    <g clip-path="url(#p97013ddc2f)">
     <use xlink:href="#C0_0_7e2c3283cd" x="215.258776" y="164.928435" style="fill: #4c72b0; stroke: #ffffff; stroke-width: 0.565685"/>
    </g>
    <g clip-path="url(#p97013ddc2f)">
     <use xlink:href="#C0_0_7e2c3283cd" x="233.932744" y="164.435196" style="fill: #4c72b0; stroke: #ffffff; stroke-width: 0.565685"/>
    </g>
    <g clip-path="url(#p97013ddc2f)">
     <use xlink:href="#C0_0_7e2c3283cd" x="250.909094" y="164.434536" style="fill: #4c72b0; stroke: #ffffff; stroke-width: 0.565685"/>
    </g>
    <g clip-path="url(#p97013ddc2f)">
     <use xlink:href="#C0_0_7e2c3283cd" x="271.251423" y="167.527643" style="fill: #4c72b0; stroke: #ffffff; stroke-width: 0.565685"/>
    </g>
    <g clip-path="url(#p97013ddc2f)">
     <use xlink:href="#C0_0_7e2c3283cd" x="289.648411" y="166.484978" style="fill: #4c72b0; stroke: #ffffff; stroke-width: 0.565685"/>
    </g>
    <g clip-path="url(#p97013ddc2f)">
     <use xlink:href="#C0_0_7e2c3283cd" x="308.291616" y="167.674399" style="fill: #4c72b0; stroke: #ffffff; stroke-width: 0.565685"/>
    </g>
    <g clip-path="url(#p97013ddc2f)">
     <use xlink:href="#C0_0_7e2c3283cd" x="326.971703" y="168.570315" style="fill: #4c72b0; stroke: #ffffff; stroke-width: 0.565685"/>
    </g>
    <g clip-path="url(#p97013ddc2f)">
     <use xlink:href="#C0_0_7e2c3283cd" x="345.55013" y="167.652125" style="fill: #4c72b0; stroke: #ffffff; stroke-width: 0.565685"/>
    </g>
    <g clip-path="url(#p97013ddc2f)">
     <use xlink:href="#C0_0_7e2c3283cd" x="366.276923" y="167.591616" style="fill: #4c72b0; stroke: #ffffff; stroke-width: 0.565685"/>
    </g>
    <g clip-path="url(#p97013ddc2f)">
     <use xlink:href="#C0_0_7e2c3283cd" x="385.338493" y="167.360502" style="fill: #4c72b0; stroke: #ffffff; stroke-width: 0.565685"/>
    </g>
    <g clip-path="url(#p97013ddc2f)">
     <use xlink:href="#C0_0_7e2c3283cd" x="401.619336" y="166.33627" style="fill: #4c72b0; stroke: #ffffff; stroke-width: 0.565685"/>
    </g>
    <g clip-path="url(#p97013ddc2f)">
     <use xlink:href="#C0_0_7e2c3283cd" x="420.480667" y="167.587304" style="fill: #4c72b0; stroke: #ffffff; stroke-width: 0.565685"/>
    </g>
    <g clip-path="url(#p97013ddc2f)">
     <use xlink:href="#C0_0_7e2c3283cd" x="442.277959" y="164.862203" style="fill: #4c72b0; stroke: #ffffff; stroke-width: 0.565685"/>
    </g>
    <g clip-path="url(#p97013ddc2f)">
     <use xlink:href="#C0_0_7e2c3283cd" x="457.968773" y="165.374714" style="fill: #4c72b0; stroke: #ffffff; stroke-width: 0.565685"/>
    </g>
    <g clip-path="url(#p97013ddc2f)">
     <use xlink:href="#C0_0_7e2c3283cd" x="476.743514" y="154.890153" style="fill: #4c72b0; stroke: #ffffff; stroke-width: 0.565685"/>
    </g>
    <g clip-path="url(#p97013ddc2f)">
     <use xlink:href="#C0_0_7e2c3283cd" x="495.815239" y="121.196698" style="fill: #4c72b0; stroke: #ffffff; stroke-width: 0.565685"/>
    </g>
    <g clip-path="url(#p97013ddc2f)">
     <use xlink:href="#C0_0_7e2c3283cd" x="516.311342" y="71.24451" style="fill: #4c72b0; stroke: #ffffff; stroke-width: 0.565685"/>
    </g>
    <g clip-path="url(#p97013ddc2f)">
     <use xlink:href="#C0_0_7e2c3283cd" x="532.484102" y="147.90415" style="fill: #4c72b0; stroke: #ffffff; stroke-width: 0.565685"/>
    </g>
    <g clip-path="url(#p97013ddc2f)">
     <use xlink:href="#C0_0_7e2c3283cd" x="545.599849" y="285.980541" style="fill: #4c72b0; stroke: #ffffff; stroke-width: 0.565685"/>
    </g>
    <g clip-path="url(#p97013ddc2f)">
     <use xlink:href="#C0_0_7e2c3283cd" x="113.960094" y="219.843697" style="fill: #dd8452; stroke: #ffffff; stroke-width: 0.565685"/>
    </g>
    <g clip-path="url(#p97013ddc2f)">
     <use xlink:href="#C0_0_7e2c3283cd" x="122.466682" y="79.349063" style="fill: #dd8452; stroke: #ffffff; stroke-width: 0.565685"/>
    </g>
    <g clip-path="url(#p97013ddc2f)">
     <use xlink:href="#C0_0_7e2c3283cd" x="139.385945" y="129.149245" style="fill: #dd8452; stroke: #ffffff; stroke-width: 0.565685"/>
    </g>
    <g clip-path="url(#p97013ddc2f)">
     <use xlink:href="#C0_0_7e2c3283cd" x="160.154188" y="161.1561" style="fill: #dd8452; stroke: #ffffff; stroke-width: 0.565685"/>
    </g>
    <g clip-path="url(#p97013ddc2f)">
     <use xlink:href="#C0_0_7e2c3283cd" x="175.68952" y="168.99286" style="fill: #dd8452; stroke: #ffffff; stroke-width: 0.565685"/>
    </g>
    <g clip-path="url(#p97013ddc2f)">
     <use xlink:href="#C0_0_7e2c3283cd" x="194.60076" y="158.56517" style="fill: #dd8452; stroke: #ffffff; stroke-width: 0.565685"/>
    </g>
    <g clip-path="url(#p97013ddc2f)">
     <use xlink:href="#C0_0_7e2c3283cd" x="215.258776" y="164.887544" style="fill: #dd8452; stroke: #ffffff; stroke-width: 0.565685"/>
    </g>
    <g clip-path="url(#p97013ddc2f)">
     <use xlink:href="#C0_0_7e2c3283cd" x="233.932744" y="166.382458" style="fill: #dd8452; stroke: #ffffff; stroke-width: 0.565685"/>
    </g>
    <g clip-path="url(#p97013ddc2f)">
     <use xlink:href="#C0_0_7e2c3283cd" x="250.909094" y="162.943537" style="fill: #dd8452; stroke: #ffffff; stroke-width: 0.565685"/>
    </g>
    <g clip-path="url(#p97013ddc2f)">
     <use xlink:href="#C0_0_7e2c3283cd" x="271.251423" y="164.395423" style="fill: #dd8452; stroke: #ffffff; stroke-width: 0.565685"/>
    </g>
    <g clip-path="url(#p97013ddc2f)">
     <use xlink:href="#C0_0_7e2c3283cd" x="289.648411" y="166.132642" style="fill: #dd8452; stroke: #ffffff; stroke-width: 0.565685"/>
    </g>
    <g clip-path="url(#p97013ddc2f)">
     <use xlink:href="#C0_0_7e2c3283cd" x="308.291616" y="167.652779" style="fill: #dd8452; stroke: #ffffff; stroke-width: 0.565685"/>
    </g>
    <g clip-path="url(#p97013ddc2f)">
     <use xlink:href="#C0_0_7e2c3283cd" x="326.971703" y="168.898613" style="fill: #dd8452; stroke: #ffffff; stroke-width: 0.565685"/>
    </g>
    <g clip-path="url(#p97013ddc2f)">
     <use xlink:href="#C0_0_7e2c3283cd" x="345.55013" y="165.823637" style="fill: #dd8452; stroke: #ffffff; stroke-width: 0.565685"/>
    </g>
    <g clip-path="url(#p97013ddc2f)">
     <use xlink:href="#C0_0_7e2c3283cd" x="366.276923" y="165.909555" style="fill: #dd8452; stroke: #ffffff; stroke-width: 0.565685"/>
    </g>
    <g clip-path="url(#p97013ddc2f)">
     <use xlink:href="#C0_0_7e2c3283cd" x="385.338493" y="165.846822" style="fill: #dd8452; stroke: #ffffff; stroke-width: 0.565685"/>
    </g>
    <g clip-path="url(#p97013ddc2f)">
     <use xlink:href="#C0_0_7e2c3283cd" x="401.619336" y="164.772964" style="fill: #dd8452; stroke: #ffffff; stroke-width: 0.565685"/>
    </g>
    <g clip-path="url(#p97013ddc2f)">
     <use xlink:href="#C0_0_7e2c3283cd" x="420.480667" y="168.96659" style="fill: #dd8452; stroke: #ffffff; stroke-width: 0.565685"/>
    </g>
    <g clip-path="url(#p97013ddc2f)">
     <use xlink:href="#C0_0_7e2c3283cd" x="442.277959" y="165.254419" style="fill: #dd8452; stroke: #ffffff; stroke-width: 0.565685"/>
    </g>
    <g clip-path="url(#p97013ddc2f)">
     <use xlink:href="#C0_0_7e2c3283cd" x="457.968773" y="170.779726" style="fill: #dd8452; stroke: #ffffff; stroke-width: 0.565685"/>
    </g>
    <g clip-path="url(#p97013ddc2f)">
     <use xlink:href="#C0_0_7e2c3283cd" x="476.743514" y="168.443255" style="fill: #dd8452; stroke: #ffffff; stroke-width: 0.565685"/>
    </g>
    <g clip-path="url(#p97013ddc2f)">
     <use xlink:href="#C0_0_7e2c3283cd" x="495.815239" y="163.691773" style="fill: #dd8452; stroke: #ffffff; stroke-width: 0.565685"/>
    </g>
    <g clip-path="url(#p97013ddc2f)">
     <use xlink:href="#C0_0_7e2c3283cd" x="516.311342" y="143.655716" style="fill: #dd8452; stroke: #ffffff; stroke-width: 0.565685"/>
    </g>
    <g clip-path="url(#p97013ddc2f)">
     <use xlink:href="#C0_0_7e2c3283cd" x="532.484102" y="69.539651" style="fill: #dd8452; stroke: #ffffff; stroke-width: 0.565685"/>
    </g>
    <g clip-path="url(#p97013ddc2f)">
     <use xlink:href="#C0_0_7e2c3283cd" x="545.599849" y="211.522261" style="fill: #dd8452; stroke: #ffffff; stroke-width: 0.565685"/>
    </g>
    <g clip-path="url(#p97013ddc2f)">
     <use xlink:href="#C0_0_7e2c3283cd" x="113.960094" y="168.756271" style="fill: #55a868; stroke: #ffffff; stroke-width: 0.565685"/>
    </g>
    <g clip-path="url(#p97013ddc2f)">
     <use xlink:href="#C0_0_7e2c3283cd" x="122.466682" y="69.770827" style="fill: #55a868; stroke: #ffffff; stroke-width: 0.565685"/>
    </g>
    <g clip-path="url(#p97013ddc2f)">
     <use xlink:href="#C0_0_7e2c3283cd" x="139.385945" y="153.348392" style="fill: #55a868; stroke: #ffffff; stroke-width: 0.565685"/>
    </g>
    <g clip-path="url(#p97013ddc2f)">
     <use xlink:href="#C0_0_7e2c3283cd" x="160.154188" y="162.770751" style="fill: #55a868; stroke: #ffffff; stroke-width: 0.565685"/>
    </g>
    <g clip-path="url(#p97013ddc2f)">
     <use xlink:href="#C0_0_7e2c3283cd" x="175.68952" y="165.045204" style="fill: #55a868; stroke: #ffffff; stroke-width: 0.565685"/>
    </g>
    <g clip-path="url(#p97013ddc2f)">
     <use xlink:href="#C0_0_7e2c3283cd" x="194.60076" y="154.017742" style="fill: #55a868; stroke: #ffffff; stroke-width: 0.565685"/>
    </g>
    <g clip-path="url(#p97013ddc2f)">
     <use xlink:href="#C0_0_7e2c3283cd" x="215.258776" y="161.447225" style="fill: #55a868; stroke: #ffffff; stroke-width: 0.565685"/>
    </g>
    <g clip-path="url(#p97013ddc2f)">
     <use xlink:href="#C0_0_7e2c3283cd" x="233.932744" y="158.855709" style="fill: #55a868; stroke: #ffffff; stroke-width: 0.565685"/>
    </g>
    <g clip-path="url(#p97013ddc2f)">
     <use xlink:href="#C0_0_7e2c3283cd" x="250.909094" y="156.772532" style="fill: #55a868; stroke: #ffffff; stroke-width: 0.565685"/>
    </g>
    <g clip-path="url(#p97013ddc2f)">
     <use xlink:href="#C0_0_7e2c3283cd" x="271.251423" y="161.37295" style="fill: #55a868; stroke: #ffffff; stroke-width: 0.565685"/>
    </g>
    <g clip-path="url(#p97013ddc2f)">
     <use xlink:href="#C0_0_7e2c3283cd" x="289.648411" y="162.964945" style="fill: #55a868; stroke: #ffffff; stroke-width: 0.565685"/>
    </g>
    <g clip-path="url(#p97013ddc2f)">
     <use xlink:href="#C0_0_7e2c3283cd" x="308.291616" y="164.377895" style="fill: #55a868; stroke: #ffffff; stroke-width: 0.565685"/>
    </g>
    <g clip-path="url(#p97013ddc2f)">
     <use xlink:href="#C0_0_7e2c3283cd" x="326.971703" y="167.545731" style="fill: #55a868; stroke: #ffffff; stroke-width: 0.565685"/>
    </g>
    <g clip-path="url(#p97013ddc2f)">
     <use xlink:href="#C0_0_7e2c3283cd" x="345.55013" y="164.797572" style="fill: #55a868; stroke: #ffffff; stroke-width: 0.565685"/>
    </g>
    <g clip-path="url(#p97013ddc2f)">
     <use xlink:href="#C0_0_7e2c3283cd" x="366.276923" y="162.130293" style="fill: #55a868; stroke: #ffffff; stroke-width: 0.565685"/>
    </g>
    <g clip-path="url(#p97013ddc2f)">
     <use xlink:href="#C0_0_7e2c3283cd" x="385.338493" y="166.664826" style="fill: #55a868; stroke: #ffffff; stroke-width: 0.565685"/>
    </g>
    <g clip-path="url(#p97013ddc2f)">
     <use xlink:href="#C0_0_7e2c3283cd" x="401.619336" y="162.765203" style="fill: #55a868; stroke: #ffffff; stroke-width: 0.565685"/>
    </g>
    <g clip-path="url(#p97013ddc2f)">
     <use xlink:href="#C0_0_7e2c3283cd" x="420.480667" y="167.435408" style="fill: #55a868; stroke: #ffffff; stroke-width: 0.565685"/>
    </g>
    <g clip-path="url(#p97013ddc2f)">
     <use xlink:href="#C0_0_7e2c3283cd" x="442.277959" y="163.517294" style="fill: #55a868; stroke: #ffffff; stroke-width: 0.565685"/>
    </g>
    <g clip-path="url(#p97013ddc2f)">
     <use xlink:href="#C0_0_7e2c3283cd" x="457.968773" y="165.41014" style="fill: #55a868; stroke: #ffffff; stroke-width: 0.565685"/>
    </g>
    <g clip-path="url(#p97013ddc2f)">
     <use xlink:href="#C0_0_7e2c3283cd" x="476.743514" y="167.065279" style="fill: #55a868; stroke: #ffffff; stroke-width: 0.565685"/>
    </g>
    <g clip-path="url(#p97013ddc2f)">
     <use xlink:href="#C0_0_7e2c3283cd" x="495.815239" y="161.765101" style="fill: #55a868; stroke: #ffffff; stroke-width: 0.565685"/>
    </g>
    <g clip-path="url(#p97013ddc2f)">
     <use xlink:href="#C0_0_7e2c3283cd" x="516.311342" y="157.329863" style="fill: #55a868; stroke: #ffffff; stroke-width: 0.565685"/>
    </g>
    <g clip-path="url(#p97013ddc2f)">
     <use xlink:href="#C0_0_7e2c3283cd" x="532.484102" y="86.014106" style="fill: #55a868; stroke: #ffffff; stroke-width: 0.565685"/>
    </g>
    <g clip-path="url(#p97013ddc2f)">
     <use xlink:href="#C0_0_7e2c3283cd" x="545.599849" y="158.878907" style="fill: #55a868; stroke: #ffffff; stroke-width: 0.565685"/>
    </g>
   </g>
   <g id="FillBetweenPolyCollection_1"/>
   <g id="FillBetweenPolyCollection_2"/>
   <g id="FillBetweenPolyCollection_3"/>
   <g id="matplotlib.axis_1">
    <g id="xtick_1">
     <g id="line2d_1">
      <defs>
       <path id="mbe346a5758" d="M 0 0 
L 0 3.5 
" style="stroke: #000000; stroke-width: 0.8"/>
      </defs>
      <g>
       <use xlink:href="#mbe346a5758" x="105.064981" y="333.831631" style="stroke: #000000; stroke-width: 0.8"/>
      </g>
     </g>
     <g id="text_1">
      <!-- $0$ -->
      <g transform="translate(98.21141 362.126592) scale(0.3 -0.3)">
       <defs>
        <path id="CMR17-30" d="M 2688 2025 
C 2688 2416 2682 3080 2413 3591 
C 2176 4039 1798 4198 1466 4198 
C 1158 4198 768 4058 525 3597 
C 269 3118 243 2524 243 2025 
C 243 1661 250 1106 448 619 
C 723 -39 1216 -128 1466 -128 
C 1760 -128 2208 -7 2470 600 
C 2662 1042 2688 1559 2688 2025 
z
M 1466 -26 
C 1056 -26 813 325 723 812 
C 653 1188 653 1738 653 2096 
C 653 2588 653 2997 736 3387 
C 858 3929 1216 4096 1466 4096 
C 1728 4096 2067 3923 2189 3400 
C 2272 3036 2278 2607 2278 2096 
C 2278 1680 2278 1169 2202 792 
C 2067 95 1690 -26 1466 -26 
z
" transform="scale(0.015625)"/>
       </defs>
       <use xlink:href="#CMR17-30" transform="scale(0.996264)"/>
      </g>
     </g>
    </g>
    <g id="xtick_2">
     <g id="line2d_2">
      <g>
       <use xlink:href="#mbe346a5758" x="217.485343" y="333.831631" style="stroke: #000000; stroke-width: 0.8"/>
      </g>
     </g>
    </g>
    <g id="xtick_3">
     <g id="line2d_3">
      <g>
       <use xlink:href="#mbe346a5758" x="329.905705" y="333.831631" style="stroke: #000000; stroke-width: 0.8"/>
      </g>
     </g>
     <g id="text_2">
      <!-- $1/2$ -->
      <g transform="translate(308.882324 363.247572) scale(0.3 -0.3)">
       <defs>
        <path id="CMR17-31" d="M 1702 4058 
C 1702 4192 1696 4192 1606 4192 
C 1357 3916 979 3827 621 3827 
C 602 3827 570 3827 563 3808 
C 557 3795 557 3782 557 3648 
C 755 3648 1088 3686 1344 3839 
L 1344 461 
C 1344 236 1331 160 781 160 
L 589 160 
L 589 0 
C 896 0 1216 0 1523 0 
C 1830 0 2150 0 2458 0 
L 2458 160 
L 2266 160 
C 1715 160 1702 230 1702 458 
L 1702 4058 
z
" transform="scale(0.015625)"/>
        <path id="CMMI12-3d" d="M 2746 4562 
C 2746 4569 2784 4666 2784 4678 
C 2784 4755 2720 4800 2669 4800 
C 2637 4800 2579 4800 2528 4659 
L 384 -1363 
C 384 -1370 346 -1465 346 -1478 
C 346 -1555 410 -1600 461 -1600 
C 499 -1600 557 -1593 602 -1459 
L 2746 4562 
z
" transform="scale(0.015625)"/>
        <path id="CMR17-32" d="M 2669 989 
L 2554 989 
C 2490 536 2438 459 2413 420 
C 2381 369 1920 369 1830 369 
L 602 369 
C 832 619 1280 1072 1824 1597 
C 2214 1967 2669 2402 2669 3035 
C 2669 3790 2067 4224 1395 4224 
C 691 4224 262 3604 262 3030 
C 262 2780 448 2748 525 2748 
C 589 2748 781 2787 781 3010 
C 781 3207 614 3264 525 3264 
C 486 3264 448 3258 422 3245 
C 544 3790 915 4058 1306 4058 
C 1862 4058 2227 3617 2227 3035 
C 2227 2479 1901 2000 1536 1584 
L 262 146 
L 262 0 
L 2515 0 
L 2669 989 
z
" transform="scale(0.015625)"/>
       </defs>
       <use xlink:href="#CMR17-31" transform="scale(0.996264)"/>
       <use xlink:href="#CMMI12-3d" transform="translate(45.690477 0) scale(0.996264)"/>
       <use xlink:href="#CMR17-32" transform="translate(94.465396 0) scale(0.996264)"/>
      </g>
     </g>
    </g>
    <g id="xtick_4">
     <g id="line2d_4">
      <g>
       <use xlink:href="#mbe346a5758" x="442.326067" y="333.831631" style="stroke: #000000; stroke-width: 0.8"/>
      </g>
     </g>
    </g>
    <g id="xtick_5">
     <g id="line2d_5">
      <g>
       <use xlink:href="#mbe346a5758" x="554.746428" y="333.831631" style="stroke: #000000; stroke-width: 0.8"/>
      </g>
     </g>
     <g id="text_3">
      <!-- $1$ -->
      <g transform="translate(547.892857 362.126592) scale(0.3 -0.3)">
       <use xlink:href="#CMR17-31" transform="scale(0.996264)"/>
      </g>
     </g>
    </g>
    <g id="text_4">
     <!-- $\theta / \pi$ -->
     <g transform="translate(305.540835 409.629888) scale(0.32 -0.32)">
      <defs>
       <path id="CMMI12-12" d="M 2835 3200 
C 2835 3850 2630 4480 2106 4480 
C 1210 4480 256 2615 256 1216 
C 256 923 320 -64 992 -64 
C 1862 -64 2835 1756 2835 3200 
z
M 896 2304 
C 992 2679 1126 3214 1382 3665 
C 1594 4047 1818 4352 2099 4352 
C 2310 4352 2451 4174 2451 3564 
C 2451 3334 2432 3017 2246 2304 
L 896 2304 
z
M 2202 2113 
C 2042 1490 1907 1088 1677 687 
C 1491 363 1267 64 998 64 
C 800 64 640 217 640 846 
C 640 1260 742 1693 845 2113 
L 2202 2113 
z
" transform="scale(0.015625)"/>
       <path id="CMMI12-19" d="M 1658 2408 
L 2381 2408 
C 2208 1692 2099 1226 2099 716 
C 2099 626 2099 -64 2362 -64 
C 2496 -64 2611 57 2611 166 
C 2611 197 2611 210 2566 306 
C 2394 747 2394 1296 2394 1341 
C 2394 1379 2394 1832 2528 2408 
L 3245 2408 
C 3328 2408 3539 2408 3539 2612 
C 3539 2752 3418 2752 3302 2752 
L 1197 2752 
C 1050 2752 832 2752 538 2440 
C 371 2254 166 1916 166 1878 
C 166 1840 198 1827 237 1827 
C 282 1827 288 1846 320 1884 
C 653 2408 986 2408 1146 2408 
L 1510 2408 
C 1370 1929 1210 1373 685 256 
C 634 154 634 140 634 102 
C 634 -32 749 -64 806 -64 
C 992 -64 1043 102 1120 370 
C 1222 696 1222 709 1286 964 
L 1658 2408 
z
" transform="scale(0.015625)"/>
      </defs>
      <use xlink:href="#CMMI12-12" transform="scale(0.996264)"/>
      <use xlink:href="#CMMI12-3d" transform="translate(48.169508 0) scale(0.996264)"/>
      <use xlink:href="#CMMI12-19" transform="translate(96.944427 0) scale(0.996264)"/>
     </g>
    </g>
   </g>
   <g id="matplotlib.axis_2">
    <g id="ytick_1">
     <g id="line2d_6">
      <defs>
       <path id="mdbc11e939f" d="M 0 0 
L -3.5 0 
" style="stroke: #000000; stroke-width: 0.8"/>
      </defs>
      <g>
       <use xlink:href="#mdbc11e939f" x="105.064981" y="333.831631" style="stroke: #000000; stroke-width: 0.8"/>
      </g>
     </g>
     <g id="text_5">
      <!-- $0.0$ -->
      <g transform="translate(62.521542 344.479112) scale(0.3 -0.3)">
       <defs>
        <path id="CMMI12-3a" d="M 1178 307 
C 1178 492 1024 619 870 619 
C 685 619 557 466 557 313 
C 557 128 710 0 864 0 
C 1050 0 1178 153 1178 307 
z
" transform="scale(0.015625)"/>
       </defs>
       <use xlink:href="#CMR17-30" transform="scale(0.996264)"/>
       <use xlink:href="#CMMI12-3a" transform="translate(45.690477 0) scale(0.996264)"/>
       <use xlink:href="#CMR17-30" transform="translate(72.787654 0) scale(0.996264)"/>
      </g>
     </g>
    </g>
    <g id="ytick_2">
     <g id="line2d_7">
      <g>
       <use xlink:href="#mdbc11e939f" x="105.064981" y="254.835594" style="stroke: #000000; stroke-width: 0.8"/>
      </g>
     </g>
     <g id="text_6">
      <!-- $0.5$ -->
      <g transform="translate(62.521542 265.483074) scale(0.3 -0.3)">
       <defs>
        <path id="CMR17-35" d="M 730 3692 
C 794 3666 1056 3584 1325 3584 
C 1920 3584 2246 3911 2432 4100 
C 2432 4157 2432 4192 2394 4192 
C 2387 4192 2374 4192 2323 4163 
C 2099 4058 1837 3973 1517 3973 
C 1325 3973 1037 3999 723 4139 
C 653 4171 640 4171 634 4171 
C 602 4171 595 4164 595 4037 
L 595 2203 
C 595 2089 595 2057 659 2057 
C 691 2057 704 2070 736 2114 
C 941 2401 1222 2522 1542 2522 
C 1766 2522 2246 2382 2246 1289 
C 2246 1085 2246 715 2054 421 
C 1894 159 1645 25 1370 25 
C 947 25 518 320 403 814 
C 429 807 480 795 506 795 
C 589 795 749 840 749 1038 
C 749 1210 627 1280 506 1280 
C 358 1280 262 1190 262 1011 
C 262 454 704 -128 1382 -128 
C 2042 -128 2669 440 2669 1264 
C 2669 2030 2170 2624 1549 2624 
C 1222 2624 947 2503 730 2274 
L 730 3692 
z
" transform="scale(0.015625)"/>
       </defs>
       <use xlink:href="#CMR17-30" transform="scale(0.996264)"/>
       <use xlink:href="#CMMI12-3a" transform="translate(45.690477 0) scale(0.996264)"/>
       <use xlink:href="#CMR17-35" transform="translate(72.787654 0) scale(0.996264)"/>
      </g>
     </g>
    </g>
    <g id="ytick_3">
     <g id="line2d_8">
      <g>
       <use xlink:href="#mdbc11e939f" x="105.064981" y="175.839556" style="stroke: #000000; stroke-width: 0.8"/>
      </g>
     </g>
     <g id="text_7">
      <!-- $1.0$ -->
      <g transform="translate(62.521542 186.487036) scale(0.3 -0.3)">
       <use xlink:href="#CMR17-31" transform="scale(0.996264)"/>
       <use xlink:href="#CMMI12-3a" transform="translate(45.690477 0) scale(0.996264)"/>
       <use xlink:href="#CMR17-30" transform="translate(72.787654 0) scale(0.996264)"/>
      </g>
     </g>
    </g>
    <g id="ytick_4">
     <g id="line2d_9">
      <g>
       <use xlink:href="#mdbc11e939f" x="105.064981" y="96.843518" style="stroke: #000000; stroke-width: 0.8"/>
      </g>
     </g>
     <g id="text_8">
      <!-- $1.5$ -->
      <g transform="translate(62.521542 107.490999) scale(0.3 -0.3)">
       <use xlink:href="#CMR17-31" transform="scale(0.996264)"/>
       <use xlink:href="#CMMI12-3a" transform="translate(45.690477 0) scale(0.996264)"/>
       <use xlink:href="#CMR17-35" transform="translate(72.787654 0) scale(0.996264)"/>
      </g>
     </g>
    </g>
    <g id="ytick_5">
     <g id="line2d_10">
      <g>
       <use xlink:href="#mdbc11e939f" x="105.064981" y="17.84748" style="stroke: #000000; stroke-width: 0.8"/>
      </g>
     </g>
     <g id="text_9">
      <!-- $2.0$ -->
      <g transform="translate(62.521542 28.494961) scale(0.3 -0.3)">
       <use xlink:href="#CMR17-32" transform="scale(0.996264)"/>
       <use xlink:href="#CMMI12-3a" transform="translate(45.690477 0) scale(0.996264)"/>
       <use xlink:href="#CMR17-30" transform="translate(72.787654 0) scale(0.996264)"/>
      </g>
     </g>
    </g>
    <g id="text_10">
     <!-- $\frac{1}{NF}\; \mathrm{Var} (\tilde{\theta})$ -->
     <g transform="translate(36.527856 241.124317) rotate(-90) scale(0.32 -0.32)">
      <defs>
       <path id="CMMI12-4e" d="M 4736 3698 
C 4806 3974 4909 4166 5395 4166 
C 5414 4166 5491 4166 5491 4279 
C 5491 4352 5434 4352 5408 4352 
C 5280 4352 4954 4352 4826 4352 
L 4518 4352 
C 4429 4352 4314 4352 4224 4352 
C 4186 4352 4109 4352 4109 4230 
C 4109 4166 4160 4166 4205 4166 
C 4589 4166 4614 4019 4614 3903 
C 4614 3846 4608 3826 4589 3737 
L 3866 850 
L 2496 4249 
C 2451 4352 2445 4352 2304 4352 
L 1523 4352 
C 1395 4352 1338 4352 1338 4230 
C 1338 4166 1382 4166 1504 4166 
C 1536 4166 1914 4166 1914 4115 
C 1914 4102 1901 4051 1894 4032 
L 1043 635 
C 966 320 813 186 390 186 
C 358 186 294 186 294 67 
C 294 0 358 0 378 0 
C 506 0 832 0 960 0 
L 1267 0 
C 1357 0 1466 0 1555 0 
C 1600 0 1670 0 1670 122 
C 1670 180 1606 186 1581 186 
C 1370 186 1165 224 1165 454 
C 1165 505 1178 562 1190 613 
L 2054 4032 
C 2093 3968 2093 3956 2118 3898 
L 3642 115 
C 3674 38 3686 0 3744 0 
C 3808 0 3814 19 3840 128 
L 4736 3698 
z
" transform="scale(0.015625)"/>
       <path id="CMMI12-46" d="M 1901 2055 
L 2515 2055 
C 3002 2055 3040 1946 3040 1761 
C 3040 1678 3027 1589 2995 1448 
C 2982 1423 2976 1391 2976 1378 
C 2976 1333 3002 1308 3046 1308 
C 3098 1308 3104 1333 3130 1435 
L 3501 2935 
C 3501 2961 3482 2999 3437 2999 
C 3379 2999 3373 2974 3347 2863 
C 3213 2376 3085 2240 2528 2240 
L 1946 2240 
L 2362 3926 
C 2419 4154 2432 4154 2694 4154 
L 3552 4154 
C 4352 4154 4467 3918 4467 3464 
C 4467 3426 4467 3285 4448 3119 
C 4442 3094 4429 3011 4429 2985 
C 4429 2934 4461 2915 4499 2915 
C 4544 2915 4570 2941 4582 3055 
L 4717 4174 
C 4717 4195 4730 4263 4730 4277 
C 4730 4352 4672 4352 4557 4352 
L 1523 4352 
C 1402 4352 1338 4352 1338 4229 
C 1338 4154 1382 4154 1491 4154 
C 1888 4154 1888 4113 1888 4050 
C 1888 4018 1882 3992 1862 3922 
L 998 473 
C 941 249 928 185 480 185 
C 358 185 294 185 294 70 
C 294 0 352 0 390 0 
C 512 0 640 0 762 0 
L 1594 0 
C 1734 0 1888 0 2029 0 
C 2086 0 2163 0 2163 115 
C 2163 185 2125 185 1984 185 
C 1478 185 1466 229 1466 324 
C 1466 356 1478 406 1491 449 
L 1901 2055 
z
" transform="scale(0.015625)"/>
       <path id="CMR17-56" d="M 3776 3745 
C 3834 3886 3936 4160 4365 4160 
L 4365 4332 
C 4218 4319 4051 4319 3891 4319 
C 3738 4319 3475 4319 3328 4332 
L 3328 4160 
C 3648 4160 3661 3936 3661 3898 
C 3661 3827 3642 3783 3622 3732 
L 2362 446 
L 1043 3886 
C 1024 3931 1011 3963 1011 3994 
C 1011 4160 1267 4160 1402 4160 
L 1402 4319 
C 1197 4319 896 4319 685 4319 
C 518 4319 218 4319 64 4332 
L 64 4160 
C 435 4160 506 4135 582 3931 
L 2106 -26 
C 2138 -115 2144 -128 2214 -128 
C 2285 -128 2291 -115 2323 -26 
L 3776 3745 
z
" transform="scale(0.015625)"/>
       <path id="CMR17-61" d="M 2304 1653 
C 2304 2072 2304 2294 2035 2543 
C 1798 2752 1523 2816 1306 2816 
C 800 2816 435 2407 435 1971 
C 435 1728 627 1728 666 1728 
C 749 1728 896 1778 896 1954 
C 896 2112 774 2181 666 2181 
C 640 2181 608 2174 589 2168 
C 723 2592 1069 2714 1293 2714 
C 1613 2714 1965 2429 1965 1885 
L 1965 1600 
C 1587 1600 1133 1549 774 1357 
C 371 1133 256 813 256 570 
C 256 77 832 -64 1171 -64 
C 1523 -64 1850 139 1990 511 
C 2003 233 2182 -18 2464 -18 
C 2598 -18 2938 70 2938 567 
L 2938 920 
L 2822 920 
L 2822 562 
C 2822 178 2650 128 2566 128 
C 2304 128 2304 458 2304 738 
L 2304 1653 
z
M 1965 870 
C 1965 317 1568 38 1216 38 
C 896 38 646 275 646 570 
C 646 761 730 1100 1101 1305 
C 1408 1478 1760 1504 1965 1504 
L 1965 870 
z
" transform="scale(0.015625)"/>
       <path id="CMR17-72" d="M 960 1497 
C 960 2112 1222 2688 1702 2688 
C 1747 2688 1792 2682 1837 2662 
C 1837 2662 1696 2617 1696 2452 
C 1696 2298 1818 2234 1914 2234 
C 1990 2234 2131 2279 2131 2458 
C 2131 2663 1926 2790 1709 2790 
C 1222 2790 1011 2317 947 2093 
L 941 2093 
L 941 2790 
L 198 2720 
L 198 2554 
C 576 2554 634 2515 634 2208 
L 634 428 
C 634 184 608 153 198 153 
L 198 -13 
C 352 0 646 0 813 0 
C 998 0 1325 0 1498 -13 
L 1498 153 
C 1037 153 960 153 960 440 
L 960 1497 
z
" transform="scale(0.015625)"/>
       <path id="CMR17-28" d="M 1958 -1561 
C 1958 -1555 1958 -1542 1939 -1523 
C 1645 -1224 858 -407 858 1581 
C 858 3569 1632 4379 1946 4697 
C 1946 4704 1958 4717 1958 4736 
C 1958 4755 1939 4768 1914 4768 
C 1843 4768 1299 4296 986 3594 
C 666 2887 576 2199 576 1588 
C 576 1128 621 351 1005 -471 
C 1312 -1135 1837 -1600 1914 -1600 
C 1946 -1600 1958 -1587 1958 -1561 
z
" transform="scale(0.015625)"/>
       <path id="CMR17-7e" d="M 2400 4184 
C 2182 3980 2061 3865 1862 3865 
C 1722 3865 1626 3932 1491 4024 
C 1363 4111 1261 4184 1120 4184 
C 890 4184 730 4004 461 3718 
L 531 3648 
C 749 3850 870 3968 1069 3968 
C 1210 3968 1306 3900 1440 3808 
C 1568 3722 1670 3648 1811 3648 
C 2042 3648 2202 3828 2470 4114 
L 2400 4184 
z
" transform="scale(0.015625)"/>
       <path id="CMR17-29" d="M 1683 1581 
C 1683 2040 1638 2817 1254 3639 
C 947 4303 422 4768 346 4768 
C 326 4768 301 4761 301 4729 
C 301 4717 307 4710 314 4697 
C 621 4378 1402 3568 1402 1584 
C 1402 -407 627 -1217 314 -1537 
C 307 -1549 301 -1556 301 -1568 
C 301 -1600 326 -1600 346 -1600 
C 416 -1600 960 -1128 1274 -426 
C 1594 281 1683 969 1683 1581 
z
" transform="scale(0.015625)"/>
      </defs>
      <use xlink:href="#CMR17-31" transform="translate(41.834651 39.226102) scale(0.697382)"/>
      <use xlink:href="#CMMI12-4e" transform="translate(0 -34.355253) scale(0.697382)"/>
      <use xlink:href="#CMMI12-46" transform="translate(61.964973 -34.355253) scale(0.697382)"/>
      <use xlink:href="#CMR17-56" transform="translate(144.522007 0) scale(0.996264)"/>
      <use xlink:href="#CMR17-61" transform="translate(205.787182 0) scale(0.996264)"/>
      <use xlink:href="#CMR17-72" transform="translate(251.477659 0) scale(0.996264)"/>
      <use xlink:href="#CMR17-28" transform="translate(286.758427 0) scale(0.996264)"/>
      <use xlink:href="#CMR17-7e" transform="translate(331.407871 26.296621) scale(0.996264)"/>
      <use xlink:href="#CMMI12-12" transform="translate(322.039194 0) scale(0.996264)"/>
      <use xlink:href="#CMR17-29" transform="translate(370.208702 0) scale(0.996264)"/>
      <path d="M 0 22.914133 
L 115.652485 22.914133 
L 115.652485 26.899083 
L 0 26.899083 
L 0 22.914133 
z
"/>
     </g>
    </g>
   </g>
   <g id="line2d_11">
    <path d="M 105.064981 333.831631 
L 105.964344 333.330952 
L 106.863707 331.833649 
L 107.76307 329.353868 
L 108.662433 325.914965 
L 109.561796 321.549192 
L 110.461159 316.297248 
L 111.360522 310.207736 
L 113.159247 295.745887 
L 114.957973 278.683439 
L 116.756699 259.616576 
L 120.354151 218.055466 
L 123.951602 176.212145 
L 126.649691 147.405347 
L 128.448417 130.276793 
L 130.247142 115.186483 
L 132.045868 102.344652 
L 133.844594 91.862856 
L 134.743957 87.516462 
L 135.64332 83.760846 
L 136.542683 80.585855 
L 137.442046 77.977058 
L 138.341408 75.916193 
L 139.240771 74.381629 
L 140.140134 73.348839 
L 141.039497 72.790865 
L 141.93886 72.678778 
L 142.838223 72.982134 
L 143.737586 73.669391 
L 144.636949 74.708327 
L 145.536312 76.066412 
L 146.435675 77.71116 
L 148.2344 81.73281 
L 150.033126 86.525573 
L 152.731215 94.66348 
L 161.724844 122.980597 
L 164.422932 130.376386 
L 167.121021 136.938323 
L 168.919747 140.829517 
L 170.718473 144.338428 
L 172.517198 147.47935 
L 174.315924 150.273087 
L 176.11465 152.744771 
L 177.913376 154.922023 
L 179.712102 156.83347 
L 181.510827 158.50758 
L 184.208916 160.633341 
L 186.907005 162.371791 
L 189.605093 163.797533 
L 192.303182 164.973576 
L 195.900634 166.24116 
L 199.498085 167.250768 
L 203.9949 168.253042 
L 209.391077 169.191304 
L 215.686617 170.040964 
L 223.780883 170.87707 
L 232.774512 171.579643 
L 244.46623 172.254448 
L 258.856036 172.837997 
L 275.943931 173.298086 
L 296.629278 173.630481 
L 320.912076 173.800253 
L 346.9936 173.76638 
L 371.276398 173.524271 
L 391.961745 173.10562 
L 408.150277 172.573877 
L 421.64072 171.918826 
L 432.433075 171.181808 
L 441.426704 170.346439 
L 448.621607 169.456674 
L 454.017784 168.592749 
L 458.514599 167.681226 
L 462.11205 166.773363 
L 465.709502 165.644873 
L 468.407591 164.60589 
L 471.105679 163.352903 
L 473.803768 161.830501 
L 476.501857 159.971799 
L 478.300582 158.50758 
L 480.099308 156.83347 
L 481.898034 154.922023 
L 483.69676 152.744771 
L 485.495486 150.273087 
L 487.294211 147.47935 
L 489.092937 144.338428 
L 490.891663 140.829517 
L 492.690389 136.938323 
L 494.489115 132.659579 
L 497.187203 125.533165 
L 499.885292 117.641215 
L 503.482743 106.267889 
L 507.979558 91.859384 
L 510.677647 84.047669 
L 512.476372 79.610451 
L 514.275098 76.066412 
L 515.174461 74.708327 
L 516.073824 73.669391 
L 516.973187 72.982134 
L 517.87255 72.678778 
L 518.771913 72.790865 
L 519.671276 73.348839 
L 520.570638 74.381629 
L 521.470001 75.916193 
L 522.369364 77.977058 
L 523.268727 80.585855 
L 524.16809 83.760846 
L 525.067453 87.516462 
L 525.966816 91.862856 
L 527.765542 102.344652 
L 529.564267 115.186483 
L 531.362993 130.276793 
L 533.161719 147.405347 
L 535.859808 176.212145 
L 539.457259 218.055466 
L 543.054711 259.616576 
L 544.853437 278.683439 
L 546.652162 295.745887 
L 548.450888 310.207736 
L 549.350251 316.297248 
L 550.249614 321.549192 
L 551.148977 325.914965 
L 552.04834 329.353868 
L 552.947703 331.833649 
L 553.847066 333.330952 
L 554.746428 333.831631 
L 554.746428 333.831631 
" clip-path="url(#p97013ddc2f)" style="fill: none; stroke: #4c72b0; stroke-width: 2; stroke-linecap: square"/>
   </g>
   <g id="line2d_12">
    <path d="M 105.064981 333.831631 
L 105.964344 332.336147 
L 106.863707 327.892009 
L 107.76307 320.624415 
L 108.662433 310.736302 
L 109.561796 298.500093 
L 111.360522 268.352922 
L 114.05861 214.971892 
L 116.756699 161.695814 
L 118.555425 130.935864 
L 119.454788 117.736592 
L 120.354151 106.197788 
L 121.253514 96.404641 
L 122.152876 88.389642 
L 123.052239 82.137171 
L 123.951602 77.589322 
L 124.850965 74.65258 
L 125.750328 73.204946 
L 126.649691 73.103155 
L 127.549054 74.189686 
L 128.448417 76.299292 
L 129.34778 79.264872 
L 130.247142 82.922532 
L 132.045868 91.698814 
L 138.341408 125.454115 
L 140.140134 133.56593 
L 141.93886 140.552248 
L 143.737586 146.411671 
L 145.536312 151.22452 
L 147.335037 155.116299 
L 149.133763 158.230037 
L 150.932489 160.707378 
L 152.731215 162.677177 
L 154.529941 164.249926 
L 156.328666 165.516253 
L 158.127392 166.547963 
L 160.825481 167.772988 
L 163.52357 168.724408 
L 167.121021 169.709699 
L 171.617836 170.644366 
L 177.014013 171.48717 
L 183.309553 172.221299 
L 191.403819 172.909988 
L 201.296811 173.504007 
L 213.887892 174.019219 
L 230.076424 174.449138 
L 252.560496 174.806499 
L 284.038197 175.063406 
L 326.308253 175.17505 
L 372.175761 175.081394 
L 407.250914 174.806499 
L 431.533712 174.41044 
L 448.621607 173.925539 
L 461.212687 173.362532 
L 471.105679 172.705425 
L 478.300582 172.033018 
L 484.596123 171.232678 
L 489.9923 170.301699 
L 493.589752 169.487309 
L 497.187203 168.431638 
L 499.885292 167.400437 
L 501.684018 166.547963 
L 503.482743 165.516253 
L 505.281469 164.249926 
L 507.080195 162.677177 
L 508.878921 160.707378 
L 510.677647 158.230037 
L 512.476372 155.116299 
L 514.275098 151.22452 
L 516.073824 146.411671 
L 517.87255 140.552248 
L 519.671276 133.56593 
L 521.470001 125.454115 
L 523.268727 116.343704 
L 529.564267 82.922532 
L 530.46363 79.264872 
L 531.362993 76.299292 
L 532.262356 74.189686 
L 533.161719 73.103155 
L 534.061082 73.204946 
L 534.960445 74.65258 
L 535.859808 77.589322 
L 536.759171 82.137171 
L 537.658533 88.389642 
L 538.557896 96.404641 
L 539.457259 106.197788 
L 540.356622 117.736592 
L 542.155348 145.654762 
L 543.954074 178.806203 
L 549.350251 284.246775 
L 550.249614 298.500093 
L 551.148977 310.736302 
L 552.04834 320.624415 
L 552.947703 327.892009 
L 553.847066 332.336147 
L 554.746428 333.831631 
L 554.746428 333.831631 
" clip-path="url(#p97013ddc2f)" style="fill: none; stroke: #dd8452; stroke-width: 2; stroke-linecap: square"/>
   </g>
   <g id="line2d_13">
    <path d="M 105.064981 333.831631 
L 105.964344 331.344474 
L 106.863707 323.999936 
L 107.76307 312.140812 
L 108.662433 296.31246 
L 109.561796 277.226351 
L 111.360522 232.673489 
L 114.05861 163.285873 
L 115.857336 124.344248 
L 116.756699 108.659828 
L 117.656062 95.853491 
L 118.555425 86.003756 
L 119.454788 79.05715 
L 120.354151 74.849679 
L 121.253514 73.131543 
L 122.152876 73.592861 
L 123.052239 75.888505 
L 123.951602 79.660559 
L 124.850965 84.55737 
L 126.649691 96.436402 
L 130.247142 121.622237 
L 132.045868 132.469263 
L 133.844594 141.474006 
L 135.64332 148.625912 
L 137.442046 154.126405 
L 138.341408 156.34771 
L 139.240771 158.268065 
L 141.039497 161.354135 
L 142.838223 163.653983 
L 144.636949 165.385142 
L 146.435675 166.711968 
L 148.2344 167.752784 
L 150.932489 168.950461 
L 153.630578 169.859595 
L 157.228029 170.786482 
L 161.724844 171.650571 
L 167.121021 172.411568 
L 173.416561 173.05578 
L 181.510827 173.641563 
L 192.303182 174.166714 
L 205.793626 174.588026 
L 224.680246 174.943712 
L 252.560496 175.224473 
L 294.830552 175.40485 
L 354.188503 175.424888 
L 405.452188 175.236693 
L 436.929889 174.917559 
L 456.715873 174.518361 
L 471.105679 174.015739 
L 480.998671 173.469564 
L 489.092937 172.805042 
L 495.388477 172.061126 
L 499.885292 171.335846 
L 503.482743 170.578542 
L 507.080195 169.581421 
L 509.778284 168.589933 
L 511.57701 167.752784 
L 513.375735 166.711968 
L 515.174461 165.385142 
L 516.973187 163.653983 
L 518.771913 161.354135 
L 519.671276 159.925105 
L 520.570638 158.268065 
L 521.470001 156.34771 
L 522.369364 154.126405 
L 523.268727 151.565298 
L 524.16809 148.625912 
L 525.067453 145.272331 
L 526.866179 137.20923 
L 528.664905 127.263027 
L 530.46363 115.606723 
L 534.960445 84.55737 
L 535.859808 79.660559 
L 536.759171 75.888505 
L 537.658533 73.592861 
L 538.557896 73.131543 
L 539.457259 74.849679 
L 540.356622 79.05715 
L 541.255985 86.003756 
L 542.155348 95.853491 
L 543.054711 108.659828 
L 543.954074 124.344248 
L 544.853437 142.680355 
L 546.652162 185.624427 
L 550.249614 277.226351 
L 551.148977 296.31246 
L 552.04834 312.140812 
L 552.947703 323.999936 
L 553.847066 331.344474 
L 554.746428 333.831631 
L 554.746428 333.831631 
" clip-path="url(#p97013ddc2f)" style="fill: none; stroke: #55a868; stroke-width: 2; stroke-linecap: square"/>
   </g>
   <g id="line2d_14">
    <path d="M 105.064981 175.839556 
L 554.746428 175.839556 
" clip-path="url(#p97013ddc2f)" style="fill: none; stroke-dasharray: 5.55,2.4; stroke-dashoffset: 0; stroke: #808080; stroke-width: 1.5"/>
   </g>
   <g id="patch_3">
    <path d="M 105.064981 333.831631 
L 105.064981 17.84748 
" style="fill: none; stroke: #000000; stroke-width: 0.8; stroke-linejoin: miter; stroke-linecap: square"/>
   </g>
   <g id="patch_4">
    <path d="M 105.064981 333.831631 
L 554.746428 333.831631 
" style="fill: none; stroke: #000000; stroke-width: 0.8; stroke-linejoin: miter; stroke-linecap: square"/>
   </g>
  </g>
 </g>
 <defs>
  <clipPath id="p97013ddc2f">
   <rect x="105.064981" y="17.84748" width="449.681447" height="315.984151"/>
  </clipPath>
 </defs>
</svg>
