<?xml version="1.0" encoding="utf-8" standalone="no"?>
<!DOCTYPE svg PUBLIC "-//W3C//DTD SVG 1.1//EN"
  "http://www.w3.org/Graphics/SVG/1.1/DTD/svg11.dtd">
<svg xmlns:xlink="http://www.w3.org/1999/xlink" width="576pt" height="432pt" viewBox="0 0 576 432" xmlns="http://www.w3.org/2000/svg" version="1.1">
 <metadata>
  <rdf:RDF xmlns:dc="http://purl.org/dc/elements/1.1/" xmlns:cc="http://creativecommons.org/ns#" xmlns:rdf="http://www.w3.org/1999/02/22-rdf-syntax-ns#">
   <cc:Work>
    <dc:type rdf:resource="http://purl.org/dc/dcmitype/StillImage"/>
    <dc:date>2025-07-01T14:22:59.286725</dc:date>
    <dc:format>image/svg+xml</dc:format>
    <dc:creator>
     <cc:Agent>
      <dc:title>Matplotlib v3.10.3, https://matplotlib.org/</dc:title>
     </cc:Agent>
    </dc:creator>
   </cc:Work>
  </rdf:RDF>
 </metadata>
 <defs>
  <style type="text/css">*{stroke-linejoin: round; stroke-linecap: butt}</style>
 </defs>
 <g id="figure_1">
  <g id="patch_1">
   <path d="M 0 432 
L 576 432 
L 576 0 
L 0 0 
z
" style="fill: #ffffff"/>
  </g>
  <g id="axes_1">
   <g id="patch_2">
    <path d="M 108.664981 336.280446 
L 544.176619 336.280446 
L 544.176619 21.44748 
L 108.664981 21.44748 
z
" style="fill: #ffffff"/>
   </g>
   <g id="PathCollection_1">
    <defs>
     <path id="C0_0_465d2cd912" d="M 0 3.535534 
C 0.937635 3.535534 1.836992 3.163008 2.5 2.5 
C 3.163008 1.836992 3.535534 0.937635 3.535534 -0 
C 3.535534 -0.937635 3.163008 -1.836992 2.5 -2.5 
C 1.836992 -3.163008 0.937635 -3.535534 0 -3.535534 
C -0.937635 -3.535534 -1.836992 -3.163008 -2.5 -2.5 
C -3.163008 -1.836992 -3.535534 -0.937635 -3.535534 0 
C -3.535534 0.937635 -3.163008 1.836992 -2.5 2.5 
C -1.836992 3.163008 -0.937635 3.535534 0 3.535534 
z
"/>
    </defs>
    <g clip-path="url(#p75c00a33ac)">
     <use xlink:href="#C0_0_465d2cd912" x="132.440623" y="324.166712" style="fill: #4c72b0; stroke: #ffffff; stroke-width: 0.565685"/>
    </g>
    <g clip-path="url(#p75c00a33ac)">
     <use xlink:href="#C0_0_465d2cd912" x="134.388694" y="322.432374" style="fill: #4c72b0; stroke: #ffffff; stroke-width: 0.565685"/>
    </g>
    <g clip-path="url(#p75c00a33ac)">
     <use xlink:href="#C0_0_465d2cd912" x="145.091383" y="311.551765" style="fill: #4c72b0; stroke: #ffffff; stroke-width: 0.565685"/>
    </g>
    <g clip-path="url(#p75c00a33ac)">
     <use xlink:href="#C0_0_465d2cd912" x="160.264705" y="289.42352" style="fill: #4c72b0; stroke: #ffffff; stroke-width: 0.565685"/>
    </g>
    <g clip-path="url(#p75c00a33ac)">
     <use xlink:href="#C0_0_465d2cd912" x="176.09408" y="261.508368" style="fill: #4c72b0; stroke: #ffffff; stroke-width: 0.565685"/>
    </g>
    <g clip-path="url(#p75c00a33ac)">
     <use xlink:href="#C0_0_465d2cd912" x="192.368015" y="229.474095" style="fill: #4c72b0; stroke: #ffffff; stroke-width: 0.565685"/>
    </g>
    <g clip-path="url(#p75c00a33ac)">
     <use xlink:href="#C0_0_465d2cd912" x="209.906289" y="201.226085" style="fill: #4c72b0; stroke: #ffffff; stroke-width: 0.565685"/>
    </g>
    <g clip-path="url(#p75c00a33ac)">
     <use xlink:href="#C0_0_465d2cd912" x="226.425037" y="179.968673" style="fill: #4c72b0; stroke: #ffffff; stroke-width: 0.565685"/>
    </g>
    <g clip-path="url(#p75c00a33ac)">
     <use xlink:href="#C0_0_465d2cd912" x="243.645521" y="170.635556" style="fill: #4c72b0; stroke: #ffffff; stroke-width: 0.565685"/>
    </g>
    <g clip-path="url(#p75c00a33ac)">
     <use xlink:href="#C0_0_465d2cd912" x="260.955224" y="162.372501" style="fill: #4c72b0; stroke: #ffffff; stroke-width: 0.565685"/>
    </g>
    <g clip-path="url(#p75c00a33ac)">
     <use xlink:href="#C0_0_465d2cd912" x="278.593932" y="156.748761" style="fill: #4c72b0; stroke: #ffffff; stroke-width: 0.565685"/>
    </g>
    <g clip-path="url(#p75c00a33ac)">
     <use xlink:href="#C0_0_465d2cd912" x="296.076898" y="152.967422" style="fill: #4c72b0; stroke: #ffffff; stroke-width: 0.565685"/>
    </g>
    <g clip-path="url(#p75c00a33ac)">
     <use xlink:href="#C0_0_465d2cd912" x="314.588831" y="159.841057" style="fill: #4c72b0; stroke: #ffffff; stroke-width: 0.565685"/>
    </g>
    <g clip-path="url(#p75c00a33ac)">
     <use xlink:href="#C0_0_465d2cd912" x="331.704372" y="157.732209" style="fill: #4c72b0; stroke: #ffffff; stroke-width: 0.565685"/>
    </g>
    <g clip-path="url(#p75c00a33ac)">
     <use xlink:href="#C0_0_465d2cd912" x="350.330087" y="161.826599" style="fill: #4c72b0; stroke: #ffffff; stroke-width: 0.565685"/>
    </g>
    <g clip-path="url(#p75c00a33ac)">
     <use xlink:href="#C0_0_465d2cd912" x="368.795083" y="156.808965" style="fill: #4c72b0; stroke: #ffffff; stroke-width: 0.565685"/>
    </g>
    <g clip-path="url(#p75c00a33ac)">
     <use xlink:href="#C0_0_465d2cd912" x="386.539245" y="158.880713" style="fill: #4c72b0; stroke: #ffffff; stroke-width: 0.565685"/>
    </g>
    <g clip-path="url(#p75c00a33ac)">
     <use xlink:href="#C0_0_465d2cd912" x="405.529673" y="162.920576" style="fill: #4c72b0; stroke: #ffffff; stroke-width: 0.565685"/>
    </g>
    <g clip-path="url(#p75c00a33ac)">
     <use xlink:href="#C0_0_465d2cd912" x="424.697548" y="176.850577" style="fill: #4c72b0; stroke: #ffffff; stroke-width: 0.565685"/>
    </g>
    <g clip-path="url(#p75c00a33ac)">
     <use xlink:href="#C0_0_465d2cd912" x="442.792259" y="198.405727" style="fill: #4c72b0; stroke: #ffffff; stroke-width: 0.565685"/>
    </g>
    <g clip-path="url(#p75c00a33ac)">
     <use xlink:href="#C0_0_465d2cd912" x="462.033059" y="234.427675" style="fill: #4c72b0; stroke: #ffffff; stroke-width: 0.565685"/>
    </g>
    <g clip-path="url(#p75c00a33ac)">
     <use xlink:href="#C0_0_465d2cd912" x="480.154079" y="268.756062" style="fill: #4c72b0; stroke: #ffffff; stroke-width: 0.565685"/>
    </g>
    <g clip-path="url(#p75c00a33ac)">
     <use xlink:href="#C0_0_465d2cd912" x="498.667073" y="299.389199" style="fill: #4c72b0; stroke: #ffffff; stroke-width: 0.565685"/>
    </g>
    <g clip-path="url(#p75c00a33ac)">
     <use xlink:href="#C0_0_465d2cd912" x="517.435585" y="321.135827" style="fill: #4c72b0; stroke: #ffffff; stroke-width: 0.565685"/>
    </g>
    <g clip-path="url(#p75c00a33ac)">
     <use xlink:href="#C0_0_465d2cd912" x="533.065457" y="333.290941" style="fill: #4c72b0; stroke: #ffffff; stroke-width: 0.565685"/>
    </g>
    <g clip-path="url(#p75c00a33ac)">
     <use xlink:href="#C0_0_465d2cd912" x="132.440623" y="293.993049" style="fill: #dd8452; stroke: #ffffff; stroke-width: 0.565685"/>
    </g>
    <g clip-path="url(#p75c00a33ac)">
     <use xlink:href="#C0_0_465d2cd912" x="134.388694" y="286.867997" style="fill: #dd8452; stroke: #ffffff; stroke-width: 0.565685"/>
    </g>
    <g clip-path="url(#p75c00a33ac)">
     <use xlink:href="#C0_0_465d2cd912" x="145.091383" y="251.532891" style="fill: #dd8452; stroke: #ffffff; stroke-width: 0.565685"/>
    </g>
    <g clip-path="url(#p75c00a33ac)">
     <use xlink:href="#C0_0_465d2cd912" x="160.264705" y="197.640654" style="fill: #dd8452; stroke: #ffffff; stroke-width: 0.565685"/>
    </g>
    <g clip-path="url(#p75c00a33ac)">
     <use xlink:href="#C0_0_465d2cd912" x="176.09408" y="167.518128" style="fill: #dd8452; stroke: #ffffff; stroke-width: 0.565685"/>
    </g>
    <g clip-path="url(#p75c00a33ac)">
     <use xlink:href="#C0_0_465d2cd912" x="192.368015" y="158.559027" style="fill: #dd8452; stroke: #ffffff; stroke-width: 0.565685"/>
    </g>
    <g clip-path="url(#p75c00a33ac)">
     <use xlink:href="#C0_0_465d2cd912" x="209.906289" y="164.219861" style="fill: #dd8452; stroke: #ffffff; stroke-width: 0.565685"/>
    </g>
    <g clip-path="url(#p75c00a33ac)">
     <use xlink:href="#C0_0_465d2cd912" x="226.425037" y="167.96414" style="fill: #dd8452; stroke: #ffffff; stroke-width: 0.565685"/>
    </g>
    <g clip-path="url(#p75c00a33ac)">
     <use xlink:href="#C0_0_465d2cd912" x="243.645521" y="177.477831" style="fill: #dd8452; stroke: #ffffff; stroke-width: 0.565685"/>
    </g>
    <g clip-path="url(#p75c00a33ac)">
     <use xlink:href="#C0_0_465d2cd912" x="260.955224" y="171.974048" style="fill: #dd8452; stroke: #ffffff; stroke-width: 0.565685"/>
    </g>
    <g clip-path="url(#p75c00a33ac)">
     <use xlink:href="#C0_0_465d2cd912" x="278.593932" y="166.487167" style="fill: #dd8452; stroke: #ffffff; stroke-width: 0.565685"/>
    </g>
    <g clip-path="url(#p75c00a33ac)">
     <use xlink:href="#C0_0_465d2cd912" x="296.076898" y="166.049815" style="fill: #dd8452; stroke: #ffffff; stroke-width: 0.565685"/>
    </g>
    <g clip-path="url(#p75c00a33ac)">
     <use xlink:href="#C0_0_465d2cd912" x="314.588831" y="170.077697" style="fill: #dd8452; stroke: #ffffff; stroke-width: 0.565685"/>
    </g>
    <g clip-path="url(#p75c00a33ac)">
     <use xlink:href="#C0_0_465d2cd912" x="331.704372" y="164.924431" style="fill: #dd8452; stroke: #ffffff; stroke-width: 0.565685"/>
    </g>
    <g clip-path="url(#p75c00a33ac)">
     <use xlink:href="#C0_0_465d2cd912" x="350.330087" y="168.014836" style="fill: #dd8452; stroke: #ffffff; stroke-width: 0.565685"/>
    </g>
    <g clip-path="url(#p75c00a33ac)">
     <use xlink:href="#C0_0_465d2cd912" x="368.795083" y="167.103174" style="fill: #dd8452; stroke: #ffffff; stroke-width: 0.565685"/>
    </g>
    <g clip-path="url(#p75c00a33ac)">
     <use xlink:href="#C0_0_465d2cd912" x="386.539245" y="166.997257" style="fill: #dd8452; stroke: #ffffff; stroke-width: 0.565685"/>
    </g>
    <g clip-path="url(#p75c00a33ac)">
     <use xlink:href="#C0_0_465d2cd912" x="405.529673" y="161.163271" style="fill: #dd8452; stroke: #ffffff; stroke-width: 0.565685"/>
    </g>
    <g clip-path="url(#p75c00a33ac)">
     <use xlink:href="#C0_0_465d2cd912" x="424.697548" y="166.234279" style="fill: #dd8452; stroke: #ffffff; stroke-width: 0.565685"/>
    </g>
    <g clip-path="url(#p75c00a33ac)">
     <use xlink:href="#C0_0_465d2cd912" x="442.792259" y="159.724034" style="fill: #dd8452; stroke: #ffffff; stroke-width: 0.565685"/>
    </g>
    <g clip-path="url(#p75c00a33ac)">
     <use xlink:href="#C0_0_465d2cd912" x="462.033059" y="149.774021" style="fill: #dd8452; stroke: #ffffff; stroke-width: 0.565685"/>
    </g>
    <g clip-path="url(#p75c00a33ac)">
     <use xlink:href="#C0_0_465d2cd912" x="480.154079" y="175.926239" style="fill: #dd8452; stroke: #ffffff; stroke-width: 0.565685"/>
    </g>
    <g clip-path="url(#p75c00a33ac)">
     <use xlink:href="#C0_0_465d2cd912" x="498.667073" y="216.908648" style="fill: #dd8452; stroke: #ffffff; stroke-width: 0.565685"/>
    </g>
    <g clip-path="url(#p75c00a33ac)">
     <use xlink:href="#C0_0_465d2cd912" x="517.435585" y="286.056021" style="fill: #dd8452; stroke: #ffffff; stroke-width: 0.565685"/>
    </g>
    <g clip-path="url(#p75c00a33ac)">
     <use xlink:href="#C0_0_465d2cd912" x="533.065457" y="326.715285" style="fill: #dd8452; stroke: #ffffff; stroke-width: 0.565685"/>
    </g>
    <g clip-path="url(#p75c00a33ac)">
     <use xlink:href="#C0_0_465d2cd912" x="132.440623" y="297.86425" style="fill: #55a868; stroke: #ffffff; stroke-width: 0.565685"/>
    </g>
    <g clip-path="url(#p75c00a33ac)">
     <use xlink:href="#C0_0_465d2cd912" x="134.388694" y="287.184152" style="fill: #55a868; stroke: #ffffff; stroke-width: 0.565685"/>
    </g>
    <g clip-path="url(#p75c00a33ac)">
     <use xlink:href="#C0_0_465d2cd912" x="145.091383" y="257.174269" style="fill: #55a868; stroke: #ffffff; stroke-width: 0.565685"/>
    </g>
    <g clip-path="url(#p75c00a33ac)">
     <use xlink:href="#C0_0_465d2cd912" x="160.264705" y="196.634729" style="fill: #55a868; stroke: #ffffff; stroke-width: 0.565685"/>
    </g>
    <g clip-path="url(#p75c00a33ac)">
     <use xlink:href="#C0_0_465d2cd912" x="176.09408" y="169.367716" style="fill: #55a868; stroke: #ffffff; stroke-width: 0.565685"/>
    </g>
    <g clip-path="url(#p75c00a33ac)">
     <use xlink:href="#C0_0_465d2cd912" x="192.368015" y="168.469747" style="fill: #55a868; stroke: #ffffff; stroke-width: 0.565685"/>
    </g>
    <g clip-path="url(#p75c00a33ac)">
     <use xlink:href="#C0_0_465d2cd912" x="209.906289" y="170.234269" style="fill: #55a868; stroke: #ffffff; stroke-width: 0.565685"/>
    </g>
    <g clip-path="url(#p75c00a33ac)">
     <use xlink:href="#C0_0_465d2cd912" x="226.425037" y="170.324141" style="fill: #55a868; stroke: #ffffff; stroke-width: 0.565685"/>
    </g>
    <g clip-path="url(#p75c00a33ac)">
     <use xlink:href="#C0_0_465d2cd912" x="243.645521" y="174.380115" style="fill: #55a868; stroke: #ffffff; stroke-width: 0.565685"/>
    </g>
    <g clip-path="url(#p75c00a33ac)">
     <use xlink:href="#C0_0_465d2cd912" x="260.955224" y="174.501396" style="fill: #55a868; stroke: #ffffff; stroke-width: 0.565685"/>
    </g>
    <g clip-path="url(#p75c00a33ac)">
     <use xlink:href="#C0_0_465d2cd912" x="278.593932" y="173.06171" style="fill: #55a868; stroke: #ffffff; stroke-width: 0.565685"/>
    </g>
    <g clip-path="url(#p75c00a33ac)">
     <use xlink:href="#C0_0_465d2cd912" x="296.076898" y="167.57236" style="fill: #55a868; stroke: #ffffff; stroke-width: 0.565685"/>
    </g>
    <g clip-path="url(#p75c00a33ac)">
     <use xlink:href="#C0_0_465d2cd912" x="314.588831" y="172.305807" style="fill: #55a868; stroke: #ffffff; stroke-width: 0.565685"/>
    </g>
    <g clip-path="url(#p75c00a33ac)">
     <use xlink:href="#C0_0_465d2cd912" x="331.704372" y="167.120745" style="fill: #55a868; stroke: #ffffff; stroke-width: 0.565685"/>
    </g>
    <g clip-path="url(#p75c00a33ac)">
     <use xlink:href="#C0_0_465d2cd912" x="350.330087" y="165.343508" style="fill: #55a868; stroke: #ffffff; stroke-width: 0.565685"/>
    </g>
    <g clip-path="url(#p75c00a33ac)">
     <use xlink:href="#C0_0_465d2cd912" x="368.795083" y="165.871818" style="fill: #55a868; stroke: #ffffff; stroke-width: 0.565685"/>
    </g>
    <g clip-path="url(#p75c00a33ac)">
     <use xlink:href="#C0_0_465d2cd912" x="386.539245" y="174.063798" style="fill: #55a868; stroke: #ffffff; stroke-width: 0.565685"/>
    </g>
    <g clip-path="url(#p75c00a33ac)">
     <use xlink:href="#C0_0_465d2cd912" x="405.529673" y="161.943668" style="fill: #55a868; stroke: #ffffff; stroke-width: 0.565685"/>
    </g>
    <g clip-path="url(#p75c00a33ac)">
     <use xlink:href="#C0_0_465d2cd912" x="424.697548" y="170.480122" style="fill: #55a868; stroke: #ffffff; stroke-width: 0.565685"/>
    </g>
    <g clip-path="url(#p75c00a33ac)">
     <use xlink:href="#C0_0_465d2cd912" x="442.792259" y="168.365581" style="fill: #55a868; stroke: #ffffff; stroke-width: 0.565685"/>
    </g>
    <g clip-path="url(#p75c00a33ac)">
     <use xlink:href="#C0_0_465d2cd912" x="462.033059" y="158.914586" style="fill: #55a868; stroke: #ffffff; stroke-width: 0.565685"/>
    </g>
    <g clip-path="url(#p75c00a33ac)">
     <use xlink:href="#C0_0_465d2cd912" x="480.154079" y="170.40696" style="fill: #55a868; stroke: #ffffff; stroke-width: 0.565685"/>
    </g>
    <g clip-path="url(#p75c00a33ac)">
     <use xlink:href="#C0_0_465d2cd912" x="498.667073" y="210.749987" style="fill: #55a868; stroke: #ffffff; stroke-width: 0.565685"/>
    </g>
    <g clip-path="url(#p75c00a33ac)">
     <use xlink:href="#C0_0_465d2cd912" x="517.435585" y="283.794289" style="fill: #55a868; stroke: #ffffff; stroke-width: 0.565685"/>
    </g>
    <g clip-path="url(#p75c00a33ac)">
     <use xlink:href="#C0_0_465d2cd912" x="533.065457" y="322.105228" style="fill: #55a868; stroke: #ffffff; stroke-width: 0.565685"/>
    </g>
   </g>
   <g id="FillBetweenPolyCollection_1"/>
   <g id="FillBetweenPolyCollection_2"/>
   <g id="FillBetweenPolyCollection_3"/>
   <g id="matplotlib.axis_1">
    <g id="xtick_1">
     <g id="line2d_1">
      <defs>
       <path id="m5e373a1cd5" d="M 0 0 
L 0 3.5 
" style="stroke: #000000; stroke-width: 0.8"/>
      </defs>
      <g>
       <use xlink:href="#m5e373a1cd5" x="108.664981" y="336.280446" style="stroke: #000000; stroke-width: 0.8"/>
      </g>
     </g>
     <g id="text_1">
      <!-- $0$ -->
      <g transform="translate(101.81141 364.575407) scale(0.3 -0.3)">
       <defs>
        <path id="CMR17-30" d="M 2688 2025 
C 2688 2416 2682 3080 2413 3591 
C 2176 4039 1798 4198 1466 4198 
C 1158 4198 768 4058 525 3597 
C 269 3118 243 2524 243 2025 
C 243 1661 250 1106 448 619 
C 723 -39 1216 -128 1466 -128 
C 1760 -128 2208 -7 2470 600 
C 2662 1042 2688 1559 2688 2025 
z
M 1466 -26 
C 1056 -26 813 325 723 812 
C 653 1188 653 1738 653 2096 
C 653 2588 653 2997 736 3387 
C 858 3929 1216 4096 1466 4096 
C 1728 4096 2067 3923 2189 3400 
C 2272 3036 2278 2607 2278 2096 
C 2278 1680 2278 1169 2202 792 
C 2067 95 1690 -26 1466 -26 
z
" transform="scale(0.015625)"/>
       </defs>
       <use xlink:href="#CMR17-30" transform="scale(0.996264)"/>
      </g>
     </g>
    </g>
    <g id="xtick_2">
     <g id="line2d_2">
      <g>
       <use xlink:href="#m5e373a1cd5" x="217.542891" y="336.280446" style="stroke: #000000; stroke-width: 0.8"/>
      </g>
     </g>
    </g>
    <g id="xtick_3">
     <g id="line2d_3">
      <g>
       <use xlink:href="#m5e373a1cd5" x="326.4208" y="336.280446" style="stroke: #000000; stroke-width: 0.8"/>
      </g>
     </g>
     <g id="text_2">
      <!-- $1/4$ -->
      <g transform="translate(305.397419 365.696386) scale(0.3 -0.3)">
       <defs>
        <path id="CMR17-31" d="M 1702 4058 
C 1702 4192 1696 4192 1606 4192 
C 1357 3916 979 3827 621 3827 
C 602 3827 570 3827 563 3808 
C 557 3795 557 3782 557 3648 
C 755 3648 1088 3686 1344 3839 
L 1344 461 
C 1344 236 1331 160 781 160 
L 589 160 
L 589 0 
C 896 0 1216 0 1523 0 
C 1830 0 2150 0 2458 0 
L 2458 160 
L 2266 160 
C 1715 160 1702 230 1702 458 
L 1702 4058 
z
" transform="scale(0.015625)"/>
        <path id="CMMI12-3d" d="M 2746 4562 
C 2746 4569 2784 4666 2784 4678 
C 2784 4755 2720 4800 2669 4800 
C 2637 4800 2579 4800 2528 4659 
L 384 -1363 
C 384 -1370 346 -1465 346 -1478 
C 346 -1555 410 -1600 461 -1600 
C 499 -1600 557 -1593 602 -1459 
L 2746 4562 
z
" transform="scale(0.015625)"/>
        <path id="CMR17-34" d="M 2150 4122 
C 2150 4256 2144 4256 2029 4256 
L 128 1254 
L 128 1088 
L 1779 1088 
L 1779 457 
C 1779 224 1766 160 1318 160 
L 1197 160 
L 1197 0 
C 1402 0 1747 0 1965 0 
C 2182 0 2528 0 2733 0 
L 2733 160 
L 2611 160 
C 2163 160 2150 224 2150 457 
L 2150 1088 
L 2803 1088 
L 2803 1254 
L 2150 1254 
L 2150 4122 
z
M 1798 3703 
L 1798 1254 
L 256 1254 
L 1798 3703 
z
" transform="scale(0.015625)"/>
       </defs>
       <use xlink:href="#CMR17-31" transform="scale(0.996264)"/>
       <use xlink:href="#CMMI12-3d" transform="translate(45.690477 0) scale(0.996264)"/>
       <use xlink:href="#CMR17-34" transform="translate(94.465396 0) scale(0.996264)"/>
      </g>
     </g>
    </g>
    <g id="xtick_4">
     <g id="line2d_4">
      <g>
       <use xlink:href="#m5e373a1cd5" x="435.29871" y="336.280446" style="stroke: #000000; stroke-width: 0.8"/>
      </g>
     </g>
    </g>
    <g id="xtick_5">
     <g id="line2d_5">
      <g>
       <use xlink:href="#m5e373a1cd5" x="544.176619" y="336.280446" style="stroke: #000000; stroke-width: 0.8"/>
      </g>
     </g>
     <g id="text_3">
      <!-- $1/2$ -->
      <g transform="translate(523.153238 365.696386) scale(0.3 -0.3)">
       <defs>
        <path id="CMR17-32" d="M 2669 989 
L 2554 989 
C 2490 536 2438 459 2413 420 
C 2381 369 1920 369 1830 369 
L 602 369 
C 832 619 1280 1072 1824 1597 
C 2214 1967 2669 2402 2669 3035 
C 2669 3790 2067 4224 1395 4224 
C 691 4224 262 3604 262 3030 
C 262 2780 448 2748 525 2748 
C 589 2748 781 2787 781 3010 
C 781 3207 614 3264 525 3264 
C 486 3264 448 3258 422 3245 
C 544 3790 915 4058 1306 4058 
C 1862 4058 2227 3617 2227 3035 
C 2227 2479 1901 2000 1536 1584 
L 262 146 
L 262 0 
L 2515 0 
L 2669 989 
z
" transform="scale(0.015625)"/>
       </defs>
       <use xlink:href="#CMR17-31" transform="scale(0.996264)"/>
       <use xlink:href="#CMMI12-3d" transform="translate(45.690477 0) scale(0.996264)"/>
       <use xlink:href="#CMR17-32" transform="translate(94.465396 0) scale(0.996264)"/>
      </g>
     </g>
    </g>
    <g id="text_4">
     <!-- $\delta_{\phi} / \pi$ -->
     <g transform="translate(296.134912 412.078703) scale(0.32 -0.32)">
      <defs>
       <path id="CMMI12-e" d="M 1664 2795 
C 845 2597 256 1748 256 1001 
C 256 319 717 -64 1229 -64 
C 1984 -64 2496 970 2496 1818 
C 2496 2392 2227 2744 2067 2954 
C 1830 3254 1446 3746 1446 4052 
C 1446 4161 1530 4352 1811 4352 
C 2010 4352 2131 4282 2323 4173 
C 2381 4134 2528 4052 2611 4052 
C 2746 4052 2842 4185 2842 4287 
C 2842 4409 2746 4428 2522 4479 
C 2221 4543 2131 4543 2022 4543 
C 1914 4543 1286 4543 1286 3892 
C 1286 3579 1446 3216 1664 2795 
z
M 1734 2669 
C 1978 2165 2074 1974 2074 1560 
C 2074 1063 1805 63 1235 63 
C 986 63 627 229 627 821 
C 627 1235 864 2439 1734 2669 
z
" transform="scale(0.015625)"/>
       <path id="CMMI12-1e" d="M 2752 4390 
C 2752 4448 2707 4448 2688 4448 
C 2630 4448 2624 4435 2598 4326 
L 2253 2939 
C 2234 2856 2227 2849 2221 2843 
C 2214 2830 2170 2824 2157 2824 
C 1107 2734 301 1864 301 1057 
C 301 361 832 -64 1498 -64 
C 1446 -261 1402 -463 1350 -659 
C 1261 -995 1210 -1204 1210 -1229 
C 1210 -1241 1210 -1280 1274 -1280 
C 1293 -1280 1318 -1280 1331 -1254 
C 1344 -1241 1382 -1089 1408 -1008 
L 1645 -64 
C 2739 -64 3571 854 3571 1680 
C 3571 2343 3085 2816 2374 2816 
L 2752 4390 
z
M 2336 2701 
C 2758 2701 3181 2463 3181 1828 
C 3181 1097 2675 128 1677 50 
L 2336 2701 
z
M 1530 50 
C 1216 50 691 220 691 938 
C 691 1761 1274 2676 2195 2676 
L 1530 50 
z
" transform="scale(0.015625)"/>
       <path id="CMMI12-19" d="M 1658 2408 
L 2381 2408 
C 2208 1692 2099 1226 2099 716 
C 2099 626 2099 -64 2362 -64 
C 2496 -64 2611 57 2611 166 
C 2611 197 2611 210 2566 306 
C 2394 747 2394 1296 2394 1341 
C 2394 1379 2394 1832 2528 2408 
L 3245 2408 
C 3328 2408 3539 2408 3539 2612 
C 3539 2752 3418 2752 3302 2752 
L 1197 2752 
C 1050 2752 832 2752 538 2440 
C 371 2254 166 1916 166 1878 
C 166 1840 198 1827 237 1827 
C 282 1827 288 1846 320 1884 
C 653 2408 986 2408 1146 2408 
L 1510 2408 
C 1370 1929 1210 1373 685 256 
C 634 154 634 140 634 102 
C 634 -32 749 -64 806 -64 
C 992 -64 1043 102 1120 370 
C 1222 696 1222 709 1286 964 
L 1658 2408 
z
" transform="scale(0.015625)"/>
      </defs>
      <use xlink:href="#CMMI12-e" transform="scale(0.996264)"/>
      <use xlink:href="#CMMI12-1e" transform="translate(43.205457 -14.943915) scale(0.697382)"/>
      <use xlink:href="#CMMI12-3d" transform="translate(84.11733 0) scale(0.996264)"/>
      <use xlink:href="#CMMI12-19" transform="translate(132.892249 0) scale(0.996264)"/>
     </g>
    </g>
   </g>
   <g id="matplotlib.axis_2">
    <g id="ytick_1">
     <g id="line2d_6">
      <defs>
       <path id="m895a9f16ff" d="M 0 0 
L -3.5 0 
" style="stroke: #000000; stroke-width: 0.8"/>
      </defs>
      <g>
       <use xlink:href="#m895a9f16ff" x="108.664981" y="336.280446" style="stroke: #000000; stroke-width: 0.8"/>
      </g>
     </g>
     <g id="text_5">
      <!-- $0.0$ -->
      <g transform="translate(66.121542 346.927926) scale(0.3 -0.3)">
       <defs>
        <path id="CMMI12-3a" d="M 1178 307 
C 1178 492 1024 619 870 619 
C 685 619 557 466 557 313 
C 557 128 710 0 864 0 
C 1050 0 1178 153 1178 307 
z
" transform="scale(0.015625)"/>
       </defs>
       <use xlink:href="#CMR17-30" transform="scale(0.996264)"/>
       <use xlink:href="#CMMI12-3a" transform="translate(45.690477 0) scale(0.996264)"/>
       <use xlink:href="#CMR17-30" transform="translate(72.787654 0) scale(0.996264)"/>
      </g>
     </g>
    </g>
    <g id="ytick_2">
     <g id="line2d_7">
      <g>
       <use xlink:href="#m895a9f16ff" x="108.664981" y="257.572205" style="stroke: #000000; stroke-width: 0.8"/>
      </g>
     </g>
     <g id="text_6">
      <!-- $0.5$ -->
      <g transform="translate(66.121542 268.219685) scale(0.3 -0.3)">
       <defs>
        <path id="CMR17-35" d="M 730 3692 
C 794 3666 1056 3584 1325 3584 
C 1920 3584 2246 3911 2432 4100 
C 2432 4157 2432 4192 2394 4192 
C 2387 4192 2374 4192 2323 4163 
C 2099 4058 1837 3973 1517 3973 
C 1325 3973 1037 3999 723 4139 
C 653 4171 640 4171 634 4171 
C 602 4171 595 4164 595 4037 
L 595 2203 
C 595 2089 595 2057 659 2057 
C 691 2057 704 2070 736 2114 
C 941 2401 1222 2522 1542 2522 
C 1766 2522 2246 2382 2246 1289 
C 2246 1085 2246 715 2054 421 
C 1894 159 1645 25 1370 25 
C 947 25 518 320 403 814 
C 429 807 480 795 506 795 
C 589 795 749 840 749 1038 
C 749 1210 627 1280 506 1280 
C 358 1280 262 1190 262 1011 
C 262 454 704 -128 1382 -128 
C 2042 -128 2669 440 2669 1264 
C 2669 2030 2170 2624 1549 2624 
C 1222 2624 947 2503 730 2274 
L 730 3692 
z
" transform="scale(0.015625)"/>
       </defs>
       <use xlink:href="#CMR17-30" transform="scale(0.996264)"/>
       <use xlink:href="#CMMI12-3a" transform="translate(45.690477 0) scale(0.996264)"/>
       <use xlink:href="#CMR17-35" transform="translate(72.787654 0) scale(0.996264)"/>
      </g>
     </g>
    </g>
    <g id="ytick_3">
     <g id="line2d_8">
      <g>
       <use xlink:href="#m895a9f16ff" x="108.664981" y="178.863963" style="stroke: #000000; stroke-width: 0.8"/>
      </g>
     </g>
     <g id="text_7">
      <!-- $1.0$ -->
      <g transform="translate(66.121542 189.511444) scale(0.3 -0.3)">
       <use xlink:href="#CMR17-31" transform="scale(0.996264)"/>
       <use xlink:href="#CMMI12-3a" transform="translate(45.690477 0) scale(0.996264)"/>
       <use xlink:href="#CMR17-30" transform="translate(72.787654 0) scale(0.996264)"/>
      </g>
     </g>
    </g>
    <g id="ytick_4">
     <g id="line2d_9">
      <g>
       <use xlink:href="#m895a9f16ff" x="108.664981" y="100.155722" style="stroke: #000000; stroke-width: 0.8"/>
      </g>
     </g>
     <g id="text_8">
      <!-- $1.5$ -->
      <g transform="translate(66.121542 110.803202) scale(0.3 -0.3)">
       <use xlink:href="#CMR17-31" transform="scale(0.996264)"/>
       <use xlink:href="#CMMI12-3a" transform="translate(45.690477 0) scale(0.996264)"/>
       <use xlink:href="#CMR17-35" transform="translate(72.787654 0) scale(0.996264)"/>
      </g>
     </g>
    </g>
    <g id="ytick_5">
     <g id="line2d_10">
      <g>
       <use xlink:href="#m895a9f16ff" x="108.664981" y="21.44748" style="stroke: #000000; stroke-width: 0.8"/>
      </g>
     </g>
     <g id="text_9">
      <!-- $2.0$ -->
      <g transform="translate(66.121542 32.094961) scale(0.3 -0.3)">
       <use xlink:href="#CMR17-32" transform="scale(0.996264)"/>
       <use xlink:href="#CMMI12-3a" transform="translate(45.690477 0) scale(0.996264)"/>
       <use xlink:href="#CMR17-30" transform="translate(72.787654 0) scale(0.996264)"/>
      </g>
     </g>
    </g>
    <g id="text_10">
     <!-- $\frac{1}{NF} \; \mathrm{Var}(\tilde{\delta_{\phi}})$ -->
     <g transform="translate(40.127856 250.069743) rotate(-90) scale(0.32 -0.32)">
      <defs>
       <path id="CMMI12-4e" d="M 4736 3698 
C 4806 3974 4909 4166 5395 4166 
C 5414 4166 5491 4166 5491 4279 
C 5491 4352 5434 4352 5408 4352 
C 5280 4352 4954 4352 4826 4352 
L 4518 4352 
C 4429 4352 4314 4352 4224 4352 
C 4186 4352 4109 4352 4109 4230 
C 4109 4166 4160 4166 4205 4166 
C 4589 4166 4614 4019 4614 3903 
C 4614 3846 4608 3826 4589 3737 
L 3866 850 
L 2496 4249 
C 2451 4352 2445 4352 2304 4352 
L 1523 4352 
C 1395 4352 1338 4352 1338 4230 
C 1338 4166 1382 4166 1504 4166 
C 1536 4166 1914 4166 1914 4115 
C 1914 4102 1901 4051 1894 4032 
L 1043 635 
C 966 320 813 186 390 186 
C 358 186 294 186 294 67 
C 294 0 358 0 378 0 
C 506 0 832 0 960 0 
L 1267 0 
C 1357 0 1466 0 1555 0 
C 1600 0 1670 0 1670 122 
C 1670 180 1606 186 1581 186 
C 1370 186 1165 224 1165 454 
C 1165 505 1178 562 1190 613 
L 2054 4032 
C 2093 3968 2093 3956 2118 3898 
L 3642 115 
C 3674 38 3686 0 3744 0 
C 3808 0 3814 19 3840 128 
L 4736 3698 
z
" transform="scale(0.015625)"/>
       <path id="CMMI12-46" d="M 1901 2055 
L 2515 2055 
C 3002 2055 3040 1946 3040 1761 
C 3040 1678 3027 1589 2995 1448 
C 2982 1423 2976 1391 2976 1378 
C 2976 1333 3002 1308 3046 1308 
C 3098 1308 3104 1333 3130 1435 
L 3501 2935 
C 3501 2961 3482 2999 3437 2999 
C 3379 2999 3373 2974 3347 2863 
C 3213 2376 3085 2240 2528 2240 
L 1946 2240 
L 2362 3926 
C 2419 4154 2432 4154 2694 4154 
L 3552 4154 
C 4352 4154 4467 3918 4467 3464 
C 4467 3426 4467 3285 4448 3119 
C 4442 3094 4429 3011 4429 2985 
C 4429 2934 4461 2915 4499 2915 
C 4544 2915 4570 2941 4582 3055 
L 4717 4174 
C 4717 4195 4730 4263 4730 4277 
C 4730 4352 4672 4352 4557 4352 
L 1523 4352 
C 1402 4352 1338 4352 1338 4229 
C 1338 4154 1382 4154 1491 4154 
C 1888 4154 1888 4113 1888 4050 
C 1888 4018 1882 3992 1862 3922 
L 998 473 
C 941 249 928 185 480 185 
C 358 185 294 185 294 70 
C 294 0 352 0 390 0 
C 512 0 640 0 762 0 
L 1594 0 
C 1734 0 1888 0 2029 0 
C 2086 0 2163 0 2163 115 
C 2163 185 2125 185 1984 185 
C 1478 185 1466 229 1466 324 
C 1466 356 1478 406 1491 449 
L 1901 2055 
z
" transform="scale(0.015625)"/>
       <path id="CMR17-56" d="M 3776 3745 
C 3834 3886 3936 4160 4365 4160 
L 4365 4332 
C 4218 4319 4051 4319 3891 4319 
C 3738 4319 3475 4319 3328 4332 
L 3328 4160 
C 3648 4160 3661 3936 3661 3898 
C 3661 3827 3642 3783 3622 3732 
L 2362 446 
L 1043 3886 
C 1024 3931 1011 3963 1011 3994 
C 1011 4160 1267 4160 1402 4160 
L 1402 4319 
C 1197 4319 896 4319 685 4319 
C 518 4319 218 4319 64 4332 
L 64 4160 
C 435 4160 506 4135 582 3931 
L 2106 -26 
C 2138 -115 2144 -128 2214 -128 
C 2285 -128 2291 -115 2323 -26 
L 3776 3745 
z
" transform="scale(0.015625)"/>
       <path id="CMR17-61" d="M 2304 1653 
C 2304 2072 2304 2294 2035 2543 
C 1798 2752 1523 2816 1306 2816 
C 800 2816 435 2407 435 1971 
C 435 1728 627 1728 666 1728 
C 749 1728 896 1778 896 1954 
C 896 2112 774 2181 666 2181 
C 640 2181 608 2174 589 2168 
C 723 2592 1069 2714 1293 2714 
C 1613 2714 1965 2429 1965 1885 
L 1965 1600 
C 1587 1600 1133 1549 774 1357 
C 371 1133 256 813 256 570 
C 256 77 832 -64 1171 -64 
C 1523 -64 1850 139 1990 511 
C 2003 233 2182 -18 2464 -18 
C 2598 -18 2938 70 2938 567 
L 2938 920 
L 2822 920 
L 2822 562 
C 2822 178 2650 128 2566 128 
C 2304 128 2304 458 2304 738 
L 2304 1653 
z
M 1965 870 
C 1965 317 1568 38 1216 38 
C 896 38 646 275 646 570 
C 646 761 730 1100 1101 1305 
C 1408 1478 1760 1504 1965 1504 
L 1965 870 
z
" transform="scale(0.015625)"/>
       <path id="CMR17-72" d="M 960 1497 
C 960 2112 1222 2688 1702 2688 
C 1747 2688 1792 2682 1837 2662 
C 1837 2662 1696 2617 1696 2452 
C 1696 2298 1818 2234 1914 2234 
C 1990 2234 2131 2279 2131 2458 
C 2131 2663 1926 2790 1709 2790 
C 1222 2790 1011 2317 947 2093 
L 941 2093 
L 941 2790 
L 198 2720 
L 198 2554 
C 576 2554 634 2515 634 2208 
L 634 428 
C 634 184 608 153 198 153 
L 198 -13 
C 352 0 646 0 813 0 
C 998 0 1325 0 1498 -13 
L 1498 153 
C 1037 153 960 153 960 440 
L 960 1497 
z
" transform="scale(0.015625)"/>
       <path id="CMR17-28" d="M 1958 -1561 
C 1958 -1555 1958 -1542 1939 -1523 
C 1645 -1224 858 -407 858 1581 
C 858 3569 1632 4379 1946 4697 
C 1946 4704 1958 4717 1958 4736 
C 1958 4755 1939 4768 1914 4768 
C 1843 4768 1299 4296 986 3594 
C 666 2887 576 2199 576 1588 
C 576 1128 621 351 1005 -471 
C 1312 -1135 1837 -1600 1914 -1600 
C 1946 -1600 1958 -1587 1958 -1561 
z
" transform="scale(0.015625)"/>
       <path id="CMR17-7e" d="M 2400 4184 
C 2182 3980 2061 3865 1862 3865 
C 1722 3865 1626 3932 1491 4024 
C 1363 4111 1261 4184 1120 4184 
C 890 4184 730 4004 461 3718 
L 531 3648 
C 749 3850 870 3968 1069 3968 
C 1210 3968 1306 3900 1440 3808 
C 1568 3722 1670 3648 1811 3648 
C 2042 3648 2202 3828 2470 4114 
L 2400 4184 
z
" transform="scale(0.015625)"/>
       <path id="CMR17-29" d="M 1683 1581 
C 1683 2040 1638 2817 1254 3639 
C 947 4303 422 4768 346 4768 
C 326 4768 301 4761 301 4729 
C 301 4717 307 4710 314 4697 
C 621 4378 1402 3568 1402 1584 
C 1402 -407 627 -1217 314 -1537 
C 307 -1549 301 -1556 301 -1568 
C 301 -1600 326 -1600 346 -1600 
C 416 -1600 960 -1128 1274 -426 
C 1594 281 1683 969 1683 1581 
z
" transform="scale(0.015625)"/>
      </defs>
      <use xlink:href="#CMR17-31" transform="translate(41.834651 39.226102) scale(0.697382)"/>
      <use xlink:href="#CMMI12-4e" transform="translate(0 -34.355253) scale(0.697382)"/>
      <use xlink:href="#CMMI12-46" transform="translate(61.964973 -34.355253) scale(0.697382)"/>
      <use xlink:href="#CMR17-56" transform="translate(144.522007 0) scale(0.996264)"/>
      <use xlink:href="#CMR17-61" transform="translate(205.787182 0) scale(0.996264)"/>
      <use xlink:href="#CMR17-72" transform="translate(251.477659 0) scale(0.996264)"/>
      <use xlink:href="#CMR17-28" transform="translate(286.758427 0) scale(0.996264)"/>
      <use xlink:href="#CMR17-7e" transform="translate(341.252621 26.296621) scale(0.996264)"/>
      <use xlink:href="#CMMI12-e" transform="translate(322.039194 0) scale(0.996264)"/>
      <use xlink:href="#CMMI12-1e" transform="translate(365.244651 -14.943915) scale(0.697382)"/>
      <use xlink:href="#CMR17-29" transform="translate(406.156524 0) scale(0.996264)"/>
      <path d="M 0 22.914133 
L 115.652485 22.914133 
L 115.652485 26.899083 
L 0 26.899083 
L 0 22.914133 
z
"/>
     </g>
    </g>
   </g>
   <g id="line2d_11">
    <path d="M 109.536005 336.26341 
L 112.149075 336.008789 
L 114.762144 335.454487 
L 117.375214 334.612503 
L 119.988284 333.498554 
L 122.601354 332.129535 
L 125.214424 330.521404 
L 127.827493 328.687848 
L 130.440563 326.639769 
L 133.924656 323.589184 
L 137.40875 320.185293 
L 140.892843 316.437472 
L 144.376936 312.353282 
L 147.861029 307.940494 
L 151.345122 303.208586 
L 155.700238 296.863933 
L 160.055355 290.071858 
L 164.410471 282.874162 
L 169.636611 273.776343 
L 175.733774 262.670704 
L 185.31503 244.657626 
L 194.025262 228.413469 
L 199.251402 219.065627 
L 203.606518 211.649526 
L 207.961635 204.663087 
L 211.445728 199.431793 
L 214.929821 194.55117 
L 218.413914 190.04394 
L 221.898007 185.925455 
L 225.3821 182.203551 
L 228.866193 178.878704 
L 232.350287 175.944457 
L 235.83438 173.388081 
L 239.318473 171.191428 
L 242.802566 169.331914 
L 246.286659 167.78358 
L 249.770752 166.518157 
L 253.254845 165.506088 
L 256.738938 164.717471 
L 261.094055 164.001193 
L 265.449171 163.533353 
L 270.675311 163.229189 
L 276.772474 163.132981 
L 284.611683 163.266327 
L 299.419079 163.815679 
L 314.226474 164.274892 
L 325.549777 164.405068 
L 336.87308 164.309139 
L 349.067405 163.976336 
L 375.198104 163.136241 
L 381.295267 163.200658 
L 386.521406 163.465067 
L 390.876523 163.889435 
L 395.231639 164.551761 
L 398.715732 165.289148 
L 402.199825 166.242557 
L 405.683918 167.441842 
L 409.168011 168.91673 
L 412.652104 170.695907 
L 415.265174 172.246109 
L 417.878244 173.992659 
L 420.491314 175.944457 
L 423.104384 178.10892 
L 426.588477 181.335253 
L 430.07257 184.957657 
L 433.556663 188.97744 
L 437.040756 193.388629 
L 440.524849 198.177751 
L 444.008942 203.323897 
L 448.364059 210.215381 
L 452.719175 217.551904 
L 457.945315 226.827607 
L 464.913501 239.732944 
L 481.462943 270.649566 
L 486.689083 279.892922 
L 491.915223 288.663244 
L 496.270339 295.540125 
L 500.625455 301.97711 
L 504.109548 306.78701 
L 507.593641 311.28056 
L 511.077735 315.447672 
L 514.561828 319.280272 
L 518.045921 322.770915 
L 521.530014 325.910895 
L 525.014107 328.687848 
L 527.627177 330.521404 
L 530.240247 332.129535 
L 532.853316 333.498554 
L 535.466386 334.612503 
L 538.079456 335.454487 
L 540.692526 336.008789 
L 543.305596 336.26341 
L 544.176619 336.280446 
L 544.176619 336.280446 
" clip-path="url(#p75c00a33ac)" style="fill: none; stroke: #4c72b0; stroke-width: 2; stroke-linecap: square"/>
   </g>
   <g id="line2d_12">
    <path d="M 109.536005 336.219132 
L 110.407028 336.035288 
L 111.278051 335.729213 
L 113.020098 334.752531 
L 114.762144 333.295296 
L 116.504191 331.366597 
L 118.246237 328.978174 
L 119.988284 326.144188 
L 121.730331 322.881008 
L 123.472377 319.207055 
L 125.214424 315.142693 
L 127.827493 308.363361 
L 130.440563 300.83933 
L 133.053633 292.663582 
L 136.537726 280.928142 
L 140.892843 265.303715 
L 153.087168 220.844384 
L 156.571262 209.316737 
L 159.184331 201.340868 
L 161.797401 194.040461 
L 164.410471 187.483645 
L 167.023541 181.714798 
L 168.765587 178.317375 
L 170.507634 175.279151 
L 172.249681 172.595263 
L 173.991727 170.256558 
L 175.733774 168.250009 
L 177.47582 166.559227 
L 179.217867 165.16502 
L 180.959913 164.046003 
L 182.70196 163.179202 
L 184.444006 162.540669 
L 186.186053 162.106049 
L 187.928099 161.851109 
L 190.541169 161.75414 
L 193.154239 161.933169 
L 195.767309 162.32006 
L 199.251402 163.057681 
L 204.477542 164.415623 
L 214.929821 167.187119 
L 221.026984 168.559015 
L 227.124147 169.69952 
L 234.092333 170.747143 
L 241.060519 171.572697 
L 249.770752 172.368558 
L 260.223031 173.074376 
L 272.417357 173.659546 
L 287.224753 174.132808 
L 304.645218 174.454794 
L 323.80773 174.586316 
L 343.841266 174.503513 
L 362.132755 174.21507 
L 377.811173 173.759484 
L 390.876523 173.171603 
L 401.328802 172.502658 
L 410.039035 171.750533 
L 417.878244 170.861364 
L 424.84643 169.844495 
L 430.943593 168.735931 
L 437.040756 167.397105 
L 444.008942 165.608362 
L 454.461222 162.855276 
L 457.945315 162.171863 
L 460.558385 161.847199 
L 463.171454 161.752207 
L 464.913501 161.851109 
L 466.655548 162.106049 
L 468.397594 162.540669 
L 470.139641 163.179202 
L 471.881687 164.046003 
L 473.623734 165.16502 
L 475.36578 166.559227 
L 477.107827 168.250009 
L 478.849873 170.256558 
L 480.59192 172.595263 
L 482.333967 175.279151 
L 484.076013 178.317375 
L 485.81806 181.714798 
L 487.560106 185.471663 
L 490.173176 191.769538 
L 492.786246 198.828514 
L 495.399316 206.588185 
L 498.012385 214.965779 
L 501.496479 226.91829 
L 505.851595 242.711713 
L 515.432851 277.873113 
L 518.916944 289.811012 
L 521.530014 298.181615 
L 524.143084 305.933707 
L 526.756154 312.970994 
L 529.369223 319.207055 
L 531.11127 322.881008 
L 532.853316 326.144188 
L 534.595363 328.978174 
L 536.33741 331.366597 
L 538.079456 333.295296 
L 539.821503 334.752531 
L 541.563549 335.729213 
L 542.434573 336.035288 
L 543.305596 336.219132 
L 544.176619 336.280446 
L 544.176619 336.280446 
" clip-path="url(#p75c00a33ac)" style="fill: none; stroke: #dd8452; stroke-width: 2; stroke-linecap: square"/>
   </g>
   <g id="line2d_13">
    <path d="M 109.536005 336.223173 
L 110.407028 336.051583 
L 112.149075 335.368597 
L 113.891121 334.241797 
L 115.633168 332.686834 
L 117.375214 330.722749 
L 119.117261 328.369871 
L 120.859307 325.647921 
L 122.601354 322.57462 
L 124.3434 319.164934 
L 126.95647 313.445424 
L 129.56954 307.026912 
L 132.18261 299.935043 
L 134.79568 292.198348 
L 137.40875 283.856941 
L 140.892843 271.900513 
L 145.247959 255.926933 
L 155.700238 216.864861 
L 158.313308 207.974472 
L 160.926378 199.808197 
L 163.539448 192.512732 
L 165.281494 188.185982 
L 167.023541 184.311552 
L 168.765587 180.897212 
L 170.507634 177.940384 
L 172.249681 175.428776 
L 173.991727 173.34148 
L 175.733774 171.650401 
L 177.47582 170.321915 
L 179.217867 169.318638 
L 180.959913 168.601156 
L 182.70196 168.129639 
L 184.444006 167.865237 
L 187.057076 167.777417 
L 189.670146 167.962774 
L 193.154239 168.477964 
L 199.251402 169.691673 
L 207.090612 171.226514 
L 213.187774 172.207207 
L 220.155961 173.091373 
L 227.99517 173.847894 
L 237.576426 174.530897 
L 248.899729 175.108863 
L 263.707124 175.623393 
L 281.998613 176.020127 
L 304.645218 176.278087 
L 330.775917 176.349793 
L 356.906615 176.203427 
L 378.682197 175.87547 
L 396.102662 175.408389 
L 410.039035 174.822737 
L 421.362337 174.122088 
L 430.07257 173.367907 
L 437.040756 172.566076 
L 443.137919 171.672141 
L 449.235082 170.57533 
L 462.300431 168.068731 
L 464.913501 167.813813 
L 467.526571 167.799118 
L 469.268617 167.973905 
L 471.010664 168.337118 
L 472.75271 168.92667 
L 474.494757 169.782061 
L 476.236804 170.943103 
L 477.97885 172.448406 
L 479.720897 174.333696 
L 481.462943 176.630048 
L 483.20499 179.362161 
L 484.947036 182.546794 
L 486.689083 186.191494 
L 488.431129 190.293715 
L 490.173176 194.840419 
L 492.786246 202.439983 
L 495.399316 210.865761 
L 498.883409 223.10693 
L 503.238525 239.393107 
L 510.206711 265.622484 
L 513.690804 277.988376 
L 517.174898 289.4826 
L 519.787967 297.426129 
L 522.401037 304.736509 
L 525.014107 311.382283 
L 527.627177 317.337827 
L 530.240247 322.57462 
L 531.982293 325.647921 
L 533.72434 328.369871 
L 535.466386 330.722749 
L 537.208433 332.686834 
L 538.950479 334.241797 
L 540.692526 335.368597 
L 542.434573 336.051583 
L 543.305596 336.223173 
L 544.176619 336.280446 
L 544.176619 336.280446 
" clip-path="url(#p75c00a33ac)" style="fill: none; stroke: #55a868; stroke-width: 2; stroke-linecap: square"/>
   </g>
   <g id="line2d_14">
    <path d="M 108.664981 178.863963 
L 544.176619 178.863963 
" clip-path="url(#p75c00a33ac)" style="fill: none; stroke-dasharray: 5.55,2.4; stroke-dashoffset: 0; stroke: #808080; stroke-width: 1.5"/>
   </g>
   <g id="patch_3">
    <path d="M 108.664981 336.280446 
L 108.664981 21.44748 
" style="fill: none; stroke: #000000; stroke-width: 0.8; stroke-linejoin: miter; stroke-linecap: square"/>
   </g>
   <g id="patch_4">
    <path d="M 108.664981 336.280446 
L 544.176619 336.280446 
" style="fill: none; stroke: #000000; stroke-width: 0.8; stroke-linejoin: miter; stroke-linecap: square"/>
   </g>
  </g>
 </g>
 <defs>
  <clipPath id="p75c00a33ac">
   <rect x="108.664981" y="21.44748" width="435.511638" height="314.832966"/>
  </clipPath>
 </defs>
</svg>
